<?xml version="1.0" encoding="utf-8"?>
<!-- Generator: Adobe Illustrator 16.0.0, SVG Export Plug-In . SVG Version: 6.00 Build 0)  -->
<!DOCTYPE svg PUBLIC "-//W3C//DTD SVG 1.1//EN" "http://www.w3.org/Graphics/SVG/1.1/DTD/svg11.dtd">
<svg version="1.1" id="Layer_1" xmlns="http://www.w3.org/2000/svg" xmlns:xlink="http://www.w3.org/1999/xlink" x="0px" y="0px"
	 width="100px" height="100px" viewBox="0 0 100 100" enable-background="new 0 0 100 100" xml:space="preserve">
<g id="XMLID_826_">
	<path id="XMLID_836_" fill="#00B8D4" d="M82.941,46.57c-0.273-0.812-1.191-1.472-2.051-1.472H67.934v20.397
		c3.806,0,6.893,3.085,6.893,6.893h12.208V58.743L82.941,46.57z"/>
	<path id="XMLID_835_" fill="#414042" d="M72.54,57.234h11.225c0.429,0,1.111,0.104,1.521,0.231l1.827,0.569L82.941,46.57
		c0,0-0.438-2.058-3.957-1.472h-7.999v10.579C70.985,56.538,71.682,57.234,72.54,57.234z"/>
	<g id="XMLID_812_">
		<path id="XMLID_1221_" fill="#414042" d="M75.634,72.388h-1.615c0-3.355-2.73-6.086-6.085-6.086h-0.807V44.291h13.764v1.615
			H68.741V64.73C72.61,65.134,75.634,68.414,75.634,72.388z"/>
	</g>
	<path id="XMLID_832_" fill="#F1F2F2" d="M88.333,72.273c0,0.318-0.26,0.579-0.577,0.579h-5.46c-0.321,0-0.58-0.261-0.58-0.579
		v-3.119c0-0.319,0.259-0.579,0.58-0.579h5.46c0.317,0,0.577,0.26,0.577,0.579V72.273z"/>
	<g id="XMLID_831_">
		<path id="XMLID_1218_" fill="#414042" d="M87.756,73.659h-5.46c-0.767,0-1.388-0.621-1.388-1.386v-3.119
			c0-0.766,0.621-1.386,1.388-1.386h5.46c0.763,0,1.385,0.62,1.385,1.386v3.119C89.141,73.038,88.519,73.659,87.756,73.659z
			 M82.522,72.045h5.004v-2.662h-5.004V72.045z"/>
	</g>
	<circle id="XMLID_824_" fill="#58595B" cx="40.654" cy="72.853" r="4.821"/>
	<g id="XMLID_823_">
		<path id="XMLID_1215_" fill="#414042" d="M40.655,78.48c-3.104,0-5.629-2.524-5.629-5.628c0-3.105,2.526-5.629,5.629-5.629
			c3.103,0,5.627,2.523,5.627,5.629C46.282,75.956,43.758,78.48,40.655,78.48z M40.655,68.836c-2.213,0-4.015,1.803-4.015,4.017
			c0,2.212,1.802,4.014,4.015,4.014c2.212,0,4.013-1.802,4.013-4.014C44.668,70.639,42.867,68.836,40.655,68.836z"/>
	</g>
	<circle id="XMLID_822_" fill="#F1F2F2" cx="40.656" cy="72.853" r="1.903"/>
	<circle id="XMLID_820_" fill="#58595B" cx="67.934" cy="72.853" r="4.821"/>
	<g id="XMLID_819_">
		<path id="XMLID_1212_" fill="#414042" d="M67.935,78.48c-3.104,0-5.629-2.524-5.629-5.628c0-3.105,2.524-5.629,5.629-5.629
			c3.104,0,5.627,2.523,5.627,5.629C73.562,75.956,71.038,78.48,67.935,78.48z M67.935,68.836c-2.213,0-4.015,1.803-4.015,4.017
			c0,2.212,1.802,4.014,4.015,4.014s4.013-1.802,4.013-4.014C71.947,70.639,70.147,68.836,67.935,68.836z"/>
	</g>
	<circle id="XMLID_818_" fill="#F1F2F2" cx="67.935" cy="72.853" r="1.903"/>
	<path id="XMLID_816_" fill="#58595B" d="M33.509,72.853c0,2.662-2.16,4.82-4.819,4.82c-2.664,0-4.822-2.158-4.822-4.82
		c0-2.663,2.158-4.822,4.822-4.822C31.349,68.03,33.509,70.189,33.509,72.853z"/>
	<g id="XMLID_814_">
		<path id="XMLID_1209_" fill="#414042" d="M28.69,78.48c-3.104,0-5.629-2.524-5.629-5.628c0-3.105,2.526-5.629,5.629-5.629
			c3.103,0,5.626,2.523,5.626,5.629C34.316,75.956,31.793,78.48,28.69,78.48z M28.69,68.836c-2.213,0-4.016,1.803-4.016,4.017
			c0,2.212,1.803,4.014,4.016,4.014c2.212,0,4.013-1.802,4.013-4.014C32.703,70.639,30.902,68.836,28.69,68.836z"/>
	</g>
	<circle id="XMLID_811_" fill="#F1F2F2" cx="28.69" cy="72.853" r="1.903"/>
	<g id="XMLID_815_">
		<rect id="XMLID_1208_" x="47.616" y="68.067" fill="#414042" width="17.168" height="1.614"/>
	</g>
	<g id="XMLID_813_">
		<path id="XMLID_1207_" fill="#414042" d="M48.514,72.95H46.9v-1.238c0-2.8-2.278-5.076-5.077-5.076H27.397
			c-2.799,0-5.077,2.276-5.077,5.076h-1.615c0-3.69,3.002-6.691,6.692-6.691h14.426c3.689,0,6.691,3.001,6.691,6.691V72.95z"/>
	</g>
	<g id="XMLID_821_">
		<polygon id="XMLID_1206_" fill="#414042" points="65.664,65.344 18.175,65.344 18.175,63.729 64.049,63.729 64.049,37.041 
			65.664,37.041 		"/>
	</g>
	<g id="XMLID_807_">
		
			<rect id="XMLID_1205_" x="67.776" y="39.498" transform="matrix(0.7639 0.6454 -0.6454 0.7639 43.7006 -38.8239)" fill="#414042" width="14.256" height="1.615"/>
	</g>
	<g id="XMLID_806_">
		<rect id="XMLID_1204_" x="72.215" y="38.977" fill="#414042" width="1.615" height="4.986"/>
	</g>
	<g id="XMLID_825_">
		<rect id="XMLID_1203_" x="17.852" y="79.013" fill="#414042" width="71.988" height="1.614"/>
	</g>
	<g id="XMLID_910_">
		<rect id="XMLID_804_" x="52.606" y="29.532" fill="#414042" width="6.53" height="1.615"/>
	</g>
	<g id="XMLID_563_">
		<g id="XMLID_475_">
			<g id="XMLID_587_">
				<rect id="XMLID_1144_" x="53.057" y="34.007" fill="#414042" width="3.097" height="1.169"/>
			</g>
			<g id="XMLID_572_">
				<rect id="XMLID_1143_" x="54.02" y="33.043" fill="#414042" width="1.169" height="3.098"/>
			</g>
		</g>
		<g id="XMLID_647_">
			<g id="XMLID_649_">
				<rect id="XMLID_1142_" x="25.186" y="34.007" fill="#414042" width="3.097" height="1.169"/>
			</g>
			<g id="XMLID_648_">
				<rect id="XMLID_1141_" x="26.151" y="33.043" fill="#414042" width="1.168" height="3.098"/>
			</g>
		</g>
		<g id="XMLID_607_">
			<g id="XMLID_618_">
				<rect id="XMLID_1140_" x="48.066" y="25.912" fill="#414042" width="4.331" height="1.168"/>
			</g>
			<g id="XMLID_617_">
				<rect id="XMLID_1139_" x="49.647" y="24.331" fill="#414042" width="1.168" height="4.33"/>
			</g>
		</g>
		<g id="XMLID_651_">
			<g id="XMLID_653_">
				<rect id="XMLID_1138_" x="29.855" y="23.747" fill="#414042" width="4.331" height="1.169"/>
			</g>
			<g id="XMLID_652_">
				<rect id="XMLID_1137_" x="31.437" y="22.165" fill="#414042" width="1.169" height="4.332"/>
			</g>
		</g>
		<g id="XMLID_619_">
			<g id="XMLID_627_">
				<rect id="XMLID_1136_" x="38.397" y="27.673" fill="#414042" width="3.523" height="1.169"/>
			</g>
			<g id="XMLID_626_">
				<rect id="XMLID_1135_" x="39.576" y="26.496" fill="#414042" width="1.169" height="3.523"/>
			</g>
		</g>
		<g id="XMLID_654_">
			<path id="XMLID_1132_" fill="#414042" d="M57.322,29.789c-0.975,0-1.766-0.792-1.766-1.767c0-0.975,0.791-1.768,1.766-1.768
				s1.768,0.793,1.768,1.768C59.09,28.997,58.297,29.789,57.322,29.789z M57.322,27.423c-0.33,0-0.598,0.27-0.598,0.599
				s0.268,0.598,0.598,0.598c0.329,0,0.599-0.269,0.599-0.598S57.651,27.423,57.322,27.423z"/>
		</g>
		<g id="XMLID_655_">
			<path id="XMLID_1129_" fill="#414042" d="M41.921,21.005c-0.973,0-1.767-0.792-1.767-1.767c0-0.975,0.793-1.767,1.767-1.767
				c0.975,0,1.769,0.792,1.769,1.767C43.689,20.213,42.896,21.005,41.921,21.005z M41.921,18.64c-0.33,0-0.598,0.268-0.598,0.598
				c0,0.33,0.268,0.599,0.598,0.599c0.33,0,0.6-0.269,0.6-0.599C42.521,18.908,42.251,18.64,41.921,18.64z"/>
		</g>
		<g id="XMLID_656_">
			<path id="XMLID_1126_" fill="#414042" d="M25.186,29.042c-0.974,0-1.767-0.792-1.767-1.767s0.793-1.768,1.767-1.768
				c0.975,0,1.768,0.793,1.768,1.768S26.16,29.042,25.186,29.042z M25.186,26.676c-0.329,0-0.598,0.27-0.598,0.599
				s0.27,0.598,0.598,0.598c0.331,0,0.599-0.269,0.599-0.598S25.517,26.676,25.186,26.676z"/>
		</g>
		<rect id="XMLID_455_" x="22.056" y="39.202" fill="#3677A2" width="37.195" height="23.353"/>
		<g id="XMLID_453_">
			<path id="XMLID_1145_" fill="#414042" d="M59.836,63.14H21.472V38.617h38.364V63.14z M22.64,61.971h36.027V39.786H22.64V61.971z"
				/>
		</g>
		<g id="XMLID_451_">
			<path id="XMLID_1122_" fill="#414042" d="M40.653,38.78l-0.238-0.107c-0.399-0.178-3.894-1.808-3.894-4.081
				c0-2.28,1.854-4.133,4.132-4.133c2.279,0,4.134,1.853,4.134,4.133c0,2.273-3.496,3.903-3.895,4.081L40.653,38.78z M40.653,31.627
				c-1.635,0-2.963,1.33-2.963,2.964c0,1.183,1.99,2.417,2.963,2.901c0.972-0.485,2.965-1.722,2.965-2.901
				C43.619,32.957,42.288,31.627,40.653,31.627z"/>
		</g>
		<g id="XMLID_448_">
			
				<rect id="XMLID_1121_" x="44.859" y="31.127" transform="matrix(0.4795 0.8775 -0.8775 0.4795 55.7554 -20.836)" fill="#414042" width="1.168" height="10.915"/>
		</g>
		<g id="XMLID_447_">
			
				<rect id="XMLID_1120_" x="30.198" y="36" transform="matrix(0.8775 0.4795 -0.4795 0.8775 21.9105 -12.6176)" fill="#414042" width="10.916" height="1.168"/>
		</g>
		<g>
			<polygon fill="#FFFFFF" points="46.564,52.022 46.564,54.434 40.752,57.791 34.94,54.434 34.94,52.022 32.856,50.818 
				32.856,55.638 40.752,60.196 48.649,55.638 48.649,50.818 			"/>
			<polygon fill="#FFFFFF" points="44.475,53.228 40.752,51.08 37.029,53.228 40.752,55.376 			"/>
			<polygon fill="#FFFFFF" points="40.752,47.539 31.804,42.373 31.804,47.813 40.752,52.981 49.7,47.813 49.7,42.373 			"/>
			<polygon fill="#FFFFFF" points="40.752,47.539 30.763,41.772 30.763,44.818 40.752,50.587 50.743,44.818 50.743,41.772 			"/>
			<polygon fill="#FFFFFF" stroke="#1C75BC" stroke-width="0.25" stroke-miterlimit="10" points="41.956,46.835 40.744,46.13 
				39.519,46.835 30.746,41.772 30.746,44.818 40.727,50.587 50.708,44.818 50.708,41.772 			"/>
			<polygon fill="#FFFFFF" points="39.714,44.464 40.752,43.864 41.792,44.464 43.865,43.267 40.752,41.471 37.641,43.267 			"/>
		</g>
	</g>
</g>
<g>
	<g>
		<path fill="#231F20" d="M76.547,25.579c-0.181,0-0.325-0.146-0.325-0.324v-1.298c0-0.18,0.146-0.325,0.325-0.325
			s0.323,0.145,0.323,0.325v1.298C76.87,25.433,76.726,25.579,76.547,25.579z"/>
	</g>
	<g>
		<path fill="#231F20" d="M79.47,27.362h-0.002l-1.672-0.166c-0.18-0.002-0.324-0.065-0.323-0.244c0.001-0.18,0.146-0.24,0.325-0.24
			h0.001l1.672-0.151c0.181,0.001,0.325,0.224,0.323,0.402C79.792,27.14,79.649,27.362,79.47,27.362z"/>
	</g>
	<g>
		<path fill="#231F20" d="M76.423,29.958c-0.001,0-0.002,0-0.003,0c-0.181,0-0.323-0.09-0.321-0.271l0.018-1.643
			c0.002-0.178,0.146-0.299,0.328-0.307c0.18,0.002,0.324,0.156,0.322,0.336l-0.02,1.617C76.747,29.868,76.601,29.958,76.423,29.958
			z"/>
	</g>
	<g>
		<path fill="#231F20" d="M75.083,27.362c-0.002,0-0.002,0-0.006,0l-1.672-0.188c-0.179-0.003-0.322-0.059-0.318-0.236
			c0.003-0.178,0.146-0.227,0.324-0.227c0.002,0,0.004,0,0.006,0l1.672-0.146c0.18,0.004,0.322,0.225,0.318,0.403
			C75.405,27.145,75.261,27.362,75.083,27.362z"/>
	</g>
</g>
<g>
	<g>
		<path fill="#231F20" d="M82.427,30.86c-0.075,0-0.137-0.06-0.137-0.135v-0.54c0-0.075,0.062-0.135,0.137-0.135
			c0.074,0,0.135,0.062,0.135,0.135v0.54C82.562,30.8,82.501,30.86,82.427,30.86z"/>
	</g>
	<g>
		<path fill="#231F20" d="M83.616,31.536L83.616,31.536L82.921,31.5c-0.075,0-0.135-0.043-0.135-0.118
			c0-0.074,0.061-0.116,0.135-0.116h0.001l0.696-0.03c0.074,0,0.135,0.076,0.135,0.151C83.752,31.461,83.692,31.536,83.616,31.536z"
			/>
	</g>
	<g>
		<path fill="#231F20" d="M82.35,32.616C82.349,32.616,82.349,32.616,82.35,32.616c-0.075,0-0.136-0.004-0.136-0.08l0.008-0.668
			c0.002-0.073,0.062-0.114,0.137-0.118c0.076,0,0.135,0.069,0.135,0.144l-0.008,0.643C82.483,32.61,82.424,32.616,82.35,32.616z"/>
	</g>
	<g>
		<path fill="#231F20" d="M81.792,31.536H81.79l-0.695-0.045c-0.074-0.002-0.134-0.041-0.133-0.115
			c0.002-0.074,0.062-0.11,0.135-0.11c0.001,0,0.002,0,0.002,0l0.696-0.028c0.073,0.002,0.134,0.078,0.132,0.151
			C81.927,31.463,81.866,31.536,81.792,31.536z"/>
	</g>
</g>
<g>
	<g>
		<path fill="#231F20" d="M25.097,76.485c-0.103,0-0.186-0.084-0.186-0.187v-0.747c0-0.103,0.083-0.186,0.186-0.186
			s0.187,0.083,0.187,0.186v0.747C25.283,76.401,25.199,76.485,25.097,76.485z"/>
	</g>
	<g>
		<path fill="#231F20" d="M26.743,77.419L26.743,77.419l-0.963-0.052c-0.101,0-0.186-0.059-0.184-0.161
			c0-0.102,0.085-0.158,0.187-0.158l0,0l0.963-0.043c0.103,0,0.186,0.104,0.184,0.207C26.929,77.316,26.845,77.419,26.743,77.419z"
			/>
	</g>
	<g>
		<path fill="#231F20" d="M24.992,78.91C24.99,78.91,24.99,78.91,24.992,78.91c-0.105,0-0.189-0.008-0.186-0.11l0.011-0.92
			c0-0.105,0.083-0.159,0.188-0.164c0.104,0,0.188,0.094,0.185,0.198l-0.011,0.889C25.178,78.902,25.094,78.91,24.992,78.91z"/>
	</g>
	<g>
		<path fill="#231F20" d="M24.22,77.419c0,0,0,0-0.003,0l-0.96-0.062c-0.103-0.003-0.183-0.057-0.183-0.159
			c0.002-0.101,0.086-0.149,0.188-0.149c0.001,0,0.001,0,0.002,0l0.962-0.041c0.103,0.005,0.185,0.105,0.183,0.211
			C24.406,77.316,24.323,77.419,24.22,77.419z"/>
	</g>
</g>
<g>
	<g>
		<path fill="#231F20" d="M11.794,70.452c-0.159,0-0.289-0.13-0.289-0.289v-1.151c0-0.156,0.129-0.286,0.289-0.286
			s0.286,0.13,0.286,0.286v1.151C12.08,70.322,11.954,70.452,11.794,70.452z"/>
	</g>
	<g>
		<path fill="#231F20" d="M14.332,71.89C14.33,71.89,14.33,71.89,14.332,71.89l-1.485-0.075c-0.159-0.003-0.286-0.028-0.286-0.187
			c0.002-0.159,0.129-0.183,0.289-0.183h0.001l1.482-0.131c0.159,0,0.289,0.131,0.287,0.288
			C14.619,71.762,14.489,71.89,14.332,71.89z"/>
	</g>
	<g>
		<path fill="#231F20" d="M11.63,73.916c0,0,0,0-0.003,0c-0.159,0-0.286,0.127-0.285-0.032l0.016-1.352
			c0.003-0.159,0.131-0.213,0.29-0.219c0.161,0,0.289,0.165,0.286,0.321l-0.016,1.241C11.916,74.032,11.789,73.916,11.63,73.916z"/>
	</g>
	<g>
		<path fill="#231F20" d="M10.443,72.341c-0.003,0-0.003,0-0.005,0L8.956,72.02c-0.159-0.003-0.286-0.132-0.283-0.291
			c0.003-0.159,0.13-0.283,0.289-0.283h0.002l1.484-0.124c0.158,0.002,0.286,0.353,0.283,0.512
			C10.729,71.992,10.599,72.341,10.443,72.341z"/>
	</g>
</g>
<g>
	<g>
		<path fill="#231F20" d="M15.183,83.834c-0.198,0-0.448-0.159-0.448-0.359v-1.427c0-0.197,0.251-0.356,0.448-0.356
			c0.198,0,0.448,0.159,0.448,0.356v1.427C15.63,83.675,15.381,83.834,15.183,83.834z"/>
	</g>
	<g>
		<path fill="#231F20" d="M18.312,85.688C18.311,85.688,18.311,85.688,18.312,85.688l-1.841-0.13
			c-0.198-0.003-0.357-0.188-0.354-0.386c0.002-0.197,0.159-0.381,0.356-0.381h0.003l1.84-0.023
			c0.197,0.002,0.356,0.264,0.354,0.464C18.667,85.426,18.509,85.688,18.312,85.688z"/>
	</g>
	<g>
		<path fill="#231F20" d="M14.961,88.377c0,0,0,0-0.002,0c-0.199,0-0.356,0.035-0.354-0.165l0.019-1.737
			c0.005-0.196,0.162-0.294,0.362-0.302c0.2,0.003,0.359,0.187,0.354,0.386l-0.021,1.649C15.317,88.406,15.158,88.377,14.961,88.377
			z"/>
	</g>
	<g>
		<path fill="#231F20" d="M13.49,85.688c-0.001,0-0.004,0-0.007,0l-1.837-0.154c-0.197-0.003-0.354-0.181-0.351-0.376
			c0.002-0.195,0.162-0.366,0.356-0.366c0.002,0,0.005,0,0.005,0l1.84-0.019c0.197,0.006,0.354,0.265,0.351,0.464
			C13.845,85.431,13.683,85.688,13.49,85.688z"/>
	</g>
</g>
</svg>
