<?xml version="1.0" encoding="utf-8"?>
<!-- Generator: Adobe Illustrator 16.0.0, SVG Export Plug-In . SVG Version: 6.00 Build 0)  -->
<!DOCTYPE svg PUBLIC "-//W3C//DTD SVG 1.1//EN" "http://www.w3.org/Graphics/SVG/1.1/DTD/svg11.dtd">
<svg version="1.1" id="Layer_1" xmlns="http://www.w3.org/2000/svg" xmlns:xlink="http://www.w3.org/1999/xlink" x="0px" y="0px"
	 width="100px" height="100px" viewBox="0 0 100 100" enable-background="new 0 0 100 100" xml:space="preserve">
<g id="XMLID_468_">
	<g id="XMLID_488_">
		<path fill="#00B8D4" d="M78.571,85.584H22.205c-0.989,0-1.799-0.811-1.799-1.8V44.281c0-0.989,0.81-1.799,1.799-1.799h56.366
			c0.991,0,1.799,0.81,1.799,1.799v39.503C80.37,84.773,79.562,85.584,78.571,85.584z"/>
	</g>
	<g id="XMLID_487_">
		<path id="XMLID_1462_" fill="#414042" d="M78.88,86.933H21.896c-1.566,0-2.84-1.273-2.84-2.839V54.768h2.699v29.326
			c0,0.074,0.067,0.141,0.141,0.141H78.88c0.073,0,0.142-0.066,0.142-0.141V54.768h2.698v29.326
			C81.72,85.659,80.446,86.933,78.88,86.933z"/>
	</g>
	<g id="XMLID_486_">
		<rect x="23.318" y="45.873" fill="#FFFFFF" width="53.816" height="34.978"/>
	</g>
	<g id="XMLID_485_">
		<path fill="#F1F2F2" d="M79.322,87.977H20.793c-1.406,0-2.604-1.017-2.832-2.405l-0.417-2.542h27.128l1.038,1.49h7.494l1.123-1.49
			h28.578l-0.362,2.212C82.285,86.818,80.922,87.977,79.322,87.977z"/>
	</g>
	<g id="XMLID_484_">
		<path id="XMLID_1451_" fill="#414042" d="M79.322,89.326H20.793c-2.076,0-3.827-1.486-4.163-3.537l-0.673-4.109h29.42l1.038,1.49
			h6.119l1.121-1.49h30.839l-0.619,3.778C83.508,87.701,81.594,89.326,79.322,89.326z M19.133,84.379l0.16,0.975
			c0.121,0.738,0.752,1.273,1.5,1.273h58.529c0.942,0,1.736-0.674,1.89-1.604l0.105-0.645H55.001l-1.121,1.489h-8.874l-1.038-1.489
			H19.133z"/>
	</g>
	<g id="XMLID_482_">
		<path fill="#FFFFFF" d="M76.905,37.501h-0.264c-1.163-4.01-4.856-6.942-9.24-6.942c-1.914,0-3.692,0.566-5.192,1.529
			c-0.973-6.317-6.414-11.158-13.004-11.158c-5.913,0-10.917,3.897-12.583,9.262c-0.75-0.202-1.536-0.318-2.35-0.318
			c-4.513,0-8.244,3.307-8.928,7.628h-1.474c-3.716,0-6.756,3.04-6.756,6.756v0.497c0,3.716,3.04,6.757,6.756,6.757h53.035
			c3.716,0,6.757-3.041,6.757-6.757v-0.497C83.662,40.541,80.621,37.501,76.905,37.501z"/>
	</g>
	<g id="XMLID_481_">
		<path id="XMLID_1450_" fill="#414042" d="M76.905,52.86H66.67v-2.7h10.235c2.981,0,5.407-2.424,5.407-5.406v-0.497
			c0-2.982-2.426-5.407-5.407-5.407h-1.278l-0.282-0.973c-1.02-3.515-4.285-5.969-7.943-5.969c-1.58,0-3.122,0.455-4.462,1.314
			l-1.748,1.123l-0.314-2.052c-0.895-5.802-5.802-10.014-11.672-10.014c-5.21,0-9.75,3.341-11.294,8.313l-0.386,1.241l-1.253-0.338
			c-4.545-1.229-8.897,1.809-9.595,6.217l-0.18,1.139h-2.626c-2.981,0-5.406,2.425-5.406,5.407v0.497
			c0,2.982,2.425,5.406,5.406,5.406h9.474v2.7h-9.474c-4.469,0-8.105-3.636-8.105-8.106v-0.497c0-4.47,3.637-8.106,8.105-8.106
			h0.385c1.351-4.942,6.214-8.29,11.491-7.519c2.208-5.462,7.473-9.052,13.459-9.052c6.583,0,12.185,4.313,13.944,10.492
			c1.341-0.568,2.784-0.863,4.252-0.863c4.517,0,8.585,2.822,10.215,6.974c4.139,0.36,7.396,3.844,7.396,8.074v0.497
			C85.013,49.224,81.375,52.86,76.905,52.86z"/>
	</g>
	<g id="XMLID_480_">
		<path id="XMLID_475_" fill="#414042" d="M56.654,31.755c-1.785-2.75-4.802-4.391-8.07-4.391c-1.729,0-3.425,0.464-4.906,1.342
			l-1.375-2.323c1.896-1.124,4.068-1.718,6.281-1.718c4.186,0,8.052,2.101,10.333,5.621L56.654,31.755z"/>
	</g>
	<g id="XMLID_479_">
		<path id="XMLID_472_" fill="#414042" d="M40.479,34.522h-2.699c0-1.841-1.499-3.34-3.34-3.34v-2.699
			C37.771,28.483,40.479,31.192,40.479,34.522z"/>
	</g>
	<g>
		<path fill="#3677A2" d="M50.391,67.854c-8.317,0-15.086-6.766-15.086-15.082c0-8.319,6.769-15.085,15.086-15.085
			c8.316,0,15.083,6.767,15.083,15.085C65.474,61.087,58.707,67.854,50.391,67.854z"/>
		<g>
			<path fill="#231F20" d="M50.391,68.23c-8.524,0-15.462-6.936-15.462-15.459c0-8.526,6.938-15.462,15.462-15.462
				S65.85,44.245,65.85,52.771C65.85,61.296,58.915,68.23,50.391,68.23z M50.391,38.062c-8.108,0-14.709,6.599-14.709,14.709
				c0,8.108,6.601,14.705,14.709,14.705c8.109,0,14.707-6.597,14.707-14.705C65.098,44.661,58.5,38.062,50.391,38.062z"/>
		</g>
		<g>
			<g>
				<path id="SVGID_2_" fill="#FFFFFF" d="M63.369,52.771c0,7.166-5.812,12.978-12.979,12.978c-7.169,0-12.979-5.812-12.979-12.978
					c0-7.169,5.81-12.979,12.979-12.979C57.557,39.792,63.369,45.602,63.369,52.771z"/>
			</g>
			<g>
				<defs>
					<circle id="SVGID_3_" cx="50.39" cy="52.771" r="12.979"/>
				</defs>
				<clipPath id="SVGID_4_">
					<use xlink:href="#SVGID_3_"  overflow="visible"/>
				</clipPath>
				<rect x="36.274" y="52.134" clip-path="url(#SVGID_4_)" fill="#231F20" width="18.549" height="0.638"/>
			</g>
			<g>
				<defs>
					<circle id="SVGID_5_" cx="50.39" cy="52.771" r="12.979"/>
				</defs>
				<clipPath id="SVGID_6_">
					<use xlink:href="#SVGID_5_"  overflow="visible"/>
				</clipPath>
				<rect x="36.274" y="54.206" clip-path="url(#SVGID_6_)" fill="#231F20" width="21.694" height="0.707"/>
			</g>
			<g>
				<defs>
					<circle id="SVGID_7_" cx="50.39" cy="52.771" r="12.979"/>
				</defs>
				<clipPath id="SVGID_8_">
					<use xlink:href="#SVGID_7_"  overflow="visible"/>
				</clipPath>
				<rect x="36.274" y="62.004" clip-path="url(#SVGID_8_)" fill="#231F20" width="21.694" height="0.521"/>
			</g>
			<g>
				<defs>
					<circle id="SVGID_9_" cx="50.39" cy="52.771" r="12.979"/>
				</defs>
				<clipPath id="SVGID_10_">
					<use xlink:href="#SVGID_9_"  overflow="visible"/>
				</clipPath>
				<rect x="36.274" y="64.758" clip-path="url(#SVGID_10_)" fill="#231F20" width="12.883" height="0.625"/>
			</g>
			<g>
				<defs>
					<circle id="SVGID_11_" cx="50.39" cy="52.771" r="12.979"/>
				</defs>
				<clipPath id="SVGID_12_">
					<use xlink:href="#SVGID_11_"  overflow="visible"/>
				</clipPath>
				<rect x="51.489" y="64.758" clip-path="url(#SVGID_12_)" fill="#231F20" width="24.98" height="0.625"/>
			</g>
			<g>
				<defs>
					<circle id="SVGID_13_" cx="50.39" cy="52.771" r="12.979"/>
				</defs>
				<clipPath id="SVGID_14_">
					<use xlink:href="#SVGID_13_"  overflow="visible"/>
				</clipPath>
				<rect x="60.567" y="61.482" clip-path="url(#SVGID_14_)" fill="#2D4255" width="10.251" height="1.041"/>
			</g>
			<g>
				<defs>
					<circle id="SVGID_15_" cx="50.39" cy="52.771" r="12.979"/>
				</defs>
				<clipPath id="SVGID_16_">
					<use xlink:href="#SVGID_15_"  overflow="visible"/>
				</clipPath>
				<rect x="72.812" y="61.482" clip-path="url(#SVGID_16_)" fill="#2D4255" width="7.326" height="1.041"/>
			</g>
			<g>
				<defs>
					<circle id="SVGID_17_" cx="50.39" cy="52.771" r="12.979"/>
				</defs>
				<clipPath id="SVGID_18_">
					<use xlink:href="#SVGID_17_"  overflow="visible"/>
				</clipPath>
				<rect x="36.274" y="57.549" clip-path="url(#SVGID_18_)" fill="#231F20" width="12.883" height="0.917"/>
			</g>
			<g>
				<defs>
					<circle id="SVGID_19_" cx="50.39" cy="52.771" r="12.979"/>
				</defs>
				<clipPath id="SVGID_20_">
					<use xlink:href="#SVGID_19_"  overflow="visible"/>
				</clipPath>
				<rect x="55.446" y="52.134" clip-path="url(#SVGID_20_)" fill="#231F20" width="5.119" height="0.638"/>
			</g>
			<g>
				<defs>
					<circle id="SVGID_21_" cx="50.39" cy="52.771" r="12.979"/>
				</defs>
				<clipPath id="SVGID_22_">
					<use xlink:href="#SVGID_21_"  overflow="visible"/>
				</clipPath>
				<rect x="62.547" y="52.134" clip-path="url(#SVGID_22_)" fill="#231F20" width="5.121" height="0.638"/>
			</g>
			<g>
				<defs>
					<circle id="SVGID_23_" cx="50.39" cy="52.771" r="12.979"/>
				</defs>
				<clipPath id="SVGID_24_">
					<use xlink:href="#SVGID_23_"  overflow="visible"/>
				</clipPath>
				<rect x="36.473" y="39.204" clip-path="url(#SVGID_24_)" fill="#231F20" width="21.695" height="1.041"/>
			</g>
			<g>
				<defs>
					<circle id="SVGID_25_" cx="50.39" cy="52.771" r="12.979"/>
				</defs>
				<clipPath id="SVGID_26_">
					<use xlink:href="#SVGID_25_"  overflow="visible"/>
				</clipPath>
				<rect x="36.473" y="46.663" clip-path="url(#SVGID_26_)" fill="#231F20" width="21.695" height="0.716"/>
			</g>
			<g>
				<defs>
					<circle id="SVGID_27_" cx="50.39" cy="52.771" r="12.979"/>
				</defs>
				<clipPath id="SVGID_28_">
					<use xlink:href="#SVGID_27_"  overflow="visible"/>
				</clipPath>
				<rect x="60.049" y="46.663" clip-path="url(#SVGID_28_)" fill="#231F20" width="4.031" height="0.716"/>
			</g>
			<g>
				<defs>
					<circle id="SVGID_29_" cx="50.39" cy="52.771" r="12.979"/>
				</defs>
				<clipPath id="SVGID_30_">
					<use xlink:href="#SVGID_29_"  overflow="visible"/>
				</clipPath>
				<rect x="36.473" y="49.646" clip-path="url(#SVGID_30_)" fill="#231F20" width="12.886" height="0.734"/>
			</g>
			<g>
				<defs>
					<circle id="SVGID_31_" cx="50.39" cy="52.771" r="12.979"/>
				</defs>
				<clipPath id="SVGID_32_">
					<use xlink:href="#SVGID_31_"  overflow="visible"/>
				</clipPath>
				<rect x="51.694" y="49.646" clip-path="url(#SVGID_32_)" fill="#231F20" width="24.979" height="0.734"/>
			</g>
			<g>
				<defs>
					<circle id="SVGID_33_" cx="50.39" cy="52.771" r="12.979"/>
				</defs>
				<clipPath id="SVGID_34_">
					<use xlink:href="#SVGID_33_"  overflow="visible"/>
				</clipPath>
				<rect x="73.01" y="46.479" clip-path="url(#SVGID_34_)" fill="#2D4255" width="7.332" height="1.041"/>
			</g>
			<g>
				<defs>
					<circle id="SVGID_35_" cx="50.39" cy="52.771" r="12.979"/>
				</defs>
				<clipPath id="SVGID_36_">
					<use xlink:href="#SVGID_35_"  overflow="visible"/>
				</clipPath>
				<rect x="36.473" y="42.546" clip-path="url(#SVGID_36_)" fill="#231F20" width="12.886" height="0.917"/>
			</g>
		</g>
	</g>
</g>
<g>
	<g>
		<g>
			<path fill="#231F20" d="M155.887,21.215c-0.181,0-0.325-0.145-0.325-0.324v-1.298c0-0.18,0.146-0.325,0.325-0.325
				s0.323,0.145,0.323,0.325v1.298C156.21,21.07,156.065,21.215,155.887,21.215z"/>
		</g>
		<g>
			<path fill="#231F20" d="M158.81,22.999h-0.002l-1.672-0.166c-0.18-0.001-0.324-0.065-0.323-0.244
				c0.001-0.179,0.146-0.24,0.325-0.24h0.001l1.672-0.151c0.181,0.001,0.325,0.223,0.323,0.402
				C159.132,22.777,158.989,22.999,158.81,22.999z"/>
		</g>
		<g>
			<path fill="#231F20" d="M155.763,25.595c-0.001,0-0.002,0-0.003,0c-0.181,0-0.323-0.09-0.321-0.271l0.018-1.643
				c0.002-0.178,0.146-0.298,0.328-0.306c0.18,0.002,0.324,0.156,0.322,0.335l-0.02,1.618
				C156.087,25.504,155.94,25.595,155.763,25.595z"/>
		</g>
		<g>
			<path fill="#231F20" d="M154.423,22.999c-0.002,0-0.002,0-0.006,0l-1.672-0.187c-0.179-0.003-0.322-0.058-0.318-0.237
				c0.003-0.177,0.146-0.226,0.324-0.226c0.002,0,0.004,0,0.006,0l1.672-0.146c0.18,0.004,0.322,0.224,0.318,0.403
				C154.745,22.783,154.601,22.999,154.423,22.999z"/>
		</g>
	</g>
	<g>
		<g>
			<path fill="#231F20" d="M161.767,26.498c-0.075,0-0.137-0.06-0.137-0.135v-0.54c0-0.075,0.062-0.135,0.137-0.135
				c0.074,0,0.135,0.061,0.135,0.135v0.54C161.901,26.438,161.841,26.498,161.767,26.498z"/>
		</g>
		<g>
			<path fill="#231F20" d="M162.956,27.172L162.956,27.172l-0.695-0.036c-0.075,0-0.135-0.043-0.135-0.118
				c0-0.074,0.061-0.116,0.135-0.116h0.001l0.696-0.03c0.074,0,0.135,0.076,0.135,0.151
				C163.092,27.099,163.032,27.172,162.956,27.172z"/>
		</g>
		<g>
			<path fill="#231F20" d="M161.689,28.252C161.688,28.252,161.688,28.252,161.689,28.252c-0.075,0-0.136-0.004-0.136-0.08
				l0.008-0.667c0.002-0.074,0.062-0.115,0.137-0.119c0.076,0,0.135,0.069,0.135,0.144l-0.008,0.642
				C161.823,28.248,161.764,28.252,161.689,28.252z"/>
		</g>
		<g>
			<path fill="#231F20" d="M161.132,27.172h-0.002l-0.695-0.045c-0.074-0.001-0.134-0.04-0.133-0.115
				c0.002-0.074,0.062-0.11,0.135-0.11c0.001,0,0.002,0,0.002,0l0.696-0.028c0.073,0.001,0.134,0.077,0.132,0.151
				C161.267,27.101,161.206,27.172,161.132,27.172z"/>
		</g>
	</g>
	<g>
		<g>
			<path fill="#231F20" d="M128.011,73.235c-0.074,0-0.136-0.061-0.136-0.135V72.56c0-0.074,0.062-0.135,0.136-0.135
				c0.075,0,0.135,0.061,0.135,0.135v0.541C128.146,73.175,128.086,73.235,128.011,73.235z"/>
		</g>
		<g>
			<path fill="#231F20" d="M129.203,73.911L129.203,73.911l-0.697-0.037c-0.074,0-0.135-0.043-0.135-0.117
				c0.002-0.073,0.062-0.114,0.137-0.114l0,0l0.695-0.031c0.075,0,0.135,0.076,0.135,0.15
				C129.336,73.837,129.276,73.911,129.203,73.911z"/>
		</g>
		<g>
			<path fill="#231F20" d="M127.935,74.991C127.934,74.991,127.934,74.991,127.935,74.991c-0.076,0-0.136-0.006-0.136-0.08
				l0.009-0.666c0-0.076,0.062-0.115,0.136-0.119c0.075,0,0.135,0.068,0.135,0.144l-0.009,0.644
				C128.069,74.985,128.009,74.991,127.935,74.991z"/>
		</g>
		<g>
			<path fill="#231F20" d="M127.377,73.911c-0.002,0-0.002,0-0.004,0l-0.694-0.045c-0.074-0.002-0.134-0.041-0.132-0.115
				c0-0.073,0.062-0.108,0.135-0.108c0.001,0,0.001,0,0.002,0l0.695-0.029c0.074,0.002,0.135,0.076,0.134,0.152
				C127.511,73.837,127.451,73.911,127.377,73.911z"/>
		</g>
	</g>
	<g>
		<g>
			<path fill="#231F20" d="M118.379,70.315c-0.114,0-0.209-0.094-0.209-0.209v-0.834c0-0.113,0.095-0.207,0.209-0.207
				c0.115,0,0.209,0.094,0.209,0.207v0.834C118.588,70.222,118.496,70.315,118.379,70.315z"/>
		</g>
		<g>
			<path fill="#231F20" d="M120.217,71.356C120.215,71.356,120.215,71.356,120.217,71.356l-1.075-0.055
				c-0.115-0.002-0.207-0.021-0.207-0.135c0.002-0.115,0.094-0.133,0.209-0.133h0.001l1.073-0.095c0.114,0,0.209,0.095,0.208,0.209
				C120.424,71.264,120.332,71.356,120.217,71.356z"/>
		</g>
		<g>
			<path fill="#231F20" d="M118.261,72.823c0,0,0,0-0.002,0c-0.115,0-0.207,0.092-0.206-0.022l0.012-0.979
				c0.002-0.115,0.094-0.154,0.21-0.158c0.116,0,0.209,0.119,0.207,0.232l-0.012,0.898
				C118.468,72.907,118.375,72.823,118.261,72.823z"/>
		</g>
		<g>
			<path fill="#231F20" d="M117.401,71.683c-0.002,0-0.002,0-0.004,0l-1.073-0.232c-0.113-0.002-0.205-0.096-0.203-0.211
				s0.094-0.205,0.207-0.205c0.002,0,0.002,0,0.004,0l1.074-0.09c0.113,0.002,0.207,0.256,0.204,0.371
				C117.608,71.431,117.515,71.683,117.401,71.683z"/>
		</g>
	</g>
	<g>
		<g>
			<path fill="#231F20" d="M120.832,80.728c-0.143,0-0.323-0.115-0.323-0.26v-1.033c0-0.143,0.182-0.258,0.323-0.258
				c0.145,0,0.324,0.115,0.324,0.258v1.033C121.158,80.612,120.977,80.728,120.832,80.728z"/>
		</g>
		<g>
			<path fill="#231F20" d="M123.099,82.069C123.098,82.069,123.098,82.069,123.099,82.069l-1.333-0.094
				c-0.145-0.002-0.258-0.137-0.257-0.279c0.002-0.143,0.116-0.275,0.258-0.275h0.002l1.332-0.018
				c0.144,0.002,0.258,0.191,0.257,0.336C123.355,81.88,123.242,82.069,123.099,82.069z"/>
		</g>
		<g>
			<path fill="#231F20" d="M120.672,84.017c0,0,0,0-0.002,0c-0.143,0-0.258,0.025-0.256-0.119l0.015-1.258
				c0.004-0.143,0.116-0.213,0.262-0.219c0.146,0.002,0.259,0.135,0.257,0.279l-0.016,1.194
				C120.931,84.038,120.815,84.017,120.672,84.017z"/>
		</g>
		<g>
			<path fill="#231F20" d="M119.607,82.069c-0.001,0-0.003,0-0.005,0l-1.33-0.111c-0.142-0.002-0.256-0.131-0.254-0.272
				s0.117-0.265,0.258-0.265c0.002,0,0.003,0,0.005,0l1.332-0.014c0.143,0.004,0.256,0.191,0.254,0.336
				C119.863,81.884,119.748,82.069,119.607,82.069z"/>
		</g>
	</g>
	<g>
		<g>
			<rect x="114.017" y="56.752" fill="#231F20" width="13.633" height="0.649"/>
		</g>
		<g>
			<rect x="128.297" y="56.752" fill="#231F20" width="5.844" height="0.649"/>
		</g>
		<g>
			<rect x="134.789" y="56.752" fill="#231F20" width="10.387" height="0.649"/>
		</g>
		<g>
			<rect x="108.824" y="59.999" fill="#231F20" width="13.633" height="0.648"/>
		</g>
		<g>
			<rect x="123.754" y="59.999" fill="#231F20" width="14.281" height="0.648"/>
		</g>
		<g>
			<rect x="138.685" y="59.999" fill="#231F20" width="4.544" height="0.648"/>
		</g>
		<g>
			<rect x="112.72" y="63.245" fill="#231F20" width="4.543" height="0.648"/>
		</g>
		<g>
			<rect x="117.912" y="63.245" fill="#231F20" width="23.369" height="0.648"/>
		</g>
		<g>
			<rect x="141.931" y="63.245" fill="#231F20" width="5.191" height="0.648"/>
		</g>
	</g>
	<g>
		<g>
			<rect x="170.493" y="74.28" fill="#231F20" width="13.631" height="0.648"/>
		</g>
		<g>
			<rect x="184.773" y="74.28" fill="#231F20" width="5.843" height="0.648"/>
		</g>
		<g>
			<rect x="191.265" y="74.28" fill="#231F20" width="10.386" height="0.648"/>
		</g>
		<g>
			<rect x="165.298" y="77.526" fill="#231F20" width="13.633" height="0.648"/>
		</g>
		<g>
			<rect x="180.229" y="77.526" fill="#231F20" width="14.28" height="0.648"/>
		</g>
		<g>
			<rect x="195.159" y="77.526" fill="#231F20" width="4.545" height="0.648"/>
		</g>
		<g>
			<rect x="169.193" y="80.771" fill="#231F20" width="4.544" height="0.65"/>
		</g>
		<g>
			<rect x="174.387" y="80.771" fill="#231F20" width="23.368" height="0.65"/>
		</g>
		<g>
			<rect x="198.405" y="80.771" fill="#231F20" width="5.192" height="0.65"/>
		</g>
	</g>
	<g>
		<path fill="#3677A2" d="M132.819,52.5c-8.317,0-15.086-6.767-15.086-15.083c0-8.32,6.769-15.086,15.086-15.086
			c8.316,0,15.083,6.767,15.083,15.086C147.902,45.732,141.136,52.5,132.819,52.5z"/>
		<g>
			<path fill="#231F20" d="M132.819,52.877c-8.524,0-15.462-6.937-15.462-15.459c0-8.527,6.938-15.463,15.462-15.463
				s15.459,6.936,15.459,15.463C148.278,45.941,141.344,52.877,132.819,52.877z M132.819,22.708
				c-8.108,0-14.709,6.599-14.709,14.709c0,8.109,6.601,14.705,14.709,14.705c8.109,0,14.707-6.596,14.707-14.705
				C147.526,29.307,140.929,22.708,132.819,22.708z"/>
		</g>
		<g>
			<g>
				<path id="SVGID_1_" fill="#FFFFFF" d="M145.798,37.417c0,7.166-5.812,12.977-12.979,12.977c-7.169,0-12.979-5.811-12.979-12.977
					c0-7.17,5.81-12.979,12.979-12.979C139.985,24.438,145.798,30.248,145.798,37.417z"/>
			</g>
			<g>
				<defs>
					<path id="SVGID_37_" d="M145.798,37.417c0,7.166-5.812,12.977-12.979,12.977c-7.169,0-12.979-5.811-12.979-12.977
						c0-7.17,5.81-12.979,12.979-12.979C139.985,24.438,145.798,30.248,145.798,37.417z"/>
				</defs>
				<clipPath id="SVGID_38_">
					<use xlink:href="#SVGID_37_"  overflow="visible"/>
				</clipPath>
				<rect x="118.703" y="36.779" clip-path="url(#SVGID_38_)" fill="#231F20" width="18.549" height="0.638"/>
			</g>
			<g>
				<defs>
					<path id="SVGID_39_" d="M145.798,37.417c0,7.166-5.812,12.977-12.979,12.977c-7.169,0-12.979-5.811-12.979-12.977
						c0-7.17,5.81-12.979,12.979-12.979C139.985,24.438,145.798,30.248,145.798,37.417z"/>
				</defs>
				<clipPath id="SVGID_40_">
					<use xlink:href="#SVGID_39_"  overflow="visible"/>
				</clipPath>
				<rect x="118.703" y="38.852" clip-path="url(#SVGID_40_)" fill="#231F20" width="21.694" height="0.707"/>
			</g>
			<g>
				<defs>
					<path id="SVGID_41_" d="M145.798,37.417c0,7.166-5.812,12.977-12.979,12.977c-7.169,0-12.979-5.811-12.979-12.977
						c0-7.17,5.81-12.979,12.979-12.979C139.985,24.438,145.798,30.248,145.798,37.417z"/>
				</defs>
				<clipPath id="SVGID_42_">
					<use xlink:href="#SVGID_41_"  overflow="visible"/>
				</clipPath>
				<rect x="118.703" y="46.649" clip-path="url(#SVGID_42_)" fill="#231F20" width="21.694" height="0.521"/>
			</g>
			<g>
				<defs>
					<path id="SVGID_43_" d="M145.798,37.417c0,7.166-5.812,12.977-12.979,12.977c-7.169,0-12.979-5.811-12.979-12.977
						c0-7.17,5.81-12.979,12.979-12.979C139.985,24.438,145.798,30.248,145.798,37.417z"/>
				</defs>
				<clipPath id="SVGID_44_">
					<use xlink:href="#SVGID_43_"  overflow="visible"/>
				</clipPath>
				<rect x="118.703" y="49.403" clip-path="url(#SVGID_44_)" fill="#231F20" width="12.883" height="0.625"/>
			</g>
			<g>
				<defs>
					<path id="SVGID_45_" d="M145.798,37.417c0,7.166-5.812,12.977-12.979,12.977c-7.169,0-12.979-5.811-12.979-12.977
						c0-7.17,5.81-12.979,12.979-12.979C139.985,24.438,145.798,30.248,145.798,37.417z"/>
				</defs>
				<clipPath id="SVGID_46_">
					<use xlink:href="#SVGID_45_"  overflow="visible"/>
				</clipPath>
				<rect x="133.918" y="49.403" clip-path="url(#SVGID_46_)" fill="#231F20" width="24.98" height="0.625"/>
			</g>
			<g>
				<defs>
					<path id="SVGID_47_" d="M145.798,37.417c0,7.166-5.812,12.977-12.979,12.977c-7.169,0-12.979-5.811-12.979-12.977
						c0-7.17,5.81-12.979,12.979-12.979C139.985,24.438,145.798,30.248,145.798,37.417z"/>
				</defs>
				<clipPath id="SVGID_48_">
					<use xlink:href="#SVGID_47_"  overflow="visible"/>
				</clipPath>
				<rect x="142.996" y="46.128" clip-path="url(#SVGID_48_)" fill="#2D4255" width="10.251" height="1.041"/>
			</g>
			<g>
				<defs>
					<path id="SVGID_49_" d="M145.798,37.417c0,7.166-5.812,12.977-12.979,12.977c-7.169,0-12.979-5.811-12.979-12.977
						c0-7.17,5.81-12.979,12.979-12.979C139.985,24.438,145.798,30.248,145.798,37.417z"/>
				</defs>
				<clipPath id="SVGID_50_">
					<use xlink:href="#SVGID_49_"  overflow="visible"/>
				</clipPath>
				<rect x="155.241" y="46.128" clip-path="url(#SVGID_50_)" fill="#2D4255" width="7.326" height="1.041"/>
			</g>
			<g>
				<defs>
					<path id="SVGID_51_" d="M145.798,37.417c0,7.166-5.812,12.977-12.979,12.977c-7.169,0-12.979-5.811-12.979-12.977
						c0-7.17,5.81-12.979,12.979-12.979C139.985,24.438,145.798,30.248,145.798,37.417z"/>
				</defs>
				<clipPath id="SVGID_52_">
					<use xlink:href="#SVGID_51_"  overflow="visible"/>
				</clipPath>
				<rect x="118.703" y="42.194" clip-path="url(#SVGID_52_)" fill="#231F20" width="12.883" height="0.917"/>
			</g>
			<g>
				<defs>
					<path id="SVGID_53_" d="M145.798,37.417c0,7.166-5.812,12.977-12.979,12.977c-7.169,0-12.979-5.811-12.979-12.977
						c0-7.17,5.81-12.979,12.979-12.979C139.985,24.438,145.798,30.248,145.798,37.417z"/>
				</defs>
				<clipPath id="SVGID_54_">
					<use xlink:href="#SVGID_53_"  overflow="visible"/>
				</clipPath>
				<rect x="137.875" y="36.779" clip-path="url(#SVGID_54_)" fill="#231F20" width="5.119" height="0.638"/>
			</g>
			<g>
				<defs>
					<path id="SVGID_55_" d="M145.798,37.417c0,7.166-5.812,12.977-12.979,12.977c-7.169,0-12.979-5.811-12.979-12.977
						c0-7.17,5.81-12.979,12.979-12.979C139.985,24.438,145.798,30.248,145.798,37.417z"/>
				</defs>
				<clipPath id="SVGID_56_">
					<use xlink:href="#SVGID_55_"  overflow="visible"/>
				</clipPath>
				<rect x="144.976" y="36.779" clip-path="url(#SVGID_56_)" fill="#231F20" width="5.121" height="0.638"/>
			</g>
			<g>
				<defs>
					<path id="SVGID_57_" d="M145.798,37.417c0,7.166-5.812,12.977-12.979,12.977c-7.169,0-12.979-5.811-12.979-12.977
						c0-7.17,5.81-12.979,12.979-12.979C139.985,24.438,145.798,30.248,145.798,37.417z"/>
				</defs>
				<clipPath id="SVGID_58_">
					<use xlink:href="#SVGID_57_"  overflow="visible"/>
				</clipPath>
				<rect x="118.901" y="23.85" clip-path="url(#SVGID_58_)" fill="#231F20" width="21.695" height="1.041"/>
			</g>
			<g>
				<defs>
					<path id="SVGID_59_" d="M145.798,37.417c0,7.166-5.812,12.977-12.979,12.977c-7.169,0-12.979-5.811-12.979-12.977
						c0-7.17,5.81-12.979,12.979-12.979C139.985,24.438,145.798,30.248,145.798,37.417z"/>
				</defs>
				<clipPath id="SVGID_60_">
					<use xlink:href="#SVGID_59_"  overflow="visible"/>
				</clipPath>
				<rect x="118.901" y="31.309" clip-path="url(#SVGID_60_)" fill="#231F20" width="21.695" height="0.716"/>
			</g>
			<g>
				<defs>
					<path id="SVGID_61_" d="M145.798,37.417c0,7.166-5.812,12.977-12.979,12.977c-7.169,0-12.979-5.811-12.979-12.977
						c0-7.17,5.81-12.979,12.979-12.979C139.985,24.438,145.798,30.248,145.798,37.417z"/>
				</defs>
				<clipPath id="SVGID_62_">
					<use xlink:href="#SVGID_61_"  overflow="visible"/>
				</clipPath>
				<rect x="142.478" y="31.309" clip-path="url(#SVGID_62_)" fill="#231F20" width="4.031" height="0.716"/>
			</g>
			<g>
				<defs>
					<path id="SVGID_63_" d="M145.798,37.417c0,7.166-5.812,12.977-12.979,12.977c-7.169,0-12.979-5.811-12.979-12.977
						c0-7.17,5.81-12.979,12.979-12.979C139.985,24.438,145.798,30.248,145.798,37.417z"/>
				</defs>
				<clipPath id="SVGID_64_">
					<use xlink:href="#SVGID_63_"  overflow="visible"/>
				</clipPath>
				<rect x="118.901" y="34.292" clip-path="url(#SVGID_64_)" fill="#231F20" width="12.886" height="0.734"/>
			</g>
			<g>
				<defs>
					<path id="SVGID_65_" d="M145.798,37.417c0,7.166-5.812,12.977-12.979,12.977c-7.169,0-12.979-5.811-12.979-12.977
						c0-7.17,5.81-12.979,12.979-12.979C139.985,24.438,145.798,30.248,145.798,37.417z"/>
				</defs>
				<clipPath id="SVGID_66_">
					<use xlink:href="#SVGID_65_"  overflow="visible"/>
				</clipPath>
				<rect x="134.123" y="34.292" clip-path="url(#SVGID_66_)" fill="#231F20" width="24.979" height="0.734"/>
			</g>
			<g>
				<defs>
					<path id="SVGID_67_" d="M145.798,37.417c0,7.166-5.812,12.977-12.979,12.977c-7.169,0-12.979-5.811-12.979-12.977
						c0-7.17,5.81-12.979,12.979-12.979C139.985,24.438,145.798,30.248,145.798,37.417z"/>
				</defs>
				<clipPath id="SVGID_68_">
					<use xlink:href="#SVGID_67_"  overflow="visible"/>
				</clipPath>
				<rect x="155.438" y="31.125" clip-path="url(#SVGID_68_)" fill="#2D4255" width="7.332" height="1.041"/>
			</g>
			<g>
				<defs>
					<path id="SVGID_69_" d="M145.798,37.417c0,7.166-5.812,12.977-12.979,12.977c-7.169,0-12.979-5.811-12.979-12.977
						c0-7.17,5.81-12.979,12.979-12.979C139.985,24.438,145.798,30.248,145.798,37.417z"/>
				</defs>
				<clipPath id="SVGID_70_">
					<use xlink:href="#SVGID_69_"  overflow="visible"/>
				</clipPath>
				<rect x="118.901" y="27.191" clip-path="url(#SVGID_70_)" fill="#231F20" width="12.886" height="0.917"/>
			</g>
		</g>
	</g>
	<path fill="#231F20" d="M202.983,85.938c-0.013-0.014-0.289,0.219-0.623,0.52l-2.371,2.15c-0.326,0.295-0.589,0.553-0.572,0.559
		l1.006,1.121c0.012,0.01,0.287-0.219,0.615-0.516l2.377-2.154c0.334-0.303,0.59-0.553,0.578-0.565L202.983,85.938z"/>
	<g>
		<path fill="#231F20" d="M184.729,71.888l-7.192-7.943l2.869-2.596l7.186,7.938L184.729,71.888z M178.452,63.989l6.321,6.98
			l1.899-1.729l-6.314-6.977L178.452,63.989z"/>
	</g>
	<path fill="#3677A2" d="M203.823,85.103c0.189,0.207-0.048,0.732-0.533,1.18l-3.478,3.139c-0.479,0.441-1.024,0.621-1.213,0.412
		l-16.892-18.645c-0.189-0.215,0.043-0.736,0.526-1.168l3.481-3.154c0.484-0.443,1.029-0.623,1.22-0.41L203.823,85.103z"/>
	<path fill="#FFFFFF" d="M190.053,69.954c0.014,0.019-0.364,0.387-0.854,0.83l-3.473,3.144c-0.482,0.438-0.887,0.78-0.896,0.76
		l-1.344-1.474c-0.014-0.014,0.362-0.381,0.844-0.815l3.482-3.153c0.486-0.439,0.891-0.781,0.902-0.763L190.053,69.954z"/>
	<path fill="#3677A2" d="M187.478,59.493l-2.1-1.862c-0.269-0.237-0.426-0.715-0.354-1.066l0.568-2.753
		c0.072-0.351,0.406-0.726,0.746-0.839l2.666-0.88c0.341-0.113,0.627-0.193,0.643-0.179c0.016,0.013,0.03-0.267,0.021-0.625
		c-0.03-1.161-0.162-2.314-0.387-3.458c-0.068-0.352-0.146-0.622-0.158-0.605c-0.012,0.017-0.311,0.002-0.668-0.034l-2.791-0.276
		c-0.356-0.035-0.768-0.328-0.916-0.655l-1.166-2.555c-0.149-0.326-0.102-0.826,0.108-1.118l1.64-2.279
		c0.209-0.291,0.396-0.525,0.414-0.522c0.021,0.002-0.133-0.231-0.352-0.516c-0.359-0.468-0.741-0.923-1.15-1.362
		c-0.39-0.427-0.793-0.827-1.211-1.21c-0.265-0.242-0.484-0.414-0.482-0.394c0.002,0.021-0.247,0.184-0.557,0.365l-2.426,1.417
		c-0.31,0.182-0.812,0.185-1.125,0.008l-2.438-1.384c-0.312-0.177-0.566-0.611-0.569-0.969l-0.022-2.808
		c-0.002-0.359,0.01-0.658,0.026-0.668c0.019-0.011-0.243-0.11-0.588-0.211c-1.117-0.328-2.252-0.559-3.401-0.695
		c-0.354-0.042-0.638-0.053-0.627-0.038c0.01,0.017-0.1,0.296-0.242,0.625l-1.113,2.57c-0.143,0.329-0.549,0.629-0.904,0.669
		l-2.791,0.316c-0.355,0.041-0.816-0.16-1.031-0.449l-1.668-2.252c-0.213-0.288-0.379-0.539-0.371-0.559s-0.262,0.051-0.6,0.171
		c-1.039,0.372-2.055,0.829-3.041,1.371c-0.314,0.172-0.547,0.327-0.525,0.335c0.021,0.008,0.099,0.298,0.174,0.649l0.588,2.748
		c0.076,0.351-0.079,0.829-0.346,1.069l-2.082,1.875c-0.266,0.239-0.759,0.345-1.1,0.235l-2.668-0.859
		c-0.342-0.11-0.621-0.216-0.627-0.237c-0.004-0.021-0.182,0.195-0.387,0.49c-0.668,0.967-1.242,1.976-1.729,3.018
		c-0.152,0.325-0.251,0.586-0.232,0.579c0.02-0.007,0.25,0.181,0.517,0.42l2.095,1.879c0.268,0.24,0.424,0.718,0.35,1.069
		l-0.575,2.743c-0.074,0.351-0.41,0.726-0.751,0.836l-2.666,0.871c-0.34,0.113-0.629,0.191-0.645,0.179
		c-0.016-0.015-0.029,0.266-0.021,0.625c0.028,1.155,0.151,2.313,0.373,3.461c0.067,0.353,0.141,0.622,0.149,0.604
		c0.012-0.017,0.31,0,0.666,0.037l2.789,0.28c0.355,0.036,0.766,0.33,0.912,0.657l1.156,2.563c0.146,0.326,0.096,0.826-0.113,1.117
		l-1.645,2.27c-0.21,0.291-0.396,0.527-0.415,0.527c-0.021,0,0.135,0.235,0.353,0.521c0.369,0.484,0.762,0.954,1.178,1.416
		c0.369,0.402,0.757,0.785,1.148,1.148c0.264,0.244,0.482,0.422,0.482,0.402c0-0.018,0.252-0.179,0.562-0.359l2.425-1.412
		c0.311-0.181,0.813-0.182,1.125-0.004l2.435,1.392c0.312,0.178,0.563,0.61,0.565,0.971l0.014,2.808
		c0.002,0.356-0.012,0.655-0.027,0.668c-0.018,0.012,0.243,0.112,0.586,0.217c1.115,0.332,2.254,0.566,3.403,0.707
		c0.354,0.045,0.637,0.055,0.625,0.039c-0.013-0.017,0.097-0.295,0.239-0.623l1.127-2.576c0.144-0.328,0.55-0.625,0.906-0.662
		l2.789-0.299c0.355-0.039,0.817,0.164,1.03,0.451l1.667,2.262c0.213,0.289,0.379,0.537,0.371,0.555s0.266-0.053,0.604-0.17
		c1.09-0.379,2.158-0.855,3.188-1.43c0.313-0.174,0.544-0.33,0.522-0.336c-0.022-0.006-0.103-0.295-0.181-0.646l-0.603-2.741
		c-0.076-0.351,0.076-0.83,0.343-1.07l2.084-1.893c0.267-0.24,0.759-0.347,1.101-0.238l2.672,0.854
		c0.34,0.11,0.621,0.216,0.627,0.233c0.004,0.018,0.183-0.199,0.386-0.495c0.663-0.961,1.233-1.974,1.716-3.013
		c0.15-0.325,0.249-0.59,0.23-0.586C187.979,59.919,187.747,59.729,187.478,59.493z M160.04,60.069
		c-4.547-4.971-4.211-12.68,0.754-17.231c4.965-4.555,12.674-4.215,17.229,0.749c4.565,4.969,4.238,12.687-0.746,17.23
		C172.308,65.365,164.591,65.032,160.04,60.069z"/>
	<g>
		<path fill="#231F20" d="M167.122,72.667c-0.105,0-0.336-0.015-0.607-0.047c-1.165-0.142-2.327-0.384-3.456-0.72
			c-0.663-0.196-0.785-0.271-0.815-0.478l-0.031-0.207l0.049-0.03c0.005-0.103,0.01-0.269,0.008-0.479l-0.014-2.806
			c0-0.241-0.192-0.571-0.402-0.69l-2.434-1.392c-0.201-0.114-0.602-0.112-0.801,0.004l-2.426,1.412
			c-0.179,0.104-0.318,0.188-0.406,0.246l-0.006,0.156l-0.314,0.002c-0.111,0-0.174,0-0.701-0.489
			c-0.436-0.404-0.816-0.786-1.168-1.171c-0.415-0.459-0.816-0.94-1.196-1.438c-0.429-0.562-0.479-0.672-0.386-0.86l0.09-0.181
			h0.059c0.064-0.082,0.168-0.218,0.295-0.393l1.646-2.271c0.142-0.194,0.181-0.573,0.08-0.793l-1.156-2.562
			c-0.098-0.219-0.407-0.442-0.649-0.467l-2.787-0.283c-0.176-0.019-0.334-0.03-0.449-0.035l-0.002,0.002h-0.184
			c-0.301,0-0.351-0.254-0.469-0.868c-0.222-1.15-0.349-2.334-0.378-3.514c-0.021-0.729,0.028-0.777,0.109-0.861l0.096-0.098h0.154
			c0.042-0.013,0.243-0.068,0.528-0.161l2.666-0.872c0.229-0.075,0.482-0.359,0.533-0.596l0.575-2.742
			c0.05-0.236-0.067-0.599-0.249-0.761l-2.094-1.879c-0.18-0.161-0.32-0.278-0.395-0.338h-0.082l-0.099-0.15
			c-0.09-0.142-0.103-0.213,0.213-0.89c0.498-1.068,1.091-2.099,1.759-3.065c0.437-0.631,0.508-0.631,0.649-0.631h0.265l0.021,0.1
			c0.098,0.038,0.251,0.091,0.442,0.153l2.668,0.86c0.221,0.073,0.608-0.01,0.783-0.167l2.08-1.874
			c0.182-0.162,0.299-0.523,0.246-0.76l-0.588-2.748c-0.043-0.205-0.084-0.366-0.111-0.466l-0.054-0.021l-0.017-0.208
			c-0.017-0.212,0.088-0.308,0.695-0.642c0.993-0.546,2.032-1.015,3.088-1.392c0.164-0.058,0.558-0.193,0.7-0.193h0.171l0.2,0.28
			l-0.008,0.021c0.054,0.082,0.146,0.215,0.276,0.393l1.668,2.252c0.131,0.178,0.437,0.322,0.677,0.322l2.848-0.32
			c0.24-0.027,0.546-0.254,0.642-0.475l1.115-2.57c0.088-0.199,0.15-0.356,0.188-0.454l-0.022-0.039l0.092-0.165
			c0.099-0.169,0.275-0.169,0.344-0.169c0.105,0,0.336,0.015,0.605,0.046c1.166,0.139,2.328,0.376,3.453,0.706
			c0.678,0.199,0.793,0.267,0.819,0.481l0.026,0.211l-0.045,0.027c-0.004,0.104-0.008,0.266-0.006,0.469l0.022,2.807
			c0.002,0.242,0.194,0.571,0.405,0.69l2.438,1.384c0.2,0.114,0.602,0.11,0.8-0.005l2.425-1.417
			c0.244-0.142,0.414-0.253,0.477-0.297l0.105-0.114h0.142c0.104,0,0.176,0,0.7,0.48c0.442,0.406,0.847,0.809,1.23,1.231
			c0.396,0.424,0.778,0.877,1.168,1.383c0.43,0.557,0.479,0.669,0.389,0.856l-0.09,0.181h-0.062
			c-0.064,0.079-0.168,0.214-0.292,0.388l-1.64,2.279c-0.142,0.196-0.178,0.575-0.078,0.794l1.168,2.555
			c0.101,0.22,0.412,0.442,0.652,0.466l2.791,0.276c0.184,0.02,0.352,0.031,0.469,0.037l0.002-0.004h0.168
			c0.305,0,0.356,0.272,0.475,0.867c0.229,1.167,0.361,2.349,0.393,3.512c0.02,0.729-0.029,0.777-0.109,0.86l-0.193,0.198
			l-0.117-0.082c-0.088,0.024-0.254,0.074-0.466,0.145l-2.664,0.88c-0.229,0.076-0.483,0.36-0.532,0.597l-0.567,2.752
			c-0.048,0.236,0.071,0.6,0.252,0.759l2.101,1.861c0.184,0.164,0.325,0.28,0.402,0.342h0.078l0.097,0.149
			c0.091,0.14,0.104,0.222-0.21,0.898c-0.497,1.073-1.084,2.104-1.742,3.06c-0.438,0.637-0.506,0.637-0.652,0.637h-0.248
			l-0.025-0.095c-0.098-0.036-0.254-0.092-0.452-0.155l-2.672-0.854c-0.22-0.07-0.61,0.014-0.782,0.17l-2.084,1.891
			c-0.18,0.162-0.295,0.524-0.242,0.76l0.602,2.742c0.042,0.191,0.081,0.349,0.109,0.445l0.051,0.014l0.025,0.222
			c0.023,0.217-0.078,0.315-0.688,0.653c-1.037,0.578-2.127,1.066-3.241,1.453c-0.13,0.045-0.562,0.191-0.703,0.191h-0.175
			l-0.197-0.293l0.006-0.014c-0.059-0.086-0.15-0.219-0.271-0.383l-1.666-2.263c-0.133-0.18-0.438-0.325-0.682-0.325l-2.844,0.303
			c-0.24,0.024-0.547,0.248-0.644,0.469l-1.127,2.576c-0.082,0.188-0.144,0.34-0.181,0.438l0.021,0.029l-0.09,0.178
			C167.372,72.667,167.183,72.667,167.122,72.667z M162.911,71.171c0.088,0.031,0.2,0.067,0.332,0.108
			c1.094,0.324,2.219,0.56,3.35,0.695c0.132,0.016,0.251,0.026,0.349,0.035c0.042-0.109,0.103-0.25,0.181-0.429l1.127-2.576
			c0.19-0.436,0.692-0.805,1.168-0.854l2.789-0.299c0.479-0.052,1.047,0.205,1.326,0.584l1.668,2.262
			c0.115,0.158,0.205,0.279,0.271,0.38c0.086-0.027,0.201-0.064,0.334-0.109c1.079-0.375,2.135-0.848,3.139-1.406
			c0.115-0.064,0.215-0.125,0.292-0.172c-0.032-0.115-0.065-0.264-0.108-0.455l-0.602-2.744c-0.104-0.465,0.086-1.059,0.44-1.379
			l2.084-1.891c0.342-0.312,0.975-0.45,1.416-0.308l2.673,0.854c0.186,0.061,0.329,0.107,0.439,0.146
			c0.057-0.072,0.127-0.169,0.205-0.283c0.639-0.927,1.207-1.924,1.688-2.966c0.06-0.129,0.108-0.239,0.144-0.327
			c-0.089-0.072-0.203-0.17-0.354-0.305l-2.1-1.86c-0.356-0.317-0.554-0.908-0.457-1.375l0.568-2.754
			c0.096-0.467,0.51-0.933,0.963-1.082l2.665-0.881c0.195-0.063,0.339-0.107,0.441-0.137c0.002-0.092,0.003-0.213-0.001-0.35
			c-0.029-1.127-0.157-2.272-0.381-3.404c-0.025-0.136-0.053-0.252-0.074-0.342c-0.125-0.006-0.288-0.019-0.465-0.037l-2.791-0.276
			c-0.475-0.047-0.981-0.409-1.18-0.842l-1.168-2.555c-0.197-0.435-0.138-1.054,0.143-1.442l1.639-2.28
			c0.114-0.159,0.203-0.279,0.275-0.371c-0.053-0.076-0.122-0.171-0.205-0.28c-0.378-0.489-0.748-0.927-1.131-1.339
			c-0.375-0.41-0.766-0.799-1.193-1.191c-0.1-0.092-0.189-0.169-0.26-0.229c-0.102,0.065-0.23,0.144-0.396,0.24l-2.426,1.417
			c-0.395,0.232-1.05,0.236-1.447,0.01l-2.438-1.384c-0.415-0.235-0.73-0.771-0.734-1.25l-0.023-2.807c0-0.195,0-0.347,0.004-0.465
			c-0.088-0.03-0.199-0.066-0.331-0.105c-1.091-0.32-2.218-0.55-3.349-0.685c-0.134-0.016-0.256-0.027-0.354-0.033
			c-0.042,0.108-0.102,0.247-0.18,0.428l-1.113,2.573c-0.189,0.437-0.689,0.808-1.165,0.862l-2.79,0.316
			c-0.467,0.056-1.047-0.199-1.328-0.578l-1.668-2.252c-0.119-0.16-0.209-0.285-0.275-0.383c-0.084,0.026-0.195,0.062-0.326,0.108
			c-1.021,0.366-2.028,0.82-2.993,1.35c-0.119,0.065-0.22,0.125-0.298,0.173c0.029,0.115,0.064,0.264,0.105,0.458l0.59,2.748
			c0.101,0.466-0.093,1.059-0.447,1.378l-2.08,1.874c-0.344,0.308-0.975,0.445-1.418,0.303l-2.668-0.86
			c-0.188-0.06-0.332-0.109-0.442-0.151c-0.056,0.073-0.125,0.168-0.203,0.28c-0.646,0.936-1.219,1.936-1.702,2.971
			c-0.058,0.124-0.104,0.233-0.141,0.319c0.087,0.071,0.199,0.169,0.347,0.302l2.095,1.879c0.354,0.319,0.549,0.911,0.451,1.377
			l-0.576,2.742c-0.1,0.467-0.515,0.932-0.967,1.079l-2.666,0.871c-0.195,0.065-0.339,0.108-0.443,0.136
			c-0.002,0.094-0.002,0.213,0.002,0.35c0.027,1.146,0.152,2.293,0.367,3.408c0.024,0.135,0.051,0.252,0.071,0.342
			c0.124,0.007,0.283,0.02,0.457,0.037l2.789,0.281c0.476,0.049,0.979,0.412,1.177,0.848l1.156,2.562
			c0.196,0.436,0.133,1.055-0.146,1.441l-1.645,2.271c-0.115,0.159-0.203,0.281-0.275,0.372c0.053,0.077,0.123,0.176,0.209,0.288
			c0.367,0.479,0.758,0.949,1.16,1.396c0.338,0.369,0.707,0.737,1.129,1.129c0.104,0.098,0.193,0.177,0.266,0.238
			c0.099-0.064,0.227-0.142,0.396-0.238l2.424-1.412c0.396-0.229,1.052-0.232,1.449-0.006l2.432,1.393
			c0.414,0.236,0.728,0.775,0.729,1.252l0.013,2.805C162.917,70.901,162.915,71.054,162.911,71.171z M169.034,64.347
			c-3.502,0-6.867-1.479-9.231-4.059c-4.658-5.093-4.312-13.027,0.772-17.689c2.313-2.123,5.315-3.292,8.452-3.292
			c3.501,0,6.867,1.48,9.236,4.061c2.271,2.472,3.44,5.677,3.292,9.025c-0.146,3.335-1.589,6.414-4.059,8.665
			C175.18,63.179,172.173,64.347,169.034,64.347z M169.027,39.957c-2.974,0-5.819,1.108-8.015,3.121
			c-4.82,4.42-5.148,11.945-0.732,16.773c2.242,2.443,5.432,3.848,8.754,3.848c2.978,0,5.827-1.107,8.024-3.121
			c2.343-2.133,3.709-5.05,3.849-8.214c0.141-3.173-0.968-6.212-3.121-8.556C175.54,41.359,172.347,39.957,169.027,39.957z"/>
	</g>
	<path fill="#00B8D4" d="M160.188,85.101l-1.511-1.342c-0.193-0.17-0.309-0.514-0.256-0.766l0.41-1.982
		c0.051-0.254,0.293-0.523,0.537-0.605l1.92-0.633c0.244-0.08,0.451-0.139,0.461-0.129c0.012,0.01,0.021-0.191,0.016-0.449
		c-0.021-0.834-0.115-1.666-0.278-2.49c-0.05-0.252-0.104-0.447-0.112-0.436c-0.01,0.011-0.226,0.002-0.481-0.023l-2.011-0.199
		c-0.256-0.024-0.551-0.235-0.657-0.471l-0.84-1.84c-0.107-0.234-0.072-0.596,0.077-0.805l1.181-1.641
		c0.149-0.209,0.285-0.379,0.299-0.377c0.015,0.002-0.096-0.166-0.254-0.371c-0.259-0.336-0.532-0.664-0.827-0.98
		c-0.279-0.307-0.57-0.596-0.871-0.871c-0.191-0.174-0.349-0.297-0.349-0.283c0.001,0.014-0.179,0.133-0.401,0.264l-1.744,1.021
		c-0.224,0.131-0.586,0.134-0.812,0.006l-1.754-0.995c-0.226-0.127-0.408-0.441-0.41-0.697l-0.017-2.021
		c-0.002-0.259,0.007-0.475,0.02-0.482c0.014-0.006-0.176-0.078-0.424-0.151c-0.805-0.233-1.621-0.401-2.448-0.499
		c-0.256-0.03-0.459-0.039-0.45-0.028c0.006,0.015-0.072,0.216-0.175,0.451l-0.803,1.851c-0.104,0.235-0.396,0.451-0.649,0.48
		l-2.009,0.229c-0.257,0.028-0.59-0.115-0.744-0.322l-1.199-1.622c-0.153-0.206-0.273-0.388-0.269-0.401
		c0.006-0.016-0.188,0.036-0.433,0.123c-0.748,0.268-1.479,0.598-2.188,0.987c-0.227,0.124-0.395,0.235-0.379,0.241
		c0.014,0.004,0.07,0.214,0.125,0.467l0.424,1.977c0.055,0.252-0.059,0.598-0.25,0.771l-1.498,1.352
		c-0.191,0.173-0.546,0.248-0.792,0.168l-1.92-0.618c-0.245-0.078-0.448-0.156-0.452-0.17c-0.002-0.017-0.131,0.141-0.277,0.354
		c-0.479,0.695-0.896,1.422-1.244,2.172c-0.109,0.234-0.182,0.422-0.167,0.418c0.013-0.006,0.179,0.129,0.37,0.303l1.509,1.352
		c0.19,0.175,0.305,0.517,0.251,0.771l-0.415,1.976c-0.054,0.252-0.295,0.521-0.539,0.602l-1.92,0.629
		c-0.244,0.08-0.452,0.137-0.463,0.127c-0.013-0.01-0.021,0.191-0.017,0.451c0.021,0.832,0.109,1.666,0.27,2.49
		c0.049,0.254,0.102,0.447,0.109,0.438c0.006-0.014,0.222-0.002,0.478,0.023l2.008,0.203c0.259,0.025,0.554,0.238,0.658,0.475
		l0.832,1.844c0.104,0.234,0.069,0.596-0.082,0.805l-1.185,1.636c-0.149,0.207-0.285,0.377-0.297,0.377
		c-0.016,0,0.096,0.17,0.252,0.377c0.268,0.349,0.549,0.688,0.849,1.019c0.266,0.291,0.545,0.567,0.827,0.828
		c0.188,0.178,0.347,0.303,0.347,0.291c0.001-0.015,0.183-0.13,0.405-0.261l1.746-1.019c0.224-0.129,0.586-0.131,0.81-0.002
		l1.752,1.002c0.226,0.127,0.406,0.439,0.408,0.697l0.01,2.021c0.001,0.258-0.009,0.473-0.021,0.48
		c-0.012,0.01,0.176,0.082,0.424,0.155c0.801,0.238,1.62,0.41,2.448,0.511c0.256,0.03,0.459,0.039,0.449,0.026
		c-0.008-0.013,0.07-0.213,0.174-0.449l0.812-1.854c0.104-0.236,0.396-0.451,0.651-0.478l2.009-0.217
		c0.257-0.027,0.589,0.119,0.741,0.326l1.199,1.629c0.154,0.207,0.273,0.387,0.269,0.398c-0.005,0.014,0.19-0.037,0.435-0.121
		c0.785-0.273,1.555-0.617,2.297-1.029c0.225-0.125,0.391-0.238,0.375-0.242c-0.017-0.004-0.072-0.213-0.129-0.465l-0.434-1.973
		c-0.057-0.254,0.055-0.599,0.246-0.771l1.501-1.361c0.19-0.174,0.545-0.25,0.791-0.172l1.924,0.615
		c0.245,0.078,0.446,0.152,0.45,0.168c0.004,0.014,0.132-0.143,0.277-0.355c0.478-0.692,0.89-1.42,1.235-2.17
		c0.108-0.231,0.179-0.424,0.166-0.422C160.548,85.407,160.38,85.271,160.188,85.101z M140.437,85.515
		c-3.274-3.578-3.033-9.127,0.541-12.404c3.575-3.279,9.125-3.033,12.404,0.539c3.287,3.578,3.052,9.135-0.537,12.404
		C149.267,89.327,143.712,89.089,140.437,85.515z"/>
	<g>
		<path fill="#231F20" d="M145.534,94.677c-0.078,0-0.248-0.012-0.449-0.035c-0.844-0.104-1.687-0.277-2.503-0.521
			c-0.465-0.139-0.619-0.199-0.65-0.416l-0.031-0.203l0.045-0.028c0.004-0.078,0.004-0.185,0.004-0.298l-0.011-2.021
			c-0.001-0.141-0.122-0.348-0.243-0.418l-1.753-1.002c-0.116-0.065-0.37-0.063-0.485,0.002l-1.744,1.019
			c-0.098,0.057-0.188,0.108-0.254,0.149l-0.006,0.152h-0.312c-0.108,0-0.159,0-0.565-0.377c-0.315-0.293-0.594-0.57-0.847-0.847
			c-0.301-0.332-0.591-0.682-0.866-1.041c-0.289-0.379-0.385-0.52-0.287-0.717l0.09-0.18l0.056-0.002
			c0.049-0.062,0.112-0.148,0.182-0.242l1.185-1.637c0.084-0.113,0.106-0.352,0.05-0.48l-0.832-1.844
			c-0.058-0.131-0.253-0.271-0.396-0.285l-2.008-0.203c-0.146-0.014-0.273-0.022-0.355-0.027l-0.073,0.005
			c-0.3,0.008-0.356-0.252-0.444-0.699c-0.158-0.83-0.252-1.687-0.273-2.543c-0.014-0.539,0.021-0.601,0.105-0.687l0.186-0.188
			l0.115,0.074c0.066-0.021,0.176-0.056,0.297-0.095l1.918-0.627c0.136-0.045,0.295-0.225,0.324-0.36l0.414-1.976
			c0.029-0.139-0.046-0.367-0.15-0.461l-1.508-1.354c-0.102-0.09-0.192-0.17-0.254-0.219h-0.078l-0.098-0.152
			c-0.101-0.156-0.062-0.277,0.148-0.727c0.359-0.773,0.787-1.521,1.271-2.222c0.301-0.437,0.381-0.493,0.545-0.493h0.262
			l0.021,0.098c0.071,0.024,0.166,0.057,0.27,0.09l1.92,0.619c0.125,0.041,0.373-0.012,0.475-0.103l1.499-1.35
			c0.104-0.095,0.179-0.322,0.147-0.461l-0.424-1.978c-0.022-0.111-0.047-0.213-0.065-0.289l-0.05-0.019l-0.016-0.205
			c-0.018-0.229,0.146-0.327,0.547-0.55c0.717-0.395,1.471-0.733,2.236-1.008c0.184-0.065,0.428-0.146,0.534-0.146h0.171l0.2,0.285
			l-0.007,0.015c0.045,0.064,0.104,0.147,0.17,0.237l1.2,1.621c0.076,0.104,0.271,0.194,0.414,0.194l2.039-0.229
			c0.142-0.018,0.334-0.158,0.39-0.288l0.803-1.851c0.049-0.11,0.092-0.213,0.121-0.288l-0.021-0.035l0.181-0.321l0.233-0.006
			c0.078,0,0.248,0.012,0.445,0.034c0.846,0.103,1.688,0.272,2.502,0.513c0.43,0.125,0.625,0.184,0.655,0.422l0.026,0.213
			l-0.043,0.025c-0.002,0.076-0.002,0.176-0.002,0.281l0.018,2.021c0.002,0.141,0.123,0.35,0.246,0.42l1.754,0.996
			c0.115,0.063,0.369,0.062,0.486-0.004l1.746-1.021c0.084-0.049,0.164-0.098,0.227-0.137l-0.016-0.17l0.354-0.002
			c0.104,0,0.161,0,0.564,0.368c0.321,0.296,0.613,0.587,0.894,0.894c0.287,0.307,0.563,0.637,0.846,1.002
			c0.29,0.375,0.386,0.516,0.289,0.711l-0.09,0.182h-0.06c-0.049,0.062-0.11,0.146-0.18,0.242l-1.18,1.641
			c-0.082,0.115-0.105,0.353-0.047,0.48l0.84,1.84c0.059,0.129,0.255,0.268,0.396,0.283l2.01,0.197
			c0.144,0.016,0.271,0.024,0.354,0.026l0.081-0.004c0.321-0.012,0.362,0.271,0.446,0.697c0.166,0.844,0.261,1.7,0.283,2.543
			c0.016,0.562-0.027,0.606-0.105,0.687l-0.193,0.198l-0.112-0.08c-0.066,0.021-0.173,0.054-0.287,0.093l-1.919,0.633
			c-0.135,0.045-0.294,0.223-0.322,0.36l-0.408,1.982c-0.029,0.139,0.047,0.364,0.151,0.459l1.513,1.342
			c0.104,0.09,0.197,0.172,0.262,0.224h0.074l0.096,0.147c0.097,0.149,0.072,0.269-0.146,0.733
			c-0.358,0.777-0.784,1.523-1.262,2.218c-0.291,0.422-0.373,0.495-0.545,0.495h-0.247l-0.025-0.09
			c-0.072-0.024-0.171-0.059-0.277-0.094l-1.924-0.615c-0.127-0.041-0.373,0.013-0.475,0.104l-1.501,1.36
			c-0.104,0.097-0.179,0.322-0.146,0.459l0.433,1.978c0.022,0.101,0.045,0.193,0.063,0.267l0.047,0.014l0.024,0.219
			c0.026,0.234-0.137,0.336-0.541,0.561c-0.752,0.418-1.541,0.773-2.348,1.052c-0.188,0.065-0.435,0.145-0.537,0.145h-0.173
			l-0.201-0.293l0.006-0.012c-0.043-0.062-0.102-0.144-0.165-0.229l-1.2-1.629c-0.076-0.104-0.271-0.197-0.416-0.197l-2.037,0.218
			c-0.141,0.014-0.334,0.153-0.391,0.284l-0.811,1.854c-0.045,0.101-0.084,0.193-0.111,0.265l0.02,0.028l-0.18,0.353L145.534,94.677
			z M142.596,93.444c0.051,0.018,0.107,0.035,0.171,0.053c0.781,0.234,1.588,0.402,2.396,0.5c0.063,0.008,0.125,0.015,0.179,0.021
			c0.03-0.07,0.065-0.154,0.106-0.248l0.812-1.854c0.148-0.344,0.543-0.633,0.914-0.672l2.105-0.221c0.354,0,0.739,0.191,0.94,0.463
			l1.198,1.629c0.062,0.084,0.115,0.156,0.16,0.219c0.051-0.016,0.11-0.035,0.174-0.057c0.771-0.268,1.527-0.605,2.244-1.008
			c0.056-0.029,0.105-0.057,0.149-0.084c-0.019-0.076-0.039-0.166-0.062-0.268l-0.435-1.976c-0.08-0.364,0.068-0.828,0.347-1.08
			l1.5-1.36c0.27-0.244,0.762-0.353,1.107-0.24l1.924,0.615c0.1,0.03,0.186,0.059,0.258,0.084c0.032-0.043,0.067-0.095,0.104-0.146
			c0.457-0.664,0.862-1.379,1.208-2.121c0.027-0.062,0.054-0.119,0.076-0.17c-0.057-0.049-0.124-0.107-0.205-0.18l-1.512-1.34
			c-0.28-0.248-0.434-0.711-0.356-1.078l0.408-1.98c0.075-0.365,0.399-0.73,0.754-0.846l1.919-0.635
			c0.104-0.033,0.188-0.062,0.257-0.08c0-0.055-0.001-0.115-0.003-0.182c-0.021-0.808-0.111-1.625-0.271-2.437
			c-0.014-0.063-0.024-0.123-0.037-0.177c-0.08-0.006-0.174-0.014-0.271-0.022l-2.01-0.196c-0.371-0.037-0.768-0.322-0.924-0.66
			l-0.84-1.84c-0.154-0.341-0.107-0.826,0.11-1.13l1.181-1.641c0.062-0.086,0.112-0.156,0.158-0.22
			c-0.031-0.043-0.066-0.09-0.105-0.141c-0.27-0.35-0.535-0.664-0.809-0.957c-0.271-0.297-0.55-0.574-0.854-0.854
			c-0.048-0.043-0.093-0.084-0.134-0.119c-0.065,0.041-0.145,0.088-0.233,0.139l-1.744,1.021c-0.312,0.182-0.819,0.184-1.134,0.008
			l-1.755-0.998c-0.324-0.184-0.572-0.604-0.574-0.977l-0.019-2.021c0-0.105,0-0.193,0-0.271c-0.051-0.018-0.106-0.035-0.17-0.053
			c-0.78-0.229-1.588-0.393-2.396-0.488c-0.065-0.008-0.128-0.016-0.183-0.02c-0.028,0.069-0.063,0.15-0.106,0.248l-0.802,1.85
			c-0.148,0.342-0.54,0.633-0.911,0.674l-2.009,0.229c-0.373,0.045-0.821-0.153-1.04-0.45l-1.201-1.621
			c-0.064-0.089-0.118-0.16-0.162-0.226c-0.049,0.017-0.105,0.035-0.168,0.058c-0.732,0.262-1.453,0.588-2.141,0.967
			c-0.057,0.029-0.108,0.061-0.153,0.088c0.019,0.074,0.038,0.162,0.06,0.267l0.426,1.979c0.076,0.365-0.072,0.828-0.35,1.078
			l-1.5,1.35c-0.27,0.242-0.758,0.35-1.107,0.236l-1.92-0.617c-0.103-0.033-0.188-0.062-0.26-0.088
			c-0.033,0.043-0.065,0.092-0.104,0.145c-0.464,0.67-0.874,1.385-1.219,2.125c-0.027,0.061-0.053,0.115-0.074,0.164
			c0.057,0.047,0.121,0.105,0.201,0.178l1.508,1.353c0.277,0.25,0.429,0.713,0.352,1.077l-0.414,1.976
			c-0.076,0.365-0.401,0.729-0.756,0.847l-1.92,0.625c-0.104,0.034-0.189,0.062-0.258,0.081c0,0.054,0.001,0.113,0.003,0.181
			c0.021,0.822,0.108,1.643,0.263,2.438c0.012,0.066,0.024,0.125,0.035,0.178c0.078,0.006,0.17,0.014,0.266,0.023l2.009,0.203
			c0.372,0.037,0.769,0.322,0.921,0.662l0.833,1.846c0.151,0.34,0.104,0.824-0.115,1.127l-1.185,1.635
			c-0.062,0.086-0.114,0.158-0.16,0.219c0.031,0.045,0.068,0.097,0.109,0.148c0.265,0.344,0.543,0.682,0.832,0.998
			c0.238,0.262,0.504,0.527,0.806,0.809c0.051,0.045,0.098,0.088,0.139,0.125c0.063-0.041,0.142-0.086,0.229-0.139l1.746-1.016
			c0.313-0.182,0.82-0.184,1.135-0.004l1.752,1c0.324,0.186,0.568,0.604,0.57,0.979l0.011,2.021
			C142.597,93.276,142.597,93.368,142.596,93.444z M146.911,88.685c-2.547,0-4.995-1.074-6.714-2.949
			c-3.389-3.703-3.136-9.475,0.562-12.863c1.684-1.545,3.865-2.395,6.146-2.395c2.545,0,4.992,1.076,6.715,2.953
			c1.651,1.797,2.504,4.127,2.395,6.562c-0.105,2.426-1.155,4.663-2.951,6.301C151.378,87.835,149.192,88.685,146.911,88.685z
			 M146.905,71.128c-2.117,0-4.146,0.787-5.708,2.223c-3.435,3.148-3.668,8.508-0.521,11.945c1.597,1.742,3.867,2.74,6.234,2.74
			c2.119,0,4.148-0.789,5.715-2.222c1.668-1.521,2.642-3.601,2.74-5.851c0.102-2.262-0.688-4.426-2.223-6.096
			C151.542,72.126,149.27,71.128,146.905,71.128z"/>
	</g>
	<g>
		<path fill="#231F20" d="M169.122,64.294c-6.817,0-12.365-5.548-12.365-12.368c0-6.819,5.548-12.367,12.365-12.367
			c6.82,0,12.369,5.548,12.369,12.367C181.491,58.746,175.942,64.294,169.122,64.294z M169.122,40.036
			c-6.556,0-11.889,5.334-11.889,11.89c0,6.558,5.333,11.892,11.889,11.892c6.559,0,11.893-5.334,11.893-11.892
			C181.014,45.37,175.68,40.036,169.122,40.036z"/>
	</g>
	<circle fill="#00BCD4" cx="169.124" cy="51.926" r="7.119"/>
	<circle fill="#005E6A" cx="169.122" cy="51.926" r="2.943"/>
	<g>
		<path fill="#231F20" d="M169.122,59.282c-4.056,0-7.354-3.3-7.354-7.355c0-4.057,3.3-7.357,7.354-7.357
			c4.059,0,7.358,3.3,7.358,7.357C176.48,55.981,173.18,59.282,169.122,59.282z M169.122,45.046c-3.793,0-6.879,3.086-6.879,6.879
			c0,3.792,3.086,6.878,6.879,6.878c3.795,0,6.881-3.086,6.881-6.878C176.003,48.132,172.915,45.046,169.122,45.046z"/>
	</g>
	<g>
		<path fill="#231F20" d="M169.122,55.106c-1.754,0-3.181-1.426-3.181-3.181c0-1.755,1.427-3.182,3.181-3.182
			c1.756,0,3.184,1.427,3.184,3.182C172.306,53.681,170.876,55.106,169.122,55.106z M169.122,49.222
			c-1.49,0-2.703,1.213-2.703,2.705c0,1.491,1.213,2.704,2.703,2.704c1.492,0,2.705-1.213,2.705-2.704
			C171.827,50.435,170.614,49.222,169.122,49.222z"/>
	</g>
	
		<ellipse transform="matrix(-0.6937 -0.7203 0.7203 -0.6937 246.0297 202.9896)" fill="#FFFFFF" cx="166.181" cy="49.177" rx="0.98" ry="1.849"/>
	<g>
		<path fill="#231F20" d="M165.339,50.881c-0.272,0-0.502-0.088-0.663-0.256c-0.474-0.492-0.185-1.513,0.659-2.324
			c0.818-0.791,1.884-1.055,2.349-0.57c0.244,0.253,0.296,0.649,0.146,1.113c-0.137,0.413-0.422,0.843-0.805,1.212
			C166.489,50.572,165.858,50.881,165.339,50.881z M167.02,47.952c-0.386,0-0.917,0.272-1.354,0.693
			c-0.683,0.659-0.888,1.398-0.646,1.651c0.069,0.071,0.177,0.108,0.319,0.108c0.387,0,0.918-0.272,1.354-0.692
			c0.323-0.312,0.571-0.682,0.682-1.016c0.093-0.284,0.08-0.515-0.035-0.634C167.27,47.988,167.163,47.952,167.02,47.952z"/>
	</g>
	<g>
		<path fill="#231F20" d="M198.833,90.245c-0.25,0-0.396-0.104-0.476-0.194l-16.89-18.644c-0.328-0.371-0.096-1.055,0.552-1.629
			l3.479-3.152c0.399-0.364,0.849-0.584,1.199-0.584c0.25,0,0.399,0.106,0.479,0.197l16.887,18.646
			c0.328,0.362,0.099,1.036-0.558,1.637l-3.479,3.142C199.632,90.026,199.185,90.245,198.833,90.245z M186.695,66.673
			c-0.146,0.018-0.446,0.147-0.76,0.434l-3.481,3.154c-0.386,0.344-0.502,0.664-0.486,0.74l16.873,18.614l-0.008-0.02
			c0.153,0,0.463-0.144,0.76-0.416l3.479-3.14c0.405-0.373,0.504-0.688,0.492-0.756L186.695,66.673z"/>
	</g>
	<g>
		
			<rect x="185.744" y="67.374" transform="matrix(-0.6724 -0.7401 0.7401 -0.6724 258.7414 256.231)" fill="#231F20" width="0.649" height="6.978"/>
	</g>
	<g>
		
			<rect x="187.042" y="68.678" transform="matrix(-0.6708 -0.7416 0.7416 -0.6708 259.5283 259.5331)" fill="#231F20" width="0.648" height="6.976"/>
	</g>
</g>
<g>
	<g>
		<g>
			<path fill="#231F20" d="M87.318,30.479c0-0.074,0.061-0.136,0.135-0.136h0.541c0.074,0,0.135,0.062,0.135,0.136
				c0,0.075-0.061,0.135-0.135,0.135h-0.541C87.379,30.614,87.318,30.554,87.318,30.479z"/>
		</g>
		<g>
			<path fill="#231F20" d="M86.643,31.671L86.643,31.671l0.037-0.697c0-0.074,0.043-0.135,0.117-0.135
				c0.073,0.002,0.114,0.062,0.114,0.137l0,0l0.031,0.695c0,0.075-0.076,0.135-0.15,0.135
				C86.717,31.804,86.643,31.745,86.643,31.671z"/>
		</g>
		<g>
			<path fill="#231F20" d="M85.562,30.403C85.562,30.402,85.562,30.402,85.562,30.403c0-0.076,0.006-0.136,0.08-0.136l0.666,0.009
				c0.076,0,0.115,0.062,0.119,0.136c0,0.075-0.068,0.135-0.144,0.135l-0.644-0.009C85.568,30.538,85.562,30.477,85.562,30.403z"/>
		</g>
		<g>
			<path fill="#231F20" d="M86.643,29.845c0-0.002,0-0.002,0-0.004l0.045-0.694c0.002-0.074,0.041-0.134,0.115-0.132
				c0.073,0,0.108,0.062,0.108,0.135c0,0.001,0,0.001,0,0.002l0.029,0.695c-0.002,0.074-0.076,0.135-0.152,0.134
				C86.717,29.979,86.643,29.919,86.643,29.845z"/>
		</g>
	</g>
	<g>
		<g>
			<path fill="#231F20" d="M90.238,20.847c0-0.114,0.094-0.209,0.209-0.209h0.834c0.113,0,0.207,0.095,0.207,0.209
				c0,0.115-0.094,0.209-0.207,0.209h-0.834C90.332,21.056,90.238,20.964,90.238,20.847z"/>
		</g>
		<g>
			<path fill="#231F20" d="M89.197,22.685C89.197,22.683,89.197,22.683,89.197,22.685l0.055-1.075
				c0.002-0.115,0.021-0.207,0.135-0.207c0.115,0.002,0.133,0.094,0.133,0.209v0.001l0.095,1.073c0,0.114-0.095,0.209-0.209,0.208
				C89.29,22.892,89.197,22.8,89.197,22.685z"/>
		</g>
		<g>
			<path fill="#231F20" d="M87.73,20.729c0,0,0,0,0-0.002c0-0.115-0.092-0.207,0.022-0.206l0.979,0.012
				c0.115,0.002,0.154,0.094,0.158,0.21c0,0.116-0.119,0.209-0.232,0.207l-0.898-0.012C87.646,20.936,87.73,20.843,87.73,20.729z"/>
		</g>
		<g>
			<path fill="#231F20" d="M88.871,19.87c0-0.002,0-0.002,0-0.004l0.232-1.073c0.002-0.113,0.096-0.205,0.211-0.203
				s0.205,0.094,0.205,0.207c0,0.002,0,0.002,0,0.004l0.09,1.074c-0.002,0.113-0.256,0.207-0.371,0.204
				C89.123,20.077,88.871,19.983,88.871,19.87z"/>
		</g>
	</g>
	<g>
		<g>
			<path fill="#231F20" d="M79.826,23.3c0-0.143,0.115-0.323,0.26-0.323h1.033c0.143,0,0.258,0.182,0.258,0.323
				c0,0.145-0.115,0.324-0.258,0.324h-1.033C79.941,23.626,79.826,23.445,79.826,23.3z"/>
		</g>
		<g>
			<path fill="#231F20" d="M78.484,25.567C78.484,25.566,78.484,25.566,78.484,25.567l0.094-1.333
				c0.002-0.145,0.137-0.258,0.279-0.257c0.143,0.002,0.275,0.116,0.275,0.258v0.002l0.018,1.332
				c-0.002,0.144-0.191,0.258-0.336,0.257C78.674,25.824,78.484,25.71,78.484,25.567z"/>
		</g>
		<g>
			<path fill="#231F20" d="M76.537,23.14c0,0,0,0,0-0.002c0-0.143-0.025-0.258,0.119-0.256l1.258,0.015
				c0.143,0.004,0.213,0.116,0.219,0.262c-0.002,0.146-0.135,0.259-0.279,0.257L76.659,23.4
				C76.516,23.399,76.537,23.284,76.537,23.14z"/>
		</g>
		<g>
			<path fill="#231F20" d="M78.484,22.076c0-0.001,0-0.003,0-0.005l0.111-1.33c0.002-0.142,0.131-0.256,0.272-0.254
				s0.265,0.117,0.265,0.258c0,0.002,0,0.003,0,0.005l0.014,1.332c-0.004,0.143-0.191,0.256-0.336,0.254
				C78.67,22.332,78.484,22.216,78.484,22.076z"/>
		</g>
	</g>
</g>
<g>
	<g>
		<g>
			<path fill="#231F20" d="M12.892,22.652c-0.181,0-0.325-0.145-0.325-0.324v-1.298c0-0.18,0.146-0.325,0.325-0.325
				s0.323,0.145,0.323,0.325v1.298C13.215,22.507,13.071,22.652,12.892,22.652z"/>
		</g>
		<g>
			<path fill="#231F20" d="M15.815,24.436h-0.002l-1.672-0.166c-0.18-0.001-0.324-0.065-0.323-0.244
				c0.001-0.179,0.146-0.24,0.325-0.24h0.001l1.672-0.151c0.181,0.001,0.325,0.223,0.323,0.402
				C16.137,24.214,15.995,24.436,15.815,24.436z"/>
		</g>
		<g>
			<path fill="#231F20" d="M12.768,27.032c-0.001,0-0.002,0-0.003,0c-0.181,0-0.323-0.09-0.321-0.271l0.018-1.643
				c0.002-0.178,0.146-0.298,0.328-0.306c0.18,0.002,0.324,0.156,0.322,0.335l-0.02,1.618
				C13.092,26.941,12.946,27.032,12.768,27.032z"/>
		</g>
		<g>
			<path fill="#231F20" d="M11.428,24.436c-0.002,0-0.002,0-0.006,0L9.75,24.249c-0.179-0.003-0.322-0.058-0.318-0.237
				c0.003-0.177,0.146-0.226,0.324-0.226c0.002,0,0.004,0,0.006,0l1.672-0.146c0.18,0.004,0.322,0.224,0.318,0.403
				C11.75,24.22,11.606,24.436,11.428,24.436z"/>
		</g>
	</g>
	<g>
		<g>
			<path fill="#231F20" d="M18.772,27.935c-0.075,0-0.137-0.06-0.137-0.135v-0.54c0-0.075,0.062-0.135,0.137-0.135
				c0.074,0,0.135,0.061,0.135,0.135v0.54C18.907,27.875,18.846,27.935,18.772,27.935z"/>
		</g>
		<g>
			<path fill="#231F20" d="M19.961,28.609L19.961,28.609l-0.695-0.036c-0.075,0-0.135-0.043-0.135-0.118
				c0-0.074,0.061-0.116,0.135-0.116h0.001l0.696-0.03c0.074,0,0.135,0.076,0.135,0.151C20.097,28.536,20.038,28.609,19.961,28.609z
				"/>
		</g>
		<g>
			<path fill="#231F20" d="M18.695,29.689C18.694,29.689,18.694,29.689,18.695,29.689c-0.075,0-0.136-0.004-0.136-0.08l0.008-0.667
				c0.002-0.074,0.062-0.115,0.137-0.119c0.076,0,0.135,0.069,0.135,0.144l-0.008,0.642C18.829,29.685,18.769,29.689,18.695,29.689z
				"/>
		</g>
		<g>
			<path fill="#231F20" d="M18.137,28.609h-0.002l-0.695-0.045c-0.074-0.001-0.134-0.04-0.133-0.115
				c0.002-0.074,0.062-0.11,0.135-0.11c0.001,0,0.002,0,0.002,0l0.696-0.028c0.073,0.001,0.134,0.077,0.132,0.151
				C18.272,28.538,18.211,28.609,18.137,28.609z"/>
		</g>
	</g>
</g>
</svg>
