<?xml version="1.0" encoding="utf-8"?>
<!-- Generator: Adobe Illustrator 16.0.0, SVG Export Plug-In . SVG Version: 6.00 Build 0)  -->
<!DOCTYPE svg PUBLIC "-//W3C//DTD SVG 1.1//EN" "http://www.w3.org/Graphics/SVG/1.1/DTD/svg11.dtd">
<svg version="1.1" id="Layer_1" xmlns="http://www.w3.org/2000/svg" xmlns:xlink="http://www.w3.org/1999/xlink" x="0px" y="0px"
	 width="100px" height="100px" viewBox="0 0 100 100" enable-background="new 0 0 100 100" xml:space="preserve">
<g>
	<path fill="#1B2837" d="M82.777,41.515H12.79v-12.9h69.987V41.515z M14.022,40.282h67.522V29.847H14.022V40.282z"/>
	<path fill="#1B2837" d="M82.777,64.702H12.79V51.801h69.987V64.702z M14.022,63.471h67.522V53.033H14.022V63.471z"/>
	<g>
		<path fill="#1B2837" d="M13.89,21.091h1.03v4.555h2.335v0.966H13.89V21.091z"/>
		<path fill="#1B2837" d="M21.154,24.495c0,1.521-0.563,2.213-1.689,2.213c-1.128,0-1.691-0.692-1.691-2.213
			s0.563-2.213,1.691-2.213C20.591,22.282,21.154,22.974,21.154,24.495z M18.779,24.342v0.306c0,0.813,0.186,1.248,0.685,1.248
			c0.498,0,0.684-0.435,0.684-1.248v-0.306c0-0.813-0.186-1.248-0.684-1.248C18.965,23.095,18.779,23.529,18.779,24.342z"/>
		<path fill="#1B2837" d="M25.391,21.671c0,0.604-0.258,0.949-0.684,1.078c0.217,0.241,0.338,0.58,0.338,0.974
			c0,0.869-0.547,1.44-1.57,1.44h-0.402c-0.168,0-0.29,0.113-0.29,0.257c0,0.145,0.104,0.25,0.25,0.25h1.464
			c0.531,0,0.965,0.426,0.965,1.103c0,0.789-0.611,1.304-1.369,1.304h-1.552c-0.515,0-0.934-0.395-0.934-0.974
			c0-0.419,0.233-0.692,0.539-0.861c-0.209-0.128-0.338-0.346-0.338-0.636c0-0.37,0.282-0.62,0.62-0.74
			c-0.338-0.25-0.515-0.644-0.515-1.143c0-0.869,0.547-1.44,1.561-1.44c0.266,0,0.508,0.04,0.709,0.121
			c0.321-0.233,0.41-0.579,0.41-0.732L25.391,21.671L25.391,21.671z M22.969,26.564c-0.217,0-0.387,0.177-0.387,0.386
			c0,0.241,0.17,0.394,0.387,0.394h1.086c0.242,0,0.435-0.153,0.435-0.394c0-0.242-0.177-0.386-0.395-0.386H22.969z M22.881,23.723
			c0,0.451,0.201,0.724,0.594,0.724c0.403,0,0.604-0.273,0.604-0.724c0-0.451-0.201-0.724-0.604-0.724
			C23.082,22.999,22.881,23.272,22.881,23.723z"/>
		<path fill="#1B2837" d="M26.917,21.671h-0.966v-0.877h0.966V21.671z M26.917,26.612h-0.966v-4.233h0.966V26.612z"/>
		<path fill="#1B2837" d="M30.942,23.643v2.969h-0.966v-2.704c0-0.547-0.209-0.749-0.555-0.749c-0.379,0-0.661,0.37-0.661,0.845
			v2.608h-0.965v-4.233H28.6l0.096,0.523h0.048c0.218-0.33,0.563-0.62,1.07-0.62C30.467,22.282,30.942,22.644,30.942,23.643z"/>
	</g>
	<g>
		<path fill="#1B2837" d="M14.92,47.366v2.141h-1.03v-5.521h1.972c1.142,0,1.73,0.7,1.73,1.658c0,1.038-0.693,1.722-1.73,1.722
			H14.92z M14.92,44.904v1.553h0.838c0.498,0,0.772-0.306,0.772-0.813c0-0.451-0.282-0.74-0.772-0.74H14.92z"/>
		<path fill="#1B2837" d="M21.001,46.424v2.085c0,0.201,0.113,0.282,0.226,0.282h0.193v0.683c-0.105,0.058-0.282,0.13-0.572,0.13
			c-0.386,0-0.651-0.227-0.749-0.556h-0.04c-0.242,0.338-0.508,0.556-1.071,0.556c-0.394,0-1.062-0.209-1.062-1.191
			c0-1.143,0.869-1.481,2.1-1.481v-0.443c0-0.29-0.072-0.523-0.443-0.523c-0.394,0-0.506,0.241-0.506,0.443v0.121h-0.941
			c-0.008-0.048-0.008-0.105-0.008-0.177c0-0.708,0.563-1.175,1.432-1.175C20.542,45.177,21.001,45.636,21.001,46.424z
			 M20.027,47.632c-0.563,0-1.111,0.145-1.111,0.692c0,0.289,0.146,0.475,0.476,0.475c0.458,0,0.635-0.427,0.635-0.925V47.632z"/>
		<path fill="#1B2837" d="M24.764,46.328c0,0.088-0.008,0.177-0.008,0.185h-0.982c0-0.192-0.048-0.33-0.128-0.418
			c-0.08-0.088-0.201-0.129-0.346-0.129c-0.298,0-0.499,0.161-0.499,0.418c0,0.821,2.068,0.177,2.068,1.851
			c0,1.03-0.676,1.369-1.578,1.369c-0.974,0-1.537-0.54-1.537-1.344c0-0.041,0.007-0.097,0.007-0.097h0.982v0.057
			c0.008,0.451,0.306,0.596,0.58,0.596c0.257,0,0.563-0.113,0.563-0.459c0-0.893-2.069-0.258-2.069-1.891
			c0-0.861,0.668-1.288,1.513-1.288C24.136,45.177,24.764,45.604,24.764,46.328z"/>
		<path fill="#1B2837" d="M28.438,46.328c0,0.088-0.008,0.177-0.008,0.185h-0.982c0-0.192-0.048-0.33-0.129-0.418
			c-0.081-0.088-0.201-0.129-0.345-0.129c-0.298,0-0.5,0.161-0.5,0.418c0,0.821,2.069,0.177,2.069,1.851
			c0,1.03-0.676,1.369-1.578,1.369c-0.974,0-1.537-0.54-1.537-1.344c0-0.041,0.007-0.097,0.007-0.097h0.982v0.057
			c0.008,0.451,0.306,0.596,0.58,0.596c0.257,0,0.563-0.113,0.563-0.459c0-0.893-2.069-0.258-2.069-1.891
			c0-0.861,0.668-1.288,1.513-1.288C27.81,45.177,28.438,45.604,28.438,46.328z"/>
		<path fill="#1B2837" d="M32.941,49.507h-0.975l-0.417-2.021c-0.089-0.426-0.122-1.046-0.122-1.046h-0.048
			c0,0-0.031,0.604-0.121,1.039l-0.41,2.028h-0.974l-1.03-4.233h0.965l0.403,1.738c0.129,0.571,0.169,1.328,0.169,1.328h0.032
			c0,0,0.057-0.717,0.177-1.32l0.362-1.746h0.965l0.362,1.754c0.089,0.411,0.177,1.312,0.177,1.312h0.033
			c0,0,0.113-0.837,0.209-1.312l0.371-1.754h0.893L32.941,49.507z"/>
		<path fill="#1B2837" d="M37.687,47.39c0,1.521-0.563,2.214-1.69,2.214s-1.69-0.693-1.69-2.214s0.563-2.213,1.69-2.213
			C37.123,45.177,37.687,45.869,37.687,47.39z M35.312,47.237v0.306c0,0.813,0.186,1.248,0.685,1.248s0.684-0.435,0.684-1.248
			v-0.306c0-0.813-0.185-1.248-0.684-1.248C35.498,45.99,35.312,46.424,35.312,47.237z"/>
		<path fill="#1B2837" d="M40.555,45.241v0.934H40.21c-0.419,0-0.79,0.225-0.79,0.974v2.358h-0.965v-4.233h0.805l0.112,0.62h0.048
			c0.113-0.354,0.306-0.716,0.733-0.716C40.402,45.177,40.555,45.241,40.555,45.241z"/>
		<path fill="#1B2837" d="M44.173,49.507h-0.805l-0.096-0.523H43.23c-0.209,0.411-0.555,0.62-0.958,0.62
			c-0.836,0-1.36-0.685-1.36-2.222c0-1.538,0.563-2.205,1.312-2.205c0.427,0,0.789,0.193,0.942,0.531h0.04v-2.02h0.966
			L44.173,49.507L44.173,49.507z M41.919,47.237v0.306c0,0.765,0.177,1.184,0.644,1.184s0.644-0.419,0.644-1.184v-0.29
			c0-0.765-0.177-1.199-0.644-1.199S41.919,46.473,41.919,47.237z"/>
	</g>
	<g>
		<path fill="#1B2837" d="M19.091,36.661h-2.189l-0.378,1.231h-0.709l1.754-5.521h0.91l1.754,5.521h-0.765L19.091,36.661z
			 M17.096,36.017h1.794l-0.749-2.455c-0.057-0.185-0.129-0.611-0.129-0.611H17.98c0,0-0.072,0.435-0.129,0.611L17.096,36.017z"/>
		<path fill="#1B2837" d="M23.417,37.892h-0.498L22.83,37.4h-0.04c-0.202,0.386-0.539,0.587-0.925,0.587
			c-0.805,0-1.312-0.668-1.312-2.221c0-1.538,0.563-2.206,1.262-2.206c0.411,0,0.757,0.186,0.901,0.5h0.041v-1.988h0.66V37.892z
			 M21.245,35.622v0.306c0,1.055,0.249,1.473,0.756,1.473c0.508,0,0.757-0.499,0.757-1.473v-0.273c0-0.998-0.249-1.505-0.757-1.505
			C21.494,34.149,21.245,34.568,21.245,35.622z"/>
		<path fill="#1B2837" d="M28.918,34.841v3.05h-0.66V34.89c0-0.587-0.233-0.74-0.547-0.74c-0.395,0-0.725,0.427-0.725,1.159v2.583
			h-0.66V34.89c0-0.587-0.233-0.74-0.547-0.74c-0.394,0-0.732,0.427-0.732,1.159v2.583h-0.661v-4.233h0.5l0.088,0.491h0.049
			c0.225-0.418,0.563-0.588,0.965-0.588c0.418,0,0.749,0.177,0.901,0.612c0.225-0.402,0.628-0.612,1.03-0.612
			C28.516,33.562,28.918,33.9,28.918,34.841z"/>
		<path fill="#1B2837" d="M30.471,32.862H29.81v-0.789h0.661V32.862L30.471,32.862z M30.471,37.892H29.81v-4.233h0.661V37.892
			L30.471,37.892z"/>
		<path fill="#1B2837" d="M34.061,34.841v3.05h-0.66V34.89c0-0.587-0.242-0.74-0.596-0.74c-0.418,0-0.788,0.427-0.788,1.159v2.583
			h-0.661v-4.233h0.5l0.088,0.491h0.049c0.233-0.418,0.603-0.588,1.021-0.588C33.65,33.562,34.061,33.9,34.061,34.841z"/>
		<path fill="#1B2837" d="M35.61,32.862h-0.66v-0.789h0.661L35.61,32.862L35.61,32.862z M35.61,37.892h-0.66v-4.233h0.661
			L35.61,37.892L35.61,37.892z"/>
		<path fill="#1B2837" d="M38.91,34.721c0,0.056-0.007,0.137-0.007,0.153h-0.685v-0.072c0-0.33-0.136-0.66-0.587-0.66
			c-0.467,0-0.571,0.346-0.571,0.58c0,0.925,1.931,0.386,1.931,1.964c0,0.909-0.57,1.303-1.351,1.303
			c-0.974,0-1.36-0.611-1.36-1.239c0-0.113,0.007-0.162,0.007-0.178h0.693v0.081c0,0.531,0.306,0.757,0.692,0.757
			c0.345,0,0.635-0.218,0.635-0.628c0-1.062-1.931-0.491-1.931-2.012c0-0.748,0.515-1.207,1.32-1.207
			C38.484,33.562,38.91,34.093,38.91,34.721z"/>
		<path fill="#1B2837" d="M40.452,33.659h0.572v0.587h-0.572v2.769c0,0.25,0.129,0.386,0.378,0.386h0.194v0.458
			c-0.113,0.065-0.314,0.113-0.476,0.113c-0.579,0-0.755-0.491-0.755-0.974v-2.752H39.43v-0.587h0.362l0.144-1.175h0.515
			L40.452,33.659L40.452,33.659z"/>
		<path fill="#1B2837" d="M43.303,33.626v0.684h-0.218c-0.419,0-0.788,0.25-0.788,0.999v2.583h-0.661v-4.233h0.5l0.088,0.555h0.049
			c0.104-0.322,0.313-0.652,0.716-0.652C43.166,33.562,43.303,33.626,43.303,33.626z"/>
		<path fill="#1B2837" d="M46.428,34.745v2.375c0,0.201,0.112,0.281,0.225,0.281h0.258v0.458c-0.072,0.041-0.225,0.097-0.435,0.097
			c-0.347,0-0.587-0.209-0.668-0.523h-0.041c-0.216,0.346-0.587,0.555-1.03,0.555c-0.419,0-1.111-0.168-1.111-1.191
			c0-1.167,0.91-1.417,2.141-1.417v-0.547c0-0.402-0.128-0.684-0.667-0.684c-0.499,0-0.651,0.346-0.651,0.668v0.096h-0.652
			c-0.008-0.048-0.008-0.104-0.008-0.177c0-0.772,0.563-1.175,1.36-1.175C46.001,33.562,46.428,33.996,46.428,34.745z
			 M45.767,35.968c-0.86,0-1.449,0.129-1.449,0.789c0,0.483,0.202,0.644,0.572,0.644c0.418,0,0.877-0.346,0.877-1.046V35.968z"/>
		<path fill="#1B2837" d="M48.162,33.659h0.572v0.587h-0.572v2.769c0,0.25,0.129,0.386,0.378,0.386h0.194v0.458
			c-0.113,0.065-0.314,0.113-0.476,0.113c-0.579,0-0.756-0.491-0.756-0.974v-2.752H47.14v-0.587h0.362l0.145-1.175h0.515V33.659
			L48.162,33.659z"/>
		<path fill="#1B2837" d="M52.212,35.775c0,1.521-0.522,2.213-1.513,2.213s-1.515-0.692-1.515-2.213s0.524-2.213,1.515-2.213
			C51.688,33.562,52.212,34.253,52.212,35.775z M49.878,35.622v0.306c0,0.974,0.273,1.473,0.821,1.473
			c0.546,0,0.82-0.499,0.82-1.473v-0.306c0-0.974-0.274-1.473-0.82-1.473C50.151,34.149,49.878,34.648,49.878,35.622z"/>
		<path fill="#1B2837" d="M54.688,33.626v0.684h-0.219c-0.418,0-0.787,0.25-0.787,0.999v2.583h-0.66v-4.233h0.498l0.088,0.555h0.051
			c0.104-0.322,0.312-0.652,0.716-0.652C54.55,33.562,54.688,33.626,54.688,33.626z"/>
	</g>
	<g>
		<path fill="#1B2837" d="M18.492,57.421l1.072-0.737l0.494,0.84l-1.189,0.551l1.189,0.552l-0.494,0.854l-1.072-0.754l0.13,1.291
			h-0.985l0.13-1.291l-1.072,0.754l-0.493-0.854l1.189-0.552l-1.189-0.551l0.493-0.84l1.072,0.752l-0.13-1.289h0.985L18.492,57.421z
			"/>
		<path fill="#1B2837" d="M26.425,57.421l1.072-0.737l0.493,0.84l-1.189,0.551l1.189,0.552l-0.493,0.854l-1.072-0.754l0.13,1.291
			H25.57l0.13-1.291l-1.072,0.754l-0.494-0.854l1.189-0.552l-1.189-0.551l0.494-0.84l1.072,0.752l-0.13-1.289h0.985L26.425,57.421z"
			/>
		<path fill="#1B2837" d="M34.358,57.421l1.072-0.737l0.493,0.84l-1.189,0.551l1.189,0.552L35.43,59.48l-1.072-0.756l0.13,1.291
			h-0.986l0.13-1.291L32.56,59.48l-0.493-0.855l1.189-0.552l-1.189-0.55l0.493-0.842l1.072,0.754l-0.13-1.291h0.986L34.358,57.421z"
			/>
		<path fill="#1B2837" d="M42.291,57.421l1.072-0.737l0.494,0.84l-1.189,0.551l1.189,0.552l-0.494,0.854l-1.072-0.754l0.13,1.291
			h-0.985l0.13-1.291l-1.072,0.754L40,58.625l1.189-0.552L40,57.523l0.493-0.842l1.072,0.754l-0.13-1.291h0.985L42.291,57.421z"/>
	</g>
	<g>
		<path fill="#1B2837" d="M52.096,56.093h-1.938l-0.104,1.683c0.177-0.178,0.499-0.426,0.974-0.426c0.724,0,1.304,0.57,1.304,1.785
			c0,1.217-0.587,1.899-1.536,1.899c-0.934,0-1.545-0.685-1.545-1.812h0.683c0,0.756,0.378,1.232,0.862,1.232
			c0.489,0,0.852-0.428,0.852-1.321c0-0.764-0.328-1.19-0.797-1.19c-0.354,0-0.659,0.258-0.82,0.637l-0.63-0.104l0.185-3.059h2.511
			V56.093z"/>
		<path fill="#1B2837" d="M57.67,56.857c0,0.521-0.199,0.981-0.604,1.246c0.508,0.252,0.717,0.726,0.717,1.321
			c0,0.886-0.442,1.608-1.514,1.608c-1.07,0-1.514-0.725-1.514-1.608c0-0.597,0.209-1.069,0.709-1.321
			c-0.395-0.265-0.596-0.725-0.596-1.246c0-0.844,0.477-1.537,1.4-1.537C57.195,55.32,57.67,56.014,57.67,56.857z M55.434,59.426
			c0,0.627,0.291,1.021,0.838,1.021s0.836-0.395,0.836-1.021c0-0.628-0.289-1.016-0.836-1.016S55.434,58.798,55.434,59.426z
			 M55.529,56.865c0,0.597,0.289,0.958,0.74,0.958s0.75-0.361,0.75-0.958c0-0.596-0.299-0.957-0.75-0.957
			S55.529,56.271,55.529,56.865z"/>
		<path fill="#1B2837" d="M62.207,55.32c-0.307,1.48-1.175,3.228-1.48,3.67h1.514v-1.737c0.162-0.396,0.234-0.685,0.339-1.112H62.9
			v2.851h0.562v0.588H62.9v1.358h-0.66v-1.358h-2.133v-0.595c0.58-1.055,1.11-2.407,1.433-3.664H62.207L62.207,55.32z"/>
		<path fill="#1B2837" d="M68.748,56.753c0,1.386-1.398,2.278-2.02,3.228c-0.065,0.098-0.113,0.193-0.146,0.281h2.188v0.676h-3
			v-0.104c0-0.436,0.138-0.838,0.387-1.199c0.658-0.967,1.891-1.764,1.891-2.89c0-0.371-0.16-0.812-0.749-0.812
			c-0.569,0-0.772,0.481-0.772,1.053v0.33h-0.684c0,0-0.023-0.129-0.023-0.32c0-1.184,0.691-1.676,1.488-1.676
			S68.748,55.739,68.748,56.753z"/>
	</g>
	
		<rect x="68.489" y="69.144" transform="matrix(-0.707 -0.7072 0.7072 -0.707 72.2939 169.4719)" fill="#1B2837" width="5.526" height="1.233"/>
	<path fill="#1B2837" d="M60.844,73.064c-2.412,0-4.785-0.635-6.863-1.836c-2.078-1.205-3.814-2.94-5.021-5.022
		c-1.201-2.077-1.836-4.45-1.836-6.86c0-2.414,0.635-4.789,1.836-6.863c1.204-2.082,2.942-3.818,5.021-5.021
		c4.153-2.403,9.569-2.404,13.727,0c2.08,1.204,3.816,2.94,5.021,5.021c1.201,2.074,1.836,4.449,1.836,6.863
		c0,2.413-0.635,4.786-1.836,6.86c-1.205,2.082-2.94,3.817-5.021,5.022C65.629,72.432,63.257,73.064,60.844,73.064z M60.844,48.087
		c-1.979,0-3.926,0.521-5.628,1.507c-1.709,0.987-3.134,2.413-4.125,4.122c-0.984,1.702-1.504,3.647-1.504,5.63
		c0,1.979,0.52,3.924,1.504,5.627c0.991,1.709,2.417,3.135,4.125,4.123c3.401,1.969,7.851,1.971,11.255,0
		c1.709-0.988,3.135-2.414,4.123-4.123c0.984-1.703,1.506-3.646,1.506-5.627c0-1.981-0.521-3.93-1.506-5.63
		c-0.988-1.709-2.414-3.135-4.123-4.122C64.77,48.608,62.822,48.087,60.844,48.087z"/>
	<path fill="#1B2837" d="M86.913,88.212c-0.595,0-1.153-0.231-1.575-0.651L71.923,74.145c-0.266-0.266-0.418-0.631-0.418-1.006
		s0.152-0.742,0.419-1.007l1.709-1.708c0.536-0.535,1.473-0.538,2.01,0.002L89.059,83.84c0.868,0.869,0.868,2.281,0,3.15
		l-0.57,0.568C88.066,87.98,87.508,88.212,86.913,88.212z M74.639,71.24c-0.037,0-0.089,0.01-0.135,0.054l-1.71,1.71
		c-0.036,0.036-0.058,0.086-0.058,0.135c0,0.051,0.021,0.098,0.057,0.133l13.416,13.418c0.376,0.375,1.033,0.375,1.408,0
		l0.568-0.569c0.39-0.39,0.39-1.021,0-1.408L74.771,71.296C74.727,71.25,74.674,71.24,74.639,71.24z"/>
	<g>
		<path fill="#1B2837" d="M88.053,87.124c-0.629,0.629-1.648,0.629-2.279,0L72.357,73.708c-0.151-0.151-0.236-0.354-0.236-0.569
			c0-0.214,0.085-0.42,0.236-0.57l1.711-1.709c0.312-0.312,0.824-0.312,1.138,0l13.416,13.416c0.63,0.631,0.63,1.65,0,2.279
			L88.053,87.124z"/>
		<path fill="#1B2837" d="M86.913,88.212c-0.595,0-1.153-0.231-1.575-0.651L71.923,74.145c-0.266-0.266-0.418-0.631-0.418-1.006
			s0.152-0.742,0.419-1.007l1.709-1.708c0.536-0.535,1.473-0.538,2.01,0.002L89.059,83.84c0.868,0.869,0.868,2.281,0,3.15
			l-0.57,0.568C88.066,87.98,87.508,88.212,86.913,88.212z M74.639,71.24c-0.037,0-0.089,0.01-0.135,0.054l-1.71,1.71
			c-0.036,0.036-0.058,0.086-0.058,0.135c0,0.051,0.021,0.098,0.057,0.133l13.416,13.418c0.376,0.375,1.033,0.375,1.408,0
			l0.568-0.569c0.39-0.39,0.39-1.021,0-1.408L74.771,71.296C74.727,71.25,74.674,71.24,74.639,71.24z"/>
	</g>
</g>
</svg>
