<?xml version="1.0" encoding="utf-8"?>
<!-- Generator: Adobe Illustrator 16.0.0, SVG Export Plug-In . SVG Version: 6.00 Build 0)  -->
<!DOCTYPE svg PUBLIC "-//W3C//DTD SVG 1.1//EN" "http://www.w3.org/Graphics/SVG/1.1/DTD/svg11.dtd">
<svg version="1.1" id="Layer_1" xmlns="http://www.w3.org/2000/svg" xmlns:xlink="http://www.w3.org/1999/xlink" x="0px" y="0px"
	 width="100px" height="100px" viewBox="0 0 100 100" enable-background="new 0 0 100 100" xml:space="preserve">
<g id="XMLID_628_">
	<g id="XMLID_667_">
		<path fill="#FFFFFF" d="M80.087,73.068H23.094c-1.959,0-3.549-1.589-3.549-3.551v-39.34c0-1.961,1.59-3.551,3.549-3.551h56.993
			c1.962,0,3.552,1.589,3.552,3.551v39.34C83.639,71.479,82.049,73.068,80.087,73.068z"/>
	</g>
	<g id="XMLID_666_">
		<path fill="#00B8D4" d="M19.545,36.528v-6.69c0-1.773,1.439-3.211,3.212-3.211h57.669c1.773,0,3.213,1.438,3.213,3.211v6.69
			H19.545z"/>
	</g>
	<g id="XMLID_665_">
		<rect id="XMLID_1572_" x="19.545" y="35.387" fill="#414042" width="64.094" height="2.632"/>
	</g>
	<g id="XMLID_664_">
		<rect id="XMLID_1571_" x="26.905" y="30.807" fill="#414042" width="2.566" height="2.63"/>
	</g>
	<g id="XMLID_663_">
		<rect id="XMLID_1570_" x="32.843" y="30.807" fill="#414042" width="2.563" height="2.63"/>
	</g>
	<g id="XMLID_662_">
		<rect id="XMLID_1569_" x="38.779" y="30.807" fill="#414042" width="2.565" height="2.63"/>
	</g>
	<g id="XMLID_660_">
		<path id="XMLID_1568_" fill="#414042" d="M80.222,74.385h-1.319v-2.633h1.319c1.158,0,2.1-0.941,2.1-2.101V30.042
			c0-1.157-0.941-2.1-2.1-2.1H70.066v-2.632h10.155c2.609,0,4.732,2.123,4.732,4.731v39.609
			C84.954,72.263,82.831,74.385,80.222,74.385z"/>
	</g>
	<g id="XMLID_659_">
		<rect id="XMLID_1567_" x="58.087" y="25.311" fill="#414042" width="8.099" height="2.632"/>
	</g>
	<g id="XMLID_658_">
		<path id="XMLID_1566_" fill="#414042" d="M23.966,74.385h-1.005c-2.61,0-4.732-2.122-4.732-4.733V30.042
			c0-2.608,2.123-4.731,4.732-4.731h33.533v2.632H22.961c-1.159,0-2.101,0.942-2.101,2.1v39.609c0,1.159,0.942,2.101,2.101,2.101
			h1.005V74.385z"/>
	</g>
	<g id="XMLID_657_">
		<path fill="#FFFFFF" d="M79.585,89.146c0-15.427-12.508-27.934-27.934-27.934c-15.426,0-27.933,12.507-27.933,27.934H79.585z"/>
	</g>
	<g id="XMLID_656_">
		<path id="XMLID_1565_" fill="#414042" d="M80.9,89.146h-2.633c0-14.677-11.938-26.618-26.616-26.618S25.034,74.47,25.034,89.146
			h-2.632c0-16.13,13.121-29.25,29.249-29.25C67.78,59.896,80.9,73.017,80.9,89.146z"/>
	</g>
	<g id="XMLID_652_">
		<path fill="#3677A2" d="M75.301,89.146c0-13.062-10.587-23.65-23.649-23.65c-13.062,0-23.65,10.588-23.65,23.65H75.301z"/>
	</g>
	<g id="XMLID_651_">
		<path fill="#FFFFFF" d="M64.524,89.146c0-7.111-5.763-12.874-12.873-12.874s-12.874,5.763-12.874,12.874H64.524z"/>
	</g>
	<g id="XMLID_650_">
		<path fill="#414042" d="M54.589,89.146c0-1.621-1.316-2.934-2.938-2.934s-2.935,1.312-2.935,2.934H54.589z"/>
	</g>
	<g id="XMLID_649_">
		<path id="XMLID_1564_" fill="#414042" d="M76.617,89.146h-2.632c0-12.315-10.02-22.335-22.334-22.335s-22.334,10.02-22.334,22.335
			h-2.632c0-13.767,11.199-24.967,24.966-24.967C65.418,64.18,76.617,75.38,76.617,89.146z"/>
	</g>
	<g id="XMLID_648_">
		
			<rect id="XMLID_1563_" x="50.308" y="65.132" transform="matrix(0.9999 0.013 -0.013 0.9999 0.8799 -0.6649)" fill="#414042" width="2.631" height="4.524"/>
	</g>
	<g id="XMLID_647_">
		
			<rect id="XMLID_1562_" x="60.09" y="68.104" transform="matrix(0.8591 0.5118 -0.5118 0.8591 44.6197 -21.524)" fill="#414042" width="2.631" height="4.361"/>
	</g>
	<g id="XMLID_646_">
		
			<rect id="XMLID_1561_" x="68.752" y="76.113" transform="matrix(0.4895 0.872 -0.872 0.4895 104.2162 -21.0293)" fill="#414042" width="2.632" height="4.749"/>
	</g>
	<g id="XMLID_645_">
		
			<rect id="XMLID_1560_" x="30.852" y="77.193" transform="matrix(0.8589 0.5122 -0.5122 0.8589 44.9017 -5.9373)" fill="#414042" width="4.745" height="2.63"/>
	</g>
	<g id="XMLID_644_">
		
			<rect id="XMLID_1559_" x="39.698" y="68.978" transform="matrix(0.4879 0.8729 -0.8729 0.4879 82.8027 -0.56)" fill="#414042" width="4.361" height="2.633"/>
	</g>
	<g id="XMLID_641_">
		<polygon fill="#414042" points="51.508,86.754 62.328,76.968 63.055,77.688 53.376,88.604 		"/>
	</g>
	<g id="XMLID_637_">
		<g id="XMLID_640_">
			<rect id="XMLID_1558_" x="50.336" y="56.027" fill="#414042" width="2.631" height="5.186"/>
		</g>
		<g id="XMLID_639_">
			<path fill="#00BCD4" d="M55.838,58.222h-8.494c-0.78,0-1.41-0.632-1.41-1.409v-2.77c0-0.777,0.63-1.41,1.41-1.41h8.494
				c0.78,0,1.41,0.633,1.41,1.41v2.77C57.248,57.59,56.618,58.222,55.838,58.222z"/>
		</g>
		<g id="XMLID_638_">
			<path id="XMLID_1555_" fill="#414042" d="M55.838,59.537h-8.494c-1.504,0-2.726-1.224-2.726-2.725v-2.77
				c0-1.504,1.222-2.727,2.726-2.727h8.494c1.505,0,2.726,1.223,2.726,2.727v2.77C58.563,58.313,57.343,59.537,55.838,59.537z
				 M47.344,53.948l-0.094,2.864l8.588,0.094c0.051,0,0.095-0.042,0.095-0.094v-2.77L47.344,53.948z"/>
		</g>
	</g>
	<g id="XMLID_633_">
		<g id="XMLID_636_">
			
				<rect id="XMLID_1554_" x="66.371" y="61.206" transform="matrix(0.866 0.5 -0.5 0.866 40.6679 -25.3769)" fill="#414042" width="2.631" height="3.982"/>
		</g>
		<g id="XMLID_635_">
			<path fill="#FFFFFF" d="M70.343,64.375l-5.085-2.938c-0.674-0.39-0.904-1.249-0.518-1.924l0.738-1.275
				c0.39-0.675,1.251-0.904,1.925-0.516l5.084,2.938c0.676,0.388,0.906,1.252,0.517,1.923l-0.737,1.278
				C71.879,64.533,71.017,64.766,70.343,64.375z"/>
		</g>
		<g id="XMLID_634_">
			<path id="XMLID_1551_" fill="#414042" d="M71.043,65.88c-0.464,0-0.93-0.117-1.357-0.363l-5.085-2.938
				c-1.303-0.752-1.747-2.421-0.998-3.724l0.737-1.273c0.362-0.632,0.952-1.083,1.654-1.271c0.703-0.189,1.437-0.089,2.068,0.274
				l5.084,2.936c0.63,0.365,1.082,0.953,1.271,1.655c0.188,0.702,0.089,1.438-0.274,2.069l-0.736,1.275
				C72.902,65.392,71.983,65.88,71.043,65.88z M71.001,63.238c0.035,0.018,0.105,0.003,0.127-0.035l0.736-1.277l-5.119-3.064
				l-0.864,1.309L71.001,63.238z"/>
		</g>
	</g>
	<g id="XMLID_629_">
		<g id="XMLID_632_">
			
				<rect id="XMLID_1550_" x="33.2" y="61.881" transform="matrix(0.5001 0.866 -0.866 0.5001 72.3192 1.119)" fill="#414042" width="3.981" height="2.631"/>
		</g>
		<g id="XMLID_631_">
			<path fill="#FFFFFF" d="M32.535,64.375l5.084-2.938c0.673-0.39,0.905-1.249,0.514-1.924l-0.736-1.275
				c-0.389-0.675-1.251-0.904-1.924-0.516l-5.087,2.938c-0.671,0.388-0.903,1.252-0.514,1.923l0.737,1.278
				C31,64.533,31.86,64.766,32.535,64.375z"/>
		</g>
		<g id="XMLID_630_">
			<path id="XMLID_1547_" fill="#414042" d="M31.836,65.88c-0.942,0-1.861-0.488-2.367-1.36l-0.736-1.278
				c-0.752-1.3-0.303-2.967,0.996-3.722l5.087-2.936c0.628-0.363,1.362-0.464,2.067-0.274c0.702,0.188,1.288,0.64,1.654,1.271
				l0.738,1.273c0.75,1.303,0.301,2.972-0.998,3.724l-5.084,2.938C32.765,65.763,32.295,65.88,31.836,65.88z M36.257,58.896
				l-5.213,2.902l0.705,1.404l0.787,1.172l-0.658-1.137l5.085-2.938L36.257,58.896z"/>
		</g>
	</g>
</g>
<g>
	<g>
		<g>
			<path fill="#231F20" d="M18.16,77.342c-0.078,0-0.141-0.063-0.141-0.141v-0.564c0-0.078,0.063-0.142,0.141-0.142
				c0.077,0,0.141,0.063,0.141,0.142v0.564C18.301,77.278,18.237,77.342,18.16,77.342z"/>
		</g>
		<g>
			<path fill="#231F20" d="M19.404,78.048L19.404,78.048l-0.728-0.039c-0.077,0-0.141-0.045-0.139-0.122
				c0-0.076,0.064-0.119,0.141-0.119l0,0l0.728-0.033c0.078,0,0.141,0.08,0.139,0.157C19.545,77.971,19.482,78.048,19.404,78.048z"
				/>
		</g>
		<g>
			<path fill="#231F20" d="M18.081,79.176C18.08,79.176,18.08,79.176,18.081,79.176c-0.08,0-0.143-0.006-0.141-0.084l0.008-0.695
				c0-0.079,0.063-0.12,0.142-0.124c0.078,0,0.142,0.071,0.14,0.149l-0.008,0.672C18.221,79.17,18.158,79.176,18.081,79.176z"/>
		</g>
		<g>
			<path fill="#231F20" d="M17.497,78.048c0,0,0,0-0.002,0l-0.726-0.047c-0.078-0.002-0.139-0.043-0.139-0.12
				c0.002-0.077,0.065-0.113,0.142-0.113c0.001,0,0.001,0,0.002,0l0.727-0.031c0.078,0.002,0.14,0.08,0.139,0.159
				C17.638,77.971,17.575,78.048,17.497,78.048z"/>
		</g>
	</g>
	<g>
		<g>
			<path fill="#231F20" d="M8.103,74.293c-0.12,0-0.218-0.098-0.218-0.219v-0.871c0-0.118,0.098-0.216,0.218-0.216
				s0.216,0.098,0.216,0.216v0.871C8.319,74.195,8.223,74.293,8.103,74.293z"/>
		</g>
		<g>
			<path fill="#231F20" d="M10.021,75.38C10.02,75.38,10.02,75.38,10.021,75.38l-1.123-0.057c-0.12-0.003-0.216-0.021-0.216-0.142
				c0.002-0.12,0.098-0.139,0.218-0.139h0.001l1.121-0.099c0.12,0,0.218,0.099,0.217,0.219S10.14,75.38,10.021,75.38z"/>
		</g>
		<g>
			<path fill="#231F20" d="M7.978,76.912c0,0,0,0-0.002,0c-0.121,0-0.216,0.096-0.215-0.023l0.012-1.023
				c0.002-0.12,0.099-0.161,0.219-0.165c0.122,0,0.218,0.124,0.216,0.242l-0.012,0.938C8.194,76.999,8.099,76.912,7.978,76.912z"/>
		</g>
		<g>
			<path fill="#231F20" d="M7.081,75.721c-0.002,0-0.002,0-0.004,0l-1.12-0.243c-0.121-0.002-0.216-0.1-0.214-0.22
				c0.002-0.121,0.098-0.215,0.218-0.215h0.002l1.122-0.094c0.119,0.002,0.216,0.268,0.214,0.388S7.199,75.721,7.081,75.721z"/>
		</g>
	</g>
	<g>
		<g>
			<path fill="#231F20" d="M10.664,85.166c-0.149,0-0.338-0.12-0.338-0.271v-1.079c0-0.148,0.19-0.269,0.338-0.269
				c0.15,0,0.339,0.12,0.339,0.269v1.079C11.003,85.046,10.814,85.166,10.664,85.166z"/>
		</g>
		<g>
			<path fill="#231F20" d="M13.03,86.567C13.029,86.567,13.029,86.567,13.03,86.567l-1.392-0.098
				c-0.15-0.002-0.27-0.144-0.268-0.292s0.12-0.287,0.269-0.287h0.002l1.391-0.019c0.149,0.002,0.27,0.199,0.269,0.351
				C13.298,86.369,13.179,86.567,13.03,86.567z"/>
		</g>
		<g>
			<path fill="#231F20" d="M10.497,88.601c0,0,0,0-0.002,0c-0.15,0-0.27,0.026-0.267-0.124l0.014-1.313
				c0.004-0.149,0.122-0.223,0.273-0.229c0.151,0.002,0.271,0.141,0.267,0.292l-0.016,1.247
				C10.766,88.623,10.646,88.601,10.497,88.601z"/>
		</g>
		<g>
			<path fill="#231F20" d="M9.384,86.567c-0.001,0-0.003,0-0.005,0L7.99,86.451c-0.149-0.002-0.267-0.137-0.265-0.284
				c0.002-0.148,0.123-0.276,0.27-0.276c0.002,0,0.004,0,0.004,0l1.391-0.015c0.149,0.004,0.267,0.2,0.265,0.351
				C9.653,86.374,9.53,86.567,9.384,86.567z"/>
		</g>
	</g>
</g>
<g>
	<g>
		<path fill="#231F20" d="M81.683,14.566c-0.188,0-0.34-0.152-0.34-0.338v-1.355c0-0.188,0.153-0.339,0.34-0.339
			s0.337,0.151,0.337,0.339v1.355C82.02,14.414,81.869,14.566,81.683,14.566z"/>
	</g>
	<g>
		<path fill="#231F20" d="M84.734,16.428h-0.002l-1.746-0.173c-0.188-0.001-0.338-0.068-0.337-0.255
			c0.001-0.187,0.151-0.25,0.339-0.25h0.001l1.746-0.158c0.189,0.001,0.34,0.233,0.338,0.42
			C85.071,16.197,84.922,16.428,84.734,16.428z"/>
	</g>
	<g>
		<path fill="#231F20" d="M81.553,19.139c-0.001,0-0.002,0-0.003,0c-0.188,0-0.338-0.094-0.336-0.284l0.019-1.715
			c0.002-0.186,0.153-0.312,0.343-0.32c0.188,0.002,0.339,0.163,0.337,0.35l-0.021,1.69C81.892,19.045,81.738,19.139,81.553,19.139z
			"/>
	</g>
	<g>
		<path fill="#231F20" d="M80.153,16.428c-0.002,0-0.002,0-0.006,0l-1.746-0.195c-0.187-0.003-0.336-0.061-0.332-0.247
			c0.003-0.185,0.152-0.236,0.338-0.236c0.003,0,0.005,0,0.007,0l1.746-0.152c0.188,0.004,0.336,0.234,0.332,0.421
			C80.49,16.203,80.339,16.428,80.153,16.428z"/>
	</g>
</g>
<g>
	<g>
		<path fill="#231F20" d="M87.822,20.082c-0.078,0-0.143-0.063-0.143-0.141v-0.564c0-0.078,0.064-0.141,0.143-0.141
			s0.142,0.064,0.142,0.141v0.564C87.964,20.019,87.9,20.082,87.822,20.082z"/>
	</g>
	<g>
		<path fill="#231F20" d="M89.064,20.787L89.064,20.787l-0.726-0.037c-0.079,0-0.141-0.045-0.141-0.124
			c0-0.078,0.062-0.121,0.141-0.121h0.001l0.727-0.031c0.078,0,0.142,0.079,0.142,0.158C89.207,20.709,89.145,20.787,89.064,20.787z
			"/>
	</g>
	<g>
		<path fill="#231F20" d="M87.742,21.915C87.741,21.915,87.741,21.915,87.742,21.915c-0.078,0-0.142-0.004-0.142-0.083l0.008-0.697
			c0.002-0.077,0.065-0.12,0.143-0.124c0.08,0,0.141,0.072,0.141,0.15l-0.008,0.67C87.882,21.91,87.819,21.915,87.742,21.915z"/>
	</g>
	<g>
		<path fill="#231F20" d="M87.16,20.787h-0.002l-0.727-0.047c-0.077-0.001-0.14-0.042-0.139-0.12
			c0.002-0.078,0.065-0.115,0.141-0.115c0.001,0,0.002,0,0.002,0l0.728-0.029c0.076,0.001,0.14,0.081,0.138,0.158
			C87.301,20.712,87.237,20.787,87.16,20.787z"/>
	</g>
</g>
<g>
	<g>
		<path fill="#231F20" d="M91.568,12.875c-0.12,0-0.218-0.098-0.218-0.219v-0.871c0-0.118,0.098-0.216,0.218-0.216
			s0.216,0.098,0.216,0.216v0.871C91.784,12.777,91.688,12.875,91.568,12.875z"/>
	</g>
	<g>
		<path fill="#231F20" d="M93.487,13.961C93.485,13.961,93.485,13.961,93.487,13.961l-1.123-0.057
			c-0.121-0.003-0.217-0.021-0.217-0.142c0.002-0.12,0.098-0.139,0.219-0.139l0,0l1.121-0.099c0.121,0,0.219,0.099,0.218,0.219
			S93.606,13.961,93.487,13.961z"/>
	</g>
	<g>
		<path fill="#231F20" d="M91.444,15.494c0,0,0,0-0.002,0c-0.121,0-0.217,0.096-0.216-0.023l0.013-1.023
			c0.002-0.12,0.099-0.161,0.219-0.165c0.121,0,0.219,0.124,0.217,0.242l-0.013,0.938C91.66,15.581,91.564,15.494,91.444,15.494z"/>
	</g>
	<g>
		<path fill="#231F20" d="M90.546,14.302c-0.002,0-0.002,0-0.004,0l-1.119-0.243c-0.121-0.002-0.217-0.1-0.215-0.22
			c0.002-0.121,0.098-0.215,0.219-0.215h0.002l1.122-0.094c0.119,0.002,0.216,0.268,0.214,0.388S90.665,14.302,90.546,14.302z"/>
	</g>
</g>
</svg>
