<?xml version="1.0" encoding="utf-8"?>
<!-- Generator: Adobe Illustrator 16.0.0, SVG Export Plug-In . SVG Version: 6.00 Build 0)  -->
<!DOCTYPE svg PUBLIC "-//W3C//DTD SVG 1.1//EN" "http://www.w3.org/Graphics/SVG/1.1/DTD/svg11.dtd">
<svg version="1.1" id="Layer_1" xmlns="http://www.w3.org/2000/svg" xmlns:xlink="http://www.w3.org/1999/xlink" x="0px" y="0px"
	 width="100px" height="100px" viewBox="0 0 100 100" enable-background="new 0 0 100 100" xml:space="preserve">
<g>
	<g>
		<path fill="#EBF2FF" d="M80.931,75.948c0,3.415-2.77,6.185-6.185,6.185H22.94c-3.416,0-6.185-2.77-6.185-6.185V26.002
			c0-3.415,2.769-6.185,6.185-6.185h51.806c3.415,0,6.185,2.77,6.185,6.185V75.948z"/>
		<path fill="#231F20" d="M75.21,83.062H23.404c-4.178,0-7.58-3.399-7.58-7.579V25.537c0-4.18,3.402-7.58,7.58-7.58h51.808
			c4.178,0,7.579,3.401,7.579,7.58v49.946C82.791,79.663,79.39,83.062,75.21,83.062z M23.404,20.748c-2.64,0-4.79,2.149-4.79,4.79
			v49.946c0,2.641,2.149,4.788,4.79,4.788h51.808c2.64,0,4.788-2.147,4.788-4.788V25.537c0-2.642-2.149-4.79-4.788-4.79H23.404z"/>
	</g>
	<path fill="#FFFFFF" d="M20.8,78.875V26.896c0-2.699,1.246-3.943,3.943-3.943h53.879c0.605,0,1.18,0.125,1.717,0.328
		c-0.699-1.852-2.475-3.178-4.566-3.178H22.843c-2.698,0-4.894,2.195-4.894,4.893v51.028c0,2.093,1.327,3.868,3.179,4.567
		C20.925,80.056,20.8,79.479,20.8,78.875z"/>
	<path fill="#B8D4EA" d="M77.814,22.015v51.649c0,3.415-1.316,4.403-4.438,4.403H19.839c-0.601,0-1.173-0.115-1.706-0.316
		c0.694,1.839,2.458,3.166,4.539,3.166h52.592c2.886,0,5.4-2.125,5.4-5.364V24.847c0-2.079-1.327-3.844-3.165-4.538
		C77.699,20.843,77.814,21.413,77.814,22.015z"/>
	<g>
		<path fill="#EBF2FF" d="M73.063,73.453c0,0.973-0.79,1.764-1.764,1.764H26.365c-0.974,0-1.764-0.791-1.764-1.764V28.517
			c0-0.973,0.79-1.763,1.764-1.763H71.3c0.974,0,1.763,0.789,1.763,1.763L73.063,73.453L73.063,73.453z"/>
		<path fill="#3677A2" d="M71.775,76.167H26.84c-1.759,0-3.189-1.431-3.189-3.189V28.042c0-1.759,1.432-3.188,3.189-3.188h44.936
			c1.759,0,3.188,1.43,3.188,3.188v44.936C74.964,74.736,73.534,76.167,71.775,76.167z M26.84,27.705
			c-0.187,0-0.338,0.152-0.338,0.337v44.936c0,0.188,0.151,0.338,0.338,0.338h44.936c0.187,0,0.338-0.15,0.338-0.338V28.042
			c0-0.185-0.151-0.337-0.338-0.337H26.84z"/>
	</g>
	<g>
		<path fill="#EBF2FF" d="M75.847,82.684v1.022c0,0.715-0.715,1.297-1.597,1.297H24.703c-0.88,0-1.594-0.582-1.594-1.297v-1.022
			H75.847z"/>
		<path fill="#231F20" d="M74.25,86.427H24.703c-1.666,0-3.021-1.223-3.021-2.723v-1.021h2.851v0.863
			c0.04,0.017,0.097,0.029,0.17,0.029H74.25c0.075,0,0.131-0.014,0.171-0.029v-0.863h2.85v1.021
			C77.271,85.204,75.917,86.427,74.25,86.427z"/>
	</g>
	<g>
		<ellipse fill="#EBF2FF" cx="49.229" cy="50.114" rx="13.225" ry="13.381"/>
		<path fill="#263357" d="M49.228,64.922c-8.078,0-14.649-6.643-14.649-14.808c0-8.164,6.571-14.808,14.649-14.808
			s14.65,6.643,14.65,14.808C63.878,58.279,57.306,64.922,49.228,64.922z M49.228,38.156c-6.505,0-11.798,5.364-11.798,11.958
			c0,6.593,5.293,11.958,11.798,11.958c6.506,0,11.801-5.364,11.801-11.958C61.029,43.52,55.734,38.156,49.228,38.156z"/>
	</g>
	<g>
		<circle fill="#00B8D4" cx="49.308" cy="50.035" r="5.781"/>
		<path fill="#263357" d="M49.308,57.242c-3.974,0-7.208-3.233-7.208-7.208c0-3.974,3.234-7.207,7.208-7.207
			c3.973,0,7.208,3.233,7.208,7.207C56.516,54.009,53.281,57.242,49.308,57.242z M49.308,45.679c-2.402,0-4.356,1.955-4.356,4.356
			c0,2.402,1.954,4.356,4.356,4.356c2.403,0,4.356-1.955,4.356-4.356C53.662,47.633,51.711,45.679,49.308,45.679z"/>
	</g>
	<g>
		<path fill="#263357" d="M38.855,51.461h-1.901c-0.787,0-1.425-0.64-1.425-1.426c0-0.788,0.638-1.426,1.425-1.426h1.9
			c0.788,0,1.426,0.639,1.426,1.426C40.28,50.822,39.642,51.461,38.855,51.461z"/>
		<path fill="#263357" d="M61.66,51.461h-1.9c-0.788,0-1.426-0.64-1.426-1.426c0-0.788,0.64-1.426,1.426-1.426h1.9
			c0.788,0,1.426,0.639,1.426,1.426C63.086,50.822,62.448,51.461,61.66,51.461z"/>
	</g>
	<g>
		<path fill="#263357" d="M49.335,41.008c-0.002,0-0.002,0-0.004,0c-0.787-0.002-1.423-0.643-1.421-1.429l0.004-1.9
			c0.001-0.786,0.639-1.42,1.426-1.42c0,0,0.002,0,0.004,0c0.787,0.001,1.422,0.641,1.42,1.427l-0.003,1.901
			C50.759,40.373,50.12,41.008,49.335,41.008z"/>
		<path fill="#263357" d="M49.275,63.815c0,0-0.002,0-0.004,0c-0.788-0.003-1.424-0.643-1.42-1.43l0.004-1.902
			c0.001-0.786,0.64-1.421,1.425-1.421c0.001,0,0.002,0,0.004,0c0.787,0.002,1.424,0.643,1.422,1.428L50.7,62.392
			C50.7,63.178,50.062,63.815,49.275,63.815z"/>
	</g>
	<g>
		<path fill="#263357" d="M56.717,44.088c-0.364,0-0.73-0.141-1.01-0.421c-0.556-0.557-0.554-1.46,0.005-2.016l1.349-1.339
			c0.556-0.555,1.46-0.553,2.015,0.003c0.555,0.56,0.553,1.462-0.005,2.016l-1.347,1.34C57.445,43.95,57.082,44.088,56.717,44.088z"
			/>
		<path fill="#263357" d="M40.551,60.174c-0.367,0-0.733-0.14-1.01-0.42c-0.556-0.56-0.554-1.461,0.005-2.017l1.348-1.34
			c0.556-0.555,1.459-0.553,2.015,0.005c0.555,0.559,0.553,1.462-0.006,2.018l-1.346,1.339
			C41.278,60.035,40.915,60.174,40.551,60.174z"/>
	</g>
	<g>
		<path fill="#263357" d="M58.022,60.218c-0.364,0-0.731-0.14-1.01-0.42l-1.341-1.347c-0.556-0.56-0.554-1.461,0.006-2.016
			c0.557-0.557,1.461-0.556,2.015,0.004l1.342,1.348c0.556,0.559,0.554,1.46-0.006,2.016C58.751,60.08,58.387,60.218,58.022,60.218z
			"/>
		<path fill="#263357" d="M41.937,44.051c-0.365,0-0.732-0.141-1.01-0.42l-1.34-1.346c-0.555-0.56-0.553-1.461,0.003-2.016
			c0.558-0.557,1.461-0.554,2.016,0.004l1.341,1.347c0.554,0.559,0.552,1.46-0.006,2.016C42.664,43.913,42.3,44.051,41.937,44.051z"
			/>
	</g>
	<rect x="69.264" y="27.705" fill="#B8D4EA" width="2.85" height="45.611"/>
	<rect x="26.502" y="70.466" fill="#B8D4EA" width="43.711" height="2.85"/>
	<g>
		<rect x="70.213" y="31.505" fill="#EBF2FF" width="5.7" height="8.553"/>
		<path fill="#3677A2" d="M76.391,41.008h-5.703c-0.787,0-1.424-0.639-1.424-1.425v-8.552c0-0.787,0.639-1.425,1.424-1.425h5.703
			c0.787,0,1.424,0.638,1.424,1.425v8.552C77.814,40.369,77.178,41.008,76.391,41.008z M72.113,38.156h2.85v-5.701h-2.85V38.156z"/>
	</g>
	<g>
		<rect x="70.213" y="61.915" fill="#EBF2FF" width="5.7" height="8.551"/>
		<path fill="#3677A2" d="M76.391,71.415h-5.703c-0.787,0-1.424-0.639-1.424-1.425v-8.553c0-0.786,0.639-1.425,1.424-1.425h5.703
			c0.787,0,1.424,0.64,1.424,1.425v8.553C77.814,70.777,77.178,71.415,76.391,71.415z M72.113,68.564h2.85v-5.7h-2.85V68.564z"/>
	</g>
</g>
<g>
	<g>
		<g>
			<path fill="#231F20" d="M24.08,13.691c-0.109,0-0.198-0.089-0.198-0.198v-0.795c0-0.109,0.089-0.198,0.198-0.198
				c0.11,0,0.198,0.089,0.198,0.198v0.795C24.278,13.602,24.19,13.691,24.08,13.691z"/>
		</g>
		<g>
			<path fill="#231F20" d="M25.831,14.684L25.831,14.684l-1.024-0.054c-0.109,0-0.198-0.063-0.197-0.172s0.09-0.169,0.199-0.169l0,0
				l1.023-0.046c0.11,0,0.198,0.112,0.196,0.221C26.028,14.575,25.939,14.684,25.831,14.684z"/>
		</g>
		<g>
			<path fill="#231F20" d="M23.968,16.271C23.967,16.271,23.967,16.271,23.968,16.271c-0.111,0-0.199-0.009-0.197-0.118l0.011-0.979
				c0-0.112,0.089-0.169,0.2-0.175c0.11,0,0.198,0.101,0.196,0.209l-0.011,0.944C24.166,16.263,24.077,16.271,23.968,16.271z"/>
		</g>
		<g>
			<path fill="#231F20" d="M23.148,14.684c-0.001,0-0.001,0-0.004,0l-1.022-0.066c-0.109-0.003-0.195-0.06-0.194-0.169
				c0.001-0.109,0.091-0.161,0.198-0.161c0.001,0,0.001,0,0.003,0l1.023-0.043c0.109,0.003,0.197,0.112,0.195,0.224
				C23.345,14.575,23.256,14.684,23.148,14.684z"/>
		</g>
	</g>
	<g>
		<g>
			<path fill="#231F20" d="M9.929,9.401c-0.169,0-0.307-0.138-0.307-0.307V7.868c0-0.167,0.138-0.304,0.307-0.304
				c0.169,0,0.306,0.138,0.306,0.304v1.226C10.234,9.263,10.098,9.401,9.929,9.401z"/>
		</g>
		<g>
			<path fill="#231F20" d="M12.628,10.931C12.627,10.931,12.627,10.931,12.628,10.931l-1.58-0.081
				c-0.169-0.003-0.304-0.029-0.304-0.198c0.003-0.169,0.138-0.195,0.307-0.195h0.001l1.577-0.138c0.169,0,0.307,0.138,0.306,0.307
				S12.797,10.931,12.628,10.931z"/>
		</g>
		<g>
			<path fill="#231F20" d="M9.753,13.086c0,0,0,0-0.003,0c-0.169,0-0.304,0.135-0.303-0.035l0.018-1.438
				c0.002-0.169,0.138-0.227,0.308-0.232c0.171,0,0.307,0.175,0.304,0.342l-0.017,1.32C10.058,13.209,9.923,13.086,9.753,13.086z"/>
		</g>
		<g>
			<path fill="#231F20" d="M8.491,11.41c-0.003,0-0.003,0-0.006,0l-1.577-0.341c-0.168-0.003-0.303-0.141-0.3-0.31
				c0.002-0.169,0.138-0.301,0.306-0.301c0.001,0,0.002,0,0.004,0l1.579-0.132c0.168,0.003,0.304,0.376,0.301,0.545
				S8.657,11.41,8.491,11.41z"/>
		</g>
	</g>
	<g>
		<g>
			<path fill="#231F20" d="M13.533,24.7c-0.209,0-0.477-0.169-0.477-0.382V22.8c0-0.209,0.267-0.379,0.477-0.379
				c0.211,0,0.477,0.169,0.477,0.379v1.518C14.01,24.531,13.744,24.7,13.533,24.7z"/>
		</g>
		<g>
			<path fill="#231F20" d="M16.862,26.672C16.861,26.672,16.861,26.672,16.862,26.672l-1.959-0.138
				c-0.211-0.002-0.378-0.201-0.377-0.41c0.002-0.209,0.17-0.405,0.378-0.405h0.003l1.958-0.026
				c0.209,0.003,0.379,0.281,0.377,0.494C17.24,26.393,17.072,26.672,16.862,26.672z"/>
		</g>
		<g>
			<path fill="#231F20" d="M13.298,29.533c0,0,0,0-0.003,0c-0.209,0-0.379,0.038-0.376-0.175l0.02-1.848
				c0.006-0.209,0.172-0.312,0.385-0.322c0.212,0.003,0.38,0.198,0.376,0.411l-0.021,1.756
				C13.677,29.564,13.507,29.533,13.298,29.533z"/>
		</g>
		<g>
			<path fill="#231F20" d="M11.732,26.672c-0.001,0-0.004,0-0.007,0l-1.954-0.164c-0.208-0.003-0.376-0.192-0.374-0.401
				C9.4,25.9,9.569,25.719,9.776,25.719c0.003,0,0.004,0,0.006,0l1.957-0.02c0.21,0.006,0.376,0.281,0.374,0.494
				C12.108,26.399,11.939,26.672,11.732,26.672z"/>
		</g>
	</g>
</g>
<g>
	<circle fill="#00BCD4" cx="49.337" cy="50.035" r="6.444"/>
	<circle fill="#005E6A" cx="49.337" cy="50.035" r="2.665"/>
	<g>
		<path fill="#231F20" d="M49.335,56.694c-3.671,0-6.658-2.987-6.658-6.659c0-3.673,2.987-6.66,6.658-6.66
			c3.674,0,6.661,2.987,6.661,6.66C55.996,53.707,53.009,56.694,49.335,56.694z M49.335,43.809c-3.433,0-6.227,2.794-6.227,6.227
			s2.793,6.226,6.227,6.226c3.436,0,6.229-2.793,6.229-6.226S52.771,43.809,49.335,43.809z"/>
	</g>
	<g>
		<path fill="#231F20" d="M49.335,52.916c-1.588,0-2.879-1.291-2.879-2.88s1.291-2.881,2.879-2.881c1.589,0,2.881,1.292,2.881,2.881
			C52.218,51.625,50.925,52.916,49.335,52.916z M49.335,47.588c-1.349,0-2.447,1.098-2.447,2.448c0,1.349,1.098,2.449,2.447,2.449
			c1.351,0,2.447-1.1,2.447-2.449C51.783,48.686,50.686,47.588,49.335,47.588z"/>
	</g>
	
		<ellipse transform="matrix(-0.6938 -0.7202 0.7202 -0.6938 44.8114 114.1435)" fill="#FFFFFF" cx="46.672" cy="47.545" rx="0.887" ry="1.674"/>
	<g>
		<path fill="#231F20" d="M45.912,49.089c-0.247,0-0.455-0.079-0.6-0.231c-0.429-0.446-0.167-1.369,0.596-2.104
			c0.742-0.716,1.706-0.955,2.126-0.516c0.221,0.229,0.268,0.588,0.131,1.007c-0.123,0.374-0.381,0.763-0.728,1.097
			C46.951,48.81,46.381,49.089,45.912,49.089z M47.432,46.438c-0.349,0-0.831,0.247-1.226,0.627
			c-0.619,0.596-0.804,1.265-0.584,1.494c0.063,0.064,0.16,0.098,0.29,0.098c0.35,0,0.831-0.247,1.226-0.626
			c0.292-0.282,0.517-0.617,0.616-0.92c0.083-0.257,0.072-0.466-0.031-0.574C47.659,46.471,47.562,46.438,47.432,46.438z"/>
	</g>
</g>
<g>
	<g>
		<path fill="#231F20" d="M85.828,88.812c0.242,0,0.439,0.194,0.439,0.438v1.754c0,0.243-0.197,0.439-0.439,0.439
			c-0.241,0-0.438-0.196-0.438-0.439V89.25C85.391,89.008,85.587,88.812,85.828,88.812z"/>
	</g>
	<g>
		<path fill="#231F20" d="M81.878,86.404h0.003l2.26,0.223c0.242,0.003,0.438,0.089,0.438,0.33s-0.196,0.324-0.439,0.324l0,0
			l-2.261,0.205c-0.244-0.004-0.438-0.301-0.438-0.545C81.441,86.701,81.637,86.404,81.878,86.404z"/>
	</g>
	<g>
		<path fill="#231F20" d="M85.996,82.895c0.001,0,0.003,0,0.004,0c0.243,0,0.438,0.123,0.436,0.365l-0.024,2.223
			c-0.002,0.24-0.197,0.401-0.443,0.412c-0.241-0.002-0.438-0.209-0.436-0.453l0.026-2.187
			C85.559,83.016,85.756,82.895,85.996,82.895z"/>
	</g>
	<g>
		<path fill="#231F20" d="M87.807,86.404c0.004,0,0.004,0,0.008,0l2.261,0.252c0.239,0.005,0.437,0.076,0.431,0.32
			c-0.004,0.238-0.199,0.305-0.438,0.305c-0.002,0-0.006,0-0.008,0L87.8,87.479c-0.241-0.004-0.437-0.304-0.432-0.545
			C87.371,86.695,87.566,86.404,87.807,86.404z"/>
	</g>
</g>
<g>
	<g>
		<path fill="#231F20" d="M77.881,81.673c0.102,0,0.184,0.082,0.184,0.183v0.729c0,0.103-0.082,0.185-0.184,0.185
			c-0.1,0-0.182-0.082-0.182-0.185v-0.729C77.699,81.755,77.781,81.673,77.881,81.673z"/>
	</g>
	<g>
		<path fill="#231F20" d="M76.271,80.762C76.273,80.762,76.273,80.762,76.271,80.762l0.94,0.049c0.103,0,0.183,0.059,0.183,0.158
			s-0.082,0.157-0.183,0.157h-0.001l-0.941,0.04c-0.1,0-0.182-0.104-0.182-0.204C76.09,80.861,76.172,80.762,76.271,80.762z"/>
	</g>
	<g>
		<path fill="#231F20" d="M77.984,79.302c0.002,0,0.002,0,0.002,0c0.103,0,0.183,0.005,0.183,0.106l-0.011,0.9
			c-0.002,0.102-0.083,0.156-0.186,0.162c-0.103,0-0.183-0.093-0.181-0.195l0.011-0.867C77.805,79.309,77.885,79.302,77.984,79.302z
			"/>
	</g>
	<g>
		<path fill="#231F20" d="M78.738,80.762c0,0,0.002,0,0.004,0l0.939,0.062c0.101,0.001,0.18,0.054,0.18,0.153
			c-0.004,0.102-0.084,0.149-0.184,0.149c-0.001,0-0.002,0-0.002,0l-0.941,0.038c-0.101-0.003-0.18-0.104-0.178-0.205
			C78.557,80.859,78.639,80.762,78.738,80.762z"/>
	</g>
</g>
</svg>
