<?xml version="1.0" encoding="utf-8"?>
<!-- Generator: Adobe Illustrator 16.0.0, SVG Export Plug-In . SVG Version: 6.00 Build 0)  -->
<!DOCTYPE svg PUBLIC "-//W3C//DTD SVG 1.1//EN" "http://www.w3.org/Graphics/SVG/1.1/DTD/svg11.dtd">
<svg version="1.1" id="Layer_1" xmlns="http://www.w3.org/2000/svg" xmlns:xlink="http://www.w3.org/1999/xlink" x="0px" y="0px"
	 width="100px" height="100px" viewBox="0 0 100 100" enable-background="new 0 0 100 100" xml:space="preserve">
<g>
	<g>
		<g>
			<path fill="#231F20" d="M49.368,12.57c-0.18,0-0.325-0.145-0.325-0.324v-1.298c0-0.18,0.146-0.325,0.325-0.325
				c0.179,0,0.324,0.145,0.324,0.325v1.298C49.692,12.425,49.547,12.57,49.368,12.57z"/>
		</g>
		<g>
			<path fill="#231F20" d="M52.291,14.353h-0.002l-1.672-0.166c-0.18-0.001-0.324-0.065-0.323-0.244
				c0.001-0.179,0.146-0.24,0.325-0.24h0.001l1.672-0.151c0.181,0.001,0.325,0.223,0.323,0.402
				C52.614,14.132,52.47,14.353,52.291,14.353z"/>
		</g>
		<g>
			<path fill="#231F20" d="M49.244,16.949c-0.001,0-0.002,0-0.003,0c-0.18,0-0.323-0.09-0.321-0.271l0.018-1.643
				c0.002-0.178,0.146-0.298,0.328-0.306c0.18,0.002,0.324,0.156,0.322,0.335l-0.02,1.618
				C49.568,16.859,49.422,16.949,49.244,16.949z"/>
		</g>
		<g>
			<path fill="#231F20" d="M47.904,14.353c-0.002,0-0.002,0-0.005,0l-1.673-0.187c-0.178-0.003-0.322-0.058-0.318-0.237
				c0.003-0.177,0.147-0.226,0.324-0.226c0.002,0,0.004,0,0.006,0l1.672-0.146c0.18,0.004,0.322,0.224,0.319,0.403
				C48.227,14.137,48.082,14.353,47.904,14.353z"/>
		</g>
	</g>
	<g>
		<g>
			<path fill="#231F20" d="M55.248,17.852c-0.075,0-0.136-0.06-0.136-0.135v-0.54c0-0.075,0.061-0.135,0.136-0.135
				c0.074,0,0.135,0.061,0.135,0.135v0.54C55.383,17.792,55.322,17.852,55.248,17.852z"/>
		</g>
		<g>
			<path fill="#231F20" d="M56.438,18.527C56.438,18.527,56.438,18.527,56.438,18.527l-0.696-0.036
				c-0.075,0-0.135-0.043-0.135-0.118c0.001-0.074,0.061-0.116,0.135-0.116h0.001l0.696-0.03c0.074,0,0.135,0.076,0.135,0.151
				C56.573,18.453,56.513,18.527,56.438,18.527z"/>
		</g>
		<g>
			<path fill="#231F20" d="M55.171,19.607C55.17,19.607,55.17,19.607,55.171,19.607c-0.076,0-0.136-0.004-0.136-0.08l0.008-0.667
				c0.002-0.074,0.062-0.115,0.137-0.119c0.076,0,0.135,0.069,0.134,0.144l-0.008,0.642C55.305,19.602,55.245,19.607,55.171,19.607z
				"/>
		</g>
		<g>
			<path fill="#231F20" d="M54.613,18.527c0,0-0.001,0-0.002,0l-0.695-0.045c-0.074-0.001-0.134-0.04-0.133-0.115
				c0.002-0.074,0.062-0.11,0.135-0.11c0.001,0,0.002,0,0.002,0l0.696-0.028c0.074,0.001,0.134,0.077,0.132,0.151
				C54.748,18.455,54.688,18.527,54.613,18.527z"/>
		</g>
	</g>
	<g>
		<g>
			<path fill="#231F20" d="M21.492,64.59c-0.074,0-0.135-0.061-0.135-0.135v-0.541c0-0.074,0.061-0.135,0.135-0.135
				c0.075,0,0.135,0.061,0.135,0.135v0.541C21.627,64.529,21.567,64.59,21.492,64.59z"/>
		</g>
		<g>
			<path fill="#231F20" d="M22.684,65.266L22.684,65.266l-0.697-0.037c-0.074,0-0.135-0.043-0.134-0.117s0.062-0.115,0.136-0.115
				l0,0l0.696-0.031c0.075,0,0.135,0.076,0.134,0.15C22.818,65.191,22.758,65.266,22.684,65.266z"/>
		</g>
		<g>
			<path fill="#231F20" d="M21.416,66.346C21.415,66.346,21.415,66.346,21.416,66.346c-0.076,0-0.136-0.006-0.135-0.08l0.008-0.666
				c0-0.076,0.061-0.115,0.136-0.119c0.075,0,0.135,0.068,0.134,0.143l-0.008,0.643C21.551,66.34,21.49,66.346,21.416,66.346z"/>
		</g>
		<g>
			<path fill="#231F20" d="M20.858,65.266c-0.001,0-0.001,0-0.003,0l-0.695-0.045c-0.074-0.002-0.133-0.041-0.132-0.115
				s0.062-0.109,0.135-0.109c0.001,0,0.001,0,0.002,0l0.696-0.029c0.074,0.002,0.134,0.076,0.133,0.152
				C20.992,65.191,20.932,65.266,20.858,65.266z"/>
		</g>
	</g>
	<g>
		<g>
			<path fill="#231F20" d="M11.861,61.67c-0.115,0-0.209-0.094-0.209-0.209v-0.834c0-0.113,0.094-0.207,0.209-0.207
				s0.208,0.094,0.208,0.207v0.834C12.069,61.576,11.977,61.67,11.861,61.67z"/>
		</g>
		<g>
			<path fill="#231F20" d="M13.698,62.711C13.697,62.711,13.697,62.711,13.698,62.711l-1.075-0.055
				c-0.115-0.002-0.207-0.02-0.207-0.135c0.002-0.115,0.094-0.133,0.209-0.133h0.001l1.073-0.094c0.115,0,0.209,0.094,0.208,0.209
				S13.813,62.711,13.698,62.711z"/>
		</g>
		<g>
			<path fill="#231F20" d="M11.742,64.178c0,0,0,0-0.002,0c-0.115,0-0.207,0.092-0.206-0.023l0.012-0.979
				c0.002-0.115,0.094-0.154,0.21-0.158c0.116,0,0.209,0.119,0.207,0.232l-0.012,0.898C11.949,64.262,11.857,64.178,11.742,64.178z"
				/>
		</g>
		<g>
			<path fill="#231F20" d="M10.883,63.037c-0.002,0-0.002,0-0.004,0l-1.073-0.232c-0.114-0.002-0.206-0.096-0.204-0.211
				s0.094-0.205,0.208-0.205c0.001,0,0.002,0,0.003,0l1.074-0.09c0.114,0.002,0.207,0.256,0.205,0.371S10.996,63.037,10.883,63.037z
				"/>
		</g>
	</g>
	<g>
		<g>
			<path fill="#231F20" d="M14.314,72.082c-0.143,0-0.324-0.115-0.324-0.26v-1.033c0-0.143,0.182-0.258,0.324-0.258
				c0.144,0,0.324,0.115,0.324,0.258v1.033C14.639,71.967,14.458,72.082,14.314,72.082z"/>
		</g>
		<g>
			<path fill="#231F20" d="M16.58,73.424C16.579,73.424,16.579,73.424,16.58,73.424l-1.333-0.094
				c-0.144-0.002-0.258-0.137-0.257-0.279c0.002-0.143,0.116-0.275,0.258-0.275h0.002l1.332-0.018
				c0.143,0.002,0.258,0.191,0.257,0.336C16.837,73.234,16.723,73.424,16.58,73.424z"/>
		</g>
		<g>
			<path fill="#231F20" d="M14.154,75.371c0,0,0,0-0.002,0c-0.143,0-0.258,0.025-0.256-0.119l0.014-1.258
				c0.004-0.143,0.117-0.213,0.262-0.219c0.145,0.002,0.259,0.135,0.256,0.279l-0.015,1.195
				C14.412,75.393,14.297,75.371,14.154,75.371z"/>
		</g>
		<g>
			<path fill="#231F20" d="M13.089,73.424c-0.001,0-0.003,0-0.005,0l-1.33-0.111c-0.142-0.002-0.256-0.131-0.254-0.273
				c0.002-0.141,0.117-0.264,0.258-0.264c0.002,0,0.003,0,0.004,0l1.332-0.014c0.143,0.004,0.256,0.191,0.254,0.336
				C13.345,73.238,13.229,73.424,13.089,73.424z"/>
		</g>
	</g>
	<g>
		<g>
			<rect x="7.498" y="48.107" fill="#231F20" width="13.633" height="0.649"/>
		</g>
		<g>
			<rect x="21.779" y="48.107" fill="#231F20" width="5.843" height="0.649"/>
		</g>
		<g>
			<rect x="28.271" y="48.107" fill="#231F20" width="10.386" height="0.649"/>
		</g>
		<g>
			<rect x="2.306" y="51.354" fill="#231F20" width="13.632" height="0.648"/>
		</g>
		<g>
			<rect x="17.236" y="51.354" fill="#231F20" width="14.28" height="0.648"/>
		</g>
		<g>
			<rect x="32.166" y="51.354" fill="#231F20" width="4.544" height="0.648"/>
		</g>
		<g>
			<rect x="6.201" y="54.599" fill="#231F20" width="4.543" height="0.649"/>
		</g>
		<g>
			<rect x="11.394" y="54.599" fill="#231F20" width="23.368" height="0.649"/>
		</g>
		<g>
			<rect x="35.412" y="54.599" fill="#231F20" width="5.192" height="0.649"/>
		</g>
	</g>
	<g>
		<g>
			<rect x="63.974" y="65.635" fill="#231F20" width="13.632" height="0.648"/>
		</g>
		<g>
			<rect x="78.255" y="65.635" fill="#231F20" width="5.842" height="0.648"/>
		</g>
		<g>
			<rect x="84.746" y="65.635" fill="#231F20" width="10.386" height="0.648"/>
		</g>
		<g>
			<rect x="58.78" y="68.881" fill="#231F20" width="13.632" height="0.648"/>
		</g>
		<g>
			<rect x="73.711" y="68.881" fill="#231F20" width="14.28" height="0.648"/>
		</g>
		<g>
			<rect x="88.641" y="68.881" fill="#231F20" width="4.544" height="0.648"/>
		</g>
		<g>
			<rect x="62.675" y="72.125" fill="#231F20" width="4.544" height="0.65"/>
		</g>
		<g>
			<rect x="67.868" y="72.125" fill="#231F20" width="23.369" height="0.65"/>
		</g>
		<g>
			<rect x="91.887" y="72.125" fill="#231F20" width="5.192" height="0.65"/>
		</g>
	</g>
	<g>
		<path fill="#3677A2" d="M26.301,43.854c-8.318,0-15.086-6.766-15.086-15.082c0-8.32,6.768-15.086,15.086-15.086
			c8.316,0,15.083,6.767,15.083,15.086C41.384,37.087,34.617,43.854,26.301,43.854z"/>
		<g>
			<path fill="#231F20" d="M26.301,44.231c-8.525,0-15.462-6.936-15.462-15.459c0-8.527,6.937-15.463,15.462-15.463
				c8.524,0,15.459,6.936,15.459,15.463C41.76,37.296,34.825,44.231,26.301,44.231z M26.301,14.062
				c-8.109,0-14.709,6.599-14.709,14.709c0,8.109,6.6,14.705,14.709,14.705s14.707-6.596,14.707-14.705
				C41.008,20.661,34.41,14.062,26.301,14.062z"/>
		</g>
		<g>
			<defs>
				<path id="SVGID_1_" d="M39.279,28.772c0,7.166-5.812,12.977-12.979,12.977c-7.169,0-12.979-5.811-12.979-12.977
					c0-7.17,5.81-12.979,12.979-12.979C33.467,15.792,39.279,21.602,39.279,28.772z"/>
			</defs>
			<use xlink:href="#SVGID_1_"  overflow="visible" fill="#FFFFFF"/>
			<clipPath id="SVGID_2_">
				<use xlink:href="#SVGID_1_"  overflow="visible"/>
			</clipPath>
			<rect x="12.184" y="28.134" clip-path="url(#SVGID_2_)" fill="#231F20" width="18.549" height="0.638"/>
			<rect x="12.184" y="30.206" clip-path="url(#SVGID_2_)" fill="#231F20" width="21.695" height="0.707"/>
			<rect x="12.184" y="38.004" clip-path="url(#SVGID_2_)" fill="#231F20" width="21.695" height="0.521"/>
			<rect x="12.184" y="40.758" clip-path="url(#SVGID_2_)" fill="#231F20" width="12.883" height="0.625"/>
			<rect x="27.4" y="40.758" clip-path="url(#SVGID_2_)" fill="#231F20" width="24.98" height="0.625"/>
			<rect x="36.477" y="37.483" clip-path="url(#SVGID_2_)" fill="#2D4255" width="10.251" height="1.041"/>
			<rect x="48.723" y="37.483" clip-path="url(#SVGID_2_)" fill="#2D4255" width="7.326" height="1.041"/>
			<rect x="12.184" y="33.549" clip-path="url(#SVGID_2_)" fill="#231F20" width="12.883" height="0.917"/>
			<rect x="31.356" y="28.134" clip-path="url(#SVGID_2_)" fill="#231F20" width="5.12" height="0.638"/>
			<rect x="38.457" y="28.134" clip-path="url(#SVGID_2_)" fill="#231F20" width="5.121" height="0.638"/>
			<rect x="12.383" y="15.204" clip-path="url(#SVGID_2_)" fill="#231F20" width="21.695" height="1.041"/>
			<rect x="12.383" y="22.663" clip-path="url(#SVGID_2_)" fill="#231F20" width="21.695" height="0.716"/>
			<rect x="35.959" y="22.663" clip-path="url(#SVGID_2_)" fill="#231F20" width="4.031" height="0.716"/>
			<rect x="12.383" y="25.646" clip-path="url(#SVGID_2_)" fill="#231F20" width="12.885" height="0.734"/>
			<rect x="27.604" y="25.646" clip-path="url(#SVGID_2_)" fill="#231F20" width="24.979" height="0.734"/>
			<rect x="48.92" y="22.479" clip-path="url(#SVGID_2_)" fill="#2D4255" width="7.332" height="1.041"/>
			<rect x="12.383" y="18.546" clip-path="url(#SVGID_2_)" fill="#231F20" width="12.885" height="0.917"/>
		</g>
	</g>
	<path fill="#231F20" d="M96.465,77.293c-0.013-0.014-0.289,0.219-0.623,0.52l-2.371,2.15c-0.327,0.295-0.589,0.553-0.573,0.559
		l1.007,1.121c0.011,0.01,0.286-0.219,0.615-0.516l2.377-2.154c0.333-0.303,0.59-0.553,0.578-0.566L96.465,77.293z"/>
	<g>
		<path fill="#231F20" d="M78.21,63.242l-7.193-7.943l2.869-2.596l7.186,7.938L78.21,63.242z M71.933,55.344l6.322,6.98l1.9-1.729
			l-6.315-6.977L71.933,55.344z"/>
	</g>
	<path fill="#3677A2" d="M97.305,76.457c0.189,0.207-0.048,0.732-0.534,1.18l-3.477,3.139c-0.48,0.441-1.025,0.621-1.213,0.412
		L75.189,62.543c-0.189-0.215,0.043-0.736,0.527-1.168l3.481-3.154c0.485-0.443,1.029-0.623,1.22-0.41L97.305,76.457z"/>
	<path fill="#FFFFFF" d="M83.534,61.309c0.014,0.018-0.364,0.387-0.854,0.83l-3.473,3.143c-0.482,0.438-0.887,0.781-0.897,0.76
		l-1.343-1.473c-0.014-0.014,0.362-0.381,0.844-0.816l3.482-3.154c0.487-0.439,0.89-0.781,0.903-0.762L83.534,61.309z"/>
	<path fill="#3677A2" d="M80.959,50.848l-2.099-1.863c-0.269-0.237-0.427-0.715-0.354-1.066l0.568-2.753
		c0.072-0.351,0.407-0.726,0.747-0.839l2.665-0.88c0.341-0.113,0.628-0.193,0.643-0.179c0.015,0.013,0.03-0.266,0.021-0.625
		c-0.03-1.16-0.161-2.314-0.386-3.458c-0.069-0.352-0.146-0.622-0.158-0.605c-0.012,0.017-0.311,0.002-0.668-0.034l-2.791-0.276
		c-0.357-0.035-0.768-0.328-0.916-0.655l-1.167-2.555c-0.149-0.326-0.101-0.826,0.109-1.118l1.639-2.279
		c0.209-0.291,0.396-0.525,0.415-0.522c0.021,0.002-0.133-0.231-0.352-0.516c-0.36-0.468-0.741-0.923-1.15-1.362
		c-0.39-0.427-0.793-0.827-1.211-1.21c-0.265-0.242-0.484-0.414-0.483-0.394c0.002,0.021-0.247,0.184-0.557,0.365l-2.425,1.417
		c-0.31,0.182-0.813,0.185-1.125,0.008l-2.437-1.384c-0.312-0.177-0.567-0.611-0.57-0.969l-0.023-2.808
		c-0.002-0.359,0.01-0.658,0.027-0.668c0.018-0.011-0.244-0.11-0.588-0.211c-1.117-0.328-2.252-0.559-3.401-0.695
		c-0.355-0.042-0.638-0.053-0.628-0.038c0.01,0.017-0.099,0.296-0.241,0.625l-1.114,2.57C62.806,26.2,62.4,26.5,62.045,26.54
		l-2.791,0.316c-0.355,0.041-0.816-0.16-1.031-0.449l-1.668-2.252c-0.213-0.288-0.379-0.539-0.371-0.559
		c0.008-0.02-0.262,0.051-0.6,0.171c-1.039,0.372-2.055,0.829-3.041,1.371c-0.314,0.172-0.547,0.327-0.526,0.335
		s0.099,0.298,0.175,0.649l0.588,2.748c0.075,0.351-0.08,0.829-0.346,1.069l-2.082,1.875c-0.266,0.239-0.759,0.345-1.1,0.235
		l-2.668-0.859c-0.342-0.11-0.621-0.216-0.627-0.237c-0.004-0.021-0.182,0.195-0.386,0.49c-0.668,0.967-1.243,1.976-1.729,3.018
		c-0.152,0.325-0.251,0.586-0.232,0.579s0.249,0.181,0.516,0.42l2.094,1.879c0.268,0.24,0.424,0.718,0.35,1.069l-0.575,2.743
		c-0.074,0.351-0.41,0.726-0.751,0.837l-2.666,0.871c-0.34,0.112-0.629,0.191-0.645,0.178c-0.015-0.014-0.029,0.266-0.02,0.625
		c0.029,1.156,0.152,2.314,0.373,3.461c0.067,0.352,0.141,0.622,0.15,0.605c0.011-0.017,0.309-0.001,0.665,0.036l2.789,0.281
		c0.356,0.036,0.766,0.33,0.913,0.657l1.156,2.564c0.146,0.326,0.096,0.826-0.113,1.117l-1.645,2.27
		c-0.21,0.291-0.396,0.527-0.415,0.527c-0.02,0,0.135,0.235,0.353,0.521c0.369,0.484,0.761,0.954,1.178,1.416
		c0.369,0.403,0.756,0.786,1.148,1.149c0.263,0.244,0.482,0.422,0.482,0.402c0-0.018,0.252-0.179,0.562-0.359l2.425-1.412
		c0.31-0.181,0.813-0.182,1.124-0.004l2.435,1.391c0.312,0.178,0.564,0.611,0.566,0.971l0.013,2.807
		c0.002,0.357-0.011,0.656-0.027,0.668c-0.018,0.012,0.243,0.113,0.586,0.217c1.115,0.332,2.254,0.566,3.403,0.707
		c0.355,0.045,0.637,0.055,0.625,0.039s0.097-0.295,0.24-0.623l1.127-2.576c0.143-0.328,0.549-0.625,0.905-0.662l2.79-0.299
		c0.355-0.039,0.817,0.164,1.03,0.451l1.667,2.262c0.213,0.289,0.379,0.537,0.371,0.555s0.265-0.053,0.603-0.17
		c1.091-0.379,2.159-0.855,3.189-1.43c0.313-0.174,0.544-0.33,0.522-0.336c-0.022-0.006-0.102-0.295-0.18-0.645l-0.602-2.742
		c-0.077-0.35,0.076-0.829,0.342-1.07l2.084-1.892c0.266-0.241,0.759-0.347,1.1-0.238l2.672,0.854
		c0.341,0.11,0.622,0.215,0.627,0.233s0.183-0.199,0.386-0.495c0.663-0.961,1.234-1.973,1.716-3.012
		c0.151-0.326,0.249-0.591,0.23-0.587C81.46,51.273,81.228,51.084,80.959,50.848z M53.522,51.424
		c-4.548-4.971-4.212-12.68,0.753-17.231c4.965-4.555,12.674-4.215,17.23,0.749c4.565,4.969,4.238,12.687-0.746,17.23
		C65.789,56.72,58.072,56.387,53.522,51.424z"/>
	<g>
		<path fill="#231F20" d="M60.603,64.021c-0.105,0-0.336-0.014-0.607-0.047c-1.165-0.141-2.327-0.383-3.456-0.719
			c-0.663-0.197-0.785-0.27-0.816-0.477l-0.031-0.207l0.049-0.031c0.005-0.102,0.01-0.268,0.008-0.48l-0.014-2.805
			c0-0.242-0.192-0.572-0.402-0.691l-2.434-1.391c-0.201-0.115-0.601-0.113-0.801,0.004l-2.425,1.412
			c-0.179,0.104-0.319,0.189-0.407,0.246l-0.005,0.156l-0.315,0.002c-0.111,0-0.173,0-0.701-0.489
			c-0.436-0.405-0.817-0.786-1.168-1.171c-0.415-0.459-0.816-0.941-1.196-1.438c-0.429-0.562-0.479-0.673-0.386-0.861l0.09-0.181
			h0.059c0.064-0.081,0.168-0.217,0.295-0.392l1.645-2.271c0.142-0.195,0.18-0.574,0.08-0.793l-1.156-2.563
			c-0.098-0.219-0.408-0.442-0.649-0.467l-2.788-0.283c-0.176-0.018-0.334-0.03-0.449-0.035l-0.002,0.002h-0.183
			c-0.301,0-0.351-0.254-0.469-0.869c-0.222-1.15-0.349-2.333-0.378-3.513c-0.02-0.728,0.028-0.777,0.109-0.861l0.096-0.098h0.154
			c0.042-0.013,0.244-0.068,0.529-0.161l2.665-0.872c0.229-0.075,0.483-0.359,0.534-0.596l0.575-2.742
			c0.05-0.236-0.068-0.599-0.249-0.761l-2.094-1.879c-0.179-0.161-0.32-0.278-0.395-0.338h-0.081l-0.099-0.15
			c-0.09-0.142-0.103-0.213,0.213-0.89c0.498-1.068,1.09-2.099,1.758-3.065c0.437-0.631,0.508-0.631,0.65-0.631h0.264l0.021,0.1
			c0.098,0.038,0.251,0.091,0.443,0.153l2.667,0.86c0.221,0.073,0.609-0.01,0.784-0.167l2.08-1.874
			c0.181-0.162,0.298-0.523,0.246-0.76l-0.588-2.748c-0.043-0.205-0.084-0.366-0.111-0.466l-0.054-0.021l-0.017-0.208
			c-0.016-0.212,0.089-0.308,0.695-0.642c0.994-0.546,2.033-1.015,3.088-1.392c0.164-0.058,0.558-0.193,0.701-0.193h0.17l0.201,0.28
			l-0.008,0.021c0.054,0.082,0.146,0.215,0.277,0.393l1.668,2.252c0.131,0.178,0.436,0.322,0.676,0.322l2.848-0.32
			c0.24-0.027,0.546-0.254,0.642-0.475l1.115-2.57c0.087-0.199,0.15-0.356,0.188-0.454l-0.023-0.039l0.093-0.165
			c0.098-0.169,0.275-0.169,0.343-0.169c0.106,0,0.336,0.015,0.605,0.046c1.167,0.139,2.329,0.376,3.454,0.706
			c0.678,0.199,0.793,0.267,0.819,0.481l0.026,0.211l-0.045,0.027c-0.004,0.104-0.007,0.266-0.006,0.469l0.023,2.807
			c0.002,0.242,0.195,0.571,0.405,0.69l2.438,1.384c0.2,0.114,0.601,0.11,0.8-0.005l2.425-1.417
			c0.244-0.142,0.414-0.253,0.476-0.297l0.105-0.114h0.142c0.105,0,0.176,0,0.701,0.48c0.442,0.406,0.846,0.809,1.23,1.231
			c0.396,0.424,0.778,0.877,1.168,1.383c0.429,0.557,0.479,0.669,0.388,0.856l-0.089,0.181h-0.063
			c-0.064,0.079-0.168,0.214-0.292,0.388l-1.639,2.279c-0.142,0.196-0.178,0.575-0.078,0.794l1.167,2.555
			c0.101,0.22,0.412,0.442,0.653,0.466l2.791,0.276c0.184,0.019,0.352,0.031,0.468,0.037l0.003-0.004l0.167,0
			c0.305,0,0.357,0.272,0.475,0.867c0.229,1.167,0.361,2.349,0.393,3.512c0.019,0.728-0.03,0.777-0.11,0.86l-0.193,0.199
			l-0.117-0.083c-0.088,0.025-0.254,0.075-0.466,0.145l-2.664,0.88c-0.229,0.076-0.483,0.36-0.532,0.597l-0.568,2.752
			c-0.048,0.236,0.071,0.599,0.252,0.758l2.1,1.861c0.184,0.164,0.326,0.281,0.403,0.342h0.078l0.097,0.15
			c0.09,0.139,0.104,0.222-0.21,0.898c-0.497,1.074-1.084,2.105-1.742,3.06c-0.438,0.636-0.506,0.636-0.652,0.636h-0.249
			l-0.025-0.094c-0.098-0.036-0.254-0.092-0.452-0.155l-2.672-0.854c-0.22-0.071-0.61,0.014-0.782,0.17l-2.085,1.891
			c-0.179,0.162-0.294,0.524-0.242,0.759l0.602,2.743c0.042,0.191,0.081,0.348,0.109,0.445l0.051,0.014l0.026,0.221
			c0.023,0.217-0.079,0.316-0.688,0.654c-1.037,0.578-2.127,1.066-3.241,1.453c-0.13,0.045-0.562,0.191-0.703,0.191h-0.175
			l-0.198-0.293l0.006-0.014c-0.058-0.086-0.15-0.219-0.271-0.383l-1.666-2.262c-0.133-0.18-0.438-0.326-0.682-0.326l-2.844,0.303
			c-0.24,0.025-0.546,0.248-0.643,0.469l-1.127,2.576c-0.082,0.189-0.144,0.34-0.18,0.438l0.021,0.029l-0.09,0.178
			C60.854,64.021,60.664,64.021,60.603,64.021z M56.393,62.525c0.087,0.031,0.2,0.068,0.332,0.109
			c1.093,0.324,2.219,0.559,3.349,0.695c0.132,0.016,0.251,0.027,0.349,0.035c0.042-0.109,0.102-0.25,0.18-0.428l1.127-2.576
			c0.191-0.436,0.693-0.805,1.169-0.855l2.789-0.299c0.478-0.052,1.047,0.205,1.326,0.584l1.667,2.262
			c0.116,0.158,0.205,0.279,0.272,0.379c0.086-0.027,0.202-0.064,0.334-0.109c1.079-0.375,2.135-0.848,3.139-1.406
			c0.115-0.064,0.215-0.125,0.292-0.172c-0.032-0.115-0.066-0.264-0.108-0.455l-0.602-2.744c-0.103-0.465,0.086-1.059,0.44-1.379
			l2.084-1.891c0.342-0.311,0.975-0.45,1.416-0.307l2.673,0.854c0.186,0.061,0.329,0.107,0.44,0.147
			c0.056-0.073,0.127-0.169,0.205-0.284c0.639-0.926,1.206-1.923,1.688-2.965c0.06-0.129,0.108-0.24,0.143-0.327
			c-0.088-0.072-0.202-0.17-0.353-0.305l-2.1-1.861c-0.356-0.317-0.553-0.908-0.457-1.375l0.569-2.754
			c0.096-0.466,0.51-0.932,0.963-1.082l2.665-0.88c0.195-0.064,0.338-0.107,0.441-0.137c0.002-0.092,0.003-0.213-0.001-0.35
			c-0.029-1.127-0.157-2.272-0.38-3.404c-0.026-0.136-0.054-0.252-0.075-0.342c-0.125-0.006-0.288-0.019-0.465-0.037l-2.791-0.276
			c-0.475-0.047-0.981-0.409-1.18-0.842l-1.167-2.555c-0.198-0.435-0.138-1.054,0.142-1.442l1.639-2.28
			c0.114-0.159,0.203-0.279,0.275-0.371c-0.052-0.076-0.122-0.171-0.205-0.28c-0.378-0.489-0.748-0.927-1.131-1.339
			c-0.375-0.41-0.765-0.799-1.193-1.191c-0.1-0.092-0.189-0.169-0.26-0.229c-0.101,0.065-0.23,0.144-0.396,0.24l-2.426,1.417
			c-0.394,0.232-1.05,0.236-1.448,0.01l-2.437-1.384c-0.415-0.235-0.731-0.772-0.734-1.25l-0.023-2.807
			c-0.001-0.195-0.001-0.347,0.003-0.465c-0.087-0.03-0.199-0.066-0.331-0.105c-1.091-0.32-2.217-0.55-3.348-0.685
			c-0.134-0.016-0.256-0.027-0.354-0.033c-0.042,0.108-0.101,0.247-0.18,0.428L63.246,26c-0.189,0.437-0.69,0.808-1.165,0.862
			l-2.79,0.316c-0.467,0.056-1.047-0.199-1.328-0.578l-1.668-2.252c-0.119-0.16-0.209-0.285-0.275-0.383
			c-0.084,0.026-0.196,0.062-0.326,0.108c-1.022,0.366-2.029,0.82-2.994,1.35c-0.119,0.065-0.22,0.125-0.298,0.173
			c0.03,0.115,0.065,0.264,0.106,0.458l0.589,2.748c0.101,0.466-0.092,1.059-0.446,1.378l-2.081,1.874
			c-0.343,0.308-0.974,0.445-1.417,0.303l-2.668-0.86c-0.188-0.06-0.332-0.109-0.443-0.151c-0.056,0.073-0.125,0.168-0.203,0.28
			c-0.646,0.936-1.219,1.936-1.702,2.971c-0.058,0.124-0.105,0.233-0.141,0.319c0.087,0.071,0.199,0.169,0.347,0.302l2.094,1.879
			c0.355,0.319,0.549,0.911,0.451,1.377l-0.576,2.742c-0.099,0.467-0.514,0.931-0.967,1.079l-2.666,0.871
			c-0.195,0.065-0.338,0.108-0.443,0.136c-0.002,0.093-0.002,0.212,0.002,0.35c0.028,1.146,0.152,2.293,0.367,3.408
			c0.025,0.134,0.051,0.251,0.072,0.342c0.124,0.006,0.283,0.019,0.457,0.037l2.789,0.281c0.476,0.048,0.98,0.412,1.177,0.847
			l1.156,2.562c0.196,0.436,0.132,1.055-0.146,1.441l-1.645,2.271c-0.116,0.159-0.204,0.281-0.276,0.372
			c0.053,0.077,0.123,0.175,0.209,0.288c0.367,0.48,0.758,0.949,1.16,1.395c0.338,0.369,0.707,0.738,1.129,1.129
			c0.104,0.098,0.194,0.177,0.266,0.238c0.099-0.064,0.227-0.141,0.396-0.238l2.425-1.412c0.396-0.229,1.051-0.232,1.449-0.005
			L55.654,58c0.414,0.237,0.728,0.775,0.73,1.252l0.013,2.805C56.398,62.256,56.397,62.408,56.393,62.525z M62.516,55.701
			c-3.503,0-6.868-1.479-9.232-4.059c-4.658-5.092-4.312-13.027,0.772-17.689c2.314-2.123,5.316-3.292,8.453-3.292
			c3.501,0,6.867,1.48,9.236,4.061c2.271,2.472,3.44,5.677,3.292,9.025c-0.147,3.335-1.589,6.414-4.059,8.665
			C68.661,54.533,65.654,55.701,62.516,55.701z M62.509,31.311c-2.974,0-5.82,1.108-8.015,3.121
			c-4.82,4.42-5.149,11.945-0.732,16.773c2.242,2.443,5.432,3.848,8.754,3.848c2.977,0,5.827-1.108,8.024-3.121
			c2.343-2.133,3.709-5.05,3.849-8.214c0.141-3.173-0.968-6.212-3.122-8.556C69.021,32.714,65.828,31.311,62.509,31.311z"/>
	</g>
	<path fill="#00B8D4" d="M53.669,76.455l-1.511-1.342c-0.193-0.17-0.308-0.514-0.256-0.766l0.41-1.982
		c0.051-0.254,0.293-0.523,0.537-0.605l1.92-0.633c0.244-0.08,0.451-0.139,0.461-0.129c0.012,0.01,0.021-0.191,0.016-0.449
		c-0.021-0.834-0.115-1.666-0.278-2.49c-0.05-0.252-0.104-0.447-0.113-0.436s-0.225,0.002-0.481-0.023l-2.01-0.199
		c-0.256-0.025-0.552-0.236-0.658-0.471l-0.84-1.84c-0.107-0.234-0.072-0.596,0.078-0.805l1.18-1.641
		c0.15-0.209,0.285-0.379,0.299-0.377c0.015,0.002-0.096-0.166-0.254-0.371c-0.259-0.336-0.533-0.664-0.827-0.98
		c-0.28-0.307-0.571-0.596-0.872-0.871c-0.19-0.174-0.348-0.297-0.348-0.283c0.001,0.014-0.178,0.133-0.401,0.264l-1.745,1.02
		c-0.223,0.131-0.586,0.133-0.811,0.006l-1.754-0.996c-0.225-0.127-0.408-0.441-0.41-0.697l-0.017-2.021
		c-0.002-0.259,0.007-0.475,0.02-0.482s-0.176-0.078-0.424-0.152c-0.804-0.234-1.621-0.401-2.448-0.499
		c-0.256-0.03-0.459-0.039-0.451-0.028c0.006,0.014-0.071,0.215-0.174,0.451l-0.803,1.85c-0.104,0.236-0.395,0.452-0.65,0.481
		l-2.008,0.228c-0.257,0.029-0.59-0.115-0.744-0.322l-1.2-1.622c-0.153-0.206-0.273-0.387-0.268-0.401
		c0.006-0.016-0.188,0.036-0.432,0.123c-0.748,0.268-1.479,0.597-2.188,0.987c-0.227,0.124-0.395,0.235-0.379,0.241
		c0.014,0.004,0.07,0.214,0.125,0.467l0.424,1.977c0.054,0.252-0.059,0.598-0.25,0.77l-1.498,1.352
		c-0.191,0.172-0.546,0.248-0.792,0.168l-1.92-0.619c-0.246-0.078-0.448-0.156-0.452-0.17c-0.002-0.016-0.131,0.141-0.277,0.354
		c-0.48,0.695-0.896,1.422-1.245,2.172c-0.109,0.234-0.181,0.422-0.167,0.418c0.013-0.006,0.179,0.129,0.371,0.303l1.508,1.352
		c0.191,0.174,0.305,0.516,0.251,0.77l-0.415,1.975c-0.053,0.252-0.295,0.521-0.539,0.602l-1.92,0.629
		c-0.244,0.08-0.452,0.137-0.463,0.127c-0.012-0.01-0.021,0.191-0.016,0.451c0.021,0.832,0.109,1.666,0.269,2.49
		c0.049,0.254,0.102,0.447,0.109,0.438c0.007-0.014,0.222-0.002,0.478,0.023l2.008,0.203c0.258,0.025,0.553,0.238,0.658,0.475
		l0.832,1.844c0.105,0.234,0.069,0.596-0.082,0.805l-1.184,1.635c-0.15,0.207-0.285,0.377-0.298,0.377
		c-0.015,0,0.097,0.17,0.253,0.377c0.267,0.348,0.549,0.688,0.848,1.018c0.266,0.291,0.545,0.568,0.827,0.828
		c0.189,0.178,0.347,0.303,0.347,0.291c0.001-0.014,0.183-0.129,0.406-0.26l1.745-1.018c0.224-0.129,0.586-0.131,0.81-0.002
		l1.752,1.002c0.225,0.127,0.406,0.439,0.408,0.697l0.01,2.021c0.001,0.258-0.009,0.473-0.021,0.48
		c-0.012,0.01,0.176,0.082,0.424,0.156c0.801,0.238,1.621,0.41,2.449,0.51c0.256,0.031,0.458,0.039,0.449,0.027
		c-0.008-0.012,0.07-0.213,0.173-0.449l0.812-1.854c0.104-0.236,0.395-0.451,0.652-0.477l2.008-0.217
		c0.257-0.027,0.589,0.119,0.742,0.326l1.199,1.629c0.154,0.207,0.273,0.387,0.268,0.398c-0.005,0.014,0.191-0.037,0.435-0.121
		c0.785-0.273,1.554-0.617,2.296-1.029c0.225-0.125,0.391-0.238,0.376-0.242c-0.017-0.004-0.073-0.213-0.13-0.465l-0.433-1.973
		c-0.056-0.254,0.055-0.598,0.246-0.771l1.501-1.361c0.191-0.174,0.545-0.25,0.791-0.172l1.924,0.615
		c0.245,0.078,0.447,0.152,0.45,0.168c0.004,0.014,0.132-0.143,0.278-0.355c0.477-0.693,0.889-1.42,1.235-2.17
		c0.108-0.232,0.179-0.424,0.166-0.422C54.029,76.762,53.862,76.625,53.669,76.455z M33.918,76.869
		c-3.275-3.578-3.033-9.127,0.541-12.404c3.575-3.279,9.125-3.033,12.404,0.539c3.287,3.578,3.052,9.135-0.537,12.404
		C42.748,80.682,37.193,80.443,33.918,76.869z"/>
	<g>
		<path fill="#231F20" d="M39.015,86.031c-0.077,0-0.247-0.012-0.448-0.035c-0.845-0.104-1.687-0.277-2.503-0.521
			c-0.466-0.139-0.619-0.199-0.651-0.416l-0.031-0.203l0.045-0.029c0.003-0.078,0.004-0.184,0.003-0.297l-0.01-2.021
			c-0.001-0.141-0.122-0.348-0.243-0.418l-1.753-1.002c-0.116-0.066-0.37-0.064-0.485,0.002l-1.745,1.018
			c-0.098,0.057-0.187,0.109-0.253,0.15l-0.006,0.152h-0.312c-0.108,0-0.159,0-0.566-0.377c-0.315-0.293-0.593-0.57-0.846-0.846
			c-0.301-0.332-0.591-0.682-0.866-1.041c-0.289-0.379-0.385-0.52-0.287-0.717l0.089-0.18l0.056-0.002
			c0.049-0.062,0.113-0.148,0.182-0.242l1.185-1.637c0.083-0.113,0.106-0.352,0.049-0.48l-0.832-1.844
			c-0.058-0.131-0.253-0.271-0.395-0.285l-2.008-0.203c-0.146-0.014-0.274-0.023-0.356-0.027l-0.073,0.004
			c-0.3,0.008-0.357-0.252-0.444-0.699c-0.159-0.83-0.252-1.686-0.273-2.543c-0.014-0.539,0.021-0.6,0.105-0.686l0.186-0.189
			l0.115,0.074c0.066-0.02,0.176-0.055,0.297-0.094l1.918-0.627c0.135-0.045,0.295-0.225,0.324-0.361l0.414-1.975
			c0.029-0.139-0.046-0.367-0.15-0.461l-1.508-1.354c-0.102-0.09-0.193-0.17-0.255-0.219h-0.077l-0.098-0.152
			c-0.101-0.156-0.062-0.277,0.148-0.727c0.359-0.773,0.788-1.52,1.272-2.221c0.301-0.436,0.381-0.494,0.544-0.494h0.263
			l0.021,0.098c0.071,0.025,0.166,0.057,0.269,0.09l1.92,0.619c0.126,0.041,0.374-0.012,0.475-0.102l1.499-1.35
			c0.104-0.094,0.179-0.322,0.148-0.461l-0.424-1.977c-0.023-0.111-0.047-0.213-0.066-0.289l-0.049-0.019l-0.017-0.205
			c-0.017-0.229,0.146-0.327,0.547-0.55c0.718-0.394,1.471-0.733,2.237-1.008c0.184-0.065,0.427-0.145,0.534-0.145h0.171l0.2,0.285
			l-0.007,0.015c0.045,0.064,0.104,0.147,0.17,0.237l1.201,1.621c0.076,0.104,0.271,0.195,0.414,0.195l2.039-0.229
			c0.141-0.017,0.334-0.158,0.389-0.288l0.803-1.851c0.049-0.11,0.092-0.213,0.121-0.288l-0.02-0.035l0.18-0.322l0.233-0.005
			c0.079,0,0.248,0.011,0.446,0.034c0.845,0.102,1.687,0.272,2.502,0.512c0.43,0.126,0.625,0.184,0.655,0.422l0.027,0.214
			l-0.043,0.025c-0.002,0.076-0.003,0.175-0.002,0.281l0.017,2.021c0.002,0.141,0.123,0.35,0.246,0.42l1.754,0.996
			c0.115,0.064,0.37,0.062,0.486-0.004l1.746-1.021c0.085-0.049,0.164-0.098,0.227-0.137l-0.016-0.17l0.354-0.002
			c0.104,0,0.161,0,0.565,0.369c0.321,0.295,0.613,0.586,0.893,0.893c0.287,0.307,0.564,0.637,0.846,1.002
			c0.29,0.375,0.385,0.516,0.289,0.711l-0.09,0.182h-0.059c-0.049,0.062-0.111,0.146-0.18,0.242l-1.18,1.641
			c-0.082,0.115-0.105,0.352-0.047,0.48l0.84,1.84c0.059,0.129,0.255,0.268,0.396,0.283l2.01,0.197
			c0.144,0.016,0.272,0.025,0.354,0.027l0.081-0.004c0.321-0.012,0.362,0.27,0.446,0.697c0.166,0.844,0.261,1.701,0.283,2.543
			c0.016,0.562-0.027,0.607-0.105,0.686l-0.193,0.199l-0.113-0.08c-0.066,0.02-0.172,0.053-0.287,0.092l-1.919,0.633
			c-0.134,0.045-0.294,0.223-0.322,0.361l-0.409,1.982c-0.029,0.139,0.047,0.365,0.152,0.459l1.512,1.342
			c0.104,0.09,0.198,0.172,0.262,0.223h0.074l0.097,0.148c0.096,0.15,0.072,0.268-0.146,0.734c-0.359,0.777-0.784,1.523-1.262,2.217
			c-0.291,0.422-0.373,0.496-0.545,0.496h-0.247l-0.025-0.09c-0.073-0.025-0.171-0.059-0.278-0.094l-1.924-0.615
			c-0.127-0.041-0.373,0.012-0.474,0.104l-1.501,1.361c-0.104,0.096-0.178,0.322-0.146,0.459l0.433,1.977
			c0.022,0.1,0.045,0.193,0.063,0.266l0.047,0.014l0.025,0.219c0.026,0.234-0.137,0.336-0.541,0.561
			c-0.752,0.418-1.541,0.773-2.348,1.051c-0.188,0.066-0.434,0.145-0.537,0.145H44.74l-0.201-0.293l0.006-0.012
			c-0.043-0.062-0.102-0.143-0.165-0.229l-1.2-1.629c-0.077-0.105-0.271-0.197-0.417-0.197l-2.037,0.217
			c-0.14,0.014-0.333,0.154-0.39,0.285l-0.811,1.854c-0.044,0.1-0.084,0.193-0.111,0.264l0.02,0.029l-0.18,0.352L39.015,86.031z
			 M36.077,84.799c0.051,0.018,0.108,0.035,0.171,0.053c0.781,0.234,1.588,0.402,2.396,0.5c0.064,0.008,0.125,0.014,0.179,0.02
			c0.03-0.07,0.065-0.154,0.107-0.248l0.812-1.854c0.149-0.344,0.543-0.633,0.914-0.672l2.106-0.221c0.353,0,0.739,0.191,0.94,0.463
			l1.199,1.629c0.062,0.084,0.115,0.156,0.16,0.219c0.051-0.016,0.11-0.035,0.174-0.057c0.771-0.268,1.526-0.605,2.244-1.008
			c0.055-0.029,0.105-0.057,0.149-0.084c-0.019-0.076-0.039-0.166-0.062-0.268l-0.434-1.975c-0.08-0.365,0.068-0.828,0.346-1.08
			l1.5-1.361c0.27-0.244,0.762-0.352,1.108-0.24l1.924,0.615c0.1,0.031,0.185,0.059,0.257,0.084
			c0.033-0.043,0.068-0.094,0.105-0.146c0.457-0.664,0.863-1.379,1.208-2.121c0.028-0.062,0.054-0.119,0.076-0.17
			c-0.057-0.049-0.124-0.107-0.205-0.18l-1.512-1.34c-0.28-0.248-0.433-0.711-0.356-1.078l0.408-1.98
			c0.075-0.365,0.399-0.73,0.754-0.846l1.919-0.635c0.104-0.033,0.188-0.061,0.257-0.08c0-0.055-0.001-0.115-0.003-0.182
			c-0.021-0.807-0.112-1.625-0.271-2.436c-0.014-0.064-0.025-0.123-0.038-0.176c-0.079-0.006-0.173-0.014-0.271-0.023l-2.01-0.197
			c-0.371-0.037-0.768-0.322-0.923-0.66l-0.84-1.84c-0.155-0.34-0.108-0.826,0.11-1.129l1.18-1.641
			c0.062-0.086,0.113-0.156,0.159-0.219c-0.031-0.043-0.067-0.09-0.106-0.141c-0.27-0.35-0.535-0.664-0.809-0.957
			c-0.27-0.297-0.549-0.574-0.854-0.854c-0.048-0.043-0.093-0.084-0.133-0.119c-0.066,0.041-0.145,0.088-0.234,0.139l-1.744,1.021
			c-0.312,0.182-0.82,0.184-1.134,0.008l-1.755-0.998c-0.324-0.184-0.572-0.604-0.574-0.977l-0.018-2.021
			c0-0.105-0.001-0.193,0-0.271c-0.051-0.018-0.107-0.035-0.17-0.053c-0.781-0.229-1.588-0.393-2.396-0.489
			c-0.066-0.008-0.128-0.015-0.183-0.019c-0.028,0.069-0.063,0.15-0.106,0.248l-0.802,1.85c-0.148,0.342-0.54,0.633-0.911,0.674
			l-2.009,0.229c-0.373,0.045-0.821-0.154-1.04-0.451l-1.201-1.621c-0.064-0.088-0.118-0.16-0.162-0.225
			c-0.049,0.017-0.106,0.035-0.168,0.057c-0.732,0.263-1.453,0.588-2.141,0.967c-0.057,0.03-0.108,0.061-0.153,0.088
			c0.019,0.074,0.038,0.162,0.06,0.267l0.425,1.979c0.077,0.365-0.072,0.828-0.35,1.078l-1.499,1.35
			c-0.27,0.242-0.758,0.35-1.108,0.236l-1.92-0.617c-0.102-0.033-0.187-0.062-0.26-0.088c-0.032,0.043-0.065,0.092-0.103,0.145
			c-0.464,0.67-0.874,1.385-1.219,2.125c-0.027,0.061-0.053,0.115-0.074,0.164c0.056,0.047,0.121,0.105,0.201,0.178l1.508,1.352
			c0.277,0.25,0.429,0.713,0.352,1.078l-0.414,1.975c-0.076,0.365-0.402,0.729-0.756,0.846l-1.92,0.625
			c-0.104,0.035-0.189,0.062-0.258,0.082c0,0.053,0.001,0.113,0.003,0.18c0.021,0.822,0.108,1.643,0.263,2.438
			c0.012,0.066,0.024,0.125,0.035,0.178c0.078,0.006,0.17,0.014,0.266,0.023l2.008,0.203c0.372,0.037,0.768,0.322,0.921,0.662
			l0.833,1.846c0.152,0.34,0.104,0.824-0.115,1.127l-1.185,1.635c-0.062,0.086-0.114,0.158-0.16,0.219
			c0.032,0.045,0.069,0.096,0.11,0.148c0.264,0.344,0.543,0.682,0.831,0.998c0.239,0.262,0.504,0.527,0.806,0.809
			c0.051,0.045,0.098,0.088,0.139,0.125c0.064-0.041,0.141-0.086,0.23-0.139l1.746-1.016c0.313-0.182,0.82-0.184,1.134-0.004
			l1.752,1c0.324,0.186,0.569,0.605,0.571,0.98l0.01,2.02C36.078,84.631,36.078,84.723,36.077,84.799z M40.392,80.039
			c-2.547,0-4.994-1.074-6.714-2.949c-3.388-3.703-3.135-9.475,0.562-12.863c1.684-1.545,3.865-2.395,6.146-2.395
			c2.546,0,4.993,1.076,6.716,2.953c1.651,1.797,2.503,4.127,2.394,6.562c-0.106,2.426-1.155,4.664-2.951,6.301
			C44.859,79.189,42.674,80.039,40.392,80.039z M40.387,62.482c-2.118,0-4.146,0.787-5.708,2.223
			c-3.435,3.148-3.668,8.508-0.521,11.945c1.597,1.742,3.868,2.74,6.234,2.74c2.12,0,4.149-0.789,5.716-2.221
			c1.668-1.521,2.641-3.6,2.74-5.85c0.101-2.262-0.689-4.426-2.223-6.096C45.024,63.48,42.751,62.482,40.387,62.482z"/>
	</g>
	<g>
		<path fill="#231F20" d="M62.604,55.648c-6.818,0-12.366-5.548-12.366-12.368c0-6.819,5.548-12.367,12.366-12.367
			c6.82,0,12.369,5.548,12.369,12.367C74.973,50.1,69.424,55.648,62.604,55.648z M62.604,31.39c-6.556,0-11.889,5.334-11.889,11.89
			c0,6.558,5.333,11.892,11.889,11.892c6.558,0,11.892-5.334,11.892-11.892C74.495,36.724,69.161,31.39,62.604,31.39z"/>
	</g>
	<circle fill="#00BCD4" cx="62.605" cy="43.28" r="7.119"/>
	<circle fill="#005E6A" cx="62.604" cy="43.28" r="2.943"/>
	<g>
		<path fill="#231F20" d="M62.604,50.637c-4.056,0-7.355-3.3-7.355-7.356c0-4.057,3.3-7.357,7.355-7.357
			c4.058,0,7.358,3.3,7.358,7.357C69.962,47.336,66.661,50.637,62.604,50.637z M62.604,36.401c-3.793,0-6.879,3.086-6.879,6.879
			c0,3.792,3.086,6.878,6.879,6.878c3.794,0,6.881-3.086,6.881-6.878C69.484,39.487,66.397,36.401,62.604,36.401z"/>
	</g>
	<g>
		<path fill="#231F20" d="M62.604,46.461c-1.754,0-3.181-1.426-3.181-3.181s1.427-3.182,3.181-3.182
			c1.755,0,3.183,1.427,3.183,3.182S64.358,46.461,62.604,46.461z M62.604,40.576c-1.49,0-2.703,1.213-2.703,2.705
			s1.213,2.705,2.703,2.705c1.491,0,2.705-1.213,2.705-2.705S64.095,40.576,62.604,40.576z"/>
	</g>
	
		<ellipse transform="matrix(0.7202 -0.6938 0.6938 0.7202 -11.4266 52.7327)" fill="#FFFFFF" cx="59.661" cy="40.532" rx="1.849" ry="0.98"/>
	<g>
		<path fill="#231F20" d="M58.82,42.235c-0.272,0-0.502-0.088-0.663-0.255c-0.473-0.492-0.184-1.513,0.659-2.325
			c0.819-0.791,1.884-1.055,2.349-0.57c0.244,0.253,0.296,0.649,0.145,1.113c-0.136,0.413-0.421,0.843-0.804,1.212
			C59.97,41.927,59.34,42.235,58.82,42.235z M60.501,39.306c-0.386,0-0.917,0.272-1.354,0.693c-0.683,0.659-0.888,1.398-0.646,1.651
			c0.069,0.071,0.177,0.108,0.319,0.108c0.387,0,0.919-0.272,1.354-0.692c0.323-0.312,0.571-0.682,0.681-1.016
			c0.093-0.284,0.08-0.515-0.034-0.634C60.751,39.343,60.644,39.306,60.501,39.306z"/>
	</g>
	<g>
		<path fill="#231F20" d="M92.314,81.6c-0.249,0-0.396-0.105-0.475-0.195L74.949,62.762c-0.328-0.371-0.095-1.055,0.552-1.629
			l3.479-3.152c0.4-0.365,0.849-0.585,1.199-0.585c0.251,0,0.4,0.107,0.48,0.198l16.887,18.645c0.328,0.363,0.099,1.037-0.557,1.637
			l-3.479,3.141C93.114,81.381,92.666,81.6,92.314,81.6z M80.177,58.027c-0.146,0.018-0.447,0.148-0.76,0.434l-3.482,3.154
			c-0.385,0.344-0.501,0.664-0.486,0.74l16.873,18.615l-0.007-0.02c0.153,0,0.463-0.143,0.759-0.416l3.479-3.139
			c0.405-0.373,0.504-0.689,0.492-0.756L80.177,58.027z"/>
	</g>
	<g>
		
			<rect x="79.227" y="58.735" transform="matrix(0.6724 0.7401 -0.7401 0.6724 72.1118 -38.4983)" fill="#231F20" width="0.649" height="6.978"/>
	</g>
	<g>
		
			<rect x="80.525" y="60.034" transform="matrix(0.6716 0.7409 -0.7409 0.6716 73.6125 -39.0416)" fill="#231F20" width="0.648" height="6.977"/>
	</g>
</g>
</svg>
