<?xml version="1.0" encoding="utf-8"?>
<!-- Generator: Adobe Illustrator 16.0.0, SVG Export Plug-In . SVG Version: 6.00 Build 0)  -->
<!DOCTYPE svg PUBLIC "-//W3C//DTD SVG 1.1//EN" "http://www.w3.org/Graphics/SVG/1.1/DTD/svg11.dtd">
<svg version="1.1" id="Layer_1" xmlns="http://www.w3.org/2000/svg" xmlns:xlink="http://www.w3.org/1999/xlink" x="0px" y="0px"
	 width="100px" height="100px" viewBox="0 0 100 100" enable-background="new 0 0 100 100" xml:space="preserve">
<g id="XMLID_1_">
	<g id="XMLID_231_">
		<polygon id="XMLID_433_" fill="#FFFFFF" points="55.7,37.715 55.7,37.715 55.7,37.717 		"/>
		<path id="XMLID_432_" fill="#FFFFFF" d="M55.606,37.586c0.017,0.01,0.053-0.023,0.028-0.021
			C55.61,37.563,55.586,37.58,55.606,37.586z"/>
		<path id="XMLID_431_" fill="#FFFFFF" d="M60.465,53.213c0.247,14.044-10.935,25.628-24.976,25.871
			C21.444,79.333,9.855,68.142,9.615,54.1C9.37,40.056,20.556,28.472,34.601,28.227C48.643,27.982,60.219,39.172,60.465,53.213z"/>
		<path id="XMLID_236_" fill="#3677A2" d="M59.184,45.819C59.479,45.776,59.163,45.828,59.184,45.819L59.184,45.819z M59.409,46.277
			C59.027,46.948,59.381,46.397,59.409,46.277L59.409,46.277z M48.838,43.622c0.087-0.076-4.559-4.437-1.257-4.564
			c-0.082-0.051-0.046-0.228,0.002-0.267c-0.107-0.015-0.063,0.042-0.046,0.118c-0.067-0.252-0.699,0.008-1.129-0.078
			c-0.128-0.023,0.116-0.13,0.021-0.144c0.004,0-0.005-0.12-0.012-0.134c0.151-0.011,0.155-0.06,0.021-0.146
			c-0.016-0.026,0.727-0.561,0.905-0.181c-0.058-0.109-0.218-0.184,0.007-0.184c-0.043-0.306-2.436-2.655-4.137-3.845
			c-0.008,0.071-0.075,0.103-0.134-0.093c-0.484-0.329-0.903-0.557-1.179-0.596c0.157,0.01-0.013-0.138,0.023-0.148
			c2.648,0.623,4.201-2.569,6.33-1.663c0.059,0.013,0.138,0.049,0.224,0.111c0.03,0.016,0.059,0.024,0.091,0.043
			c-0.021-0.002-0.025-0.006-0.042-0.01c0.055,0.05,0.111,0.105,0.162,0.181c-0.236-0.401,7.036,4.717,6.384,5.861
			c-0.055-0.018-0.062,0-0.014,0.019c-0.033,0.051-0.082,0.101-0.156,0.132c0.188,0.113,0.17,0.155-0.069,0.124
			c0.505,0.181,0.39-0.017,0.25-0.078c0.921,0.188,0.683,0.855,0.727,1.264c-0.029-0.339-2.688,0.13-0.202,0.496
			C51.068,39.288,50.317,42.291,48.838,43.622z M47.342,37.9C47.459,37.9,47.423,37.878,47.342,37.9L47.342,37.9z M47.324,38.33
			C47.329,38.33,47.716,38.207,47.324,38.33L47.324,38.33z M46.731,40.389C46.804,40.35,46.557,40.345,46.731,40.389L46.731,40.389z
			 M46.938,39.619C47.059,39.559,47.126,39.505,46.938,39.619L46.938,39.619z M47.389,39.417
			C46.921,39.376,47.483,39.432,47.389,39.417L47.389,39.417z M47.243,40.115C47.243,40.115,47.429,40.238,47.243,40.115
			L47.243,40.115z M47.397,39.762C47.848,40.167,46.991,39.35,47.397,39.762L47.397,39.762z M54.468,37.946
			C54.406,37.971,54.693,38.036,54.468,37.946L54.468,37.946z M54.095,39.35C54.443,39.091,53.687,39.294,54.095,39.35L54.095,39.35
			z M54.25,39.509C54.554,39.312,53.85,39.477,54.25,39.509L54.25,39.509z M54.423,38.102
			C54.274,38.176,54.911,38.121,54.423,38.102L54.423,38.102z M55.608,39.841C55.677,39.849,55.568,39.834,55.608,39.841
			L55.608,39.841z M55.084,38.082c-0.021-0.008-0.041-0.014-0.062-0.017C55.045,38.071,55.062,38.077,55.084,38.082z M54.095,39.35
			C54.127,39.322,54.028,39.339,54.095,39.35L54.095,39.35z M55.152,37.923c-0.035-0.022-0.061-0.031-0.079-0.037
			c-0.007,0.006-0.01,0.015-0.014,0.019C55.082,37.913,55.113,37.921,55.152,37.923z M47.161,37.956
			C47.423,37.874,46.999,37.857,47.161,37.956L47.161,37.956z M19.705,39.704c0.018,0.03,0.227-0.141,0.209-0.149
			C19.875,39.518,19.682,39.674,19.705,39.704z M14.952,41.035C15.478,41.111,13.981,40.887,14.952,41.035L14.952,41.035z
			 M20.056,39.494c-0.003,0.031,0.107,0.063,0.112,0.021C20.17,39.477,20.061,39.459,20.056,39.494z M32.99,33.377
			C33.254,33.626,32.925,33.055,32.99,33.377L32.99,33.377z M33.434,33.611c0.186-0.029,0.074-0.062-0.052-0.08
			c0.013-0.011,0.032-0.023,0.046-0.035c-0.041,0.01-0.062,0.021-0.096,0.031c-0.116-0.014-0.211-0.006-0.101,0.029
			c-0.327,0.119-0.102,0.106,0.075,0.02C33.343,33.589,33.373,33.597,33.434,33.611z M33.434,33.611
			C33.497,33.626,33.57,33.591,33.434,33.611L33.434,33.611z M33.256,32.12C33.354,32.145,33.292,32.12,33.256,32.12L33.256,32.12z
			 M33.256,32.12C33.332,32.14,33.542,32.125,33.256,32.12L33.256,32.12z M33.415,31.99C33.316,31.983,33.393,31.99,33.415,31.99
			L33.415,31.99z M33.005,31.822C34.226,32.463,34.48,32.545,33.005,31.822L33.005,31.822z M33.005,31.822
			C33.086,31.863,32.925,31.782,33.005,31.822L33.005,31.822z M42.007,42.485c0.025,0.037,0.186-0.02,0.139-0.065
			C42.1,42.379,41.982,42.445,42.007,42.485z M32.904,32.932c0.058,0-0.686-0.06-0.034-0.005
			C32.914,32.932,32.914,32.932,32.904,32.932z M33.976,32.683c0.099-0.01-0.153-0.128-0.294-0.12
			C33.568,32.576,33.723,32.704,33.976,32.683z M34.596,31.463C35.252,31.616,34.051,31.329,34.596,31.463L34.596,31.463z
			 M40.038,34.48c-0.038-0.018-0.216,0.029-0.163,0.062C39.931,34.581,40.143,34.524,40.038,34.48z M37.609,54.279
			c-0.096-0.003-0.05-0.001-0.021,0C37.606,54.283,37.66,54.288,37.609,54.279z M34.199,33.397
			C34.517,33.499,33.798,33.267,34.199,33.397L34.199,33.397z M34.28,33.768C34.071,33.7,34.21,33.811,34.28,33.768L34.28,33.768z
			 M33.974,33.399C33.906,33.472,34.062,33.313,33.974,33.399L33.974,33.399z M33.625,33.443
			C32.675,33.727,36.244,32.728,33.625,33.443L33.625,33.443z M34.208,33.55c0,0-0.004,0-0.029-0.009
			C33.758,33.399,34.435,33.629,34.208,33.55z M44.529,31.725c-0.268-0.043-0.5-0.052-0.713-0.043
			C44.7,31.971,43.871,31.663,44.529,31.725z M38.787,31.112c-0.017,0-0.023,0.002-0.039,0.002
			C38.764,31.114,38.786,31.114,38.787,31.112z M37.153,30.672c-0.089-0.024-0.177-0.049-0.209-0.065
			C37.039,30.656,37.104,30.67,37.153,30.672z M40.349,31.427c0.002,0.006,0.004,0.01,0.01,0.025
			C40.369,31.484,40.352,31.431,40.349,31.427z M40.391,31.529c-0.002-0.002-0.002-0.004-0.002-0.004
			c-0.004-0.001-0.004-0.001-0.005,0c0.001,0,0.001,0.004,0.001,0.004C40.389,31.529,40.389,31.529,40.391,31.529z M35.457,31.474
			c-0.58-1.005,2.963-0.101,4.149,0.69c0.024-0.136-0.68-0.383-0.211-0.378c-0.204-0.086-0.186-0.134,0.053-0.142
			c-0.282-0.01-0.222-0.049,0.176-0.113c-1.432,0.321-1.845-0.751-2.401-0.751c0.299-0.003,0.111-0.059-0.07-0.107
			c0.09,0,0.076-0.072-0.186-0.209c0.409,0.203,8.825-0.942,8.646,0.762c-0.062,0.03-0.071,0.08-0.025,0.14
			c-0.046,0.374-1.863,0.15-2.158,0.189c0.156,0.048,0.281,0.09,0.386,0.126c-1.299,0.049-1.797,0.929-3.156,0.929
			c-0.239-0.006,0.411,0.16,0.245,0.069c1.022,0.587-1.644,2.189-3.708,1.188c-0.064-0.026-0.02-0.298-0.011-0.36
			c0.092-0.654,1.078,0.015,1.398-0.267c-0.159,0.062-0.206,0.043-0.133-0.06c-0.246-0.026,0.068-0.081,0.153-0.115
			c-0.142-0.066-0.801-0.271-0.722-0.424c-1.067,0.282-1.853-0.213-2.422-1.159c0.008,0.01,0.01,0.021-0.004-0.006
			C35.438,31.447,35.447,31.461,35.457,31.474z M41.416,30.508C41.371,30.467,41.244,30.583,41.416,30.508L41.416,30.508z
			 M38.735,30.572C38.583,30.473,38.712,30.603,38.735,30.572L38.735,30.572z M38.787,31.112c-0.079,0-0.063,0.002-0.039,0.002
			C38.02,31.126,38.454,31.387,38.787,31.112z M40.731,32.693C40.468,32.642,40.585,32.685,40.731,32.693L40.731,32.693z
			 M40.471,32.762C40.639,32.672,40.449,32.762,40.471,32.762L40.471,32.762z M40.384,31.529c0.038,0.097,0.026,0.064,0.006,0
			c0.125-0.051,0.176-0.076-0.002-0.005c-0.026-0.071-0.053-0.141-0.04-0.097c0,0,0,0.001,0.01,0.025
			c0.01,0.034,0.02,0.051,0.024,0.074c-0.07,0.024-0.169,0.064-0.321,0.119C39.534,31.863,40.118,31.638,40.384,31.529z
			 M39.39,33.582C39.581,33.589,39.364,33.529,39.39,33.582L39.39,33.582z M38.646,33.394
			C38.708,33.385,38.617,33.397,38.646,33.394L38.646,33.394z M38.611,32.869C38.585,33.036,38.601,32.944,38.611,32.869
			L38.611,32.869z M38.41,32.468C38.292,32.512,38.583,32.417,38.41,32.468L38.41,32.468z M40.062,31.645
			C40.004,31.669,40.118,31.624,40.062,31.645L40.062,31.645z M36.85,33.433c-0.034,0.013-0.022,0.01-0.006,0.004
			C36.881,33.424,37.539,33.155,36.85,33.433z M33.549,37.481c0.417,0-0.134-0.015-0.022-0.004
			C33.525,37.477,33.531,37.479,33.549,37.481z M37.801,39.319c-0.05-0.042,0.072,0.256,0.199,0.235
			C38.119,39.535,37.85,39.362,37.801,39.319z M30.357,32.252C30.473,32.245,29.992,32.281,30.357,32.252L30.357,32.252z
			 M41.562,41.469c0.048-0.072-0.1-0.116-0.186-0.124C41.288,41.339,41.537,41.514,41.562,41.469z M30.884,32.532
			C29.735,32.228,32.431,32.997,30.884,32.532L30.884,32.532z M33.105,37.525c0.048,0.016,0.071-0.107,0.004-0.081
			C33.043,37.473,33.068,37.514,33.105,37.525z M42.011,34.001c0.053,0.027,0.243,0.046,0.216,0.04
			C42.158,34.01,41.96,33.973,42.011,34.001z M39.452,38.252c0.051,0.001,0.198-0.08,0.246-0.14c0.096,0,0.134-0.003,0.005-0.003
			c0.017-0.023,0.019-0.041,0.003-0.052c-0.033-0.018-0.084,0.011-0.14,0.049c-0.029,0-0.051,0-0.091,0
			c0.03,0.002,0.06,0.002,0.09,0.006C39.487,38.167,39.416,38.25,39.452,38.252z M38.842,55.462c0.01-0.043-0.114-0.093-0.111-0.045
			C38.728,55.467,38.828,55.512,38.842,55.462z M59.578,47.377c0.017,0.008,0.058-0.107,0.04-0.086
			C59.578,47.333,59.569,47.367,59.578,47.377z M59.336,46.314C59.315,46.3,59.307,46.43,59.336,46.314L59.336,46.314z
			 M37.491,47.44c0.029-0.051-0.386-0.103-0.347-0.084C37.183,47.377,37.405,47.577,37.491,47.44z M35.318,77.04
			c-0.007-0.009-0.009-0.012,0.012,0.009C35.483,77.195,35.313,77.031,35.318,77.04z M35.829,74.503
			C35.943,74.634,36.102,74.796,35.829,74.503L35.829,74.503z M35.736,77.61c-0.034-0.044-0.352-0.238-0.309-0.197
			C35.469,77.461,35.77,77.66,35.736,77.61z M40.471,56.576C41.4,56.705,40.544,56.587,40.471,56.576L40.471,56.576z M40.471,56.576
			C40.313,56.556,40.633,56.599,40.471,56.576L40.471,56.576z M38.115,55.687C34.98,53.994,36.525,54.95,38.115,55.687
			L38.115,55.687z M38.115,55.687C38.168,55.709,38.067,55.662,38.115,55.687L38.115,55.687z M36.152,54.517
			C36.715,54.448,36.317,54.454,36.152,54.517L36.152,54.517z M57.831,47.971c3.251-0.393-0.062-0.008-0.003,0
			C57.818,47.971,57.811,47.973,57.831,47.971z M59.146,46.043c0.197,0.162,0.059,0.052,0.017,0.014
			C59.154,46.051,59.109,46.012,59.146,46.043z M59.555,47.673C59.713,48.661,59.948,49.351,59.555,47.673L59.555,47.673z
			 M55.396,38.03C55.477,38.146,55.396,38.03,55.396,38.03L55.396,38.03z M60.079,53.607c-1.504,1.244,0.456-2.004,0.12-4.278
			c-0.182,0.126-0.396-0.108-0.534-0.142c-0.128-0.015-0.498,0.163-0.408,0.251c0,1.695-1.591,4.291-4.147,7.308
			c-0.692,0.79-0.479,2.146-0.666,2.986C51.812,67.62,62.697,51.26,60.079,53.607z M19.72,39.559
			c0.021,0.032,0.232-0.14,0.211-0.149C19.895,39.373,19.7,39.528,19.72,39.559z M15.786,52.514c-0.002,0,0.002,0.005,0.017,0.012
			C16.227,52.734,15.695,52.454,15.786,52.514z M18.41,40.038C18.695,40.451,18.149,39.625,18.41,40.038L18.41,40.038z
			 M14.971,40.893C15.494,40.957,14.003,40.747,14.971,40.893L14.971,40.893z M14.208,41.222
			C14.181,41.402,14.189,41.674,14.208,41.222L14.208,41.222z M14.208,41.222C14.206,41.246,14.219,41.144,14.208,41.222
			L14.208,41.222z M24.036,43.17C23.964,43.135,24.15,43.222,24.036,43.17L24.036,43.17z M24.036,43.17
			C23.151,42.755,23.567,42.957,24.036,43.17L24.036,43.17z M33.093,33.93C32.848,34.037,32.762,34.119,33.093,33.93L33.093,33.93z
			 M42.166,42.271c-0.046-0.037-0.163,0.031-0.136,0.064C42.059,42.379,42.213,42.323,42.166,42.271z M33.701,32.422
			c-0.115,0.014,0.042,0.133,0.295,0.114C34.092,32.53,33.845,32.405,33.701,32.422z M43.109,42.005
			C43.263,41.497,42.865,42.594,43.109,42.005L43.109,42.005z M40.059,34.335c-0.046-0.015-0.216,0.031-0.162,0.063
			C39.954,34.435,40.163,34.376,40.059,34.335z M34.982,32.148C36.235,33.311,35.85,32.904,34.982,32.148L34.982,32.148z
			 M36.957,33.656c0.068,0.039,0.15-0.037,0.062-0.121C36.946,33.459,36.882,33.615,36.957,33.656z M33.582,37.224
			C33.852,37.115,33.353,37.307,33.582,37.224L33.582,37.224z M35.611,33.833c-0.068,0.01,0.007,0.121,0.1,0.107
			C35.781,33.934,35.681,33.825,35.611,33.833z M33.583,35.044c-1.571,0.539,1.879,1.313,1.361,0.526
			C34.528,34.822,34.353,34.783,33.583,35.044z M38.942,41.039c-0.021-0.008-0.025-0.01-0.023-0.008
			C38.626,40.917,39.316,41.185,38.942,41.039z M35.936,34.281c0.009,0.009,0.014,0.013-0.017-0.017
			C34.965,33.332,36.124,34.479,35.936,34.281z M37.782,39.417c0.039-0.021-0.109-0.199-0.122-0.159
			C37.647,39.3,37.687,39.46,37.782,39.417z M38.322,40.724c-0.059,0.118-0.094,0.197-0.125,0.261
			C38,41.137,37.9,41.218,38.192,40.994c-0.085,0.181-0.054,0.129,0.007-0.004c0.125-0.093,0.305-0.229,0.579-0.439
			c-0.073,0.047-0.368,0.271-0.572,0.429C38.239,40.905,38.281,40.812,38.322,40.724z M36.784,33.961
			c0.486,0.199,0.925,0.327,2.558,0.626c-0.621-0.138-1.601-0.419-2.485-0.645c0.042-0.008,0.033-0.006-0.001,0
			c-0.098-0.024-0.196-0.046-0.29-0.07c0.075,0.031,0.149,0.062,0.216,0.088c-0.03,0.006-0.061,0.016-0.083,0.022
			C36.735,33.976,36.76,33.967,36.784,33.961z M39.811,34.674C39.863,34.675,39.728,34.657,39.811,34.674L39.811,34.674z
			 M35.153,33.317c0.72,0.255,1.106,0.426,1.414,0.556c-0.49-0.117-0.926-0.212-1.208-0.228c0.096-0.111,0.021-0.169-0.225-0.181
			C35.082,33.445,35.243,33.352,35.153,33.317z M36.009,33.702C36.275,33.694,35.972,33.702,36.009,33.702L36.009,33.702z
			 M39.342,34.587c0.195,0.045,0.365,0.08,0.469,0.086C39.644,34.642,39.491,34.614,39.342,34.587z M30.002,32.894
			C29.896,32.857,29.945,32.9,30.002,32.894L30.002,32.894z M32.566,33.399c-1.044-0.633-1.465-0.116-2.564-0.505
			c-0.095,0.01-0.177,0.025-0.25,0.038c0.037-0.031-1.928-0.289-1.928-0.183c1.301,0.147,1.814,0.191,1.909,0.185
			C27.143,33.349,32.914,33.607,32.566,33.399z M39.6,40.689C39.552,40.762,39.38,41.07,39.6,40.689L39.6,40.689z M30.214,32.578
			c-0.145,0,0.054,0.082,0.188,0.101C30.518,32.696,30.357,32.578,30.214,32.578z M42.243,33.894
			c-0.065-0.025-0.266-0.064-0.216-0.038C42.083,33.883,42.274,33.899,42.243,33.894z M39.475,38.106
			C39.525,38.106,39.409,38.104,39.475,38.106L39.475,38.106z M38.86,55.319c0.012-0.045-0.108-0.092-0.108-0.045
			C38.749,55.319,38.845,55.365,38.86,55.319z M45.719,47.57C45.646,47.603,45.76,47.55,45.719,47.57L45.719,47.57z M45.664,47.593
			c0.021-0.011,0.031-0.012,0.055-0.023C45.724,47.568,45.698,47.578,45.664,47.593z M55.105,42.697
			c-0.042,0.179,1.961,0.46,2.266,0.017c0.998-1.362-1.53-0.79-1.58-0.833C54.475,40.838,55.154,42.516,55.105,42.697z
			 M59.599,47.231c0.016,0.013,0.053-0.103,0.04-0.09C59.599,47.192,59.595,47.227,59.599,47.231z M59.421,45.988
			c-0.036-0.001-0.077,0.024-0.05,0.033C59.396,46.033,59.463,45.986,59.421,45.988z M59.295,46.239
			C59.421,46.212,59.434,46.206,59.295,46.239L59.295,46.239z M35.97,74.355C35.661,74.291,36.347,74.483,35.97,74.355L35.97,74.355
			z M15.575,40.773C15.759,40.743,15.654,40.706,15.575,40.773L15.575,40.773z M42.63,47.792
			C42.645,47.801,42.643,47.798,42.63,47.792L42.63,47.792z M25.095,35.938C25.446,35.689,24.828,36.119,25.095,35.938
			L25.095,35.938z M43.304,48.029c-0.232-0.113-0.452-0.195-0.657-0.243C42.763,48.112,42.919,48.312,43.304,48.029z M39.175,37.767
			c0.369-0.042-0.493,0.045-0.039,0.004C39.139,37.771,39.148,37.771,39.175,37.767z M48.555,64.37
			c1.729,4.928-12.283,9.345-11.392,13.345c-0.953,0.053-0.939,0.242-1.717-0.445c0.152,0.141,0.075-0.372,0.006-0.81
			c0.021,0.018,0.041,0.025,0.062,0.041c0.036-0.009-0.052-0.218,0.085-0.085c-0.046,0.035,0.12-0.248,0.135-0.19
			c-0.03-0.024-0.139-0.139,0.027-0.139c0.057-0.136-0.134,0.023-0.125,0.028c-0.006-0.005-0.009-0.005-0.018-0.008
			c-0.019,0.114-0.05,0.205-0.105,0.197c0.007-0.128-0.024-0.157-0.092-0.092c0.022,0.029,0.022,0.059,0.008,0.092
			c-0.019-0.124-0.032-0.235-0.036-0.301c0,0,0.017-0.017,0.028-0.02c-0.526-0.506,1.519-1.579,1.054-2.468
			c1.783,0.207-0.811-15.085,0.223-14.899c-1.499-0.337-8.02-3.775-8.466-7.106c0.077-0.09-0.268-1.016-0.575-0.813
			c0.041,0.555,1.449,2.478,1.072,2.816c0.118-0.098-3.886-9.084-4.868-11.548c0.008,0.076,0.012,0.144,0.014,0.187
			c-0.071-0.024-0.078,0.025-0.016,0.149c-0.004-0.05-0.248-0.346-0.174-0.036c-0.01-0.035-0.051-0.234-0.094-0.216
			c0.166-0.076-0.218-1.007-0.07-1.251c-0.176,0.304,0.047,0.626-0.193,0.884c0.139-0.146-0.011-0.79-0.12-1.112
			c-0.004,0.024-0.027,0.031-0.073,0.019c0.042,0.08,0.051,0.131,0.032,0.152c0.088-0.014,0.052-0.008,0,0h-0.001
			c-0.038,0.006-0.078,0.011-0.091,0.012c0.058,0.148-0.035,0.656,0.07,0.814c-0.727-1.094-4.056-2.695-4.282-2.543
			c-0.756,0.356-1.972,2.411-3.045,1.981c-0.025-0.099-0.081-0.109-0.167-0.039c-0.086,0-0.017-0.043,0.036-0.072
			c-0.047,0.022-0.135,0.064-0.306,0.138c0.16-0.071,1.242-0.775,1.573-1.174c-0.022-0.033-0.038-0.082-0.004-0.117
			c-0.112-0.039-0.388-0.18-0.188-0.103c-1.266-0.419-2.974-1.106-0.477-2.604c0.533,0.481,4.437-0.696,8.239-0.991
			c-0.013,0.058-0.011,0.368,0.019,0.066c-0.002-0.033-0.004-0.053-0.009-0.066c2.783-0.213,5.515,0.052,6.826,1.796
			c-0.067-0.083-0.064,0.234,0.036,0.193c-0.011-0.099,0.005-0.127,0.054-0.09c-0.212-0.486-0.366-0.966,0.547-0.843
			c-0.323-0.134-5.319-1.159-1.792-0.938c-0.689-0.257-2.549-0.836-1.152-1.458c-1.485,0.398-1.032,0.39-2.433,0.25
			c0.116-0.091,0.123-0.142,0.017-0.148c0.199,0.035,0.717-1.062,0.538-1.051c0.111,0.021,0.115-0.028,0.021-0.144
			c1.141-0.086,4.884,1.17,5.456,1.192c0.083,0.497-0.139,2.044,0.811,2.203c-0.946-0.097,0.501,0.51-1.373,0.122
			c1.654,1.257,1.805,0.227,1.792,0.233c0.097,0.004,0.104-0.045,0.02-0.144c0.218,0.008,0.347-0.097,0.389-0.311
			c0.647-0.308,0.454,1.371,0.37,1.278c-0.034-0.041,0.248,0.074,0.214,0.074c-0.159-0.298,0.24-0.439,0.532-0.539
			c-1.133,0.512,0.122-2.587-0.081-2.725c0.222,0.146,0.105-0.134,0.061-0.107c0.154-0.08,1.299,0.137,1.278,0.282
			c-0.103,0.056-0.107,0.105-0.019,0.144c-0.358,2.065-0.769,1.566,0.148,2.887c-1.344,1.272,0.568,4.229,1.128,6.433
			c0.156-0.004,0.452-0.008,0,0.007c0.032,0.119,0.059,0.24,0.08,0.358c0.085,0.073,0.061,0.053,0,0
			c0.024,0.133,0.052,0.271,0.063,0.397c0.121-0.059,0.218-0.008,0.287,0.159c0.12-0.266,0.087-0.062,0.217-0.097
			c-0.252-0.637,0.004-1.253,0.307-1.89c-0.083-0.079-0.276-0.268-0.083-0.089c0.041,0.041,0.066,0.065,0.085,0.086
			c0.349-0.734,0.756-1.49,0.509-2.32c0.031,0.101,4.41,2.684,3.719,1.184c0.464,1.27,2.714,4.945,2.567,5.022
			c-0.3,0.181,0.055,0.107-0.012,0.142c0-0.002,0.002-0.002,0.006-0.004c-0.001,0.001-0.006,0.004-0.006,0.004l0,0
			c-0.104,0.076-0.195,0.16-0.279,0.257c-0.154,0.03-0.3,0.09-0.429,0.179c0.065-0.021,0.325-0.22,0.018-0.146
			c0.077-0.021-0.965-0.151-1.053-0.259c-0.518-0.631,0.413,0.295,0.021-0.142c-0.038-0.043,0.658-0.931,0.825-1.109
			c-0.594,0.116-1.305,0.062-1.974,0.09c0.032,0.022,0.11,0.084,0.273,0.213c0.591,0.512-0.175-0.123-0.278-0.213
			c-0.63,0.022-1.227,0.12-1.664,0.507c1.209-0.83,1.31,0.206,1.53,0.812c-0.018-0.004-0.033-0.008-0.045-0.01
			c0.011,0.01,0.022,0.012,0.029,0.016c-0.003-0.002-0.013-0.006-0.029-0.016c-2.812-0.593-3.378,4.759-5.686,6.268
			c-0.931,0.696-1.554,0.582-1.955,0.186c0.024,0.169,0.053,0.352,0.077,0.546c0.834,4.363,2.073,1.242,4.03,3.085
			c0.034,0.032-0.559,0.884-0.158,0.906c0.701,0.019,8.271,1.793,9.642,5.595c-0.019-0.051-0.046-0.124,0.002,0.004
			C48.577,64.427,48.569,64.406,48.555,64.37z M40.95,47.097C41.132,46.96,40.967,47.04,40.95,47.097L40.95,47.097z M36.07,48.246
			C36.071,48.156,36.065,48.259,36.07,48.246L36.07,48.246z M37.441,48.5C36.201,48.928,38.826,48.07,37.441,48.5L37.441,48.5z
			 M38.408,51.031C38.704,51.031,38.373,50.953,38.408,51.031L38.408,51.031z M38.49,50.854
			C38.47,50.933,38.549,50.758,38.49,50.854L38.49,50.854z M38.952,49.679C38.993,49.794,39.096,49.597,38.952,49.679L38.952,49.679
			z M38.708,50.448C38.903,49.69,38.833,49.946,38.708,50.448L38.708,50.448z M38.124,48.398
			C37.976,48.398,37.942,48.439,38.124,48.398L38.124,48.398z M37.271,47.28C35.664,46.907,39.241,48.526,37.271,47.28L37.271,47.28
			z M35.408,40.009C35.38,40.042,35.618,40.059,35.408,40.009L35.408,40.009z M23.015,40.71c0.031-0.011,0.048,0.01,0.06,0.042
			c0.016-0.001,0.028-0.003,0,0l0,0c0.038-0.006,0.068-0.008,0.091-0.012C23.145,40.76,23.095,40.75,23.015,40.71z M23.66,41.425
			c-0.002,0-0.002,0-0.002-0.002c-0.013-0.001-0.021-0.001-0.044-0.013C23.641,41.415,23.644,41.421,23.66,41.425z M23.694,41.532
			c-0.008-0.022-0.019-0.047-0.023-0.067c-0.011,0.006-0.009,0.014-0.037,0.022C23.66,41.491,23.675,41.516,23.694,41.532z
			 M25.47,43.969C25.399,44.083,25.521,43.999,25.47,43.969L25.47,43.969z M26.18,44.958C26.718,45.318,25.23,44.264,26.18,44.958
			L26.18,44.958z M29.733,40.142C29.834,40.091,27.719,40.708,29.733,40.142L29.733,40.142z M31.274,37.854
			C31.325,37.859,31.141,37.827,31.274,37.854L31.274,37.854z M31.522,37.419C31.382,37.368,31.614,37.453,31.522,37.419
			L31.522,37.419z M33.497,44.35c0.007,0.014,0.014,0.022,0-0.002C32.812,42.936,33.813,44.999,33.497,44.35z M33.683,44.931
			C33.593,44.204,33.482,45.369,33.683,44.931L33.683,44.931z M36.657,58.467C36.891,58.535,36.696,58.465,36.657,58.467
			L36.657,58.467z M35.587,75.44c-0.005,0.017,0,0.024,0,0.038C35.604,75.444,35.611,75.424,35.587,75.44z M35.64,76.617
			C35.769,76.543,35.534,76.548,35.64,76.617L35.64,76.617z M35.868,77.049C35.868,77.208,35.879,76.752,35.868,77.049
			L35.868,77.049z M36.25,77.501C36.328,77.461,36.095,77.323,36.25,77.501L36.25,77.501z M44.056,62.424
			C44.013,62.504,44.226,62.316,44.056,62.424L44.056,62.424z M44.256,62.185C43.882,62.229,44.644,62.162,44.256,62.185
			L44.256,62.185z M35.365,76.37c0.056,0.008,0.071,0.028,0.038,0.065c0.017,0.009,0.034,0.021,0.049,0.024
			c-0.006-0.053-0.013-0.106-0.022-0.155C35.418,76.324,35.4,76.351,35.365,76.37z M32.584,34.662
			c0.032,0.018,0.049,0.071,0.064,0.144C32.759,34.809,32.762,34.771,32.584,34.662z M24.522,36.044c0.002,0,0.005,0,0.01,0
			C24.527,36.037,24.524,36.039,24.522,36.044z M24.93,35.796C24.758,35.773,24.569,35.825,24.93,35.796L24.93,35.796z
			 M44.36,39.802c0,0.01,0.003,0.018,0.003,0.029C44.361,39.806,44.36,39.799,44.36,39.802z M39.455,36.053
			C39.427,36.022,39.54,36.135,39.455,36.053L39.455,36.053z M38.426,37.607c-0.275,0.026-0.518,0.067-0.731,0.125
			c-0.928-0.927-1.507-1.586,0.373-2.24c-0.02,0.027,0.013,0.06,0.106,0.101c-0.372,0.122-0.673,0.506-0.358,0.831
			c1.354-0.037,6.262,0.676,6.544,3.378c-0.008,0.012,0,0.316-0.017,0.176c0.01,0.072-0.396,0.26-0.291,0.278
			c-0.327-0.063,0.032,0.043-0.111,0.101c0,0-0.558,0.135-0.285,0.312c-0.208-0.138-0.976-0.929-1-0.849
			c0.016,0.027-0.016,0.269-0.09,0.264c0.804,0.241,0.538,1.447,0.622,1.496c-0.191-0.114-0.14,0.071-0.02,0.147
			c-0.81-0.493-1.188-0.423-0.473,0.179c-0.456-0.362-3.138-1.451-3.199-1.579c-0.265-0.439,0.354-0.803,0.715-1.194
			c-0.396,0.035-0.227,0.019,0.003-0.001c0.26-0.286,0.378-0.584-0.073-0.938c-0.017,0.002-0.025,0.01-0.055,0.008
			c-0.032-0.002-0.049-0.043-0.043-0.081c-0.282-0.189-0.721-0.395-1.401-0.62C39.001,37.632,38.536,37.596,38.426,37.607z
			 M41.807,37.73C41.85,37.648,41.807,37.72,41.807,37.73L41.807,37.73z M42.202,41.068C42.278,41.306,42.149,40.842,42.202,41.068
			L42.202,41.068z M41.76,37.576C41.93,37.565,41.867,37.514,41.76,37.576L41.76,37.576z M41.579,37.458
			c-0.008,0-0.011,0.004,0.011-0.004C41.873,37.357,41.594,37.45,41.579,37.458z M37.917,37.406
			C37.609,37.381,38.151,37.432,37.917,37.406L37.917,37.406z M38.072,36.674C37.757,36.561,38.335,36.784,38.072,36.674
			L38.072,36.674z M43.624,48.214c0.216-0.103-0.209-0.05,0.022-0.144c0.18-0.103-0.196-0.033-0.088-0.138
			c-0.05-0.04-0.042-0.09,0.02-0.144c-0.104,0.106-0.193,0.18-0.273,0.24c0.072,0.035,0.136,0.053,0.211,0.094
			C43.372,48.178,43.483,48.277,43.624,48.214z M38.067,35.492c0.043-0.017,0.082-0.033,0.127-0.045
			C38.123,35.458,38.083,35.474,38.067,35.492z M37.354,38.511c-0.175,0.107,0.143-0.83,0.053-0.111
			c0.161-0.22,0.327-0.318,0.483-0.475c-0.066-0.066-0.133-0.129-0.196-0.193c-0.399,0.107-0.69,0.273-0.905,0.472
			c0.091,0.13,0.188,0.268,0.302,0.432C37.172,38.574,37.26,38.533,37.354,38.511z M39.455,36.053
			C40.442,37.029,39.525,36.121,39.455,36.053L39.455,36.053z M42.542,47.93C42.53,47.862,42.561,48.055,42.542,47.93L42.542,47.93z
			 M40.719,36.742c0.068-0.052-0.167,0.123-0.015,0.012C40.681,36.772,40.653,36.792,40.719,36.742z M37.271,47.28
			C37.129,47.248,37.329,47.32,37.271,47.28L37.271,47.28z M36.333,39.22C36.74,39.732,36.551,39.226,36.333,39.22L36.333,39.22z
			 M41.579,37.458c-0.001,0,0,0,0.011-0.004C41.611,37.447,41.591,37.453,41.579,37.458z M33.497,44.35c0-0.002,0-0.002,0-0.002
			C33.482,44.317,33.49,44.335,33.497,44.35z M40.898,56.446C40.979,56.491,40.763,56.367,40.898,56.446L40.898,56.446z
			 M40.898,56.446C40.578,56.255,40.4,56.159,40.898,56.446L40.898,56.446z M39.938,56.074
			C39.836,56.042,40.043,56.107,39.938,56.074L39.938,56.074z M39.938,56.074C39.143,55.816,37.682,55.361,39.938,56.074
			L39.938,56.074z M37.726,56.084C37.942,56.29,37.047,55.424,37.726,56.084L37.726,56.084z M46.846,37.921
			c-0.064-0.021-0.09,0.078-0.008,0.086C46.94,38.028,46.91,37.93,46.846,37.921z M42.39,33.889
			c0.053,0.029,0.243,0.045,0.216,0.033C42.54,33.896,42.333,33.855,42.39,33.889z M59.319,45.83
			C59.278,45.839,59.035,45.897,59.319,45.83L59.319,45.83z"/>
		<g id="XMLID_232_">
			<path id="XMLID_233_" fill="#414042" d="M35.022,80.139c-6.896,0-13.404-2.626-18.379-7.427
				c-5.089-4.92-7.96-11.521-8.082-18.594c-0.123-7.074,2.517-13.772,7.43-18.861c4.916-5.089,11.517-7.959,18.591-8.083
				c0.156-0.002,0.312-0.005,0.467-0.005c14.388,0,26.218,11.58,26.467,26.026l0,0c0.124,7.073-2.515,13.771-7.425,18.857
				c-4.911,5.09-11.512,7.957-18.584,8.082C35.345,80.139,35.184,80.139,35.022,80.139z M35.05,29.274
				c-0.144,0-0.287,0.002-0.431,0.004c-6.512,0.113-12.589,2.756-17.113,7.44c-4.523,4.686-6.954,10.851-6.838,17.362
				c0.11,6.512,2.752,12.591,7.438,17.114c4.686,4.524,10.815,6.881,17.365,6.836c6.51-0.11,12.585-2.754,17.106-7.439
				c4.522-4.683,6.951-10.849,6.836-17.359l0,0C59.184,39.936,48.293,29.274,35.05,29.274z"/>
		</g>
	</g>
	<g id="XMLID_26_">
		<defs>
			<circle id="XMLID_27_" cx="48.261" cy="37.255" r="18.303"/>
		</defs>
		<clipPath id="XMLID_11_">
			<use xlink:href="#XMLID_27_"  overflow="visible"/>
		</clipPath>
		<g id="XMLID_28_" clip-path="url(#XMLID_11_)">
			<polygon id="XMLID_230_" fill="#FFFFFF" points="58.727,31.832 58.727,31.832 58.727,31.833 			"/>
			<path id="XMLID_229_" fill="#FFFFFF" d="M58.608,31.669c0.02,0.012,0.068-0.029,0.036-0.024
				C58.616,31.64,58.583,31.661,58.608,31.669z"/>
			<path id="XMLID_228_" fill="#FFFFFF" d="M64.687,51.224c0.309,17.572-13.68,32.067-31.253,32.372
				C15.858,83.907,1.357,69.908,1.056,52.332C0.75,34.76,14.748,20.263,32.323,19.955C49.896,19.653,64.383,33.655,64.687,51.224z"
				/>
			<path id="XMLID_33_" fill="#3677A2" d="M63.084,41.972C63.454,41.916,63.06,41.982,63.084,41.972L63.084,41.972z M63.364,42.545
				C62.887,43.384,63.331,42.694,63.364,42.545L63.364,42.545z M50.14,39.222c0.106-0.095-5.705-5.553-1.574-5.711
				c-0.104-0.065-0.059-0.288,0.004-0.335c-0.136-0.019-0.081,0.053-0.06,0.15c-0.085-0.319-0.874,0.008-1.41-0.099
				c-0.163-0.029,0.144-0.163,0.025-0.181c0.006,0-0.005-0.15-0.013-0.167c0.187-0.012,0.192-0.074,0.024-0.181
				c-0.019-0.035,0.912-0.703,1.134-0.229c-0.073-0.135-0.272-0.228,0.009-0.228c-0.055-0.382-3.047-3.323-5.176-4.811
				c-0.011,0.09-0.094,0.127-0.167-0.117c-0.605-0.413-1.132-0.697-1.475-0.744c0.195,0.01-0.018-0.174,0.027-0.185
				c3.313,0.779,5.257-3.216,7.92-2.082c0.074,0.017,0.175,0.062,0.28,0.138c0.041,0.021,0.074,0.033,0.114,0.055
				c-0.024-0.004-0.032-0.01-0.053-0.012c0.07,0.06,0.14,0.131,0.203,0.224c-0.296-0.499,8.807,5.904,7.986,7.337
				c-0.065-0.024-0.075,0-0.014,0.023c-0.044,0.063-0.103,0.123-0.196,0.164c0.238,0.142,0.21,0.193-0.088,0.153
				c0.634,0.227,0.489-0.019,0.313-0.097c1.151,0.236,0.854,1.068,0.912,1.582c-0.037-0.425-3.366,0.163-0.255,0.621
				C52.931,33.798,51.993,37.556,50.14,39.222z M48.267,32.062C48.413,32.062,48.371,32.033,48.267,32.062L48.267,32.062z
				 M48.244,32.598C48.248,32.598,48.735,32.444,48.244,32.598L48.244,32.598z M47.502,35.176
				C47.594,35.127,47.286,35.122,47.502,35.176L47.502,35.176z M47.761,34.211C47.911,34.137,47.997,34.07,47.761,34.211
				L47.761,34.211z M48.326,33.959C47.741,33.908,48.442,33.979,48.326,33.959L48.326,33.959z M48.142,34.832
				C48.142,34.832,48.376,34.984,48.142,34.832L48.142,34.832z M48.335,34.392C48.898,34.9,47.827,33.875,48.335,34.392
				L48.335,34.392z M57.182,32.12C57.107,32.15,57.469,32.232,57.182,32.12L57.182,32.12z M56.714,33.875
				C57.157,33.55,56.207,33.807,56.714,33.875L56.714,33.875z M56.911,34.075C57.292,33.829,56.409,34.037,56.911,34.075
				L56.911,34.075z M57.128,32.314C56.943,32.407,57.74,32.337,57.128,32.314L57.128,32.314z M58.611,34.491
				C58.698,34.499,58.562,34.483,58.611,34.491L58.611,34.491z M57.954,32.288c-0.023-0.01-0.049-0.017-0.073-0.019
				C57.909,32.275,57.931,32.284,57.954,32.288z M56.714,33.875C56.757,33.843,56.634,33.862,56.714,33.875L56.714,33.875z
				 M58.04,32.091c-0.045-0.029-0.073-0.037-0.102-0.046c0,0.009-0.008,0.017-0.014,0.023C57.954,32.078,57.991,32.086,58.04,32.091
				z M48.039,32.131C48.371,32.027,47.839,32.008,48.039,32.131L48.039,32.131z M13.682,34.318c0.023,0.039,0.285-0.175,0.262-0.186
				C13.896,34.088,13.654,34.281,13.682,34.318z M7.736,35.985C8.392,36.08,6.52,35.798,7.736,35.985L7.736,35.985z M14.124,34.055
				c-0.007,0.037,0.132,0.081,0.138,0.028C14.265,34.037,14.128,34.01,14.124,34.055z M30.309,26.401
				C30.639,26.712,30.226,25.999,30.309,26.401L30.309,26.401z M30.862,26.694c0.234-0.035,0.095-0.076-0.064-0.099
				c0.017-0.015,0.039-0.029,0.057-0.045c-0.052,0.015-0.077,0.024-0.119,0.039c-0.146-0.017-0.265-0.009-0.126,0.037
				c-0.409,0.147-0.127,0.134,0.093,0.027C30.749,26.667,30.786,26.677,30.862,26.694z M30.862,26.694
				C30.942,26.712,31.033,26.669,30.862,26.694L30.862,26.694z M30.641,24.827C30.763,24.86,30.687,24.827,30.641,24.827
				L30.641,24.827z M30.641,24.827C30.735,24.854,30.999,24.836,30.641,24.827L30.641,24.827z M30.84,24.667
				C30.715,24.657,30.811,24.667,30.84,24.667L30.84,24.667z M30.326,24.455C31.854,25.256,32.173,25.36,30.326,24.455
				L30.326,24.455z M30.326,24.455C30.428,24.507,30.226,24.403,30.326,24.455L30.326,24.455z M41.591,37.8
				c0.03,0.045,0.232-0.024,0.174-0.083C41.707,37.666,41.559,37.75,41.591,37.8z M30.201,25.843c0.071,0-0.858-0.074-0.043-0.004
				C30.212,25.843,30.212,25.843,30.201,25.843z M31.542,25.532c0.122-0.015-0.193-0.158-0.37-0.15
				C31.03,25.398,31.223,25.56,31.542,25.532z M32.316,24.007C33.138,24.196,31.635,23.837,32.316,24.007L32.316,24.007z
				 M39.127,27.783c-0.048-0.023-0.27,0.037-0.204,0.075C38.993,27.908,39.258,27.836,39.127,27.783z M36.087,52.561
				c-0.119-0.006-0.062-0.004-0.025,0C36.085,52.562,36.149,52.568,36.087,52.561z M31.82,26.426
				C32.218,26.552,31.316,26.262,31.82,26.426L31.82,26.426z M31.922,26.891C31.661,26.805,31.834,26.944,31.922,26.891
				L31.922,26.891z M31.539,26.431C31.453,26.519,31.649,26.321,31.539,26.431L31.539,26.431z M31.101,26.484
				C29.915,26.839,34.38,25.59,31.101,26.484L31.101,26.484z M31.831,26.618c0,0-0.006,0-0.037-0.011
				C31.269,26.431,32.116,26.718,31.831,26.618z M44.748,24.334c-0.336-0.054-0.627-0.066-0.892-0.054
				C44.96,24.643,43.923,24.258,44.748,24.334z M37.561,23.567c-0.019,0-0.027,0.002-0.048,0.002
				C37.534,23.57,37.56,23.57,37.561,23.567z M35.516,23.019c-0.111-0.033-0.221-0.064-0.261-0.083
				C35.374,22.996,35.457,23.015,35.516,23.019z M39.517,23.962c0.002,0.009,0.006,0.011,0.012,0.031
				C39.541,24.032,39.519,23.966,39.517,23.962z M39.567,24.089c-0.003-0.001-0.003-0.006-0.003-0.006
				c-0.002-0.002-0.002-0.002-0.006,0c0.004,0,0.004,0.006,0.004,0.006C39.564,24.089,39.564,24.089,39.567,24.089z M33.395,24.021
				c-0.725-1.26,3.708-0.127,5.193,0.863c0.028-0.169-0.853-0.481-0.265-0.474c-0.255-0.107-0.232-0.167,0.067-0.177
				c-0.353-0.015-0.275-0.062,0.222-0.142c-1.794,0.4-2.31-0.94-3.007-0.94c0.375-0.003,0.14-0.074-0.087-0.133
				c0.113,0,0.097-0.093-0.233-0.265c0.512,0.257,11.043-1.175,10.817,0.956c-0.074,0.04-0.086,0.098-0.026,0.175
				c-0.06,0.466-2.333,0.188-2.702,0.236c0.195,0.062,0.352,0.113,0.483,0.16c-1.625,0.062-2.247,1.162-3.95,1.162
				c-0.299-0.008,0.515,0.201,0.307,0.088c1.279,0.732-2.056,2.738-4.639,1.486c-0.081-0.035-0.026-0.372-0.015-0.45
				c0.116-0.818,1.35,0.019,1.75-0.334c-0.198,0.076-0.258,0.053-0.167-0.074c-0.306-0.033,0.085-0.099,0.193-0.144
				c-0.179-0.082-1.002-0.339-0.903-0.529c-1.336,0.352-2.318-0.267-3.032-1.453c0.009,0.015,0.012,0.027-0.005-0.008
				C33.371,23.986,33.383,24.003,33.395,24.021z M40.852,22.812C40.795,22.76,40.636,22.908,40.852,22.812L40.852,22.812z
				 M37.497,22.889C37.307,22.768,37.469,22.931,37.497,22.889L37.497,22.889z M37.561,23.567c-0.099,0-0.079,0.002-0.048,0.002
				C36.601,23.586,37.145,23.913,37.561,23.567z M39.994,25.545C39.665,25.48,39.812,25.535,39.994,25.545L39.994,25.545z
				 M39.67,25.633C39.878,25.518,39.641,25.633,39.67,25.633L39.67,25.633z M39.562,24.089c0.044,0.122,0.03,0.081,0.005,0
				c0.156-0.065,0.222-0.094-0.003-0.008c-0.031-0.086-0.066-0.175-0.048-0.12c0,0,0,0.002,0.012,0.031
				c0.013,0.043,0.025,0.061,0.03,0.09c-0.088,0.031-0.212,0.08-0.4,0.15C38.496,24.507,39.226,24.226,39.562,24.089z
				 M38.314,26.659C38.556,26.667,38.282,26.593,38.314,26.659L38.314,26.659z M37.386,26.422
				C37.462,26.41,37.349,26.426,37.386,26.422L37.386,26.422z M37.341,25.765C37.309,25.976,37.329,25.859,37.341,25.765
				L37.341,25.765z M37.091,25.265C36.943,25.319,37.307,25.199,37.091,25.265L37.091,25.265z M39.159,24.233
				C39.083,24.267,39.226,24.209,39.159,24.233L39.159,24.233z M35.139,26.469c-0.043,0.019-0.029,0.015-0.008,0.006
				C35.175,26.462,36,26.125,35.139,26.469z M31.008,31.54c0.522,0-0.168-0.021-0.028-0.006
				C30.977,31.534,30.984,31.536,31.008,31.54z M36.329,33.837c-0.062-0.051,0.088,0.32,0.25,0.295
				C36.727,34.106,36.389,33.891,36.329,33.837z M27.013,24.997C27.157,24.983,26.556,25.029,27.013,24.997L27.013,24.997z
				 M41.034,36.527c0.059-0.09-0.126-0.146-0.234-0.155C40.69,36.365,41.003,36.585,41.034,36.527z M27.672,25.346
				C26.234,24.965,29.606,25.925,27.672,25.346L27.672,25.346z M30.451,31.593c0.062,0.021,0.091-0.138,0.005-0.103
				C30.375,31.527,30.405,31.579,30.451,31.593z M41.595,27.183c0.066,0.035,0.305,0.058,0.271,0.049
				C41.777,27.195,41.531,27.146,41.595,27.183z M38.394,32.501c0.062,0.002,0.248-0.098,0.308-0.176
				c0.119,0,0.168-0.002,0.006-0.002c0.02-0.028,0.022-0.051,0.002-0.065c-0.039-0.022-0.105,0.015-0.172,0.064
				c-0.038,0-0.066,0-0.115,0c0.038,0.001,0.074,0.001,0.111,0.004C38.437,32.397,38.348,32.5,38.394,32.501z M37.63,54.038
				c0.015-0.056-0.142-0.115-0.139-0.057C37.488,54.042,37.613,54.1,37.63,54.038z M63.578,43.92
				c0.019,0.012,0.073-0.133,0.052-0.109C63.578,43.866,63.568,43.909,63.578,43.92z M63.274,42.591
				C63.247,42.574,63.236,42.734,63.274,42.591L63.274,42.591z M35.939,44c0.037-0.063-0.482-0.129-0.434-0.104
				S35.832,44.171,35.939,44z M33.221,81.039c-0.008-0.011-0.011-0.011,0.014,0.013C33.428,81.237,33.215,81.028,33.221,81.039z
				 M33.86,77.865C34.002,78.031,34.201,78.231,33.86,77.865L33.86,77.865z M33.744,81.754c-0.043-0.053-0.44-0.295-0.386-0.246
				C33.408,81.562,33.786,81.817,33.744,81.754z M39.67,55.432C40.832,55.594,39.76,55.442,39.67,55.432L39.67,55.432z
				 M39.67,55.432C39.471,55.406,39.872,55.46,39.67,55.432L39.67,55.432z M36.721,54.32C32.797,52.203,34.732,53.398,36.721,54.32
				L36.721,54.32z M36.721,54.32C36.787,54.346,36.661,54.288,36.721,54.32L36.721,54.32z M34.262,52.856
				C34.968,52.771,34.47,52.779,34.262,52.856L34.262,52.856z M61.392,44.665c4.069-0.491-0.074-0.011-0.007,0
				C61.378,44.665,61.37,44.668,61.392,44.665z M63.039,42.253c0.242,0.201,0.073,0.062,0.021,0.017
				C63.051,42.261,62.993,42.213,63.039,42.253z M63.548,44.292C63.745,45.527,64.038,46.389,63.548,44.292L63.548,44.292z
				 M58.344,32.224C58.447,32.368,58.344,32.224,58.344,32.224L58.344,32.224z M64.205,51.72c-1.882,1.554,0.568-2.512,0.149-5.356
				c-0.227,0.157-0.492-0.137-0.67-0.176c-0.157-0.021-0.621,0.202-0.511,0.313c0,2.122-1.985,5.369-5.187,9.146
				c-0.867,0.988-0.601,2.687-0.83,3.736C53.861,69.255,67.485,48.779,64.205,51.72z M13.703,34.137
				c0.025,0.038,0.289-0.174,0.264-0.187C13.921,33.903,13.677,34.099,13.703,34.137z M8.778,50.349
				c-0.002,0,0.003,0.005,0.021,0.015C9.331,50.622,8.665,50.273,8.778,50.349z M12.063,34.738
				C12.418,35.255,11.736,34.222,12.063,34.738L12.063,34.738z M7.759,35.807C8.413,35.886,6.548,35.625,7.759,35.807L7.759,35.807z
				 M6.803,36.217C6.771,36.445,6.781,36.783,6.803,36.217L6.803,36.217z M6.803,36.217C6.801,36.25,6.818,36.121,6.803,36.217
				L6.803,36.217z M19.104,38.655C19.012,38.614,19.246,38.721,19.104,38.655L19.104,38.655z M19.104,38.655
				C17.995,38.137,18.515,38.388,19.104,38.655L19.104,38.655z M30.436,27.092C30.13,27.226,30.022,27.331,30.436,27.092
				L30.436,27.092z M41.789,37.532c-0.056-0.047-0.205,0.038-0.17,0.081C41.655,37.666,41.849,37.596,41.789,37.532z M31.198,25.206
				c-0.146,0.016,0.051,0.168,0.37,0.146C31.687,25.341,31.376,25.187,31.198,25.206z M42.969,37.198
				C43.162,36.562,42.664,37.937,42.969,37.198L42.969,37.198z M39.153,27.602c-0.057-0.021-0.27,0.035-0.202,0.078
				C39.021,27.725,39.283,27.651,39.153,27.602z M32.8,24.864C34.369,26.32,33.886,25.812,32.8,24.864L32.8,24.864z M35.272,26.751
				c0.085,0.05,0.187-0.045,0.077-0.15C35.257,26.504,35.178,26.699,35.272,26.751z M31.047,31.214
				C31.385,31.08,30.761,31.32,31.047,31.214L31.047,31.214z M33.588,26.973c-0.085,0.013,0.007,0.15,0.124,0.134
				C33.8,27.099,33.675,26.96,33.588,26.973z M31.051,28.488c-1.966,0.672,2.352,1.642,1.702,0.659
				C32.232,28.208,32.014,28.161,31.051,28.488z M37.754,35.987c-0.026-0.009-0.031-0.011-0.028-0.009
				C37.36,35.837,38.224,36.172,37.754,35.987z M33.994,27.532c0.011,0.013,0.016,0.019-0.021-0.018
				C32.78,26.344,34.229,27.781,33.994,27.532z M36.303,33.959c0.048-0.025-0.136-0.249-0.154-0.196
				C36.135,33.814,36.185,34.014,36.303,33.959z M36.98,35.597c-0.074,0.146-0.117,0.247-0.157,0.325
				c-0.248,0.192-0.373,0.291-0.006,0.013c-0.104,0.224-0.068,0.162,0.009-0.007c0.156-0.115,0.381-0.29,0.725-0.551
				c-0.091,0.061-0.46,0.342-0.716,0.537C36.877,35.823,36.928,35.708,36.98,35.597z M35.056,27.131
				c0.608,0.25,1.156,0.409,3.2,0.785c-0.776-0.172-2.004-0.526-3.109-0.808c0.051-0.01,0.041-0.008-0.002,0
				c-0.122-0.03-0.244-0.055-0.361-0.086c0.094,0.04,0.185,0.076,0.27,0.109c-0.037,0.01-0.077,0.021-0.102,0.029
				C34.994,27.15,35.024,27.141,35.056,27.131z M38.843,28.025C38.909,28.028,38.738,28.005,38.843,28.025L38.843,28.025z
				 M33.013,26.328c0.899,0.319,1.384,0.532,1.77,0.695c-0.614-0.148-1.16-0.265-1.511-0.286c0.12-0.14,0.026-0.212-0.282-0.226
				C32.925,26.488,33.127,26.371,33.013,26.328z M34.084,26.808C34.42,26.796,34.039,26.808,34.084,26.808L34.084,26.808z
				 M38.256,27.916c0.244,0.058,0.456,0.099,0.587,0.109C38.633,27.984,38.442,27.951,38.256,27.916z M26.567,25.797
				C26.438,25.752,26.498,25.806,26.567,25.797L26.567,25.797z M29.777,26.431c-1.307-0.793-1.832-0.148-3.21-0.633
				c-0.117,0.014-0.219,0.031-0.312,0.045c0.046-0.037-2.413-0.358-2.413-0.229c1.628,0.186,2.27,0.238,2.391,0.23
				C22.99,26.365,30.212,26.69,29.777,26.431z M38.579,35.553C38.52,35.642,38.303,36.028,38.579,35.553L38.579,35.553z
				 M26.834,25.401c-0.183,0,0.067,0.102,0.235,0.125C27.215,25.549,27.013,25.401,26.834,25.401z M41.885,27.047
				c-0.082-0.031-0.332-0.08-0.269-0.045C41.685,27.033,41.925,27.055,41.885,27.047z M38.422,32.321
				C38.486,32.321,38.339,32.316,38.422,32.321L38.422,32.321z M37.652,53.859c0.015-0.058-0.136-0.115-0.136-0.058
				C37.513,53.859,37.633,53.919,37.652,53.859z M46.235,44.163C46.145,44.204,46.286,44.136,46.235,44.163L46.235,44.163z
				 M46.167,44.189c0.026-0.011,0.041-0.015,0.068-0.027C46.242,44.159,46.209,44.173,46.167,44.189z M57.983,38.065
				c-0.053,0.224,2.449,0.575,2.831,0.021c1.25-1.706-1.911-0.986-1.977-1.04C57.194,35.739,58.046,37.837,57.983,38.065z
				 M63.605,43.737c0.021,0.014,0.065-0.128,0.05-0.113C63.605,43.69,63.597,43.733,63.605,43.737z M63.381,42.182
				c-0.047-0.004-0.1,0.031-0.062,0.043C63.355,42.239,63.433,42.177,63.381,42.182z M63.225,42.496
				C63.381,42.463,63.4,42.455,63.225,42.496L63.225,42.496z M34.036,77.682C33.649,77.595,34.507,77.838,34.036,77.682
				L34.036,77.682z M8.515,35.658C8.745,35.619,8.614,35.572,8.515,35.658L8.515,35.658z M42.372,44.44
				C42.39,44.453,42.386,44.449,42.372,44.44L42.372,44.44z M20.427,29.605C20.867,29.293,20.094,29.832,20.427,29.605
				L20.427,29.605z M43.213,44.736c-0.29-0.142-0.566-0.245-0.822-0.304C42.537,44.841,42.732,45.092,43.213,44.736z M38.048,31.894
				c0.46-0.051-0.617,0.057-0.048,0.006C38.002,31.899,38.014,31.899,38.048,31.894z M49.787,65.186
				c2.161,6.165-15.373,11.694-14.259,16.7c-1.191,0.066-1.174,0.302-2.148-0.559c0.19,0.176,0.094-0.464,0.008-1.012
				c0.026,0.018,0.052,0.033,0.078,0.05c0.045-0.008-0.066-0.275,0.104-0.105c-0.056,0.044,0.151-0.31,0.171-0.235
				c-0.038-0.038-0.174-0.181,0.034-0.181c0.071-0.169-0.168,0.032-0.156,0.036c-0.009,0-0.012-0.004-0.024-0.011
				c-0.022,0.146-0.062,0.262-0.129,0.249c0.008-0.156-0.032-0.193-0.114-0.11c0.025,0.037,0.025,0.073,0.008,0.11
				c-0.022-0.156-0.039-0.29-0.044-0.378c0,0,0.022-0.017,0.037-0.024c-0.659-0.629,1.9-1.974,1.315-3.083
				c2.233,0.254-1.014-18.879,0.282-18.647c-1.875-0.424-10.038-4.724-10.594-8.892c0.096-0.111-0.335-1.272-0.72-1.018
				c0.052,0.696,1.813,3.101,1.341,3.525c0.148-0.123-4.863-11.367-6.09-14.45c0.008,0.093,0.014,0.179,0.016,0.232
				c-0.088-0.031-0.097,0.031-0.02,0.185c-0.006-0.059-0.309-0.432-0.219-0.042c-0.012-0.041-0.062-0.292-0.116-0.27
				c0.208-0.097-0.273-1.262-0.088-1.566c-0.222,0.38,0.059,0.785-0.241,1.106c0.173-0.184-0.015-0.988-0.151-1.392
				c-0.005,0.03-0.034,0.039-0.091,0.022c0.052,0.101,0.062,0.165,0.04,0.189c0.11-0.016,0.065-0.008,0,0h-0.003
				c-0.045,0.01-0.096,0.014-0.114,0.019c0.074,0.183-0.043,0.818,0.088,1.015c-0.909-1.366-5.074-3.371-5.358-3.181
				c-0.946,0.445-2.466,3.017-3.81,2.48c-0.031-0.122-0.103-0.136-0.211-0.047c-0.107,0-0.019-0.056,0.046-0.092
				c-0.06,0.028-0.17,0.08-0.384,0.175c0.199-0.088,1.554-0.97,1.968-1.47c-0.027-0.043-0.048-0.103-0.005-0.148
				c-0.139-0.047-0.486-0.222-0.235-0.127c-1.585-0.526-3.722-1.386-0.597-3.26c0.667,0.603,5.55-0.872,10.309-1.239
				c-0.016,0.072-0.013,0.461,0.023,0.082c-0.002-0.041-0.005-0.067-0.011-0.082c3.484-0.267,6.901,0.063,8.541,2.248
				c-0.083-0.103-0.08,0.292,0.045,0.241c-0.015-0.121,0.009-0.158,0.069-0.113c-0.264-0.604-0.457-1.206,0.684-1.055
				c-0.404-0.167-6.657-1.449-2.242-1.173c-0.863-0.32-3.19-1.043-1.443-1.823c-1.858,0.498-1.29,0.489-3.043,0.312
				c0.145-0.113,0.153-0.176,0.02-0.185c0.251,0.043,0.898-1.33,0.675-1.315c0.138,0.024,0.145-0.036,0.026-0.179
				c1.428-0.109,6.113,1.463,6.826,1.492c0.105,0.621-0.173,2.559,1.014,2.756c-1.182-0.119,0.628,0.639-1.716,0.152
				c2.068,1.574,2.259,0.285,2.242,0.293c0.123,0.004,0.131-0.058,0.026-0.179c0.272,0.009,0.434-0.123,0.485-0.39
				c0.811-0.387,0.568,1.716,0.463,1.599c-0.042-0.05,0.312,0.094,0.268,0.094c-0.198-0.374,0.301-0.55,0.665-0.676
				c-1.418,0.641,0.154-3.235-0.1-3.41c0.277,0.183,0.132-0.167,0.075-0.133c0.193-0.1,1.625,0.172,1.6,0.353
				c-0.128,0.068-0.133,0.13-0.022,0.179c-0.449,2.586-0.965,1.961,0.183,3.614c-1.681,1.595,0.711,5.29,1.415,8.052
				c0.195-0.006,0.564-0.012,0,0.006c0.038,0.15,0.074,0.3,0.098,0.448c0.108,0.09,0.077,0.066,0,0
				c0.032,0.168,0.066,0.339,0.08,0.497c0.15-0.073,0.272-0.007,0.36,0.2c0.149-0.333,0.108-0.078,0.271-0.119
				c-0.317-0.799,0.004-1.573,0.383-2.368c-0.104-0.099-0.345-0.335-0.104-0.111c0.052,0.052,0.083,0.083,0.106,0.109
				c0.438-0.919,0.946-1.865,0.636-2.904c0.041,0.125,5.521,3.358,4.655,1.479c0.58,1.59,3.396,6.188,3.211,6.287
				c-0.374,0.226,0.069,0.133-0.013,0.177c0-0.002,0.002-0.002,0.008-0.006c-0.002,0.004-0.008,0.006-0.008,0.006l0,0
				c-0.132,0.097-0.245,0.201-0.35,0.32c-0.193,0.042-0.375,0.116-0.536,0.226c0.082-0.026,0.405-0.277,0.022-0.183
				c0.095-0.024-1.208-0.191-1.319-0.325c-0.647-0.789,0.518,0.37,0.026-0.179c-0.046-0.053,0.824-1.163,1.031-1.39
				c-0.741,0.149-1.631,0.081-2.469,0.116c0.041,0.028,0.137,0.104,0.341,0.267c0.742,0.642-0.218-0.154-0.346-0.267
				c-0.787,0.028-1.534,0.15-2.083,0.635c1.516-1.04,1.64,0.257,1.915,1.016c-0.023-0.005-0.039-0.009-0.057-0.013
				c0.014,0.013,0.029,0.015,0.038,0.021c-0.006-0.001-0.017-0.007-0.038-0.021c-3.52-0.741-4.227,5.957-7.114,7.844
				c-1.164,0.872-1.946,0.728-2.446,0.231c0.031,0.209,0.065,0.439,0.097,0.684c1.042,5.461,2.594,1.554,5.042,3.862
				c0.044,0.039-0.699,1.105-0.198,1.134c0.878,0.022,10.35,2.243,12.066,7c-0.022-0.065-0.058-0.156,0.005,0.007
				C49.812,65.257,49.802,65.231,49.787,65.186z M40.269,43.571C40.498,43.398,40.29,43.499,40.269,43.571L40.269,43.571z
				 M34.161,45.009C34.164,44.895,34.154,45.026,34.161,45.009L34.161,45.009z M35.877,45.324
				C34.326,45.865,37.61,44.788,35.877,45.324L35.877,45.324z M37.088,48.495C37.457,48.495,37.042,48.394,37.088,48.495
				L37.088,48.495z M37.189,48.273C37.164,48.37,37.263,48.15,37.189,48.273L37.189,48.273z M37.769,46.802
				C37.82,46.945,37.948,46.699,37.769,46.802L37.769,46.802z M37.462,47.763C37.706,46.818,37.618,47.137,37.462,47.763
				L37.462,47.763z M36.731,45.199C36.549,45.199,36.505,45.25,36.731,45.199L36.731,45.199z M35.664,43.801
				C33.652,43.332,38.129,45.358,35.664,43.801L35.664,43.801z M33.333,34.7C33.298,34.74,33.595,34.764,33.333,34.7L33.333,34.7z
				 M17.825,35.578c0.039-0.015,0.059,0.013,0.073,0.056c0.021-0.005,0.037-0.006,0,0l0,0c0.048-0.008,0.084-0.012,0.114-0.019
				C17.986,35.638,17.924,35.627,17.825,35.578z M18.631,36.474c-0.002,0-0.002,0-0.002-0.004c-0.015-0.001-0.026-0.001-0.055-0.016
				C18.608,36.46,18.612,36.468,18.631,36.474z M18.674,36.608c-0.008-0.029-0.023-0.06-0.029-0.086
				c-0.015,0.009-0.012,0.016-0.045,0.029C18.631,36.556,18.651,36.587,18.674,36.608z M20.896,39.656
				C20.808,39.798,20.961,39.692,20.896,39.656L20.896,39.656z M21.785,40.895C22.459,41.343,20.598,40.026,21.785,40.895
				L21.785,40.895z M26.232,34.869C26.359,34.804,23.711,35.576,26.232,34.869L26.232,34.869z M28.161,32.002
				C28.223,32.01,27.994,31.971,28.161,32.002L28.161,32.002z M28.471,31.459C28.293,31.396,28.586,31.503,28.471,31.459
				L28.471,31.459z M30.942,40.132c0.009,0.017,0.017,0.029,0-0.001C30.084,38.362,31.337,40.946,30.942,40.132z M31.175,40.86
				C31.062,39.952,30.922,41.409,31.175,40.86L31.175,40.86z M34.896,57.799C35.189,57.884,34.945,57.797,34.896,57.799
				L34.896,57.799z M33.556,79.041c-0.005,0.019,0,0.029,0,0.046C33.578,79.045,33.588,79.019,33.556,79.041z M33.624,80.513
				C33.783,80.418,33.491,80.424,33.624,80.513L33.624,80.513z M33.908,81.052C33.908,81.249,33.922,80.678,33.908,81.052
				L33.908,81.052z M34.385,81.615C34.485,81.565,34.192,81.393,34.385,81.615L34.385,81.615z M44.156,62.746
				C44.102,62.85,44.366,62.615,44.156,62.746L44.156,62.746z M44.406,62.449C43.938,62.504,44.891,62.422,44.406,62.449
				L44.406,62.449z M33.281,80.201c0.071,0.012,0.088,0.037,0.045,0.083c0.022,0.008,0.043,0.023,0.062,0.031
				c-0.008-0.07-0.018-0.135-0.029-0.197C33.346,80.144,33.322,80.172,33.281,80.201z M29.8,28.011
				c0.041,0.022,0.062,0.086,0.08,0.179C30.019,28.193,30.022,28.146,29.8,28.011z M19.71,29.739c0.003,0,0.007,0,0.012,0
				C19.717,29.729,19.714,29.731,19.71,29.739z M20.22,29.427C20.007,29.398,19.769,29.464,20.22,29.427L20.22,29.427z
				 M44.535,34.442c0,0.012,0.005,0.023,0.005,0.034C44.537,34.445,44.535,34.439,44.535,34.442z M38.396,29.75
				C38.364,29.713,38.504,29.854,38.396,29.75L38.396,29.75z M37.111,31.695c-0.346,0.033-0.648,0.085-0.916,0.157
				c-1.162-1.159-1.886-1.987,0.466-2.805c-0.025,0.035,0.014,0.076,0.134,0.128c-0.466,0.151-0.843,0.63-0.449,1.037
				c1.696-0.045,7.835,0.847,8.189,4.23c-0.009,0.014,0,0.396-0.021,0.22c0.014,0.09-0.495,0.322-0.364,0.35
				c-0.409-0.081,0.04,0.053-0.138,0.125c0,0-0.701,0.17-0.359,0.391c-0.262-0.172-1.219-1.164-1.25-1.062
				c0.019,0.033-0.021,0.337-0.114,0.331c1.005,0.299,0.671,1.808,0.779,1.872c-0.241-0.142-0.178,0.088-0.026,0.185
				c-1.012-0.621-1.486-0.532-0.593,0.224c-0.569-0.455-3.924-1.819-4.002-1.977c-0.331-0.549,0.444-1.008,0.896-1.497
				c-0.494,0.047-0.284,0.026,0.004-0.001c0.326-0.356,0.475-0.73-0.092-1.17c-0.02,0.002-0.03,0.011-0.068,0.008
				c-0.04-0.004-0.06-0.055-0.054-0.101c-0.353-0.234-0.901-0.493-1.752-0.774C37.829,31.726,37.245,31.681,37.111,31.695z
				 M41.339,31.848C41.395,31.745,41.339,31.838,41.339,31.848L41.339,31.848z M41.835,36.024
				C41.929,36.322,41.769,35.743,41.835,36.024L41.835,36.024z M41.283,31.655C41.494,31.645,41.417,31.579,41.283,31.655
				L41.283,31.655z M41.056,31.511c-0.01,0-0.014,0.002,0.012-0.006C41.423,31.383,41.073,31.499,41.056,31.511z M36.475,31.443
				C36.087,31.41,36.765,31.476,36.475,31.443L36.475,31.443z M36.667,30.526C36.271,30.385,36.997,30.666,36.667,30.526
				L36.667,30.526z M43.614,44.969c0.269-0.129-0.263-0.062,0.027-0.181c0.224-0.127-0.244-0.042-0.11-0.17
				c-0.062-0.051-0.05-0.115,0.025-0.183c-0.13,0.133-0.241,0.228-0.343,0.302c0.09,0.045,0.17,0.068,0.264,0.119
				C43.299,44.922,43.438,45.049,43.614,44.969z M36.661,29.047c0.054-0.021,0.103-0.039,0.159-0.056
				C36.729,29.003,36.681,29.024,36.661,29.047z M35.769,32.827c-0.219,0.133,0.179-1.04,0.065-0.14
				c0.203-0.275,0.41-0.398,0.606-0.594c-0.083-0.083-0.165-0.163-0.245-0.241c-0.5,0.134-0.864,0.339-1.135,0.59
				c0.115,0.162,0.237,0.334,0.379,0.54C35.539,32.904,35.65,32.853,35.769,32.827z M38.396,29.75
				C39.633,30.97,38.486,29.833,38.396,29.75L38.396,29.75z M42.261,44.613C42.248,44.528,42.283,44.769,42.261,44.613
				L42.261,44.613z M39.979,30.612c0.086-0.066-0.208,0.154-0.019,0.015C39.931,30.649,39.897,30.674,39.979,30.612z M35.664,43.801
				C35.487,43.758,35.737,43.849,35.664,43.801L35.664,43.801z M34.491,33.712C34.999,34.353,34.763,33.72,34.491,33.712
				L34.491,33.712z M41.056,31.511c-0.002,0,0,0,0.012-0.006C41.097,31.493,41.071,31.503,41.056,31.511z M30.942,40.132
				c0-0.001,0-0.001,0-0.001C30.922,40.089,30.933,40.115,30.942,40.132z M40.204,55.272C40.304,55.326,40.034,55.171,40.204,55.272
				L40.204,55.272z M40.204,55.272C39.804,55.033,39.579,54.909,40.204,55.272L40.204,55.272z M39.001,54.805
				C38.875,54.765,39.133,54.848,39.001,54.805L39.001,54.805z M39.001,54.805C38.005,54.479,36.178,53.912,39.001,54.805
				L39.001,54.805z M36.233,54.817C36.505,55.074,35.385,53.989,36.233,54.817L36.233,54.817z M47.646,32.086
				c-0.08-0.024-0.111,0.1-0.01,0.109C47.766,32.219,47.728,32.099,47.646,32.086z M42.07,27.042
				c0.066,0.037,0.304,0.057,0.27,0.042C42.259,27.053,42,27.001,42.07,27.042z M63.252,41.986
				C63.198,41.997,62.899,42.069,63.252,41.986L63.252,41.986z"/>
			<g id="XMLID_29_">
				<path id="XMLID_30_" fill="#414042" d="M32.852,84.657c-8.56,0-16.641-3.265-22.815-9.228
					c-6.317-6.101-9.88-14.297-10.031-23.079c-0.316-18.125,14.172-33.13,32.299-33.448c18.123-0.419,33.124,14.178,33.435,32.304
					l0,0c0.156,8.779-3.12,17.093-9.217,23.413c-6.097,6.318-14.292,9.877-23.071,10.029C33.251,84.651,33.052,84.657,32.852,84.657
					z M32.878,21.002c-0.181,0-0.356,0-0.537,0.005C15.374,21.305,1.812,35.348,2.109,52.313c0.141,8.219,3.476,15.891,9.39,21.602
					c5.915,5.715,13.725,8.839,21.917,8.629c8.218-0.139,15.886-3.478,21.596-9.389c5.705-5.912,8.768-13.694,8.624-21.912l0,0
					C63.343,34.458,49.597,21.002,32.878,21.002z"/>
			</g>
		</g>
	</g>
	<g id="XMLID_14_">
		<g id="XMLID_24_">
			
				<rect id="XMLID_25_" x="60.59" y="52.91" transform="matrix(0.7071 0.7071 -0.7071 0.7071 57.135 -30.0122)" fill="#414042" width="8.411" height="2.104"/>
		</g>
		<path id="XMLID_21_" fill="#231F20" d="M33.861,23.027c-7.925,7.924-7.925,20.774,0,28.696c7.925,7.926,20.775,7.926,28.698,0
			c7.923-7.922,7.923-20.772,0-28.696C54.636,15.103,41.786,15.103,33.861,23.027z M60.962,50.129
			c-7.04,7.041-18.461,7.041-25.504,0c-7.043-7.043-7.043-18.461,0-25.507c7.043-7.041,18.464-7.041,25.504,0.002
			C68.004,31.667,68.004,43.085,60.962,50.129z"/>
		<path id="XMLID_20_" fill="#3677A2" d="M63.182,58.017l22.492,22.492c1.558,1.558,4.111,1.558,5.67,0L66.019,55.182L63.182,58.017
			z"/>
		<path id="XMLID_19_" fill="#00B8D4" d="M66.019,55.182l25.325,25.327c1.558-1.558,1.558-4.11,0-5.668L68.851,52.35L66.019,55.182z
			"/>
		<g id="XMLID_17_">
			
				<rect id="XMLID_18_" x="69.044" y="55.059" transform="matrix(0.7073 0.7069 -0.7069 0.7073 62.4057 -32.2062)" fill="#414042" width="2.105" height="8.407"/>
		</g>
		<g id="XMLID_15_">
			
				<rect id="XMLID_16_" x="71.517" y="57.528" transform="matrix(0.7073 0.7069 -0.7069 0.7073 64.8759 -33.2301)" fill="#414042" width="2.104" height="8.411"/>
		</g>
	</g>
	<g id="XMLID_12_">
		<rect id="XMLID_13_" x="67.888" y="27.171" fill="#414042" width="10.362" height="2.104"/>
	</g>
	<g id="XMLID_8_">
		<rect id="XMLID_9_" x="13.693" y="12.02" fill="#414042" width="32.53" height="2.105"/>
	</g>
	<g id="XMLID_6_">
		<rect id="XMLID_7_" x="12.872" y="87.472" fill="#414042" width="32.528" height="2.105"/>
	</g>
	<g id="XMLID_4_">
		<rect id="XMLID_5_" x="37.805" y="81.484" fill="#414042" width="32.53" height="2.104"/>
	</g>
	<g id="XMLID_2_">
		<rect id="XMLID_3_" x="47.368" y="87.472" fill="#414042" width="7.439" height="2.105"/>
	</g>
</g>
<circle opacity="0.3" fill="#FFFFFF" cx="48.812" cy="39.113" r="17.161"/>
<g>
	<path fill="#00BCD4" d="M55.659,36.997c-0.488,3.78-3.948,6.451-7.731,5.962c-3.778-0.488-6.449-3.948-5.962-7.729
		c0.489-3.78,3.95-6.449,7.729-5.962C53.478,29.756,56.146,33.217,55.659,36.997z"/>
	<circle fill="#005E6A" cx="48.812" cy="36.114" r="2.854"/>
	<g>
		<path fill="#231F20" d="M47.897,43.188c-3.899-0.504-6.664-4.087-6.161-7.988c0.504-3.901,4.087-6.666,7.988-6.163
			c3.901,0.504,6.667,4.087,6.164,7.989C55.385,40.927,51.801,43.692,47.897,43.188z M49.665,29.497
			c-3.647-0.471-6.998,2.115-7.47,5.762c-0.47,3.648,2.115,6.999,5.762,7.469c3.649,0.471,7.001-2.112,7.472-5.76
			C55.899,33.32,53.314,29.968,49.665,29.497z"/>
	</g>
	<g>
		<path fill="#231F20" d="M48.416,39.172c-1.687-0.217-2.881-1.766-2.664-3.455c0.218-1.688,1.769-2.882,3.454-2.664
			c1.688,0.218,2.884,1.767,2.666,3.455C51.654,38.196,50.104,39.39,48.416,39.172z M49.147,33.513
			c-1.434-0.185-2.75,0.831-2.935,2.266c-0.186,1.433,0.83,2.751,2.263,2.937c1.434,0.184,2.752-0.832,2.938-2.266
			S50.581,33.697,49.147,33.513z"/>
	</g>
	
		<ellipse transform="matrix(0.8032 -0.5957 0.5957 0.8032 -10.6047 34.1118)" fill="#FFFFFF" cx="46.322" cy="33.105" rx="1.793" ry="0.95"/>
	<g>
		<path fill="#231F20" d="M45.302,34.639c-0.262-0.034-0.471-0.147-0.606-0.328c-0.394-0.532,0.011-1.479,0.923-2.155
			c0.886-0.658,1.942-0.781,2.329-0.257c0.204,0.274,0.204,0.661,0.001,1.089c-0.182,0.379-0.508,0.758-0.923,1.065
			C46.445,34.484,45.802,34.704,45.302,34.639z M47.282,32.03c-0.371-0.048-0.916,0.148-1.389,0.499
			c-0.738,0.549-1.026,1.235-0.826,1.508c0.059,0.077,0.157,0.126,0.294,0.144c0.372,0.047,0.918-0.148,1.388-0.498
			c0.35-0.259,0.634-0.584,0.781-0.893c0.124-0.261,0.141-0.486,0.046-0.614C47.519,32.096,47.42,32.048,47.282,32.03z"/>
	</g>
</g>
</svg>
