<?xml version="1.0" encoding="utf-8"?>
<!-- Generator: Adobe Illustrator 16.0.0, SVG Export Plug-In . SVG Version: 6.00 Build 0)  -->
<!DOCTYPE svg PUBLIC "-//W3C//DTD SVG 1.1//EN" "http://www.w3.org/Graphics/SVG/1.1/DTD/svg11.dtd">
<svg version="1.1" id="Layer_1" xmlns="http://www.w3.org/2000/svg" xmlns:xlink="http://www.w3.org/1999/xlink" x="0px" y="0px"
	 width="30px" height="30px" viewBox="0 0 30 30" enable-background="new 0 0 30 30" xml:space="preserve">
<path fill="#231F20" d="M14.683,7.547c0.104-0.031,0.194-0.007,0.272,0.07c0.078,0.078,0.137,0.112,0.179,0.101
	c0.062-0.03,0.077-0.077,0.046-0.139C15.098,7.444,14.932,7.433,14.683,7.547z"/>
<polygon fill="#231F20" points="12.404,3.98 1.695,5.32 1.695,14.087 12.404,14.087 "/>
<polygon fill="#231F20" points="28.305,1.695 14.147,3.795 14.147,14.087 28.305,14.087 "/>
<polygon fill="#231F20" points="28.305,15.818 14.147,15.818 14.147,26.168 28.305,28.305 "/>
<polygon fill="#231F20" points="12.404,15.818 1.695,15.818 1.695,24.36 12.404,25.925 "/>
</svg>
