<?xml version="1.0" encoding="utf-8"?>
<!-- Generator: Adobe Illustrator 16.0.0, SVG Export Plug-In . SVG Version: 6.00 Build 0)  -->
<!DOCTYPE svg PUBLIC "-//W3C//DTD SVG 1.1//EN" "http://www.w3.org/Graphics/SVG/1.1/DTD/svg11.dtd">
<svg version="1.1" id="Layer_1" xmlns="http://www.w3.org/2000/svg" xmlns:xlink="http://www.w3.org/1999/xlink" x="0px" y="0px"
	 width="30px" height="30px" viewBox="0 0 30 30" enable-background="new 0 0 30 30" xml:space="preserve">
<path fill="#FFFFFF" d="M26.621,24.411c-0.113-0.129-0.273-0.257-0.48-0.382c-0.031-0.021-0.115-0.067-0.257-0.146
	c-0.14-0.077-0.25-0.144-0.333-0.202c-0.083-0.058-0.191-0.154-0.326-0.293c-0.135-0.142-0.238-0.287-0.317-0.443
	c-0.077-0.154-0.152-0.364-0.226-0.629c-0.072-0.264-0.113-0.556-0.123-0.877c-0.146,0.125-0.227,0.371-0.242,0.737
	s0.062,0.741,0.233,1.125s0.427,0.632,0.769,0.744c0.332,0.114,0.599,0.236,0.8,0.365c0.202,0.129,0.331,0.276,0.388,0.442
	s-0.038,0.345-0.285,0.535c-0.25,0.19-0.647,0.381-1.197,0.566c-0.754,0.259-1.289,0.479-1.605,0.658
	c-0.314,0.183-0.777,0.525-1.391,1.033c-0.411,0.342-0.854,0.525-1.317,0.551c-0.466,0.025-0.844-0.145-1.133-0.512
	c-0.29-0.367-0.384-0.888-0.279-1.561c0.196-1.293,0.191-2.303-0.016-3.025c-0.166-0.568-0.201-1.072-0.108-1.508
	c0.094-0.433,0.237-0.688,0.436-0.759c0.195-0.072,0.408,0.082,0.636,0.465c0.021,0.052,0.067,0.152,0.14,0.304
	c0.072,0.148,0.133,0.256,0.18,0.317s0.115,0.144,0.209,0.24c0.094,0.099,0.211,0.169,0.35,0.21
	c0.141,0.042,0.303,0.068,0.488,0.076c0.353,0.012,0.668-0.062,0.947-0.217c0.278-0.153,0.489-0.328,0.627-0.521
	c0.142-0.19,0.28-0.375,0.42-0.552c0.142-0.176,0.262-0.273,0.365-0.295c0.113-0.02,0.217-0.135,0.312-0.342
	c0.093-0.205,0.153-0.494,0.186-0.859c0.031-0.368,0.005-0.805-0.077-1.312c-0.154-0.899-0.464-1.889-0.924-2.963
	c-0.46-1.077-0.975-1.921-1.545-2.531c-1.023-1.086-1.711-2.216-2.062-3.384c-0.362-1.231-0.518-2.338-0.467-3.321
	c0.053-0.704-0.1-1.467-0.457-2.289c-0.355-0.823-0.83-1.451-1.42-1.886c-0.373-0.28-0.834-0.494-1.382-0.645
	c-0.548-0.149-1.098-0.22-1.645-0.209c-0.672,0-1.21,0.108-1.615,0.326c-0.828,0.444-1.375,0.985-1.645,1.622
	c-0.27,0.636-0.394,1.42-0.374,2.351c0.042,2.049,0.125,3.654,0.25,4.812c-0.146,0.538-0.788,1.547-1.925,3.027
	c-0.208,0.207-0.409,0.486-0.605,0.838c-0.196,0.352-0.353,0.667-0.465,0.946c-0.115,0.28-0.267,0.683-0.458,1.211
	c-0.192,0.526-0.329,0.899-0.412,1.118c-0.072,0.186-0.186,0.402-0.342,0.652c-0.155,0.248-0.28,0.49-0.373,0.728
	c-0.093,0.239-0.145,0.508-0.155,0.81c-0.01,0.227,0,0.424,0.03,0.588c0.042,0.25,0.12,0.328,0.233,0.234
	c0.467-0.354,1.051-0.146,1.754,0.62c0.497,0.538,1.372,1.789,2.623,3.757c0.105,0.176,0.208,0.363,0.312,0.566
	c0.103,0.201,0.201,0.47,0.295,0.807c0.093,0.336,0.132,0.639,0.116,0.908s-0.135,0.518-0.357,0.745
	c-0.222,0.229-0.556,0.373-1.001,0.435c-0.238,0.03-0.525,0.012-0.862-0.062c-0.336-0.073-0.763-0.192-1.28-0.358
	c-0.517-0.165-0.899-0.279-1.148-0.341c-0.362-0.083-0.876-0.188-1.545-0.317c-0.667-0.131-1.104-0.226-1.312-0.287
	c-0.352-0.094-0.542-0.229-0.574-0.403c-0.031-0.146,0.041-0.394,0.217-0.744c0.177-0.354,0.264-0.606,0.264-0.763
	c0.011-0.112,0.005-0.227-0.016-0.342c-0.02-0.112-0.043-0.201-0.07-0.264c-0.025-0.062-0.069-0.154-0.131-0.279
	c-0.063-0.123-0.103-0.218-0.124-0.279c-0.187-0.434-0.212-0.729-0.077-0.885c0.093-0.135,0.315-0.187,0.667-0.154
	c0.527,0.051,0.957-0.026,1.289-0.233c0.548-0.342,0.714-0.89,0.496-1.646c0,0.352-0.062,0.615-0.186,0.791
	c-0.124,0.177-0.342,0.356-0.652,0.544c-0.175,0.104-0.487,0.165-0.931,0.188c-0.445,0.021-0.74,0.095-0.885,0.218
	c-0.103,0.094-0.157,0.232-0.163,0.418c-0.005,0.188,0.02,0.375,0.07,0.566c0.051,0.191,0.103,0.412,0.155,0.66
	c0.051,0.248,0.072,0.456,0.062,0.621c-0.011,0.113-0.104,0.396-0.28,0.846c-0.175,0.449-0.212,0.794-0.109,1.032
	c0.053,0.112,0.14,0.215,0.264,0.303c0.125,0.089,0.298,0.162,0.52,0.226c0.223,0.062,0.428,0.11,0.614,0.146
	s0.444,0.083,0.776,0.141c0.331,0.056,0.594,0.105,0.792,0.146c0.663,0.136,1.417,0.358,2.266,0.668
	c0.849,0.312,1.422,0.472,1.723,0.479c0.29,0.012,0.567-0.049,0.83-0.178c0.264-0.129,0.489-0.275,0.675-0.441
	c0.187-0.166,0.463-0.319,0.831-0.465c0.367-0.146,0.779-0.225,1.234-0.233c0.208-0.011,0.507-0.022,0.9-0.038
	c0.394-0.018,0.688-0.023,0.886-0.023c0.889,0,1.562,0.004,2.017,0.016c0.312,0.011,0.555,0.06,0.729,0.148
	c0.176,0.086,0.291,0.188,0.342,0.301c0.052,0.115,0.138,0.246,0.256,0.396c0.119,0.148,0.271,0.271,0.457,0.364
	c0.395,0.187,0.854,0.262,1.383,0.225c0.527-0.034,0.88-0.138,1.055-0.303c0.29-0.278,0.682-0.608,1.172-0.993
	c0.492-0.383,0.936-0.673,1.328-0.867c0.082-0.043,0.223-0.109,0.418-0.203c0.197-0.094,0.362-0.172,0.497-0.24
	c0.136-0.067,0.298-0.153,0.488-0.256c0.192-0.104,0.348-0.201,0.467-0.287c0.119-0.09,0.24-0.19,0.364-0.303
	c0.124-0.115,0.203-0.229,0.24-0.343c0.035-0.114,0.05-0.229,0.039-0.35C26.798,24.664,26.734,24.54,26.621,24.411z M18.302,9.41
	c0.031-0.021,0.052-0.029,0.062-0.024c0.01,0.005,0.03,0.026,0.062,0.062c0.03,0.037,0.059,0.071,0.085,0.102
	c0.024,0.031,0.062,0.072,0.108,0.125c0.046,0.051,0.095,0.093,0.146,0.124c0.062,0.041,0.137,0.069,0.227,0.084
	c0.088,0.017,0.154,0.042,0.201,0.078c0.047,0.037,0.08,0.096,0.101,0.178c0.021,0.115,0.003,0.217-0.054,0.311
	c-0.059,0.094-0.133,0.135-0.227,0.124c-0.187-0.041-0.388-0.204-0.604-0.488C18.193,9.8,18.157,9.575,18.302,9.41z M16.378,3.38
	c0.052-0.067,0.082-0.122,0.093-0.163c0.021-0.062,0.022-0.126,0.008-0.195c-0.016-0.066-0.012-0.134,0.016-0.2
	c0.025-0.067,0.086-0.107,0.179-0.117c0.093,0,0.218,0.078,0.372,0.233c0.032,0.021,0.081,0.051,0.146,0.093
	c0.067,0.041,0.115,0.077,0.141,0.108c0.025,0.031,0.039,0.057,0.039,0.078c-0.021,0.052-0.066,0.087-0.141,0.109
	c-0.071,0.02-0.149,0.03-0.231,0.03c-0.083,0-0.13,0.005-0.14,0.017c-0.084,0.03-0.16,0.077-0.233,0.139
	c-0.071,0.062-0.129,0.108-0.17,0.139c-0.042,0.031-0.083,0.031-0.125,0c-0.042-0.062-0.058-0.106-0.047-0.131
	C16.295,3.493,16.325,3.447,16.378,3.38z M8.865,14.999c0.073-0.083,0.124-0.15,0.155-0.203c0.031-0.052,0.06-0.122,0.086-0.209
	c0.026-0.088,0.049-0.153,0.07-0.194c0.021-0.042,0.052-0.057,0.094-0.046c0.02-0.005,0.036,0.004,0.046,0.031
	c0.011,0.025,0.016,0.038,0.016,0.038v0.046c0,0.017-0.003,0.037-0.009,0.063c-0.004,0.026-0.012,0.049-0.023,0.069
	c-0.01,0.021-0.021,0.052-0.03,0.093c-0.012,0.042-0.021,0.078-0.032,0.109c-0.041,0.104-0.106,0.197-0.194,0.279
	c-0.087,0.083-0.153,0.119-0.194,0.109C8.787,15.164,8.792,15.101,8.865,14.999z M19.016,24.573
	c-0.021,0.333-0.091,0.798-0.209,1.397c-0.119,0.6-0.195,0.998-0.227,1.195c-0.217-0.012-0.341-0.091-0.372-0.241
	c-0.03-0.149,0-0.344,0.093-0.583c0.229-0.691,0.348-1.169,0.357-1.428c0.021-0.477-0.03-0.745-0.155-0.807
	c-0.114-0.084-0.29,0.072-0.528,0.465c-0.453,0.746-1.369,1.195-2.746,1.351c-1.242,0.165-2.101-0.021-2.577-0.558
	c-0.103-0.073-0.207-0.086-0.31-0.039c-0.104,0.047-0.171,0.095-0.203,0.146c-0.009,0.021,0,0.053,0.032,0.094
	c0.031,0.041,0.081,0.103,0.147,0.187c0.067,0.083,0.122,0.166,0.164,0.248c0.403,0.704,0.367,1.179-0.11,1.429
	c0-0.477-0.035-0.842-0.108-1.095c-0.072-0.255-0.218-0.532-0.435-0.838c-0.217-0.308-0.367-0.536-0.45-0.69
	c0.31-0.031,0.546-0.15,0.705-0.356c0.161-0.207,0.233-0.431,0.218-0.668c-0.015-0.238-0.106-0.437-0.271-0.589
	c-0.094-0.094-0.575-0.489-1.444-1.188c-0.869-0.696-1.406-1.167-1.614-1.403c-0.041-0.043-0.166-0.146-0.372-0.311
	c-0.208-0.167-0.338-0.312-0.389-0.436c-0.476-1.045-0.528-1.903-0.156-2.576l0.062-0.077c0.051-0.013,0.057,0.083,0.016,0.278
	c-0.062,0.289-0.083,0.58-0.062,0.869c0.04,0.651,0.227,1.139,0.558,1.459c0.218,0.219,0.367,0.201,0.45-0.047
	c0.062-0.082,0.09-0.388,0.085-0.914c-0.005-0.529,0.003-0.887,0.024-1.072c0.082-0.59,0.328-1.318,0.736-2.188
	c0.41-0.87,0.733-1.334,0.97-1.397c-0.186-0.301-0.246-0.626-0.177-0.977c0.066-0.353,0.175-0.653,0.325-0.901
	c0.149-0.249,0.303-0.536,0.458-0.862c0.155-0.326,0.232-0.618,0.232-0.877c0-0.072,0.006-0.124,0.017-0.155
	c0.031-0.093,0.16,0.021,0.388,0.342c0.435,0.641,0.76,1.019,0.978,1.132c0.228,0.124,0.481,0.119,0.76-0.015
	c0.28-0.135,0.624-0.357,1.032-0.667c0.409-0.31,0.758-0.538,1.048-0.683c0.03-0.009,0.08-0.033,0.147-0.069
	c0.066-0.037,0.117-0.062,0.154-0.078c0.035-0.015,0.082-0.038,0.141-0.07c0.056-0.031,0.1-0.057,0.131-0.077
	c0.031-0.021,0.062-0.044,0.093-0.071c0.032-0.026,0.053-0.051,0.063-0.077c0.01-0.026,0.014-0.049,0.014-0.071
	c-0.02-0.093-0.063-0.15-0.131-0.17c-0.068-0.02-0.157-0.009-0.271,0.038c-0.113,0.048-0.24,0.109-0.38,0.187
	c-0.142,0.078-0.295,0.166-0.467,0.264c-0.169,0.098-0.343,0.188-0.52,0.271c-0.175,0.083-0.362,0.156-0.558,0.218
	c-0.198,0.061-0.383,0.098-0.56,0.107c-0.434,0.012-0.78-0.102-1.04-0.34c-0.165-0.156-0.253-0.254-0.264-0.295
	c-0.01-0.041,0.037-0.052,0.14-0.032c0.559,0.073,0.967,0.083,1.227,0.032c0.269-0.041,0.631-0.159,1.086-0.357
	c0.092-0.042,0.329-0.143,0.707-0.303c0.377-0.159,0.67-0.271,0.877-0.333c0.124-0.031,0.21-0.081,0.256-0.148
	c0.047-0.066,0.062-0.129,0.047-0.188c-0.016-0.056-0.05-0.1-0.102-0.13c-0.114-0.063-0.219-0.022-0.311,0.123
	c-0.052,0.095-0.16,0.184-0.326,0.273c-0.166,0.087-0.317,0.154-0.457,0.201c-0.141,0.046-0.318,0.102-0.536,0.163
	c-0.218,0.062-0.335,0.099-0.356,0.108c-0.57,0.176-1.097,0.254-1.583,0.233c-0.228-0.01-0.411-0.044-0.551-0.1
	c-0.14-0.058-0.235-0.125-0.287-0.203c-0.053-0.077-0.135-0.176-0.249-0.295c-0.115-0.119-0.243-0.219-0.388-0.302
	c-0.104-0.052-0.142-0.146-0.117-0.279c0.026-0.136,0.106-0.274,0.241-0.42c0.011-0.01,0.116-0.074,0.318-0.193
	c0.201-0.119,0.344-0.241,0.427-0.366c0.093-0.144,0.254-0.293,0.481-0.449c0.01-0.042,0.018-0.155,0.022-0.342
	c0.005-0.186-0.043-0.387-0.147-0.605c-0.103-0.217-0.243-0.326-0.419-0.326c-0.249-0.01-0.424,0.062-0.527,0.217
	c-0.103,0.155-0.15,0.347-0.14,0.575c0.011,0.197,0.06,0.37,0.147,0.52c0.088,0.151,0.168,0.226,0.242,0.226
	c0.114-0.012,0.149,0.03,0.108,0.124c-0.063,0.114-0.146,0.187-0.249,0.217c-0.073,0.021-0.152-0.05-0.241-0.21
	c-0.087-0.16-0.154-0.354-0.201-0.581c-0.047-0.229-0.065-0.42-0.054-0.575c0.02-0.321,0.105-0.629,0.255-0.924
	s0.365-0.438,0.645-0.427c0.29,0.01,0.522,0.186,0.699,0.527c0.176,0.341,0.259,0.808,0.249,1.397
	c0.031,0.073,0.11,0.099,0.241,0.078c0.128-0.021,0.3-0.024,0.512-0.008c0.211,0.016,0.365,0.07,0.458,0.163
	c0.01,0,0.016-0.078,0.016-0.233c-0.188-1.304,0.273-1.997,1.38-2.08c0.166,0.032,0.306,0.07,0.419,0.116
	c0.114,0.046,0.235,0.125,0.364,0.233c0.13,0.109,0.237,0.267,0.326,0.474c0.089,0.207,0.157,0.465,0.21,0.776v0.574
	c0,0.332-0.067,0.517-0.201,0.559c-0.218,0.072-0.373,0.07-0.466-0.007c-0.095-0.078-0.084-0.215,0.03-0.412
	c0.104-0.258,0.082-0.559-0.062-0.901c-0.146-0.34-0.409-0.496-0.792-0.464c-0.258,0.01-0.445,0.15-0.559,0.418
	c-0.114,0.27-0.156,0.533-0.125,0.793c0.032,0.258,0.087,0.393,0.171,0.403c0.062,0.01,0.245,0.093,0.551,0.248
	c0.307,0.156,0.536,0.249,0.689,0.28c0.404,0.082,0.636,0.212,0.691,0.388c0.057,0.176,0.034,0.431-0.07,0.768
	c-0.104,0.337-0.134,0.613-0.093,0.83c0.041,0.229,0.12,0.435,0.232,0.622c0.114,0.186,0.235,0.356,0.364,0.512
	c0.131,0.155,0.281,0.445,0.459,0.869c0.174,0.424,0.336,0.957,0.48,1.599c0.01,0.011,0.049,0.047,0.115,0.108
	c0.068,0.063,0.135,0.14,0.203,0.234c0.065,0.093,0.146,0.219,0.238,0.379c0.094,0.161,0.194,0.396,0.303,0.707
	c0.108,0.31,0.211,0.668,0.304,1.071c0.114,0.476,0.175,1.028,0.179,1.661c0.006,0.631,0.047,1.062,0.124,1.295
	c0.079,0.232,0.278,0.328,0.599,0.287c0.404-0.021,0.664-0.237,0.775-0.65c0.344-1.201,0.062-2.641-0.838-4.316
	c-0.342-0.65-0.636-1.081-0.885-1.288c0.361,0.207,0.734,0.595,1.117,1.165c0.385,0.568,0.625,1.102,0.729,1.598
	c0.009,0.051,0.038,0.188,0.084,0.411c0.048,0.224,0.074,0.353,0.078,0.389c0.005,0.037,0.024,0.143,0.062,0.318
	c0.037,0.177,0.055,0.289,0.055,0.342c0,0.051,0.006,0.152,0.016,0.302c0.012,0.149,0.008,0.269-0.008,0.351
	s-0.031,0.193-0.047,0.334c-0.016,0.139-0.041,0.273-0.077,0.404c-0.036,0.127-0.073,0.271-0.116,0.426
	c0.568,0.248,0.854,0.465,0.854,0.651c-0.218-0.176-0.528-0.292-0.933-0.349s-0.777-0.004-1.125,0.162
	c-0.347,0.166-0.524,0.44-0.535,0.822c-0.373,0-0.638,0.094-0.791,0.279c-0.229,0.27-0.347,0.633-0.356,1.096
	c-0.013,0.459,0.028,0.961,0.115,1.504C19.004,23.977,19.037,24.357,19.016,24.573z M12.512,6.584
	c-0.031-0.009-0.057-0.041-0.078-0.093c0-0.093,0.047-0.13,0.14-0.109c0.062,0.02,0.122,0.098,0.179,0.233
	c0.057,0.134,0.07,0.29,0.039,0.465c0,0.031-0.015,0.046-0.045,0.045c-0.115,0-0.156-0.103-0.125-0.31
	C12.651,6.663,12.616,6.584,12.512,6.584z M16.532,6.834l-0.03,0.045c-0.084,0.053-0.124,0.062-0.124,0.031
	c-0.042-0.279-0.135-0.439-0.28-0.481l-0.062-0.03C15.963,6.336,16,6.3,16.145,6.29c0.031-0.011,0.078,0.005,0.142,0.045
	c0.062,0.043,0.118,0.106,0.17,0.195C16.506,6.618,16.532,6.718,16.532,6.834z"/>
<path fill="#FFFFFF" d="M13.333,7.733c0,0.062,0.026,0.088,0.078,0.078c0.042,0,0.085-0.049,0.132-0.147
	c0.046-0.099,0.126-0.152,0.241-0.164l0,0h-0.155C13.431,7.532,13.333,7.609,13.333,7.733z"/>
<path fill="#FFFFFF" d="M14.683,7.547c0.104-0.031,0.194-0.007,0.272,0.07c0.078,0.078,0.137,0.112,0.179,0.101
	c0.062-0.03,0.077-0.077,0.046-0.139C15.098,7.444,14.932,7.433,14.683,7.547z"/>
</svg>
