<?xml version="1.0" encoding="utf-8"?>
<!-- Generator: Adobe Illustrator 16.0.0, SVG Export Plug-In . SVG Version: 6.00 Build 0)  -->
<!DOCTYPE svg PUBLIC "-//W3C//DTD SVG 1.1//EN" "http://www.w3.org/Graphics/SVG/1.1/DTD/svg11.dtd">
<svg version="1.1" id="Layer_1" xmlns="http://www.w3.org/2000/svg" xmlns:xlink="http://www.w3.org/1999/xlink" x="0px" y="0px"
	 width="60px" height="60px" viewBox="0 0 60 60" enable-background="new 0 0 60 60" xml:space="preserve">
<g>
	<path fill="#1B2837" d="M8.02,21.648c-0.216-0.011-0.429-0.046-0.634-0.104c-0.004,0.004-0.073-0.012-0.13-0.03l-4.381-1.335
		c-1.673-0.519-2.625-2.302-2.119-3.976c0.433-1.403,1.758-2.327,3.225-2.249c0.291,0.016,0.532,0.058,0.757,0.131l4.376,1.334
		c1.681,0.508,2.634,2.292,2.124,3.975c-0.375,1.212-1.428,2.088-2.683,2.235C8.383,21.651,8.202,21.658,8.02,21.648z M3.945,14.631
		c-1.156-0.062-2.2,0.666-2.54,1.769c-0.399,1.318,0.351,2.724,1.672,3.132l4.384,1.335c0.024,0.002,0.084,0.016,0.109,0.023
		c0.292,0.084,0.607,0.104,0.905,0.066c0.992-0.116,1.822-0.807,2.118-1.761c0.4-1.324-0.349-2.728-1.671-3.129L4.535,14.73
		C4.363,14.674,4.176,14.644,3.945,14.631z"/>
	<path fill="#1B2837" d="M6.848,36.01c0.189-0.119,0.37-0.266,0.524-0.43c0.738-0.773,0.936-1.863,0.489-2.703l-1.382-2.663
		c-0.044-0.095-0.104-0.181-0.154-0.258c-0.387-0.532-1.014-0.867-1.744-0.918H4.496c-0.035,0-0.069,0-0.172-0.009
		c-0.368,0.009-0.755,0.094-1.115,0.258c-0.035,0.018-0.069,0.026-0.155,0.078c-0.455,0.231-0.833,0.584-1.091,0.987
		c-0.111,0.163-0.198,0.317-0.258,0.49c-0.026,0.016,0.009,0.06-0.008,0.085H1.679c0,0.009-0.008,0.025-0.017,0.053
		c-0.017,0.025-0.025,0.05-0.035,0.085l-0.018,0.104c-0.015,0.041-0.024,0.084-0.024,0.129c-0.008,0.025-0.026,0.109-0.026,0.145
		C1.55,31.52,1.55,31.613,1.55,31.699c0,0.121,0.008,0.23,0.035,0.369c0.017,0.094,0.042,0.189,0.077,0.285
		c0.009,0.031,0.009,0.068,0.025,0.084c0.026,0.078,0.06,0.146,0.095,0.215l1.176,2.25c-0.205,0.172-0.386,0.369-0.514,0.566
		c-0.026,0.033-0.052,0.078-0.086,0.121c-0.035,0.041-0.061,0.094-0.078,0.145c-0.018,0.025-0.035,0.061-0.051,0.104
		c-0.026,0.043-0.044,0.096-0.052,0.121c-0.017,0.025-0.035,0.076-0.042,0.129c-0.026,0.084-0.053,0.18-0.069,0.301
		c-0.043,0.258-0.034,0.496,0.008,0.635c0,0.025,0.008,0.059,0.008,0.086c0.035,0.129,0.087,0.258,0.147,0.387l1.176,2.248
		c0.026,0.053,0.061,0.104,0.129,0.215c0.008,0.027,0.035,0.053,0.052,0.068l0.146,0.156c0.043,0.051,0.095,0.094,0.147,0.137
		c0.024,0.025,0.059,0.043,0.093,0.061c0.052,0.033,0.111,0.068,0.19,0.111c0.042,0.025,0.085,0.043,0.18,0.086
		c0.025,0.018,0.052,0.035,0.085,0.035l0.078,0.025c0.052,0.016,0.103,0.033,0.095,0.016c0.017,0.018,0.06,0.027,0.078,0.035
		c0.017,0,0.042,0.008,0.06,0.008c0.035,0.018,0.068,0.018,0.102,0.018h0.061c0.025,0.008,0.06,0.008,0.086,0.008
		c0.008,0,0.017,0.01,0.025,0.01c0.068,0.008,0.128,0.008,0.197,0.008h0.094c0.053,0,0.112,0,0.112-0.008c0.025,0,0.06,0,0.095-0.01
		c0.052,0,0.103-0.008,0.198-0.025c0.008,0,0.188-0.043,0.188-0.043c0.096-0.023,0.189-0.051,0.258-0.076
		c0.103-0.043,0.198-0.096,0.3-0.145h0.01c0.007-0.01,0.025-0.02,0.042-0.02c0.008-0.008,0.026-0.018,0.035-0.025
		c1.107-0.617,1.606-1.889,1.107-2.842L6.848,36.01z M6.205,39.84c-0.018,0.008-0.025,0.008-0.035,0.018c0,0-0.008,0-0.008,0.008
		c-0.078,0.035-0.164,0.076-0.258,0.121C5.861,40.002,5.8,40.012,5.75,40.027c0,0-0.069,0.02-0.078,0.02L5.474,40.08
		c-0.035,0-0.085,0-0.128,0.018l-0.232,0.008c-0.035-0.018-0.12-0.025-0.172-0.025c-0.024-0.01-0.051-0.01-0.093-0.018
		c-0.018,0-0.035-0.008-0.044-0.008c-0.043-0.008-0.078-0.018-0.111-0.035l-0.052-0.008c-0.018-0.01-0.035-0.018-0.051-0.025
		c-0.018-0.008-0.035-0.018-0.035-0.018l-0.103-0.051c-0.052-0.027-0.095-0.053-0.137-0.088c-0.018-0.008-0.035-0.016-0.053-0.025
		c-0.025-0.025-0.05-0.051-0.128-0.137l-0.094-0.111c-0.017-0.027-0.042-0.061-0.06-0.104l-1.168-2.242
		c-0.042-0.076-0.078-0.17-0.103-0.266c-0.035-0.137-0.035-0.293-0.018-0.455c0.018-0.076,0.035-0.145,0.068-0.275
		c0.018-0.023,0.026-0.059,0.044-0.094c0.017-0.025,0.043-0.094,0.051-0.119c0.026-0.027,0.043-0.053,0.061-0.086l0.059-0.078
		c0.13-0.215,0.336-0.412,0.567-0.559c0.146-0.086,0.199-0.273,0.121-0.42l-1.314-2.516c-0.026-0.043-0.042-0.086-0.06-0.129
		c0-0.027-0.009-0.053-0.017-0.078c-0.027-0.059-0.043-0.129-0.061-0.207c-0.008-0.076-0.017-0.152-0.017-0.238
		c0-0.051,0-0.104-0.009-0.121c0.018-0.051,0.026-0.094,0.026-0.137c0.008-0.027,0.008-0.061,0.018-0.086
		c0-0.018,0.009-0.035,0.009-0.051l0.017-0.07c0.008-0.018,0.018-0.033,0.018-0.051l0.034-0.111
		c0.051-0.122,0.103-0.233,0.188-0.361c0.206-0.318,0.498-0.584,0.816-0.755c0.042-0.009,0.077-0.036,0.145-0.069
		c0.292-0.129,0.602-0.206,0.833-0.215c0.078,0.009,0.147,0.018,0.207,0.018l0.061-0.008c0.523,0.042,0.978,0.283,1.244,0.653
		c0.035,0.05,0.069,0.102,0.104,0.17l1.391,2.671c0.309,0.609,0.154,1.391-0.387,1.967c-0.171,0.18-0.377,0.334-0.593,0.445
		c-0.068,0.027-0.136,0.068-0.171,0.137c-0.061,0.096-0.061,0.217-0.009,0.311l0.937,1.818C7.415,38.5,7.029,39.393,6.205,39.84z"/>
	<path fill="#1B2837" d="M5.503,28.816c-0.154,0-0.304-0.015-0.449-0.042c-0.687-0.115-1.24-0.479-1.574-0.994
		c-0.077-0.099-0.144-0.211-0.189-0.326l-1.184-2.646c-0.512-1.116-0.082-2.408,0.975-3.069c0.096-0.063,0.209-0.122,0.333-0.178
		l0.163-0.072c0.346-0.157,0.717-0.238,1.095-0.238c0.952,0,1.804,0.532,2.168,1.354l1.228,2.73
		c0.498,1.123-0.025,2.483-1.192,3.099c-0.019,0.014-0.061,0.037-0.121,0.06l-0.198,0.09C6.229,28.735,5.863,28.816,5.503,28.816z
		 M4.674,21.928c-0.281,0-0.557,0.06-0.82,0.18l-0.162,0.07c-0.085,0.041-0.169,0.081-0.246,0.131
		c-0.773,0.485-1.094,1.408-0.751,2.15c0.005,0.011,0.039,0.092,0.042,0.104l1.179,2.63c0.026,0.066,0.063,0.128,0.115,0.196
		c0.25,0.382,0.641,0.637,1.088,0.718c0.167,0.021,0.273,0.032,0.383,0.032c0.264,0,0.534-0.061,0.781-0.173l0.164-0.071
		c0.006-0.002,0.072-0.036,0.078-0.037c0.889-0.472,1.279-1.45,0.926-2.247l-1.226-2.723C5.963,22.293,5.369,21.928,4.674,21.928z"
		/>
	<path fill="#1B2837" d="M8.444,6.613v7.964l0.677,0.236V7.291h18.378v31.5H9.32l-0.479,0.676h19.335V6.613H8.444z M8.444,6.613
		v7.964l0.677,0.236V7.291h18.378v31.5H9.32l-0.479,0.676h19.335V6.613H8.444z M29.016,41.229c0,1.734-1.327,3.143-2.953,3.143
		H10.558c-1.635,0-2.954-1.408-2.954-3.143v-0.018l-0.587,0.838c0.353,1.717,1.806,3,3.541,3h15.506c1.996,0,3.63-1.715,3.63-3.82
		V23.988l-0.677-0.865V41.229z M26.063,1.032H10.558c-2.005,0-3.631,1.717-3.631,3.83v9.193l0.677,0.236V4.861
		c0-1.743,1.319-3.152,2.954-3.152h15.506c1.625,0,2.953,1.41,2.953,3.152v6.295l0.677-0.442V4.861
		C29.693,2.749,28.06,1.032,26.063,1.032z M8.444,6.613v7.964l0.677,0.236V7.291h18.378v31.5H9.32l-0.479,0.676h19.335V6.613H8.444z
		"/>
	<path fill="#1B2837" d="M24.134,58.969c-0.11,0-0.219-0.059-0.279-0.16l0.279-0.164L23.82,58.75
		c-0.038-0.062-0.077-0.129-0.113-0.197c-0.007-0.004-0.035-0.049-0.063-0.098c-0.568-0.947-1.083-1.74-1.748-2.701
		c-0.204-0.293-0.42-0.598-0.658-0.932c-2.413-1.609-3.244-2.168-5.663-4.289c-1.518-1.334-3.386-3.701-4.545-5.758
		c-0.057-0.1-0.055-0.225,0.002-0.324c0.059-0.1,0.166-0.16,0.281-0.16h14.816c1.639,0,2.972-1.42,2.972-3.164v-14.41
		c0-0.121,0.067-0.231,0.173-0.287s0.234-0.049,0.335,0.02c0.255,0.175,0.465,0.355,0.66,0.543c0-0.071,0-0.141,0-0.211
		c0-0.186,0-0.37-0.01-0.544c-0.015-0.308-0.062-0.591-0.109-0.879c-0.034-0.204-0.068-0.409-0.092-0.625
		c-0.035-0.248-0.029-0.488-0.023-0.72c0.009-0.361,0.018-0.672-0.146-0.964c-0.072-0.139-0.145-0.272-0.22-0.406
		c-0.165-0.295-0.333-0.599-0.457-0.922c-0.022-0.023-0.041-0.05-0.056-0.081c-0.933-1.859-0.922-8.121,0.016-9.304
		c0.353-0.484,0.774-0.75,1.237-0.796c0.438-0.072,0.912-0.017,1.285,0.172c0.016,0.005,0.031,0.012,0.047,0.02
		c0.969,0.503,1.385,1.765,1.664,2.932c0.09,0.376,0.17,0.762,0.246,1.139c0.193,0.944,0.377,1.835,0.686,2.318
		c0.25,0.365,0.516,0.715,0.777,1.059c0.783,1.029,1.521,2.001,1.842,3.369c0.305,1.539,0.816,2.881,1.324,4.106
		c0.131,0.365,0.227,0.708,0.322,1.044c0.17,0.608,0.33,1.182,0.65,1.718c0.424,0.685,0.514,1.486,0.602,2.26
		c0.018,0.158,0.035,0.312,0.055,0.465c0.186,1.57,0.33,3.502,0.33,4.402c-0.043,0.961,0.162,1.934,0.361,2.873l0.051,0.24
		c0.041,0.225,0.084,0.439,0.139,0.65c0.008,0.027,0.012,0.055,0.012,0.082c0.607,2.553,2.074,4.967,3.43,6.982
		c0.051,0.074,0.066,0.168,0.045,0.256c-0.02,0.088-0.076,0.164-0.156,0.207L24.292,58.928
		C24.242,58.955,24.188,58.969,24.134,58.969z M11.877,44.939c1.131,1.877,2.774,3.918,4.125,5.105
		c2.404,2.107,3.22,2.654,5.644,4.271c0.033,0.021,0.061,0.049,0.083,0.08c0.254,0.355,0.484,0.68,0.698,0.988
		c0.675,0.973,1.195,1.777,1.74,2.688c0.047,0.076,0.064,0.107,0.083,0.135l19.244-10.766c-1.33-2.004-2.727-4.375-3.336-6.961
		c-0.002-0.01-0.004-0.023-0.006-0.037c-0.055-0.217-0.1-0.438-0.141-0.658l-0.049-0.232c-0.207-0.98-0.42-1.994-0.375-3.021
		c0-0.865-0.143-2.764-0.324-4.307c-0.02-0.152-0.039-0.312-0.057-0.475c-0.08-0.703-0.162-1.431-0.512-1.996
		c-0.367-0.616-0.547-1.259-0.721-1.88c-0.09-0.323-0.182-0.651-0.303-0.985c-0.514-1.241-1.039-2.62-1.354-4.203
		c-0.285-1.223-0.984-2.141-1.723-3.113c-0.268-0.353-0.541-0.711-0.803-1.094c-0.379-0.591-0.574-1.541-0.779-2.546
		c-0.076-0.369-0.152-0.748-0.242-1.119c-0.227-0.946-0.576-2.077-1.289-2.483c-0.018-0.006-0.035-0.013-0.051-0.022
		c-0.258-0.142-0.571-0.184-0.942-0.126c-0.297,0.03-0.552,0.202-0.778,0.511c-0.714,0.905-0.837,6.496-0.069,8.45
		c0.052,0.041,0.092,0.097,0.112,0.164c0.102,0.343,0.294,0.687,0.479,1.02c0.08,0.142,0.156,0.281,0.226,0.417
		c0.244,0.436,0.233,0.868,0.222,1.286c-0.006,0.215-0.011,0.417,0.019,0.621c0.024,0.214,0.057,0.409,0.088,0.602
		c0.05,0.302,0.101,0.614,0.117,0.951c0.01,0.182,0.011,0.378,0.011,0.577c0.001,0.35,0.002,0.712,0.067,1.002
		c0.031,0.141-0.034,0.285-0.161,0.355c-0.126,0.067-0.283,0.046-0.386-0.056l-0.245-0.25c-0.152-0.156-0.294-0.302-0.443-0.44
		v13.733c0,2.102-1.625,3.812-3.621,3.812H11.877z"/>
	<path fill="#1B2837" d="M21.599,4.544H14.3c-0.239,0-0.432-0.193-0.432-0.433c0-0.239,0.193-0.432,0.432-0.432h7.299
		c0.239,0,0.432,0.193,0.432,0.432C22.031,4.351,21.838,4.544,21.599,4.544z"/>
	<path fill="#1B2837" d="M18.291,29.986c-0.434,0-0.786-0.351-0.786-0.781v-0.688c-0.379-0.263-0.609-0.697-0.609-1.165
		c0-0.781,0.636-1.418,1.416-1.418c0.072,0,0.151,0.009,0.214,0.017c0.701,0.111,1.202,0.702,1.202,1.401
		c0,0.491-0.249,0.938-0.658,1.198v0.654c0,0.328-0.208,0.624-0.516,0.738C18.476,29.972,18.387,29.986,18.291,29.986z
		 M18.311,26.417c-0.515,0-0.935,0.418-0.935,0.935c0,0.342,0.186,0.656,0.484,0.82c0.077,0.042,0.125,0.122,0.125,0.209v0.823
		c0,0.168,0.134,0.301,0.306,0.301c0.051,0,0.082-0.009,0.097-0.015c0.12-0.044,0.201-0.158,0.201-0.286v-0.795
		c0-0.091,0.051-0.175,0.134-0.215c0.322-0.161,0.523-0.484,0.523-0.842c0-0.463-0.331-0.852-0.786-0.925
		C18.423,26.423,18.365,26.417,18.311,26.417z"/>
	<path fill="#1B2837" d="M23.541,19.924v1.588h-0.583v-1.588c0-1.604-0.973-4.647-4.646-4.647c-3.675,0-4.648,3.044-4.648,4.647
		v1.588h-0.584v-1.588c0-1.806,1.09-5.231,5.232-5.231C22.452,14.693,23.541,18.118,23.541,19.924z"/>
	<path fill="#1B2837" d="M24.73,22.227H11.883c-0.166,0-0.306,0.141-0.306,0.314v10.27c0,0.166,0.14,0.307,0.306,0.307H24.73
		c0.172,0,0.312-0.141,0.312-0.307v-10.27C25.042,22.368,24.902,22.227,24.73,22.227z M24.423,32.498H12.196v-9.644h12.227V32.498z"
		/>
</g>
</svg>
