<?xml version="1.0" encoding="utf-8"?>
<!-- Generator: Adobe Illustrator 16.0.0, SVG Export Plug-In . SVG Version: 6.00 Build 0)  -->
<!DOCTYPE svg PUBLIC "-//W3C//DTD SVG 1.1//EN" "http://www.w3.org/Graphics/SVG/1.1/DTD/svg11.dtd">
<svg version="1.1" id="Layer_1" xmlns="http://www.w3.org/2000/svg" xmlns:xlink="http://www.w3.org/1999/xlink" x="0px" y="0px"
	 width="6000px" height="3074.5px" viewBox="0 0 6000 3074.5" enable-background="new 0 0 6000 3074.5" xml:space="preserve">
<g>
	<g>
		<path fill="none" d="M4391.802,2355.531v-340.059V753.61V561.498c0-53.051-43.004-96.051-96.058-96.051H1683.055
			c-53.054,0-96.055,43-96.055,96.051V753.61v1261.865v340.057H4391.802L4391.802,2355.531z"/>
		<path fill="#1977CC" d="M4295.744,465.447c53.054,0,96.055,43,96.055,96.051V753.61v1261.865v340.057H1587v-340.059V753.61
			V561.498c0-53.051,43.005-96.051,96.057-96.051H4295.744 M4295.744,441.764H1683.055c-66.022,0-119.739,53.713-119.739,119.732
			v192.112v1261.864v340.057c0,13.08,10.604,23.682,23.686,23.682h2804.802c13.079,0,23.68-10.602,23.68-23.682v-340.057V753.61
			V561.498C4415.48,495.477,4361.768,441.764,4295.744,441.764L4295.744,441.764z"/>
	</g>
	<g>
		<path fill="none" d="M4345.402,2380.623v-379.406V786.386V567.213c0-32.838-26.619-59.463-59.459-59.463H1692.854
			c-32.838,0-59.459,26.623-59.459,59.463v219.174v1214.83v379.406H4345.402L4345.402,2380.623z"/>
		<path fill="#1977CC" d="M4285.943,507.754c32.84,0,59.459,26.622,59.459,59.464V786.39v1214.833v379.404H1633.395v-379.404
			V786.389V567.217c0-32.84,26.619-59.464,59.46-59.464L4285.943,507.754 M4285.943,484.07H1692.854
			c-45.844,0-83.143,37.296-83.143,83.144v219.174v1214.83v379.406c0,13.08,10.604,23.682,23.683,23.682h2712.008
			c13.082,0,23.682-10.602,23.682-23.682v-379.406V786.386V567.213C4369.084,521.366,4331.787,484.07,4285.943,484.07
			L4285.943,484.07z"/>
	</g>
	<g>
		<path fill="#A2DFFF" d="M4483.105,2501.557H1495.688c-109.61,0-198.441-51.467-198.441-114.961v-31.064h3384.305v31.064
			C4681.555,2450.09,4592.719,2501.557,4483.105,2501.557z"/>
		<path fill="#1977CC" d="M4681.555,2355.531v31.062c0,63.496-88.832,114.963-198.449,114.963H1495.689
			c-109.61,0-198.443-51.467-198.443-114.963v-31.062H4681.555 M4681.555,2331.85H1297.246c-13.083,0-23.684,10.6-23.684,23.682
			v31.062c0,20.646,6.777,40.402,20.148,58.713c11.947,16.363,28.693,30.857,49.781,43.07
			c41.025,23.771,95.077,36.863,152.195,36.863h2987.414c57.117,0,111.17-13.096,152.201-36.863
			c21.094-12.213,37.843-26.707,49.782-43.07c13.367-18.311,20.147-38.064,20.147-58.713v-31.062
			C4705.236,2342.449,4694.636,2331.85,4681.555,2331.85L4681.555,2331.85z"/>
	</g>
	<g>
		<path fill="none" d="M1297.246,2386.596c0,17.781,6.968,34.621,19.412,49.648h3345.483c12.438-15.031,19.413-31.871,19.413-49.648
			v-31.064H1297.246V2386.596z"/>
		<path fill="#1977CC" d="M4681.555,2355.531v31.062c0,17.783-6.971,34.623-19.413,49.65H1316.658
			c-12.442-15.031-19.413-31.871-19.413-49.65v-31.062H4681.555 M4681.555,2331.85H1297.246c-13.083,0-23.684,10.6-23.684,23.682
			v31.062c0,22.719,8.592,45.111,24.851,64.754c4.5,5.434,11.188,8.58,18.243,8.58h3345.479c7.056,0,13.745-3.146,18.244-8.58
			c16.259-19.643,24.853-42.035,24.853-64.754v-31.062C4705.236,2342.449,4694.636,2331.85,4681.555,2331.85L4681.555,2331.85z"/>
	</g>
	<g>
		<rect x="2608.608" y="2355.531" fill="#A2DFFF" width="761.583" height="35.736"/>
		<path fill="#1977CC" d="M3370.191,2355.531v35.736h-761.582v-35.736H3370.191 M3370.191,2331.85h-761.582
			c-13.081,0-23.683,10.6-23.683,23.682v35.736c0,13.082,10.603,23.684,23.683,23.684h761.582c13.078,0,23.684-10.602,23.684-23.684
			v-35.736C3393.874,2342.449,3383.27,2331.85,3370.191,2331.85L3370.191,2331.85z"/>
	</g>
	<g>
		<g>
			<path fill="#FFFFFF" d="M4126.168,641.12H1852.631c-30.803,0-55.773,24.966-55.773,55.768v1457.298
				c0,30.803,24.971,55.768,55.773,55.768h2273.537c30.802,0,55.773-24.969,55.773-55.768V696.89
				C4181.941,666.085,4156.97,641.12,4126.168,641.12z"/>
			<path fill="#1977CC" d="M4126.168,2221.779H1852.631c-37.271,0-67.594-30.32-67.594-67.592V696.89
				c0-37.268,30.321-67.593,67.594-67.593h2273.537c37.271,0,67.596,30.323,67.596,67.593v1457.297
				C4193.763,2191.459,4163.439,2221.779,4126.168,2221.779z M1852.631,652.943c-24.234,0-43.951,19.716-43.951,43.948v1457.298
				c0,24.23,19.716,43.947,43.951,43.947h2273.537c24.232,0,43.95-19.717,43.95-43.947V696.89c0-24.231-19.717-43.948-43.95-43.948
				L1852.631,652.943L1852.631,652.943z"/>
		</g>
		<g>
			<path fill="#FFFFFF" d="M4126.168,641.12H1852.631c-30.803,0-55.773,24.966-55.773,55.768v1457.298
				c0,30.803,24.971,55.768,55.773,55.768h2273.537c30.802,0,55.773-24.969,55.773-55.768V696.89
				C4181.941,666.085,4156.97,641.12,4126.168,641.12z"/>
			<path fill="#1977CC" d="M4126.168,2221.779H1852.631c-37.271,0-67.594-30.32-67.594-67.592V696.89
				c0-37.268,30.321-67.593,67.594-67.593h2273.537c37.271,0,67.596,30.323,67.596,67.593v1457.297
				C4193.763,2191.459,4163.439,2221.779,4126.168,2221.779z M1852.631,652.943c-24.234,0-43.951,19.716-43.951,43.948v1457.298
				c0,24.23,19.716,43.947,43.951,43.947h2273.537c24.232,0,43.95-19.717,43.95-43.947V696.89c0-24.231-19.717-43.948-43.95-43.948
				L1852.631,652.943L1852.631,652.943z"/>
		</g>
	</g>
	<g>
		<g>
			<g>
				<g>
					<rect x="2577.131" y="1392.185" fill="#96CCC8" width="239.597" height="31.119"/>
					<rect x="2733.788" y="1454.42" fill="#96CCC8" width="396.26" height="31.113"/>
					<rect x="2853.59" y="1392.185" fill="#0FAEB2" width="184.309" height="31.119"/>
					<rect x="2577.131" y="1454.42" fill="#0FAEB2" width="119.796" height="31.113"/>
					<rect x="2623.207" y="1516.652" fill="#96CCC8" width="73.72" height="31.118"/>
					<rect x="2890.449" y="1516.652" fill="#96CCC8" width="285.672" height="31.118"/>
					<rect x="2733.788" y="1516.652" fill="#0FAEB2" width="119.802" height="31.118"/>
					<rect x="3074.757" y="1392.185" fill="#96CCC8" width="119.799" height="31.119"/>
					<rect x="3332.781" y="1392.185" fill="#96CCC8" width="119.802" height="31.119"/>
					<rect x="3231.417" y="1392.185" fill="#96CCC8" width="64.508" height="31.119"/>
					<rect x="3166.908" y="1454.42" fill="#96CCC8" width="285.676" height="31.113"/>
				</g>
				<g>
					<polygon fill="#1977CC" points="2485.404,1197.01 2214.793,1449.265 2485.404,1701.521 2532.333,1657.777 2308.646,1449.265 
						2532.333,1240.754 					"/>
					<polygon fill="#1977CC" points="3494.589,1240.754 3718.273,1449.265 3494.589,1657.777 3541.514,1701.521 3812.13,1449.265 
						3541.514,1197.01 					"/>
				</g>
			</g>
		</g>
	</g>
</g>
<g>
	<g id="Magnifier_1_">
		<circle fill="#FFFFFF" cx="2150.688" cy="1002.354" r="524.414"/>
		<g id="Database">
			<g>
				<path fill="#A2DFFF" d="M2404.97,1454.514h129.358v-129.371H2404.97V1454.514z M2438.708,1358.881h61.896v61.907h-61.896
					V1358.881z"/>
				<path fill="#A2DFFF" d="M1737.402,1454.514h129.372v-129.371h-129.372V1454.514z M1771.127,1358.881h61.91v61.907h-61.91
					V1358.881z"/>
				<path fill="#A2DFFF" d="M1904.298,1454.514h129.358v-129.371h-129.358V1454.514z M1938.035,1358.881h61.871v61.907h-61.871
					V1358.881z"/>
				<path fill="#A2DFFF" d="M2071.193,1454.514h129.358v-129.371h-129.358V1454.514z M2104.93,1358.881h61.883v61.907h-61.883
					V1358.881z"/>
				<path fill="#A2DFFF" d="M2238.074,1454.514h129.371v-129.371h-129.371V1454.514z M2271.824,1358.881h61.884v61.907h-61.884
					V1358.881z"/>
				<path fill="#A2DFFF" d="M2404.982,1292.428h129.346v-129.385h-129.346V1292.428z M2438.72,1196.781h61.883v61.909h-61.883
					V1196.781z"/>
				<rect x="1737.416" y="1163.043" fill="#A2DFFF" width="129.357" height="129.385"/>
				<path fill="#A2DFFF" d="M1904.298,1292.428h129.371v-129.385h-129.371V1292.428z M1938.035,1196.781h61.896v61.909h-61.896
					V1196.781L1938.035,1196.781z"/>
				<path fill="#A2DFFF" d="M2071.206,1292.428h129.346v-129.385h-129.346V1292.428z M2104.943,1196.781h61.871v61.909h-61.871
					V1196.781z"/>
				<rect x="2238.074" y="1163.043" fill="#A2DFFF" width="129.385" height="129.385"/>
				<path fill="#A2DFFF" d="M2404.982,1130.329h129.371v-129.384h-129.371V1130.329z M2438.72,1034.695h61.896v61.896h-61.896
					V1034.695z"/>
				<path fill="#A2DFFF" d="M1737.428,1130.329h129.346v-129.384h-129.346V1130.329z M1771.165,1034.695h61.872v61.896h-61.872
					V1034.695z"/>
				<path fill="#A2DFFF" d="M1904.298,1130.329h129.384v-129.384h-129.384V1130.329L1904.298,1130.329z M1938.035,1034.695h61.908
					v61.896h-61.908V1034.695z"/>
				<path fill="#A2DFFF" d="M2071.206,1130.329h129.371v-129.384h-129.371V1130.329z M2104.943,1034.695h61.896v61.896h-61.896
					V1034.695z"/>
				<path fill="#A2DFFF" d="M2238.101,1130.329h129.358v-129.384h-129.358V1130.329z M2271.838,1034.695h61.884v61.896h-61.884
					V1034.695z"/>
				<rect x="2404.982" y="838.859" fill="#A2DFFF" width="129.383" height="129.371"/>
				<path fill="#A2DFFF" d="M1737.428,968.23h129.371V838.859h-129.371V968.23z M1771.165,872.583h61.896v61.921h-61.896V872.583z"
					/>
				<path fill="#A2DFFF" d="M1904.322,968.23h129.359V838.859h-129.359V968.23L1904.322,968.23z M1938.06,872.583h61.884v61.921
					h-61.884V872.583L1938.06,872.583z"/>
				<rect x="2071.206" y="838.859" fill="#A2DFFF" width="129.383" height="129.371"/>
				<path fill="#A2DFFF" d="M2238.113,968.23h129.346V838.859h-129.346V968.23z M2271.85,872.583h61.872v61.921h-61.872V872.583z"/>
				<path fill="#A2DFFF" d="M2404.982,806.168h129.383V676.797h-129.383V806.168z M2438.72,710.523h61.909v61.921h-61.909V710.523z"
					/>
				<path fill="#A2DFFF" d="M1737.428,806.168h129.371V676.797h-129.371V806.168z M1771.165,710.523h61.896v61.921h-61.896V710.523z
					"/>
				<path fill="#A2DFFF" d="M1904.322,806.168h129.359V676.797h-129.359V806.168L1904.322,806.168z M1938.06,710.523h61.884v61.921
					h-61.884V710.523L1938.06,710.523z"/>
				<path fill="#A2DFFF" d="M2071.206,806.168h129.383V676.797h-129.383V806.168z M2104.943,710.523h61.908v61.921h-61.908V710.523z
					"/>
				<path fill="#A2DFFF" d="M2238.113,806.168h129.346V676.797h-129.346V806.168z M2271.85,710.523h61.872v61.921h-61.872V710.523z"
					/>
				<path fill="#A2DFFF" d="M2405.008,644.083h129.357V514.686h-129.357V644.083z M2438.744,548.437h61.885v61.896h-61.885V548.437z
					"/>
				<rect x="1737.428" y="514.686" fill="#A2DFFF" width="129.384" height="129.396"/>
				<path fill="#A2DFFF" d="M1904.336,644.083h129.346V514.686h-129.346V644.083z M1938.072,548.437h61.871v61.896h-61.87
					L1938.072,548.437L1938.072,548.437z"/>
				<path fill="#A2DFFF" d="M2071.23,644.083h129.358V514.686H2071.23V644.083z M2104.969,548.437h61.883v61.896h-61.883V548.437z"
					/>
				<path fill="#A2DFFF" d="M2238.113,644.083h129.358V514.686h-129.358V644.083z M2271.85,548.437h61.896v61.896h-61.896V548.437z"
					/>
			</g>
		</g>
		<path fill="#1977CC" d="M2604.396,542.656c-122.304-122.305-284.925-189.659-457.934-189.659
			c-172.958,0-335.577,67.314-457.827,189.618c-221.322,221.31-248.526,564.271-81.88,815.613l-385.574,385.602
			c-50.271,50.242-50.271,131.732,0,182.002c50.271,50.23,131.771,50.23,181.987,0l385.52-385.508
			c105.167,70.021,228.561,107.684,357.774,107.684c173.009,0,335.629-67.355,457.934-189.659
			C2856.787,1205.877,2856.787,795.126,2604.396,542.656z M2501.57,1355.522c-94.885,94.829-220.942,147.059-355.106,147.059
			c-134.058,0-260.062-52.147-354.892-146.91c-0.054-0.041-0.054-0.067-0.106-0.107c0-0.041-0.11-0.068-0.11-0.068
			c-195.644-195.807-195.589-514.312,0.11-710.051c94.829-94.83,220.888-147.019,354.999-147.019
			c134.165,0,260.223,52.217,355.105,147.06C2697.267,841.25,2697.267,1159.756,2501.57,1355.522z"/>
	</g>
</g>
</svg>
