<?xml version="1.0" encoding="utf-8"?>
<!-- Generator: Adobe Illustrator 16.0.0, SVG Export Plug-In . SVG Version: 6.00 Build 0)  -->
<!DOCTYPE svg PUBLIC "-//W3C//DTD SVG 1.1//EN" "http://www.w3.org/Graphics/SVG/1.1/DTD/svg11.dtd">
<svg version="1.1" id="Layer_1" xmlns="http://www.w3.org/2000/svg" xmlns:xlink="http://www.w3.org/1999/xlink" x="0px" y="0px"
	 width="6000px" height="3074.5px" viewBox="0 0 6000 3074.5" enable-background="new 0 0 6000 3074.5" xml:space="preserve">
<g>
	<g>
		<polygon fill="#6EBDFF" points="1456.752,2132.866 2695.305,2847.945 3297.478,2847.945 3643.466,2392.059 2638.122,1444.996 		
			"/>
		<path fill="#6EBDFF" d="M2647.312,1435.239c-4.32-4.071-10.807-4.814-15.935-1.827l-1181.369,687.873
			c-4.13,2.404-6.667,6.828-6.659,11.606c0.01,4.78,2.562,9.193,6.703,11.584l1238.551,715.079c2.039,1.176,4.351,1.793,6.703,1.793
			h602.174c4.19,0,8.144-1.961,10.675-5.3l345.987-455.888c4.145-5.457,3.5-13.159-1.484-17.857L2647.312,1435.239z
			 M3290.823,2834.541h-591.928l-1215.423-701.725l1152.743-671.203l989.287,931.938L3290.823,2834.541z"/>
	</g>
	<g>
		<path fill="#A2DFFF" d="M4189.062,2153.963h-124.103v29.13l-1321.146-762.76c-20.82-12.022-46.473-12.022-67.293,0
			l-731.726,432.834v-33.524h-124.102v138.286c-2.122,24.555,8.978,50.107,33.36,64.187l672.973,388.541l740.27,427.394
			c20.819,12.022,46.475,12.022,67.293,0l822.469-485.222c27.34-15.788,37.988-46.001,32.001-73.059L4189.062,2153.963
			L4189.062,2153.963z"/>
		<path fill="#1977CC" d="M4202.465,2153.965c0-7.4-6.002-13.402-13.401-13.402h-124.105c-7.4,0-13.402,6-13.402,13.402v5.913
			l-1301.035-751.15c-12.248-7.074-26.202-10.812-40.349-10.812c-14.146,0-28.1,3.738-40.471,10.884l-711.498,420.868v-10.021
			c0-7.401-6-13.403-13.402-13.403h-124.104c-7.401,0-13.402,6-13.402,13.403v137.73c-2.489,31.409,12.821,60.619,40.062,76.348
			l1413.241,815.937c12.25,7.072,26.207,10.811,40.35,10.811c14.146,0,28.098-3.737,40.458-10.873l822.358-485.164
			c30.195-17.433,45.615-51.865,38.705-86.062L4202.465,2153.965L4202.465,2153.965z M4150.246,2341.282l-822.356,485.159
			c-8.181,4.725-17.498,7.222-26.944,7.222c-9.447,0-18.765-2.497-26.945-7.222l-1413.242-815.938
			c-18.301-10.567-28.536-30.271-26.71-51.424c0.033-0.385,0.051-0.768,0.051-1.152v-124.883h97.296v20.121
			c0,4.812,2.582,9.257,6.763,11.644c4.18,2.384,9.321,2.341,13.465-0.105l731.604-432.763c8.179-4.725,17.5-7.22,26.944-7.22
			c9.447,0,18.763,2.496,26.946,7.222l1321.141,762.758c4.147,2.396,9.258,2.396,13.402,0c4.148-2.396,6.703-6.818,6.703-11.607
			v-15.725h97.297v112.4c0,0.974,0.107,1.942,0.316,2.896C4180.247,2301.98,4173.985,2327.578,4150.246,2341.282z"/>
	</g>
	<g>
		<path fill="#E0F4FC" d="M4157.06,2091.577l-1413.242-815.935c-20.82-12.021-46.475-12.021-67.293,0l-822.468,485.224
			c-44.862,25.901-44.862,90.656,0,116.558l672.974,388.542l740.269,427.396c20.82,12.021,46.476,12.021,67.295,0l822.468-485.225
			C4201.922,2182.232,4201.922,2117.479,4157.06,2091.577z"/>
		<path fill="#1977CC" d="M4163.763,2079.972l-1413.244-815.936c-12.25-7.072-26.202-10.812-40.348-10.812
			c-14.145,0-28.098,3.738-40.457,10.875l-822.357,485.161c-25.266,14.585-40.35,40.712-40.35,69.885
			c0,29.175,15.083,55.301,40.35,69.886l1413.242,815.936c12.248,7.072,26.205,10.812,40.349,10.812
			c14.143,0,28.097-3.739,40.458-10.876l822.359-485.162c25.264-14.585,40.347-40.711,40.347-69.884
			C4204.108,2120.684,4189.026,2094.557,4163.763,2079.972z M4150.249,2196.591l-822.359,485.16
			c-8.178,4.726-17.498,7.221-26.944,7.221c-9.445,0-18.765-2.496-26.944-7.221L1860.76,1865.814
			c-16.874-9.739-26.946-27.188-26.946-46.668c0-19.481,10.073-36.931,27.055-46.734l822.357-485.16
			c8.18-4.725,17.5-7.221,26.946-7.221c9.448,0,18.763,2.497,26.945,7.221l1413.245,815.936
			c16.871,9.739,26.943,27.188,26.943,46.67C4177.304,2169.339,4167.229,2186.787,4150.249,2196.591z"/>
	</g>
	<g>
		<path fill="#E0F4FC" d="M3774.728,2285.699l-25.209-14.555c-5.634-3.254-12.58-3.254-18.218,0l-269.717,155.724
			c-12.146,7.011-12.146,24.54,0,31.552l25.209,14.554c5.636,3.257,12.579,3.257,18.215,0l269.72-155.722
			C3786.872,2310.238,3786.872,2292.709,3774.728,2285.699z"/>
		<path fill="#1977CC" d="M3781.429,2274.091l-25.207-14.552c-4.801-2.771-10.268-4.237-15.811-4.237s-11.01,1.466-15.812,4.237
			l-269.717,155.722c-9.899,5.718-15.812,15.953-15.812,27.384c0,11.432,5.909,21.668,15.812,27.384l25.206,14.554
			c4.801,2.771,10.268,4.237,15.812,4.237c5.543,0,11.01-1.466,15.811-4.237l269.717-155.723
			c9.899-5.717,15.811-15.951,15.811-27.383C3797.238,2290.045,3791.328,2279.811,3781.429,2274.091z M3768.024,2305.646
			l-269.718,155.721c-1.464,0.841-3.354,0.84-4.813,0l-25.206-14.553c-2.097-1.211-2.408-3.133-2.408-4.172
			c0-1.038,0.313-2.957,2.408-4.168l269.718-155.726c0.73-0.419,1.561-0.644,2.406-0.644c0.844,0,1.676,0.225,2.406,0.647
			l25.209,14.553c2.096,1.209,2.407,3.132,2.407,4.168C3770.433,2302.514,3770.12,2304.434,3768.024,2305.646z"/>
	</g>
	<g>
		<path fill="#E0F4FC" d="M2719.504,1370.93l-14.744-8.514c-3.297-1.904-7.36-1.904-10.657,0l-157.77,91.089
			c-7.104,4.101-7.104,14.355,0,18.456l14.745,8.514c3.295,1.902,7.358,1.902,10.655,0l157.77-91.088
			C2726.608,1385.284,2726.608,1375.031,2719.504,1370.93z"/>
		<path fill="#1977CC" d="M2726.207,1359.322l-14.747-8.516c-7.305-4.214-16.751-4.216-24.059,0.001l-157.769,91.089
			c-7.532,4.35-12.03,12.139-12.03,20.836s4.498,16.485,12.03,20.836l14.745,8.513c3.652,2.106,7.812,3.224,12.03,3.224
			c4.216,0,8.375-1.115,12.028-3.225l157.772-91.087c7.53-4.352,12.027-12.14,12.027-20.837
			C2738.235,1371.46,2733.739,1363.67,2726.207,1359.322z M2556.407,1468.074l-9.251-5.341l152.273-87.917l9.25,5.343
			L2556.407,1468.074z"/>
	</g>
	<g>
		<path fill="#FFFFFF" d="M3853.918,2021.339l-489.167-282.42l-538.081-310.662c-15.136-8.737-33.78-8.737-48.916,0
			l-196.997,113.736c-0.001,0.001-0.002,0.001-0.007,0.003l-464.71,268.302c-32.609,18.826-32.609,65.895,0,84.722l489.167,282.42
			l538.083,310.662c15.134,8.736,33.779,8.736,48.914,0l197.003-113.738l464.711-268.303
			C3886.528,2087.234,3886.528,2040.167,3853.918,2021.339z"/>
		<path fill="#1977CC" d="M3860.62,2009.732l-1027.25-593.084c-9.459-5.463-20.234-8.349-31.158-8.349
			c-10.926,0-21.699,2.886-31.158,8.35l-661.713,382.038c-19.511,11.266-31.159,31.439-31.159,53.97
			c0,22.528,11.648,42.704,31.159,53.967l1027.248,593.082c9.461,5.463,20.233,8.351,31.159,8.351c10.923,0,21.7-2.888,31.159-8.351
			l661.71-382.039c19.511-11.265,31.158-31.438,31.158-53.967C3891.777,2041.172,3880.13,2020.996,3860.62,2009.732z
			 M3847.217,2094.456l-661.711,382.037c-5.39,3.113-11.53,4.76-17.755,4.76c-6.227,0-12.365-1.646-17.757-4.76l-1027.247-593.081
			c-11.119-6.418-17.756-17.914-17.756-30.753s6.638-24.332,17.756-30.754l661.709-382.039c5.393-3.112,11.533-4.757,17.757-4.757
			c6.226,0,12.363,1.644,17.754,4.755l1027.25,593.084c11.115,6.419,17.755,17.913,17.755,30.754
			C3864.972,2076.54,3858.333,2088.035,3847.217,2094.456z"/>
	</g>
	<g>
		<path fill="#E0F4FC" d="M2027.621,1741.921c-25.283,0-45.778,11.801-45.778,26.362c0,14.561,20.497,26.361,45.778,26.361
			c25.283,0,45.778-11.802,45.778-26.361C2073.399,1753.723,2052.904,1741.921,2027.621,1741.921z"/>
		<path fill="#1977CC" d="M2027.621,1728.517c-33.739,0-59.183,17.097-59.183,39.766c0,22.67,25.442,39.764,59.183,39.764
			c33.739,0,59.182-17.093,59.182-39.764C2086.803,1745.615,2061.36,1728.517,2027.621,1728.517z M2027.621,1781.241
			c-21.031,0-32.376-9.197-32.376-12.958c0-3.762,11.345-12.959,32.376-12.959c21.03,0,32.375,9.197,32.375,12.959
			C2059.996,1772.046,2048.652,1781.241,2027.621,1781.241z"/>
	</g>
	<path fill="#1977CC" d="M3297.478,2697.008c-7.399,0-13.401,6.001-13.401,13.404v137.531c0,7.4,6.001,13.402,13.401,13.402
		c7.401,0,13.402-6,13.402-13.402v-137.532C3310.881,2703.009,3304.88,2697.008,3297.478,2697.008z"/>
</g>
<path fill="#E0F4FC" d="M3112.062,1836.245c-36.588-21.071-84.947-32.672-136.172-32.672s-99.582,11.601-136.17,32.672
	c-38.918,22.411-60.348,53.015-60.348,86.179c0,33.165,21.432,63.771,60.348,86.182c36.588,21.07,84.947,32.676,136.17,32.676
	s99.584-11.604,136.172-32.676c38.914-22.409,60.349-53.017,60.349-86.182C3172.407,1889.26,3150.976,1858.654,3112.062,1836.245z
	 M2975.888,2014.473c-91.994,0-169.712-42.153-169.712-92.049c0-49.895,77.718-92.044,169.712-92.044
	c91.992,0,169.713,42.152,169.713,92.044C3145.601,1972.317,3067.88,2014.473,2975.888,2014.473z"/>
<g>
	<g>
		<polygon fill="#A2DFFF" points="2668.021,478.066 2668.021,832.639 2975.087,1009.923 3282.155,832.639 3282.155,478.066 
			2975.087,300.783 		"/>
		<path fill="#1977CC" d="M3287.926,468.07l-307.066-177.284c-3.572-2.06-7.972-2.06-11.542,0L2662.249,468.07
			c-3.57,2.062-5.771,5.873-5.771,9.996v354.572c0,4.125,2.202,7.935,5.771,9.995l307.066,177.287
			c1.784,1.031,3.778,1.548,5.771,1.548c1.995,0,3.985-0.516,5.771-1.548l307.066-177.287c3.571-2.06,5.771-5.871,5.771-9.995
			V478.066C3293.696,473.942,3291.497,470.134,3287.926,468.07z M3270.612,825.974l-295.525,170.623l-295.524-170.623V484.732
			l295.524-170.622l295.525,170.622V825.974L3270.612,825.974z"/>
	</g>
	<g>
		<polygon fill="#E0F4FC" points="2668.021,478.066 2975.087,655.354 3282.155,478.066 2975.087,300.783 		"/>
		<path fill="#1977CC" d="M3287.926,468.07l-307.066-177.281c-3.572-2.064-7.972-2.064-11.542,0L2662.249,468.07
			c-3.57,2.062-5.771,5.873-5.771,9.996c0,4.125,2.202,7.935,5.771,9.997l307.066,177.285c1.784,1.031,3.778,1.548,5.771,1.548
			c1.995,0,3.985-0.516,5.771-1.548l307.066-177.286c3.571-2.061,5.771-5.87,5.771-9.996
			C3293.696,473.942,3291.497,470.134,3287.926,468.07z M2975.087,642.024l-283.982-163.958l283.982-163.958l283.982,163.958
			L2975.087,642.024z"/>
	</g>
	<g>
		<polygon fill="#FFFFFF" points="2975.087,1009.923 3282.155,832.639 3282.155,478.066 2975.087,655.354 		"/>
		<path fill="#1977CC" d="M3287.926,468.072c-3.571-2.063-7.973-2.063-11.543,0l-307.065,177.286
			c-3.57,2.061-5.772,5.869-5.772,9.993v354.571c0,4.125,2.202,7.936,5.772,9.997c1.783,1.031,3.777,1.548,5.771,1.548
			c1.995,0,3.985-0.517,5.771-1.548l307.067-177.287c3.571-2.061,5.771-5.871,5.771-9.995V478.066
			C3293.696,473.942,3291.497,470.134,3287.926,468.072z M3270.612,825.974l-283.983,163.958V662.016l283.983-163.958V825.974
			L3270.612,825.974z"/>
	</g>
</g>
<g>
	<g>
		<circle fill="#1977CC" cx="2975.087" cy="1205.842" r="50.481"/>
		<circle fill="#1977CC" cx="2975.087" cy="1403.559" r="50.481"/>
		<circle fill="#1977CC" cx="2975.087" cy="1601.279" r="50.482"/>
	</g>
	<g>
		<circle fill="#1977CC" cx="2975.087" cy="1798.998" r="50.48"/>
	</g>
</g>
<path fill="#E0F4FC" d="M3194.099,1784.325c-58.633-33.766-136.125-52.358-218.213-52.358c-82.082,0-159.573,18.593-218.207,52.358
	c-62.361,35.91-96.705,84.954-96.705,138.098c0,53.147,34.347,102.189,96.705,138.103c58.633,33.766,136.125,52.36,218.207,52.36
	s159.58-18.594,218.213-52.36c62.36-35.908,96.703-84.955,96.703-138.103C3290.802,1869.279,3256.459,1820.234,3194.099,1784.325z
	 M2975.886,2069.927c-147.414,0-271.957-67.549-271.957-147.504c0-79.954,124.542-147.499,271.957-147.499
	c147.417,0,271.961,67.546,271.961,147.499C3247.847,2002.377,3123.302,2069.927,2975.886,2069.927z"/>
</svg>
