<?xml version="1.0" encoding="utf-8"?>
<!-- Generator: Adobe Illustrator 16.0.0, SVG Export Plug-In . SVG Version: 6.00 Build 0)  -->
<!DOCTYPE svg PUBLIC "-//W3C//DTD SVG 1.1//EN" "http://www.w3.org/Graphics/SVG/1.1/DTD/svg11.dtd">
<svg version="1.1" id="Layer_1" xmlns="http://www.w3.org/2000/svg" xmlns:xlink="http://www.w3.org/1999/xlink" x="0px" y="0px"
	 width="280px" height="260px" viewBox="0 0 280 260" enable-background="new 0 0 280 260" xml:space="preserve">
<polygon fill="#3C77B9" points="218.396,146.154 218.396,178.965 139.361,224.598 60.325,178.965 60.325,146.154 31.981,129.792 
	31.981,195.33 139.361,257.326 246.74,195.33 246.74,129.792 "/>
<polygon fill="#344A61" points="189.98,162.561 139.361,133.334 88.74,162.561 139.361,191.785 "/>
<polygon fill="#28394D" points="139.361,85.206 17.668,14.945 17.668,88.937 139.361,159.195 261.053,88.937 261.053,14.945 "/>
<polygon fill="#1F2938" points="139.361,85.206 3.515,6.774 3.515,48.209 139.361,126.64 275.207,48.208 275.207,6.774 "/>
<polygon fill="#1F2938" points="155.723,75.622 139.242,66.04 122.588,75.622 3.283,6.774 3.283,48.209 139.009,126.639 
	274.735,48.208 274.735,6.774 "/>
<polygon fill="#3C77B9" points="125.237,43.385 139.361,35.23 153.484,43.385 181.68,27.107 139.361,2.673 97.042,27.107 "/>
</svg>
