<?xml version="1.0" encoding="utf-8"?>
<!-- Generator: Adobe Illustrator 16.0.0, SVG Export Plug-In . SVG Version: 6.00 Build 0)  -->
<!DOCTYPE svg PUBLIC "-//W3C//DTD SVG 1.1//EN" "http://www.w3.org/Graphics/SVG/1.1/DTD/svg11.dtd">
<svg version="1.1" id="Layer_1" xmlns="http://www.w3.org/2000/svg" xmlns:xlink="http://www.w3.org/1999/xlink" x="0px" y="0px"
	 width="998.95px" height="271.09px" viewBox="0 0 998.95 271.09" enable-background="new 0 0 998.95 271.09" xml:space="preserve">
<g>
	<polygon fill="#3C77B9" points="231.356,152.329 231.356,186.415 149.25,233.819 67.143,186.415 67.143,152.329 37.698,135.329 
		37.698,203.415 149.25,267.819 260.802,203.415 260.802,135.329 	"/>
	<polygon fill="#344A61" points="201.837,169.372 149.25,139.011 96.662,169.372 149.25,199.733 	"/>
	<polygon fill="#28394D" points="149.25,89.011 22.829,16.021 22.829,92.887 149.25,165.877 275.671,92.887 275.671,16.021 	"/>
	<polygon fill="#1F2938" points="149.25,89.011 8.125,7.532 8.125,50.577 149.25,132.056 290.375,50.576 290.375,7.532 	"/>
	<polygon fill="#1F2938" points="166.248,79.055 149.126,69.101 131.826,79.055 7.885,7.532 7.885,50.577 148.885,132.055 
		289.885,50.575 289.885,7.532 	"/>
	<polygon fill="#3C77B9" points="134.577,45.565 149.25,37.094 163.923,45.565 193.213,28.655 149.25,3.271 105.286,28.655 	"/>
	<polygon fill="#1F2938" points="993.932,74.698 993.932,202.036 848.403,202.036 848.403,183.844 975.741,183.844 975.741,165.655 
		848.403,165.655 848.403,74.698 866.594,74.698 866.594,147.461 975.741,147.461 975.741,74.698 	"/>
	<path fill="#1F2938" d="M357.243,74.698v127.338h18.191v-36.381h127.338V74.698H357.243z M484.581,147.463H375.434V92.89h109.147
		V147.463z"/>
	<polygon fill="#1F2938" points="666.492,74.698 666.492,92.889 539.154,92.889 539.154,165.655 520.963,165.655 520.963,74.698 	
		"/>
	<path fill="#1F2938" d="M684.683,74.698v90.957h145.529v-18.191H702.875v-18.191h127.337V74.698H684.683z M812.021,111.081H702.874
		V92.89h109.146V111.081z"/>
</g>
</svg>
