<?xml version="1.0" encoding="utf-8"?>
<!-- Generator: Adobe Illustrator 16.0.0, SVG Export Plug-In . SVG Version: 6.00 Build 0)  -->
<!DOCTYPE svg PUBLIC "-//W3C//DTD SVG 1.1//EN" "http://www.w3.org/Graphics/SVG/1.1/DTD/svg11.dtd">
<svg version="1.1" id="Layer_1" xmlns="http://www.w3.org/2000/svg" xmlns:xlink="http://www.w3.org/1999/xlink" x="0px" y="0px"
	 width="30px" height="30px" viewBox="0 0 30 30" enable-background="new 0 0 30 30" xml:space="preserve">
<g>
	<path fill="#FFFFFF" d="M27.15,21.605c-0.664,1.472-0.982,2.129-1.838,3.43c-1.192,1.816-2.875,4.076-4.957,4.097
		c-1.854,0.017-2.328-1.206-4.842-1.19c-2.513,0.014-3.037,1.213-4.89,1.194c-2.083-0.019-3.677-2.061-4.871-3.876
		c-3.336-5.078-3.685-11.038-1.628-14.205c1.463-2.252,3.77-3.569,5.939-3.569c2.209,0,3.597,1.211,5.423,1.211
		c1.771,0,2.852-1.213,5.404-1.213c1.93,0,3.976,1.051,5.433,2.867C21.551,12.967,22.326,19.783,27.15,21.605L27.15,21.605z"/>
	<path fill="#FFFFFF" d="M18.955,5.454c0.928-1.19,1.633-2.871,1.377-4.59c-1.516,0.104-3.288,1.069-4.322,2.325
		c-0.94,1.142-1.715,2.833-1.413,4.478C16.25,7.718,17.963,6.73,18.955,5.454L18.955,5.454z"/>
</g>
</svg>
