<?xml version="1.0" encoding="utf-8"?>
<!-- Generator: Adobe Illustrator 16.0.0, SVG Export Plug-In . SVG Version: 6.00 Build 0)  -->
<!DOCTYPE svg PUBLIC "-//W3C//DTD SVG 1.1//EN" "http://www.w3.org/Graphics/SVG/1.1/DTD/svg11.dtd">
<svg version="1.1" id="Layer_1" xmlns="http://www.w3.org/2000/svg" xmlns:xlink="http://www.w3.org/1999/xlink" x="0px" y="0px"
	 width="60px" height="60px" viewBox="0 0 60 60" enable-background="new 0 0 60 60" xml:space="preserve">
<g>
	<g>
		<path fill="#1B2837" d="M48.032,10.246c0,0.198-0.132,0.348-0.366,0.348c-0.027,0-0.048,0-0.064-0.01
			c-0.256-0.047-0.303-0.357-0.35-0.714c-0.318-1.806-1.928-3.169-3.798-3.169H5.587c-2.133,0-3.882,1.74-3.882,3.874v32.122
			c0,1.787,1.241,3.328,2.933,3.752v0.724C2.56,46.73,1,44.868,1,42.697V10.575c0-2.52,2.059-4.579,4.587-4.579h37.867
			c2.341,0,4.315,1.795,4.55,4.108C48.023,10.143,48.032,10.189,48.032,10.246z"/>
	</g>
	<g>
		<path fill="#1B2837" d="M53.363,15.566c0,0.198-0.141,0.348-0.366,0.348c-0.329,0-0.386-0.451-0.414-0.723
			c-0.31-1.711-1.722-3-3.487-3.141c-0.132-0.018-0.234-0.018-0.32-0.018H10.909c-1.702,0-3.187,1.091-3.695,2.727
			c-0.112,0.385-0.178,0.771-0.178,1.147V48.02c0,0.094,0,0.196,0.02,0.28c0.065,0.884,0.441,1.692,0.996,2.313
			c0.499,0.562,1.156,0.968,1.908,1.154v0.717c-1.936-0.396-3.45-2.068-3.609-4.09c-0.02-0.096-0.02-0.246-0.02-0.377V15.905
			c0-0.452,0.075-0.903,0.207-1.363c0.602-1.918,2.36-3.215,4.372-3.215h37.865c0.133,0,0.273,0,0.404,0.029
			c2.182,0.169,3.93,1.87,4.155,4.071C53.354,15.463,53.363,15.511,53.363,15.566z"/>
	</g>
	<g>
		<g>
			<path fill="#1B2837" d="M54.188,58H16.33c-2.371,0-4.365-1.846-4.541-4.201c-0.028-0.091-0.028-0.238-0.028-0.357V21.316
				c0-0.488,0.07-0.933,0.215-1.36c0.582-1.915,2.332-3.208,4.353-3.208h37.856c0.129,0,0.273,0,0.43,0.036
				c2.299,0.177,4.14,2.171,4.14,4.532v32.124C58.756,55.954,56.707,58,54.188,58z M16.33,17.423c-1.721,0-3.212,1.101-3.71,2.74
				c-0.124,0.367-0.183,0.741-0.183,1.153v32.124c0,0.09,0,0.184,0.017,0.252c0.158,2.062,1.857,3.634,3.876,3.634h37.857
				c2.146,0,3.894-1.742,3.894-3.886V21.316c0-2.011-1.567-3.709-3.567-3.867c-0.13-0.026-0.225-0.026-0.326-0.026H16.33z"/>
		</g>
	</g>
	<path fill="#1B2837" d="M55.497,55.131H15.02c-0.186,0-0.337-0.15-0.337-0.338V24.19c0-0.187,0.151-0.337,0.337-0.337h40.477
		c0.187,0,0.338,0.151,0.338,0.337v30.603C55.835,54.979,55.684,55.131,55.497,55.131z M15.357,54.456H55.16V24.527H15.357V54.456z"
		/>
	<path fill="#1B2837" d="M53.438,23.052c-1.16,0-2.104-0.943-2.104-2.102c0-1.159,0.943-2.102,2.104-2.102
		c0.492,0,0.955,0.171,1.334,0.495c0.479,0.379,0.758,0.968,0.758,1.607c0,0.633-0.277,1.223-0.764,1.62
		C54.385,22.885,53.924,23.052,53.438,23.052z M53.438,19.523c-0.787,0-1.428,0.64-1.428,1.427c0,0.787,0.641,1.426,1.428,1.426
		c0.334,0,0.637-0.111,0.9-0.328c0.328-0.269,0.516-0.669,0.516-1.099c0-0.433-0.186-0.828-0.511-1.086
		C54.074,19.636,53.771,19.523,53.438,19.523z"/>
	<path fill="#1B2837" d="M48.449,23.052c-0.303,0-0.581-0.06-0.828-0.177c-0.768-0.317-1.273-1.076-1.273-1.925
		c0-0.26,0.051-0.508,0.152-0.758c0.191-0.527,0.609-0.96,1.139-1.176c0.252-0.109,0.535-0.168,0.812-0.168
		c0.858,0,1.646,0.542,1.954,1.35c0.093,0.228,0.139,0.476,0.139,0.752C50.542,22.108,49.604,23.052,48.449,23.052z M48.449,19.523
		c-0.186,0-0.375,0.04-0.551,0.115c-0.354,0.145-0.64,0.442-0.771,0.797c-0.071,0.179-0.106,0.343-0.106,0.515
		c0,0.566,0.353,1.091,0.873,1.308c0.172,0.081,0.353,0.119,0.555,0.119c0.781,0,1.418-0.64,1.418-1.426
		c0-0.188-0.029-0.352-0.092-0.503C49.562,19.892,49.029,19.523,48.449,19.523z"/>
	<path fill="#1B2837" d="M43.463,23.052c-1.158,0-2.102-0.943-2.102-2.102c0-0.26,0.049-0.508,0.152-0.758
		c0.293-0.8,1.078-1.344,1.948-1.344c0.876,0,1.665,0.544,1.964,1.354c0.092,0.224,0.139,0.471,0.139,0.748
		C45.564,22.108,44.621,23.052,43.463,23.052z M43.463,19.523c-0.589,0-1.119,0.367-1.32,0.913
		c-0.072,0.178-0.105,0.342-0.105,0.514c0,0.787,0.64,1.426,1.427,1.426s1.427-0.64,1.427-1.426c0-0.188-0.029-0.352-0.092-0.503
		C44.596,19.898,44.049,19.523,43.463,19.523z"/>
	<g>
		<path fill="#1B2837" d="M45.984,39.033v-4.504c0-0.188-0.149-0.348-0.348-0.348c-0.828,0-1.496-0.603-1.496-1.345
			c0-0.733,0.668-1.326,1.496-1.326c0.197,0,0.348-0.159,0.348-0.356v-2.162c0-0.188-0.133-0.338-0.312-0.356l-9.456-0.959h-0.076
			l-9.456,0.959c-0.18,0.019-0.32,0.169-0.32,0.356v2.162c0,0.197,0.16,0.356,0.357,0.356c0.818,0,1.495,0.593,1.495,1.326
			c0,0.742-0.677,1.345-1.495,1.345c-0.197,0-0.357,0.16-0.357,0.348v4.484c-0.009,0.244-0.207,6.082,9.615,12.606
			c0.058,0.047,0.133,0.065,0.199,0.065c0.064,0,0.131-0.02,0.195-0.065C46.201,45.098,46.003,39.259,45.984,39.033z M36.18,50.904
			c-9.26-6.223-9.109-11.797-9.109-11.871v-4.174c1.043-0.16,1.852-1.008,1.852-2.021c0-1.007-0.809-1.852-1.852-2.002v-1.533
			l9.109-0.922l9.1,0.922v1.533c-1.043,0.15-1.842,0.995-1.842,2.002c0,1.016,0.799,1.861,1.842,2.021l0.011,4.191
			C45.289,39.107,45.477,44.654,36.18,50.904z M45.984,39.033v-4.504c0-0.188-0.149-0.348-0.348-0.348
			c-0.828,0-1.496-0.603-1.496-1.345c0-0.733,0.668-1.326,1.496-1.326c0.197,0,0.348-0.159,0.348-0.356v-2.162
			c0-0.188-0.133-0.338-0.312-0.356l-9.456-0.959h-0.076l-9.456,0.959c-0.18,0.019-0.32,0.169-0.32,0.356v2.162
			c0,0.197,0.16,0.356,0.357,0.356c0.818,0,1.495,0.593,1.495,1.326c0,0.742-0.677,1.345-1.495,1.345
			c-0.197,0-0.357,0.16-0.357,0.348v4.484c-0.009,0.244-0.207,6.082,9.615,12.606c0.058,0.047,0.133,0.065,0.199,0.065
			c0.064,0,0.131-0.02,0.195-0.065C46.201,45.098,46.003,39.259,45.984,39.033z M36.18,50.904
			c-9.26-6.223-9.109-11.797-9.109-11.871v-4.174c1.043-0.16,1.852-1.008,1.852-2.021c0-1.007-0.809-1.852-1.852-2.002v-1.533
			l9.109-0.922l9.1,0.922v1.533c-1.043,0.15-1.842,0.995-1.842,2.002c0,1.016,0.799,1.861,1.842,2.021l0.011,4.191
			C45.289,39.107,45.477,44.654,36.18,50.904z M45.984,39.033v-4.504c0-0.188-0.149-0.348-0.348-0.348
			c-0.828,0-1.496-0.603-1.496-1.345c0-0.733,0.668-1.326,1.496-1.326c0.197,0,0.348-0.159,0.348-0.356v-2.162
			c0-0.188-0.133-0.338-0.312-0.356l-9.456-0.959h-0.076l-9.456,0.959c-0.18,0.019-0.32,0.169-0.32,0.356v2.162
			c0,0.197,0.16,0.356,0.357,0.356c0.818,0,1.495,0.593,1.495,1.326c0,0.742-0.677,1.345-1.495,1.345
			c-0.197,0-0.357,0.16-0.357,0.348v4.484c-0.009,0.244-0.207,6.082,9.615,12.606c0.058,0.047,0.133,0.065,0.199,0.065
			c0.064,0,0.131-0.02,0.195-0.065C46.201,45.098,46.003,39.259,45.984,39.033z M36.18,50.904
			c-9.26-6.223-9.109-11.797-9.109-11.871v-4.174c1.043-0.16,1.852-1.008,1.852-2.021c0-1.007-0.809-1.852-1.852-2.002v-1.533
			l9.109-0.922l9.1,0.922v1.533c-1.043,0.15-1.842,0.995-1.842,2.002c0,1.016,0.799,1.861,1.842,2.021l0.011,4.191
			C45.289,39.107,45.477,44.654,36.18,50.904z"/>
	</g>
	<path fill="#1B2837" d="M49.788,15.802c-0.034,0-0.069-0.005-0.104-0.016c-0.187-0.058-0.289-0.255-0.231-0.441
		c0.077-0.248,0.016-0.691-0.255-1.056c-0.186-0.254-0.534-0.555-1.135-0.555c-0.445,0-0.803,0.167-1.058,0.496
		c-0.286,0.368-0.366,0.858-0.298,1.132c0.049,0.189-0.064,0.38-0.254,0.428c-0.191,0.048-0.381-0.066-0.43-0.254
		c-0.137-0.539,0.033-1.238,0.425-1.739c0.272-0.351,0.772-0.768,1.614-0.768c0.697,0,1.301,0.298,1.701,0.84
		c0.373,0.506,0.518,1.182,0.361,1.684C50.078,15.705,49.939,15.802,49.788,15.802z"/>
	<path fill="#1B2837" d="M44.812,15.802c-0.035,0-0.069-0.005-0.104-0.016c-0.187-0.058-0.29-0.255-0.231-0.441
		c0.076-0.248,0.015-0.691-0.256-1.056c-0.187-0.254-0.533-0.555-1.134-0.555c-0.446,0-0.803,0.167-1.058,0.496
		c-0.286,0.368-0.367,0.858-0.297,1.132c0.047,0.189-0.067,0.38-0.256,0.428c-0.192,0.048-0.381-0.066-0.429-0.254
		c-0.137-0.539,0.033-1.238,0.423-1.739c0.272-0.351,0.774-0.768,1.615-0.768c0.697,0,1.303,0.298,1.701,0.84
		c0.373,0.506,0.52,1.182,0.361,1.684C45.104,15.705,44.964,15.802,44.812,15.802z"/>
	<path fill="#1B2837" d="M39.837,15.802c-0.035,0-0.069-0.005-0.104-0.016c-0.187-0.058-0.289-0.255-0.231-0.441
		c0.077-0.248,0.015-0.691-0.256-1.056c-0.187-0.254-0.534-0.555-1.134-0.555c-0.445,0-0.803,0.167-1.057,0.496
		c-0.287,0.368-0.369,0.858-0.299,1.132c0.049,0.189-0.064,0.38-0.254,0.428c-0.193,0.048-0.381-0.066-0.429-0.254
		c-0.138-0.539,0.032-1.238,0.423-1.739c0.271-0.351,0.773-0.768,1.613-0.768c0.699,0,1.303,0.298,1.703,0.84
		c0.373,0.506,0.518,1.182,0.36,1.684C40.127,15.705,39.986,15.802,39.837,15.802z"/>
	<path fill="#1B2837" d="M44.631,10.359c-0.035,0-0.068-0.005-0.104-0.015c-0.188-0.058-0.291-0.256-0.231-0.442
		c0.076-0.248,0.015-0.69-0.256-1.056c-0.187-0.253-0.535-0.555-1.136-0.555c-0.444,0-0.801,0.168-1.057,0.496
		c-0.287,0.368-0.367,0.859-0.298,1.132c0.048,0.189-0.065,0.381-0.255,0.429c-0.191,0.048-0.38-0.067-0.428-0.254
		c-0.137-0.539,0.031-1.238,0.423-1.739c0.272-0.351,0.774-0.769,1.614-0.769c0.697,0,1.303,0.299,1.701,0.841
		c0.373,0.505,0.519,1.181,0.361,1.683C44.921,10.263,44.781,10.359,44.631,10.359z"/>
	<path fill="#1B2837" d="M39.654,10.359c-0.034,0-0.068-0.005-0.104-0.015c-0.188-0.058-0.289-0.256-0.232-0.442
		c0.078-0.248,0.016-0.69-0.256-1.056c-0.187-0.253-0.533-0.555-1.133-0.555c-0.445,0-0.803,0.168-1.059,0.496
		c-0.285,0.368-0.366,0.859-0.297,1.132c0.048,0.189-0.066,0.381-0.254,0.429c-0.192,0.048-0.383-0.067-0.43-0.254
		c-0.138-0.539,0.033-1.238,0.424-1.739c0.271-0.351,0.773-0.769,1.615-0.769c0.696,0,1.301,0.299,1.7,0.841
		c0.372,0.505,0.519,1.181,0.361,1.683C39.945,10.263,39.807,10.359,39.654,10.359z"/>
	<path fill="#1B2837" d="M34.68,10.359c-0.035,0-0.07-0.005-0.104-0.015c-0.187-0.058-0.29-0.256-0.231-0.442
		c0.077-0.248,0.016-0.69-0.255-1.056c-0.187-0.253-0.534-0.555-1.135-0.555c-0.446,0-0.804,0.168-1.058,0.496
		c-0.287,0.368-0.367,0.859-0.299,1.132c0.049,0.189-0.064,0.381-0.254,0.429c-0.189,0.048-0.381-0.067-0.429-0.254
		c-0.136-0.539,0.034-1.238,0.424-1.739c0.272-0.351,0.772-0.769,1.614-0.769c0.697,0,1.302,0.299,1.701,0.841
		c0.373,0.505,0.518,1.181,0.361,1.683C34.969,10.263,34.83,10.359,34.68,10.359z"/>
	<path fill="#1B2837" d="M9.522,49.123c-0.194,0-0.353-0.158-0.353-0.354V19.2c0-0.194,0.158-0.353,0.353-0.353h1.097
		c0.195,0,0.352,0.158,0.352,0.353c0,0.195-0.157,0.353-0.352,0.353H9.875V48.77C9.875,48.965,9.717,49.123,9.522,49.123z"/>
	<path fill="#1B2837" d="M4.363,42.786c-0.195,0-0.354-0.157-0.354-0.353V12.865c0-0.195,0.158-0.353,0.354-0.353H5.46
		c0.194,0,0.353,0.158,0.353,0.353c0,0.194-0.158,0.353-0.353,0.353H4.715v29.216C4.715,42.629,4.557,42.786,4.363,42.786z"/>
</g>
</svg>
