<?xml version="1.0" encoding="utf-8"?>
<!-- Generator: Adobe Illustrator 16.0.0, SVG Export Plug-In . SVG Version: 6.00 Build 0)  -->
<!DOCTYPE svg PUBLIC "-//W3C//DTD SVG 1.1//EN" "http://www.w3.org/Graphics/SVG/1.1/DTD/svg11.dtd">
<svg version="1.1" id="Layer_1" xmlns="http://www.w3.org/2000/svg" xmlns:xlink="http://www.w3.org/1999/xlink" x="0px" y="0px"
	 width="152px" height="60px" viewBox="17 6 152 60" enable-background="new 17 6 152 60" xml:space="preserve">
<g>
	<polygon fill="#3678BC" stroke="#FFFFFF" stroke-width="0.8681" stroke-miterlimit="10" points="155.911,63.791 29.588,63.791 
		18,35.527 29.588,7.264 155.911,7.264 167.5,35.527 	"/>
	<g>
		<path fill="#FFFFFF" d="M62.888,15.997H52.617c-8.026,0-14.557,6.523-14.557,14.548v10.546c0,8.02,6.531,14.544,14.557,14.544
			h10.269c8.026,0,14.557-6.524,14.557-14.544V30.544C77.443,22.52,70.912,15.997,62.888,15.997z M75.868,41.091
			c0,7.161-5.819,12.969-12.981,12.969h-10.27c-7.164,0-12.981-5.808-12.981-12.969V30.544c0-7.164,5.817-12.973,12.981-12.973
			h10.269c7.163,0,12.981,5.809,12.981,12.973L75.868,41.091L75.868,41.091z"/>
		<polygon fill="#FFFFFF" points="74.295,35.028 74.295,36.605 58.54,36.605 58.54,52.484 56.965,52.484 56.965,36.605 
			41.209,36.605 41.209,35.028 56.965,35.028 56.965,19.149 58.54,19.149 58.54,35.028 		"/>
		<g>
			<path fill="#FFFFFF" d="M51.736,31.758c-0.204,0-0.404-0.075-0.558-0.229l-6.063-6.064c-0.308-0.308-0.308-0.807,0-1.116
				c0.307-0.308,0.806-0.308,1.113,0l6.065,6.066c0.305,0.306,0.305,0.805,0,1.114C52.138,31.684,51.938,31.758,51.736,31.758z"/>
			<path fill="#FFFFFF" d="M45.671,31.758c-0.204,0-0.405-0.075-0.558-0.229c-0.307-0.308-0.307-0.809,0-1.114l6.065-6.066
				c0.308-0.308,0.808-0.308,1.115,0c0.305,0.309,0.305,0.807,0,1.116l-6.066,6.064C46.073,31.684,45.871,31.758,45.671,31.758z"/>
		</g>
		<g>
			<path fill="#FFFFFF" d="M65.301,32.788c-0.144-0.144-0.232-0.342-0.232-0.559l0.002-8.577c0-0.436,0.352-0.788,0.788-0.788
				s0.789,0.35,0.789,0.788l-0.001,8.577c0,0.436-0.354,0.79-0.788,0.79C65.639,33.019,65.441,32.928,65.301,32.788z"/>
			<path fill="#FFFFFF" d="M61.011,28.495c-0.142-0.14-0.23-0.338-0.23-0.553c0-0.436,0.354-0.79,0.789-0.79h8.577
				c0.435,0,0.789,0.35,0.789,0.79c0,0.436-0.354,0.786-0.789,0.786h-8.577C61.349,28.727,61.154,28.641,61.011,28.495z"/>
		</g>
		<g>
			<path fill="#FFFFFF" d="M61.174,44.601c-0.144-0.143-0.229-0.343-0.229-0.556c0-0.438,0.35-0.789,0.786-0.789h8.579
				c0.436,0,0.789,0.352,0.789,0.789c0,0.433-0.353,0.788-0.789,0.788h-8.579C61.513,44.831,61.317,44.742,61.174,44.601z"/>
		</g>
		<g>
			<path fill="#FFFFFF" d="M44.8,42.168c-0.129-0.13-0.211-0.312-0.212-0.513c-0.002-0.397,0.32-0.721,0.717-0.717l7.875,0.05
				c0.399,0.002,0.724,0.329,0.728,0.727c0.002,0.399-0.321,0.721-0.72,0.719l-7.875-0.048C45.115,42.382,44.934,42.301,44.8,42.168
				z"/>
		</g>
		<g>
			<path fill="#FFFFFF" d="M44.827,46.204c-0.132-0.131-0.214-0.312-0.215-0.511c-0.002-0.399,0.319-0.723,0.717-0.719l7.875,0.05
				c0.401,0,0.726,0.327,0.727,0.725c0.004,0.401-0.319,0.723-0.718,0.719l-7.874-0.047C45.139,46.421,44.958,46.339,44.827,46.204z
				"/>
		</g>
	</g>
	<text transform="matrix(1 0 0 1 85.4878 31.4814)" fill="#FFFFFF" font-family="'Titillium-RegularUpright'" font-size="12.5739">PRICING </text>
	<text transform="matrix(1 0 0 1 85.4878 46.5684)" fill="#FFFFFF" font-family="'Titillium-RegularUpright'" font-size="12.5739">CALCULATOR</text>
</g>
</svg>
