<?xml version="1.0" encoding="utf-8"?>
<!-- Generator: Adobe Illustrator 16.0.0, SVG Export Plug-In . SVG Version: 6.00 Build 0)  -->
<!DOCTYPE svg PUBLIC "-//W3C//DTD SVG 1.1//EN" "http://www.w3.org/Graphics/SVG/1.1/DTD/svg11.dtd">
<svg version="1.1" id="Layer_1" xmlns="http://www.w3.org/2000/svg" xmlns:xlink="http://www.w3.org/1999/xlink" x="0px" y="0px"
	 width="60px" height="60px" viewBox="0 0 60 60" enable-background="new 0 0 60 60" xml:space="preserve">
<g>
	<path fill="#1B2837" d="M54.363,43.897v-5.414c0-0.161-0.131-0.291-0.291-0.291c-1.059,0-1.918-0.775-1.918-1.742
		c0-0.959,0.859-1.741,1.918-1.741c0.16,0,0.291-0.121,0.291-0.284v-2.622c0-0.146-0.115-0.268-0.262-0.284l-11.42-1.151
		l-11.373,1.151c-0.146,0.017-0.254,0.138-0.254,0.284v2.622c0,0.163,0.131,0.284,0.283,0.284c1.059,0,1.926,0.782,1.926,1.741
		c0,0.967-0.867,1.742-1.926,1.742c-0.152,0-0.283,0.13-0.283,0.291v5.399c-0.016,0.291-0.262,7.239,11.498,15.039
		c0.045,0.032,0.107,0.048,0.16,0.048s0.107-0.016,0.16-0.048C54.625,51.122,54.377,44.174,54.363,43.897z M42.713,58.333
		c-11.299-7.548-11.092-14.351-11.082-14.436v-5.146c1.24-0.131,2.207-1.112,2.207-2.302c0-1.181-0.967-2.163-2.207-2.301v-2.087
		l11.051-1.127l11.105,1.127v2.087c-1.242,0.138-2.207,1.12-2.207,2.301c0,1.189,0.965,2.171,2.207,2.302v5.161
		C53.787,43.982,54.033,50.762,42.713,58.333z"/>
	<path fill="#1B2837" d="M27.708,2.124v0.011c0.113,0,0.225,0,0.337,0.009C27.932,2.134,27.821,2.124,27.708,2.124z M27.708,52.358
		v0.01c0.113,0,0.225-0.01,0.337-0.019C27.932,52.358,27.821,52.358,27.708,52.358z"/>
	<path fill="#1B2837" d="M27.004,52.368v0.009c0.038,0,0.076,0,0.112-0.009H27.004z M27.36,1.411c-0.066,0-0.132,0-0.197,0.009
		c0.31,0,0.609,0.011,0.91,0.029C27.839,1.42,27.604,1.411,27.36,1.411z M27.164,53.072c0.065,0.009,0.131,0.009,0.197,0.009
		c0.244,0,0.479-0.009,0.713-0.037C27.773,53.062,27.473,53.072,27.164,53.072z"/>
	<path fill="#1B2837" d="M47.34,11.565c-0.133-0.188-0.271-0.376-0.432-0.554c-4.469-5.528-11.186-9.179-18.75-9.563
		c-0.028,0-0.056-0.009-0.084,0c-0.301-0.018-0.601-0.029-0.91-0.029c-0.104-0.009-0.217-0.009-0.329-0.009
		c-8.099,0-15.343,3.744-20.073,9.601c-0.16,0.178-0.301,0.366-0.432,0.554C2.979,15.919,1,21.353,1,27.247
		c0,5.987,2.054,11.505,5.49,15.896c0.141,0.188,0.29,0.377,0.44,0.554c4.74,5.734,11.909,9.385,19.904,9.385
		c0.112,0,0.226,0,0.329-0.009c0.31,0,0.609-0.01,0.91-0.028c0.028,0.01,0.056,0,0.084,0c1.671-0.085,3.303-0.329,4.879-0.723
		l-0.385-0.629c-0.262,0.076-0.535,0.131-0.805,0.188c0.225-0.122,0.449-0.264,0.674-0.395l-0.365-0.591
		c-1.277,0.825-2.647,1.333-4.063,1.454h-0.049c-0.112,0.009-0.224,0.019-0.337,0.019V38.471c0.676,0.009,1.333,0.027,1.99,0.064
		v-0.704c-0.648-0.036-1.314-0.056-1.99-0.064V27.594h13.824c0,0.413-0.01,0.826-0.029,1.229h0.705
		c0.018-0.402,0.027-0.816,0.027-1.229h9.723c-0.01,0.704-0.047,1.408-0.113,2.102l0.705,0.056c0.084-0.826,0.121-1.661,0.121-2.505
		C52.67,21.353,50.689,15.919,47.34,11.565z M27.004,2.124v14.274h-0.169c-4.364,0-8.436-0.525-11.843-1.426
		C17.356,7.474,21.843,2.349,27.004,2.124z M13.18,26.89c0.028-4.045,0.601-7.864,1.595-11.234
		c3.463,0.921,7.592,1.445,12.059,1.445h0.169v9.789H13.18z M27.004,27.594v10.163h-0.169c-4.42,0-8.511,0.516-11.956,1.417
		c-1.061-3.453-1.67-7.395-1.699-11.58H27.004z M23.372,2.359c-3.885,1.867-7.142,6.418-9.047,12.425
		c-2.975-0.835-5.405-1.98-7.039-3.313C11.209,6.619,16.896,3.25,23.372,2.359z M6.854,12.015c1.708,1.408,4.205,2.59,7.255,3.463
		c-1.023,3.435-1.605,7.311-1.633,11.412H1.712C1.788,21.306,3.693,16.153,6.854,12.015z M1.712,27.594h10.764
		c0.028,4.241,0.647,8.249,1.736,11.759c-2.994,0.845-5.462,1.989-7.179,3.341C3.758,38.517,1.788,33.28,1.712,27.594z
		 M7.465,43.247c1.643-1.295,4.044-2.393,6.963-3.21c1.924,5.846,5.124,10.257,8.944,12.097C17,51.261,11.388,47.977,7.465,43.247z
		 M27.004,52.377v-0.009c-5.086-0.226-9.506-5.198-11.909-12.51c3.388-0.881,7.423-1.396,11.74-1.396h0.169v13.906h0.112
		C27.08,52.377,27.042,52.377,27.004,52.377z M46.383,11.471c-1.455,1.192-3.537,2.224-6.09,3.031
		c-1.83-5.612-4.844-9.91-8.445-11.89C37.674,3.804,42.779,7.004,46.383,11.471z M27.708,2.124c0.113,0,0.225,0.011,0.337,0.02
		h0.049C33.02,2.593,37.299,7.53,39.645,14.7c-3.379,1.004-7.488,1.622-11.937,1.689V2.124z M27.708,26.89v-9.798
		c4.552-0.066,8.718-0.684,12.152-1.708c1.043,3.436,1.643,7.348,1.672,11.506H27.708z M42.234,26.89
		c-0.027-4.223-0.646-8.203-1.717-11.704c2.617-0.834,4.768-1.914,6.297-3.171c3.162,4.138,5.068,9.291,5.143,14.875H42.234z"/>
</g>
</svg>
