<?xml version="1.0" encoding="utf-8"?>
<!-- Generator: Adobe Illustrator 16.0.0, SVG Export Plug-In . SVG Version: 6.00 Build 0)  -->
<!DOCTYPE svg PUBLIC "-//W3C//DTD SVG 1.1//EN" "http://www.w3.org/Graphics/SVG/1.1/DTD/svg11.dtd">
<svg version="1.1" id="Layer_1" xmlns="http://www.w3.org/2000/svg" xmlns:xlink="http://www.w3.org/1999/xlink" x="0px" y="0px"
	 width="6000px" height="4500px" viewBox="0 0 6000 4500" enable-background="new 0 0 6000 4500" xml:space="preserve">
<path fill="#1977CC" d="M1822.979,2831.105h-646.646c-4.042,0-7.318-3.276-7.318-7.318c0-4.043,3.276-7.318,7.318-7.318h639.327
	V1249.485c0-87.319,71.039-158.358,158.358-158.358h148.146c87.319,0,158.359,71.039,158.359,158.358v220.932
	c0,79.249,64.475,143.722,143.723,143.722h438.374c79.249,0,143.724-64.474,143.724-143.722v-34.571
	c0-87.318,71.04-158.358,158.358-158.358h533.877c4.041,0,7.318,3.275,7.318,7.317s-3.277,7.318-7.318,7.318h-533.875
	c-79.25,0-143.725,64.474-143.725,143.723v34.571c0,87.319-71.04,158.359-158.358,158.359h-438.374
	c-87.319,0-158.358-71.04-158.358-158.359v-220.932c0-79.249-64.474-143.724-143.723-143.724h-148.146
	c-79.248,0-143.723,64.475-143.723,143.724v1574.302C1830.298,2827.829,1827.021,2831.105,1822.979,2831.105z"/>
<path fill="#1977CC" d="M3629.562,2542.547h-384.605c-4.043,0-7.318-3.275-7.318-7.318c0-4.042,3.275-7.317,7.318-7.317h384.605
	c79.25,0,143.725-64.474,143.725-143.724v-155.553c0-4.042,3.275-7.318,7.316-7.318c4.043,0,7.318,3.276,7.318,7.318v155.553
	C3787.922,2471.507,3716.883,2542.547,3629.562,2542.547z"/>
<path fill="#1977CC" d="M4619.037,1468.67v1378.414c-0.002,87.319-71.043,158.359-158.361,158.359H3353.164
	c-4.041,0-7.318-3.276-7.318-7.318s3.277-7.318,7.318-7.318h1107.512c79.248,0,143.723-64.474,143.723-143.723V1468.67"/>
<g>
	<g>
		<ellipse fill="#E0F4FC" cx="1243.136" cy="2284.84" rx="247.261" ry="142.391"/>
		<path fill="#1977CC" d="M1243.135,2434.548c-67.307,0-130.697-15.158-178.492-42.682c-49.064-28.255-76.087-66.266-76.087-107.027
			s27.021-78.771,76.087-107.027c47.795-27.523,111.186-42.682,178.492-42.682c67.308,0,130.697,15.158,178.492,42.682
			c49.064,28.255,76.087,66.266,76.087,107.027s-27.021,78.771-76.087,107.027
			C1373.833,2419.391,1310.443,2434.548,1243.135,2434.548z M1243.135,2149.767c-64.784,0-125.58,14.465-171.188,40.729
			c-44.338,25.533-68.756,59.038-68.756,94.344s24.418,68.811,68.756,94.344c45.607,26.265,106.403,40.729,171.188,40.729
			s125.58-14.465,171.188-40.729c44.337-25.533,68.755-59.038,68.755-94.344s-24.418-68.811-68.755-94.344
			C1368.716,2164.232,1307.92,2149.767,1243.135,2149.767z"/>
	</g>
	<g>
		<path fill="#FFFFFF" d="M1243.135,2427.23c136.56,0,247.261-63.75,247.261-142.391l0,0v775.451
			c0,78.641-110.702,142.391-247.261,142.391c-136.558,0-247.261-63.75-247.261-142.391l0,0v-775.449
			C995.877,2363.482,1106.579,2427.23,1243.135,2427.23z"/>
		<path fill="#1977CC" d="M1243.136,3210c-67.308,0-130.697-15.158-178.492-42.682c-49.064-28.257-76.087-66.267-76.087-107.027
			v-775.449l0,0l0,0c0-4.042,3.276-7.318,7.318-7.318s7.317,3.276,7.317,7.318c0.001,35.305,24.419,68.811,68.757,94.342
			c45.607,26.265,106.402,40.729,171.187,40.729s125.58-14.465,171.188-40.729c44.337-25.532,68.755-59.038,68.755-94.344
			c0-4.042,3.275-7.318,7.317-7.318s7.318,3.276,7.318,7.318l0,0c0,0.104,0,0.208,0,0.312v775.14
			c0,40.762-27.021,78.771-76.087,107.026C1373.833,3194.842,1310.444,3210,1243.136,3210z M1003.193,2335.411v724.88
			c0,35.306,24.418,68.812,68.757,94.344c45.607,26.266,106.402,40.729,171.188,40.729s125.58-14.464,171.188-40.729
			c44.337-25.531,68.755-59.038,68.755-94.344V2335.41c-12.727,21.118-33.518,40.37-61.451,56.457
			c-47.795,27.523-111.186,42.682-178.492,42.682s-130.696-15.156-178.49-42.681
			C1036.708,2375.779,1015.918,2356.531,1003.193,2335.411z"/>
	</g>
	<g>
		<g>
			<ellipse fill="#E0F4FC" cx="1243.136" cy="2921.929" rx="183.499" ry="105.672"/>
			<path fill="#1977CC" d="M1243.135,3034.919c-50.276,0-97.653-11.339-133.405-31.928c-37.021-21.32-57.412-50.108-57.412-81.062
				s20.39-59.743,57.412-81.062c35.751-20.589,83.129-31.929,133.405-31.929s97.654,11.34,133.405,31.929
				c37.021,21.319,57.412,50.108,57.412,81.062s-20.39,59.742-57.412,81.062C1340.79,3023.58,1293.412,3034.919,1243.135,3034.919z
				 M1243.135,2823.574c-47.752,0-92.536,10.645-126.101,29.975c-32.294,18.598-50.08,42.883-50.08,68.38
				c0,25.498,17.786,49.782,50.08,68.38c33.564,19.329,78.349,29.975,126.101,29.975s92.536-10.646,126.103-29.975
				c32.294-18.598,50.079-42.882,50.079-68.38c0-25.497-17.785-49.782-50.079-68.38
				C1335.672,2834.219,1290.888,2823.574,1243.135,2823.574z"/>
		</g>
		<g>
			<path fill="#A2DFFF" d="M1243.136,3027.601c101.343,0,183.499-47.312,183.499-105.672l0,0v113.562
				c0,58.361-82.155,105.672-183.499,105.672s-183.499-47.311-183.499-105.672l0,0v-113.562
				C1059.638,2980.291,1141.793,3027.601,1243.136,3027.601z"/>
			<path fill="#1977CC" d="M1243.136,3148.482c-50.276,0-97.654-11.34-133.405-31.928c-37.021-21.32-57.411-50.108-57.411-81.062
				V2921.93c0-4.042,3.275-7.318,7.317-7.318s7.318,3.276,7.318,7.318c0.001,25.497,17.787,49.781,50.081,68.379
				c33.564,19.329,78.348,29.975,126.1,29.975s92.536-10.646,126.102-29.976c32.295-18.597,50.08-42.881,50.08-68.379
				c0-4.042,3.276-7.317,7.318-7.317s7.318,3.275,7.318,7.317l0,0c0,0.089,0,0.175,0,0.265v113.299
				c0,30.954-20.39,59.742-57.412,81.062C1340.791,3137.143,1293.413,3148.482,1243.136,3148.482z M1066.956,2965.809v69.684
				c0,25.498,17.786,49.781,50.08,68.38c33.564,19.329,78.349,29.974,126.102,29.974s92.537-10.645,126.103-29.974
				c32.294-18.599,50.079-42.882,50.079-68.38v-69.684c-9.728,13.836-24.145,26.454-42.775,37.184
				c-35.752,20.589-83.129,31.928-133.405,31.928c-50.275,0-97.652-11.339-133.404-31.927
				C1091.1,2992.263,1076.683,2979.645,1066.956,2965.809z"/>
		</g>
	</g>
	<ellipse fill="#1977CC" cx="1243.136" cy="2284.84" rx="79.756" ry="45.93"/>
</g>
<g>
	<g>
		<ellipse fill="#E0F4FC" cx="4127.975" cy="2612.181" rx="169.074" ry="97.365"/>
		<path fill="#1977CC" d="M4127.973,2714.55c-46.023,0-89.369-10.365-122.051-29.186c-33.549-19.32-52.027-45.312-52.027-73.184
			s18.477-53.862,52.027-73.185c32.682-18.819,76.027-29.185,122.051-29.185c46.025,0,89.369,10.365,122.051,29.185
			c33.551,19.32,52.027,45.312,52.027,73.185s-18.477,53.862-52.027,73.184C4217.344,2704.186,4173.998,2714.55,4127.973,2714.55z
			 M4127.973,2519.819c-44.299,0-85.869,9.892-117.055,27.851c-30.318,17.459-47.016,40.37-47.016,64.512
			s16.697,47.052,47.016,64.511c31.186,17.96,72.756,27.851,117.055,27.851s85.871-9.891,117.057-27.851
			c30.318-17.459,47.014-40.369,47.014-64.511s-16.695-47.053-47.014-64.512C4213.844,2529.711,4172.273,2519.819,4127.973,2519.819
			z"/>
	</g>
	<g>
		<path fill="#FFFFFF" d="M4127.973,2709.546c93.379,0,169.074-43.591,169.074-97.364l0,0v530.244
			c0,53.773-75.695,97.365-169.074,97.365c-93.375,0-169.074-43.592-169.074-97.365l0,0v-530.243
			C3958.9,2665.956,4034.598,2709.546,4127.973,2709.546z"/>
		<path fill="#1977CC" d="M4127.975,3244.795c-46.025,0-89.369-10.365-122.051-29.185c-33.551-19.322-52.027-45.312-52.027-73.185
			v-530.243l0,0l0,0c0-2.764,2.24-5.004,5.004-5.004s5.004,2.24,5.004,5.004c0,24.141,16.697,47.052,47.014,64.51
			c31.186,17.96,72.758,27.85,117.057,27.85s85.869-9.891,117.057-27.851c30.316-17.458,47.014-40.369,47.014-64.511
			c0-2.764,2.24-5.004,5.004-5.004s5.004,2.24,5.004,5.004l0,0c0,0.071,0,0.143,0,0.213v530.032
			c0,27.872-18.477,53.861-52.027,73.183C4217.344,3234.43,4173.998,3244.795,4127.975,3244.795z M3963.904,2646.762v495.664
			c0,24.142,16.695,47.054,47.014,64.512c31.186,17.96,72.758,27.85,117.057,27.85s85.871-9.89,117.057-27.85
			c30.316-17.458,47.014-40.37,47.014-64.512v-495.665c-8.701,14.44-22.918,27.604-42.02,38.604
			c-32.682,18.82-76.027,29.186-122.051,29.186s-89.369-10.364-122.049-29.185
			C3986.82,2674.364,3972.605,2661.203,3963.904,2646.762z"/>
	</g>
	<g>
		<g>
			<ellipse fill="#E0F4FC" cx="4127.975" cy="3047.816" rx="125.475" ry="72.257"/>
			<path fill="#1977CC" d="M4127.973,3125.077c-34.377,0-66.773-7.754-91.221-21.832c-25.314-14.579-39.258-34.264-39.258-55.43
				s13.943-40.852,39.258-55.43c24.447-14.078,56.844-21.833,91.221-21.833c34.379,0,66.775,7.755,91.223,21.833
				c25.314,14.578,39.256,34.264,39.256,55.43s-13.941,40.851-39.256,55.43C4194.748,3117.323,4162.352,3125.077,4127.973,3125.077z
				 M4127.973,2980.562c-32.652,0-63.275,7.278-86.225,20.496c-22.084,12.717-34.244,29.323-34.244,46.758
				c0,17.436,12.16,34.04,34.244,46.757c22.949,13.218,53.572,20.497,86.225,20.497s63.275-7.279,86.229-20.497
				c22.082-12.717,34.244-29.321,34.244-46.757c0-17.435-12.162-34.041-34.244-46.758
				C4191.25,2987.84,4160.627,2980.562,4127.973,2980.562z"/>
		</g>
		<g>
			<path fill="#A2DFFF" d="M4127.975,3120.072c69.297,0,125.475-32.351,125.475-72.257l0,0v77.652
				c0,39.906-56.178,72.257-125.475,72.257c-69.299,0-125.475-32.351-125.475-72.257l0,0v-77.652
				C4002.5,3087.723,4058.678,3120.072,4127.975,3120.072z"/>
			<path fill="#1977CC" d="M4127.975,3202.73c-34.379,0-66.775-7.754-91.221-21.832c-25.316-14.578-39.258-34.264-39.258-55.43
				v-77.652c0-2.765,2.24-5.005,5.004-5.005s5.004,2.24,5.004,5.005c0,17.435,12.162,34.039,34.244,46.756
				c22.951,13.218,53.574,20.497,86.227,20.497s63.275-7.279,86.227-20.497c22.082-12.717,34.244-29.321,34.244-46.757
				c0-2.764,2.24-5.004,5.004-5.004s5.004,2.24,5.004,5.004l0,0c0,0.061,0,0.119,0,0.181v77.473
				c0,21.166-13.941,40.852-39.258,55.43C4194.748,3194.977,4162.352,3202.73,4127.975,3202.73z M4007.504,3077.82v47.648
				c0,17.436,12.162,34.04,34.244,46.758c22.951,13.217,53.574,20.495,86.227,20.495s63.275-7.278,86.229-20.495
				c22.082-12.718,34.242-29.322,34.242-46.758v-47.648c-6.65,9.461-16.51,18.089-29.248,25.426
				c-24.447,14.078-56.844,21.831-91.223,21.831c-34.377,0-66.773-7.753-91.219-21.831
				C4024.014,3095.909,4014.156,3087.281,4007.504,3077.82z"/>
		</g>
	</g>
	<ellipse fill="#1977CC" cx="4127.975" cy="2612.182" rx="54.535" ry="31.406"/>
</g>
<g>
	<g>
		<g>
			<path fill="#E0F4FC" d="M3467.844,1666.328c0-101.384,142.719-183.572,318.773-183.572c176.053,0,318.77,82.188,318.77,183.572
				c0,4.121-0.26,8.206-0.725,12.259h0.725l-0.914,1.722c-3.633,27.789-250.227,298.682-250.227,298.682v182.354h-135.264V1978.99
				c0,0-246.594-270.893-250.227-298.682l-0.914-1.722h0.725C3468.104,1674.534,3467.844,1670.449,3467.844,1666.328z"/>
			<path fill="#1977CC" d="M3854.246,2168.662h-135.262c-4.043,0-7.318-3.275-7.318-7.318v-179.524
				c-10.889-11.993-66.562-73.44-121.947-136.938c-116.748-133.843-126.574-155.169-127.996-162.215l-0.344-0.648
				c-0.979-1.845-1.113-3.998-0.416-5.922c-0.291-3.331-0.439-6.604-0.439-9.768c0-26.374,8.906-51.872,26.471-75.787
				c16.66-22.683,40.402-42.991,70.562-60.359c61.301-35.303,142.648-54.743,229.059-54.743s167.758,19.44,229.059,54.743
				c30.16,17.368,53.9,37.677,70.561,60.359c17.564,23.915,26.473,49.413,26.473,75.787c0,3.164-0.148,6.438-0.439,9.768
				c0.697,1.924,0.562,4.077-0.416,5.922l-0.344,0.648c-1.422,7.046-11.248,28.372-127.996,162.215
				c-55.387,63.497-111.061,124.944-121.947,136.938v179.524C3861.566,2165.385,3858.289,2168.662,3854.246,2168.662z
				 M3726.303,2154.025h120.625V1978.99c0-1.822,0.68-3.579,1.906-4.926c0.611-0.672,61.77-67.89,122.832-137.869
				c113.51-130.084,124.803-152.974,125.561-156.891c0.029-0.228,0.068-0.449,0.119-0.667c-0.002-0.293,0.014-0.589,0.047-0.884
				c0.449-3.926,0.678-7.77,0.678-11.427c0-46.307-31.855-90.152-89.701-123.463c-59.115-34.043-137.867-52.791-221.754-52.791
				c-83.885,0-162.639,18.748-221.754,52.791c-57.844,33.311-89.699,77.156-89.699,123.463c0,3.657,0.229,7.501,0.678,11.427
				c0.033,0.3,0.049,0.6,0.047,0.898c0.055,0.232,0.098,0.469,0.127,0.707c0.75,3.861,12.043,26.75,125.553,156.834
				c61.062,69.98,122.221,137.198,122.832,137.869c1.227,1.348,1.906,3.104,1.906,4.927v175.036H3726.303z"/>
		</g>
		<g>
			<ellipse fill="#FFFFFF" cx="3786.617" cy="1666.328" rx="318.771" ry="183.572"/>
			<path fill="#1977CC" d="M3786.617,1857.218c-86.41,0-167.758-19.44-229.059-54.743c-30.162-17.369-53.902-37.677-70.562-60.359
				c-17.564-23.915-26.471-49.413-26.471-75.787s8.906-51.872,26.471-75.787c16.66-22.683,40.4-42.991,70.562-60.36
				c61.301-35.302,142.648-54.743,229.059-54.743s167.756,19.441,229.057,54.743c30.162,17.369,53.902,37.678,70.562,60.36
				c17.564,23.915,26.471,49.413,26.471,75.787s-8.904,51.872-26.471,75.787c-16.66,22.683-40.4,42.99-70.562,60.359
				C3954.373,1837.777,3873.025,1857.218,3786.617,1857.218z M3786.617,1490.074c-83.887,0-162.641,18.749-221.754,52.791
				c-57.846,33.311-89.701,77.158-89.701,123.463s31.855,90.152,89.701,123.463c59.113,34.043,137.867,52.791,221.754,52.791
				c83.885,0,162.639-18.748,221.754-52.791c57.844-33.311,89.699-77.157,89.699-123.463c0-46.307-31.855-90.153-89.699-123.463
				C3949.256,1508.823,3870.502,1490.074,3786.617,1490.074z"/>
		</g>
		<path fill="#E0F4FC" d="M3786.617,1779.34c-50.287,0-97.674-11.341-133.434-31.933c-37.029-21.325-57.424-50.119-57.424-81.079
			s20.395-59.754,57.424-81.079c35.76-20.592,83.146-31.933,133.434-31.933c50.285,0,97.672,11.341,133.432,31.933
			c37.029,21.325,57.424,50.119,57.424,81.079s-20.395,59.754-57.424,81.079C3884.289,1768,3836.902,1779.34,3786.617,1779.34z
			 M3786.617,1567.952c-47.764,0-92.557,10.646-126.129,29.98c-32.303,18.603-50.092,42.893-50.092,68.396
			s17.789,49.793,50.092,68.395c33.572,19.333,78.365,29.981,126.129,29.981c47.762,0,92.555-10.647,126.127-29.981
			c32.303-18.602,50.092-42.891,50.092-68.395s-17.789-49.794-50.092-68.396C3879.172,1578.6,3834.379,1567.952,3786.617,1567.952z"
			/>
	</g>
	<g>
		<path fill="#E0F4FC" d="M3718.984,1998.964v233.407c0,37.354,30.281,54.104,67.633,54.104s67.631-16.75,67.631-54.104v-233.407"/>
		<path fill="#1977CC" d="M3786.617,2293.794c-46.23,0-74.949-23.536-74.949-61.423v-233.407c0-4.042,3.275-7.318,7.318-7.318
			c4.041,0,7.316,3.276,7.316,7.318v233.407c0,15.253,5.646,27.072,16.781,35.131c10.537,7.625,25.59,11.655,43.531,11.655
			s32.996-4.03,43.533-11.655c11.135-8.059,16.779-19.878,16.779-35.131v-233.407c0-4.042,3.277-7.318,7.318-7.318
			c4.043,0,7.318,3.276,7.318,7.318v233.407C3861.566,2270.258,3832.846,2293.794,3786.617,2293.794z"/>
	</g>
</g>
<g>
	<g>
		<g>
			<polygon fill="#A2DFFF" points="4805.586,2213.075 4616.166,2103.713 4426.744,2213.075 4426.744,2431.8 4616.166,2541.162 
				4805.586,2431.8 			"/>
			<path fill="#1977CC" d="M4616.166,2548.48c-1.266,0-2.527-0.327-3.66-0.98l-189.42-109.362c-2.266-1.308-3.66-3.724-3.66-6.338
				v-218.725c0-2.614,1.396-5.03,3.66-6.337l189.42-109.362c2.264-1.308,5.055-1.308,7.318,0l189.42,109.362
				c2.266,1.307,3.66,3.723,3.66,6.337V2431.8c0,2.614-1.396,5.03-3.66,6.338L4619.826,2547.5
				C4618.693,2548.153,4617.43,2548.48,4616.166,2548.48z M4434.062,2427.575l182.104,105.137l182.104-105.137v-210.274
				l-182.104-105.138l-182.104,105.138V2427.575z"/>
		</g>
		<g>
			<polygon fill="#E0F4FC" points="4805.586,2213.075 4616.166,2322.438 4426.744,2213.075 4616.166,2103.713 			"/>
			<path fill="#1977CC" d="M4616.166,2329.756c-1.266,0-2.527-0.326-3.66-0.979l-189.42-109.363c-2.266-1.307-3.66-3.723-3.66-6.337
				s1.396-5.03,3.66-6.337l189.42-109.362c2.264-1.308,5.055-1.308,7.318,0l189.42,109.362c2.266,1.307,3.66,3.723,3.66,6.337
				s-1.396,5.03-3.66,6.337l-189.42,109.363C4618.693,2329.429,4617.43,2329.756,4616.166,2329.756z M4441.381,2213.075
				l174.785,100.912l174.785-100.912l-174.785-100.912L4441.381,2213.075z"/>
		</g>
		<g>
			<polygon fill="#FFFFFF" points="4426.744,2213.075 4616.166,2322.438 4616.166,2541.162 4426.744,2431.8 			"/>
			<path fill="#1977CC" d="M4616.166,2548.48c-1.266,0-2.527-0.327-3.66-0.98l-189.42-109.362c-2.266-1.308-3.66-3.724-3.66-6.338
				v-218.725c0-2.614,1.396-5.03,3.66-6.337c2.264-1.309,5.053-1.309,7.316,0l189.422,109.361c2.264,1.309,3.658,3.725,3.658,6.338
				v218.726c0,2.614-1.395,5.03-3.658,6.338C4618.693,2548.153,4617.43,2548.48,4616.166,2548.48z M4434.062,2427.575
				l174.785,100.912v-201.825l-174.785-100.912V2427.575z"/>
		</g>
	</g>
	<g>
		<g>
			<polygon fill="#A2DFFF" points="4805.586,1876.046 4616.166,1766.684 4426.744,1876.046 4426.744,2094.771 4616.166,2204.133 
				4805.586,2094.771 			"/>
			<path fill="#1977CC" d="M4616.166,2211.451c-1.266,0-2.527-0.327-3.66-0.981l-189.42-109.362c-2.266-1.307-3.66-3.723-3.66-6.336
				v-218.726c0-2.614,1.396-5.03,3.66-6.337l189.42-109.362c2.264-1.308,5.055-1.308,7.318,0l189.42,109.362
				c2.266,1.307,3.66,3.723,3.66,6.337v218.726c0,2.613-1.396,5.029-3.66,6.336l-189.42,109.362
				C4618.693,2211.124,4617.43,2211.451,4616.166,2211.451z M4434.062,2090.546l182.104,105.137l182.104-105.137v-210.274
				l-182.104-105.137l-182.104,105.137V2090.546z"/>
		</g>
		<g>
			<polygon fill="#E0F4FC" points="4805.586,1876.046 4616.166,1985.409 4426.744,1876.046 4616.166,1766.684 			"/>
			<path fill="#1977CC" d="M4616.166,1992.727c-1.266,0-2.527-0.326-3.66-0.979l-189.42-109.362c-2.266-1.307-3.66-3.723-3.66-6.337
				s1.396-5.03,3.66-6.337l189.42-109.362c2.264-1.308,5.055-1.308,7.318,0l189.42,109.362c2.266,1.307,3.66,3.723,3.66,6.337
				s-1.396,5.03-3.66,6.337l-189.42,109.362C4618.693,1992.4,4617.43,1992.727,4616.166,1992.727z M4441.381,1876.046
				l174.785,100.912l174.785-100.912l-174.785-100.912L4441.381,1876.046z"/>
		</g>
		<g>
			<polygon fill="#FFFFFF" points="4426.744,1876.046 4616.166,1985.409 4616.166,2204.133 4426.744,2094.771 			"/>
			<path fill="#1977CC" d="M4616.166,2211.451c-1.266,0-2.527-0.327-3.66-0.981l-189.42-109.362c-2.266-1.307-3.66-3.723-3.66-6.336
				v-218.726c0-2.614,1.396-5.03,3.66-6.337c2.264-1.308,5.055-1.308,7.316,0l189.422,109.362c2.264,1.307,3.658,3.723,3.658,6.337
				v218.724c0,2.614-1.395,5.03-3.658,6.337C4618.693,2211.124,4617.43,2211.451,4616.166,2211.451z M4434.062,2090.546
				l174.785,100.912v-201.824l-174.785-100.912V2090.546z"/>
		</g>
	</g>
	<g>
		<g>
			<polygon fill="#A2DFFF" points="4805.586,1540.655 4616.166,1431.292 4426.744,1540.655 4426.744,1759.379 4616.166,1868.742 
				4805.586,1759.379 			"/>
			<path fill="#1977CC" d="M4616.166,1876.061c-1.266,0-2.527-0.327-3.66-0.98l-189.42-109.362c-2.266-1.307-3.66-3.723-3.66-6.337
				v-218.725c0-2.614,1.396-5.03,3.66-6.337l189.42-109.362c2.264-1.308,5.055-1.308,7.318,0l189.42,109.362
				c2.266,1.307,3.66,3.723,3.66,6.337v218.725c0,2.614-1.396,5.03-3.66,6.337l-189.42,109.362
				C4618.693,1875.733,4617.43,1876.061,4616.166,1876.061z M4434.062,1755.154l182.104,105.137l182.104-105.137V1544.88
				l-182.104-105.137l-182.104,105.137V1755.154z"/>
		</g>
		<g>
			<polygon fill="#E0F4FC" points="4805.586,1540.655 4616.166,1650.017 4426.744,1540.655 4616.166,1431.292 			"/>
			<path fill="#1977CC" d="M4616.166,1657.335c-1.266,0-2.527-0.327-3.66-0.979l-189.42-109.362c-2.266-1.308-3.66-3.724-3.66-6.337
				c0-2.614,1.396-5.03,3.66-6.338l189.42-109.361c2.264-1.309,5.055-1.309,7.318,0l189.42,109.361
				c2.266,1.308,3.66,3.724,3.66,6.338c0,2.613-1.396,5.029-3.66,6.337l-189.42,109.362
				C4618.693,1657.008,4617.43,1657.335,4616.166,1657.335z M4441.381,1540.655l174.785,100.912l174.785-100.912l-174.785-100.912
				L4441.381,1540.655z"/>
		</g>
		<g>
			<polygon fill="#FFFFFF" points="4426.744,1540.655 4616.166,1650.017 4616.166,1868.742 4426.744,1759.379 			"/>
			<path fill="#1977CC" d="M4616.166,1876.061c-1.266,0-2.527-0.327-3.66-0.98l-189.42-109.362c-2.266-1.307-3.66-3.723-3.66-6.337
				v-218.725c0-2.614,1.396-5.03,3.66-6.337c2.264-1.309,5.055-1.309,7.316,0l189.422,109.361c2.264,1.308,3.658,3.724,3.658,6.337
				v218.726c0,2.614-1.395,5.03-3.658,6.337C4618.693,1875.733,4617.43,1876.061,4616.166,1876.061z M4434.062,1755.154
				l174.785,100.912v-201.824l-174.785-100.912V1755.154z"/>
		</g>
	</g>
</g>
<g>
	<g>
		<circle fill="#1977CC" cx="3786.617" cy="1285.106" r="45.284"/>
		<circle fill="#1977CC" cx="3786.617" cy="1462.47" r="45.284"/>
		<circle fill="#1977CC" cx="3786.617" cy="1639.833" r="45.284"/>
	</g>
</g>
<g>
	<path fill="#1977CC" d="M1235.818,1504.092c4.042,0,7.318,3.276,7.318,7.318v634.808c0,4.041-3.276,7.318-7.318,7.318
		s-7.318-3.275-7.318-7.318v-634.808C1228.5,1507.369,1231.776,1504.092,1235.818,1504.092z"/>
	<g>
		<g>
			<circle fill="#1977CC" cx="1235.817" cy="1495.936" r="45.284"/>
			<circle fill="#1977CC" cx="1235.817" cy="1318.572" r="45.284"/>
			<circle fill="#1977CC" cx="1235.817" cy="1141.21" r="45.284"/>
		</g>
	</g>
</g>
<g>
	<g>
		<path fill="#E0F4FC" d="M3480.613,3327.551v-210.504v-781.131v-118.923c0-32.841-26.621-59.459-59.463-59.459H1803.82
			c-32.841,0-59.461,26.618-59.461,59.459v118.923v781.131v210.504H3480.613L3480.613,3327.551z"/>
		<path fill="#1977CC" d="M3421.15,2157.534c32.842,0,59.461,26.618,59.461,59.459v118.923v781.131v210.504H1744.359v-210.504
			v-781.131v-118.923c0-32.841,26.621-59.459,59.462-59.459H3421.15 M3421.15,2142.874H1803.82c-40.87,0-74.122,33.25-74.122,74.119
			v118.923v781.131v210.504c0,8.097,6.564,14.66,14.661,14.66h1736.254c8.096,0,14.658-6.563,14.658-14.66v-210.504v-781.131
			v-118.923C3495.271,2176.124,3462.021,2142.874,3421.15,2142.874L3421.15,2142.874z"/>
	</g>
	<g>
		<path fill="#A2DFFF" d="M3451.891,3343.084v-234.863v-752.016v-135.674c0-20.328-16.479-36.809-36.807-36.809H1809.887
			c-20.328,0-36.807,16.479-36.807,36.809v135.674v752.016v234.863H3451.891L3451.891,3343.084z"/>
		<path fill="#1977CC" d="M3415.084,2183.725c20.328,0,36.807,16.479,36.807,36.808v135.674v752.017v234.862H1773.079v-234.862
			v-752.017v-135.674c0-20.328,16.479-36.809,36.808-36.809L3415.084,2183.725 M3415.084,2169.062H1809.887
			c-28.379,0-51.468,23.088-51.468,51.469v135.674v752.016v234.863c0,8.098,6.563,14.66,14.66,14.66h1678.812
			c8.098,0,14.66-6.562,14.66-14.66v-234.863v-752.016v-135.674C3466.551,2192.15,3443.463,2169.062,3415.084,2169.062
			L3415.084,2169.062z"/>
	</g>
	<g>
		<path fill="#A2DFFF" d="M3537.133,3417.945H1687.835c-67.853,0-122.842-31.858-122.842-71.165v-19.229h2094.983v19.229
			C3659.979,3386.087,3604.986,3417.945,3537.133,3417.945z"/>
		<path fill="#1977CC" d="M3659.979,3327.551v19.229c0,39.307-54.992,71.165-122.846,71.165H1687.836
			c-67.853,0-122.843-31.858-122.843-71.165v-19.229H3659.979 M3659.979,3312.891H1564.993c-8.098,0-14.66,6.563-14.66,14.66v19.229
			c0,12.78,4.195,25.01,12.472,36.346c7.396,10.129,17.762,19.101,30.816,26.661c25.397,14.715,58.856,22.818,94.214,22.818
			h1849.296c35.357,0,68.816-8.104,94.217-22.817c13.055-7.562,23.424-16.533,30.816-26.662
			c8.275-11.336,12.473-23.563,12.473-36.346v-19.229C3674.639,3319.454,3668.076,3312.891,3659.979,3312.891L3659.979,3312.891z"/>
	</g>
	<g>
		<path fill="#6EBDFF" d="M1564.993,3346.78c0,11.009,4.314,21.433,12.017,30.735h2070.951c7.701-9.304,12.018-19.728,12.018-30.735
			v-19.229H1564.993V3346.78z"/>
		<path fill="#1977CC" d="M3659.979,3327.551v19.229c0,11.009-4.316,21.433-12.018,30.735H1577.01
			c-7.701-9.304-12.017-19.728-12.017-30.735v-19.229H3659.979 M3659.979,3312.891H1564.993c-8.098,0-14.66,6.563-14.66,14.66
			v19.229c0,14.064,5.318,27.926,15.383,40.084c2.785,3.364,6.925,5.312,11.293,5.312h2070.95c4.367,0,8.508-1.947,11.293-5.312
			c10.064-12.158,15.385-26.02,15.385-40.084v-19.229C3674.639,3319.454,3668.076,3312.891,3659.979,3312.891L3659.979,3312.891z"/>
	</g>
	<g>
		<rect x="2376.765" y="3327.551" fill="#A2DFFF" width="471.441" height="22.123"/>
		<path fill="#1977CC" d="M2848.206,3327.551v22.123h-471.441v-22.123H2848.206 M2848.206,3312.891h-471.441
			c-8.097,0-14.66,6.563-14.66,14.66v22.123c0,8.098,6.563,14.66,14.66,14.66h471.441c8.097,0,14.66-6.562,14.66-14.66v-22.123
			C2862.866,3319.454,2856.303,3312.891,2848.206,3312.891L2848.206,3312.891z"/>
	</g>
	<g>
		<g>
			<path fill="#FFFFFF" d="M3316.178,2266.281H1908.793c-19.068,0-34.525,15.455-34.525,34.522v902.109
				c0,19.068,15.457,34.522,34.525,34.522h1407.385c19.068,0,34.525-15.455,34.525-34.522v-902.108
				C3350.703,2281.736,3335.246,2266.281,3316.178,2266.281z"/>
			<path fill="#1977CC" d="M3316.178,3244.756H1908.793c-23.072,0-41.843-18.771-41.843-41.842v-902.109
				c0-23.07,18.771-41.842,41.843-41.842h1407.385c23.072,0,41.844,18.771,41.844,41.842v902.109
				C3358.021,3225.985,3339.25,3244.756,3316.178,3244.756z M1908.793,2273.6c-15.002,0-27.207,12.205-27.207,27.205v902.109
				c0,15.001,12.205,27.205,27.207,27.205h1407.385c15.002,0,27.207-12.204,27.207-27.205v-902.109
				c0-15-12.205-27.205-27.207-27.205H1908.793z"/>
		</g>
		<g>
			<path fill="#FFFFFF" d="M3316.178,2266.281H1908.793c-19.068,0-34.525,15.455-34.525,34.522v902.109
				c0,19.068,15.457,34.522,34.525,34.522h1407.385c19.068,0,34.525-15.455,34.525-34.522v-902.108
				C3350.703,2281.736,3335.246,2266.281,3316.178,2266.281z"/>
			<path fill="#1977CC" d="M3316.178,3244.756H1908.793c-23.072,0-41.843-18.771-41.843-41.842v-902.109
				c0-23.07,18.771-41.842,41.843-41.842h1407.385c23.072,0,41.844,18.771,41.844,41.842v902.109
				C3358.021,3225.985,3339.25,3244.756,3316.178,3244.756z M1908.793,2273.6c-15.002,0-27.207,12.205-27.207,27.205v902.109
				c0,15.001,12.205,27.205,27.207,27.205h1407.385c15.002,0,27.207-12.204,27.207-27.205v-902.109
				c0-15-12.205-27.205-27.207-27.205H1908.793z"/>
		</g>
	</g>
	<g>
		<g>
			<g>
				<g>
					<rect x="2300.249" y="2723.752" fill="#96CCC8" width="179.634" height="23.33"/>
					<rect x="2417.7" y="2770.411" fill="#96CCC8" width="297.088" height="23.327"/>
					<rect x="2507.52" y="2723.752" fill="#0FAEB2" width="138.181" height="23.33"/>
					<rect x="2300.249" y="2770.411" fill="#0FAEB2" width="89.816" height="23.327"/>
					<rect x="2334.794" y="2817.068" fill="#96CCC8" width="55.271" height="23.329"/>
					<rect x="2535.155" y="2817.068" fill="#96CCC8" width="214.178" height="23.329"/>
					<rect x="2417.7" y="2817.068" fill="#0FAEB2" width="89.819" height="23.329"/>
					<rect x="2673.336" y="2723.752" fill="#96CCC8" width="89.817" height="23.33"/>
					<rect x="2866.784" y="2723.752" fill="#96CCC8" width="89.82" height="23.33"/>
					<rect x="2790.789" y="2723.752" fill="#96CCC8" width="48.362" height="23.33"/>
					<rect x="2742.425" y="2770.411" fill="#96CCC8" width="214.181" height="23.327"/>
				</g>
				<g>
					<polygon fill="#568389" points="2231.479,2577.423 2028.593,2766.546 2231.479,2955.671 2266.663,2922.874 2098.958,2766.546 
						2266.663,2610.219 					"/>
					<polygon fill="#568389" points="2988.097,2610.219 3155.801,2766.546 2988.097,2922.874 3023.278,2955.671 3226.168,2766.546 
						3023.278,2577.423 					"/>
				</g>
			</g>
		</g>
	</g>
</g>
<g>
	<g>
		<polygon fill="#A2DFFF" points="1428.979,1716.733 1235.817,1605.212 1042.657,1716.733 1042.657,1939.775 1235.817,2051.296 
			1428.979,1939.775 		"/>
		<path fill="#1977CC" d="M1235.817,2058.614c-1.264,0-2.526-0.327-3.658-0.98l-193.16-111.521
			c-2.265-1.308-3.659-3.724-3.659-6.337v-223.042c0-2.615,1.395-5.03,3.659-6.338l193.16-111.521c2.265-1.308,5.054-1.308,7.317,0
			l193.161,111.521c2.264,1.309,3.659,3.724,3.659,6.339v223.042c0,2.614-1.396,5.029-3.659,6.337l-193.161,111.521
			C1238.345,2058.288,1237.082,2058.614,1235.817,2058.614z M1049.976,1935.55l185.842,107.296l185.844-107.296v-214.592
			l-185.844-107.296l-185.842,107.296V1935.55z"/>
	</g>
	<g>
		<polygon fill="#FFFFFF" points="1428.979,1716.733 1235.817,1828.254 1042.657,1716.733 1235.817,1605.212 		"/>
		<path fill="#1977CC" d="M1235.817,1835.572c-1.264,0-2.526-0.327-3.658-0.98l-193.16-111.521
			c-2.265-1.308-3.659-3.724-3.659-6.337c0-2.614,1.395-5.03,3.659-6.338l193.16-111.521c2.265-1.308,5.054-1.308,7.317,0
			l193.161,111.521c2.264,1.308,3.659,3.724,3.659,6.338s-1.396,5.029-3.659,6.337l-193.161,111.521
			C1238.345,1835.245,1237.081,1835.572,1235.817,1835.572z M1057.294,1716.733l178.523,103.07l178.524-103.07l-178.524-103.071
			L1057.294,1716.733z"/>
	</g>
	<g>
		<polygon fill="#E0F4FC" points="1042.657,1716.733 1235.817,1828.254 1235.817,2051.296 1042.657,1939.775 		"/>
		<path fill="#1977CC" d="M1235.817,2058.614c-1.264,0-2.526-0.327-3.658-0.98l-193.16-111.521
			c-2.265-1.308-3.659-3.724-3.659-6.337v-223.042c0-2.614,1.395-5.03,3.659-6.338s5.054-1.308,7.317,0l193.16,111.521
			c2.265,1.307,3.659,3.723,3.659,6.337v223.042c0,2.614-1.395,5.03-3.659,6.337
			C1238.345,2058.288,1237.082,2058.614,1235.817,2058.614z M1049.976,1935.55l178.524,103.071v-206.142l-178.524-103.071V1935.55z"
			/>
	</g>
</g>
<path fill="#1977CC" d="M4135.291,2634.85c-4.041,0-7.318-3.275-7.318-7.317v-458.265c0-87.318,71.039-158.358,158.359-158.358
	h209.658c4.041,0,7.316,3.276,7.316,7.318s-3.275,7.317-7.316,7.317h-209.658c-79.25,0-143.723,64.475-143.723,143.724v458.264
	C4142.611,2631.573,4139.334,2634.85,4135.291,2634.85z"/>
<circle fill="#E0F4FC" cx="2687.597" cy="1616.816" r="137.915"/>
<g>
	<path fill="#1977CC" d="M2875.903,1395.564h-454.609c-25.354,0-45.906,20.557-45.906,45.905v370.95
		c0,25.354,20.553,45.902,45.906,45.902h454.607c25.354,0,45.904-20.549,45.904-45.902v-370.95
		C2921.807,1416.121,2901.255,1395.564,2875.903,1395.564z"/>
	<path fill="#6EBDFF" d="M2875.903,1340.074h-454.609c-25.354,0-45.906,20.553-45.906,45.904v88.451
		c0,25.353,20.553,45.905,45.906,45.905h454.607c25.354,0,45.904-20.553,45.904-45.905v-88.451
		C2921.807,1360.626,2901.255,1340.074,2875.903,1340.074z"/>
	<g>
		<path fill="#FFFFFF" d="M2648.597,1576.666c-32.845,0-59.473,26.628-59.473,59.473c0,32.843,26.628,59.471,59.473,59.471
			s59.472-26.627,59.472-59.471C2708.069,1603.294,2681.442,1576.666,2648.597,1576.666z"/>
		<path fill="#FFFFFF" d="M2648.597,1619.113c-14.491,0-26.239,11.747-26.239,26.238v131.187c0,14.49,11.749,26.237,26.239,26.237
			c14.489,0,26.239-11.747,26.239-26.237v-131.187C2674.837,1630.86,2663.087,1619.113,2648.597,1619.113z"/>
	</g>
	<g>
		<ellipse fill="#576F71" cx="2479.688" cy="1429.042" rx="52.347" ry="24.844"/>
		<path fill="#576F71" d="M2817.506,1404.198c-28.906,0-52.347,11.12-52.347,24.839c0,13.723,23.439,24.849,52.347,24.849
			c28.913,0,52.346-11.125,52.346-24.849C2869.852,1415.318,2846.419,1404.198,2817.506,1404.198z"/>
	</g>
	<path fill="#A2DFFF" d="M2648.599,1113.626c-55.277,0-107.245,21.527-146.33,60.615c-39.087,39.082-60.615,91.052-60.615,146.323
		v99.575c0,20.284,16.445,25.009,36.723,25.009c20.286,0,36.725-4.725,36.725-25.009v-99.575
		c0-73.604,59.887-133.493,133.497-133.493c73.608,0,133.493,59.889,133.493,133.493v99.575c0,20.284,16.443,25.009,36.723,25.009
		c20.28,0,36.725-4.725,36.725-25.009v-99.575c0-55.271-21.525-107.239-60.61-146.323
		C2755.84,1135.153,2703.872,1113.626,2648.599,1113.626z"/>
</g>
</svg>
