<?xml version="1.0" encoding="utf-8"?>
<!-- Generator: Adobe Illustrator 16.0.0, SVG Export Plug-In . SVG Version: 6.00 Build 0)  -->
<!DOCTYPE svg PUBLIC "-//W3C//DTD SVG 1.1//EN" "http://www.w3.org/Graphics/SVG/1.1/DTD/svg11.dtd">
<svg version="1.1" id="Layer_1" xmlns="http://www.w3.org/2000/svg" xmlns:xlink="http://www.w3.org/1999/xlink" x="0px" y="0px"
	 width="6000px" height="4500px" viewBox="0 0 6000 4500" enable-background="new 0 0 6000 4500" xml:space="preserve">
<g>
	<g>
		<polygon fill="#6EBDFF" points="1149.83,2623.631 2661.148,3496.191 3395.938,3496.191 3818.121,2939.904 2591.372,1784.271 		"/>
		<path fill="#6EBDFF" d="M2602.585,1772.366c-5.272-4.968-13.187-5.875-19.444-2.229L1141.6,2609.499
			c-5.039,2.935-8.136,8.332-8.125,14.163c0.012,5.833,3.126,11.219,8.178,14.135l1511.317,872.56
			c2.488,1.436,5.307,2.189,8.178,2.189h734.79c5.114,0,9.937-2.394,13.025-6.468l422.185-556.286
			c5.056-6.659,4.271-16.058-1.812-21.791L2602.585,1772.366z M3387.816,3479.835H2665.53l-1483.095-856.263l1406.611-819.023
			l1207.157,1137.178L3387.816,3479.835z"/>
	</g>
	<g>
		<path fill="#A2DFFF" d="M4483.872,2649.374h-151.433v35.545l-1612.098-930.741c-25.406-14.67-56.708-14.67-82.114,0
			l-892.872,528.156v-40.907h-151.433v168.74c-2.589,29.963,10.954,61.144,40.708,78.321l821.182,474.109l903.297,521.519
			c25.405,14.67,56.709,14.67,82.113,0l1003.6-592.082c33.362-19.265,46.355-56.132,39.049-89.147L4483.872,2649.374
			L4483.872,2649.374z"/>
		<path fill="#1977CC" d="M4500.229,2649.376c0-9.031-7.324-16.354-16.355-16.354h-151.436c-9.031,0-16.354,7.322-16.354,16.354
			v7.216l-1587.562-916.576c-14.945-8.632-31.973-13.194-49.234-13.194s-34.288,4.562-49.384,13.281l-868.19,513.556v-12.23
			c0-9.031-7.322-16.354-16.354-16.354h-151.434c-9.032,0-16.354,7.322-16.354,16.354v168.064
			c-3.037,38.326,15.646,73.97,48.886,93.16l1724.479,995.63c14.948,8.63,31.977,13.192,49.235,13.192
			c17.261,0,34.285-4.562,49.368-13.27l1003.465-592.01c36.846-21.271,55.661-63.288,47.229-105.017L4500.229,2649.376
			L4500.229,2649.376z M4436.51,2877.946l-1003.464,592.006c-9.981,5.765-21.353,8.811-32.879,8.811
			c-11.528,0-22.897-3.046-32.88-8.811l-1724.479-995.63c-22.332-12.895-34.82-36.937-32.592-62.748
			c0.04-0.47,0.062-0.938,0.062-1.407v-152.385H1729v24.552c0,5.874,3.15,11.296,8.253,14.208c5.101,2.908,11.373,2.856,16.431-0.13
			l892.722-528.07c9.981-5.764,21.354-8.809,32.879-8.809c11.528,0,22.896,3.046,32.88,8.811l1612.094,930.739
			c5.061,2.923,11.296,2.923,16.355,0c5.062-2.922,8.178-8.319,8.178-14.163v-19.188h118.725v137.155
			c0,1.188,0.131,2.371,0.387,3.534C4473.118,2829.989,4465.477,2861.225,4436.51,2877.946z"/>
	</g>
	<g>
		<path fill="#E0F4FC" d="M4444.823,2573.249l-1724.479-995.627c-25.406-14.668-56.709-14.668-82.114,0l-1003.597,592.085
			c-54.743,31.605-54.743,110.621,0,142.227l821.181,474.11l903.296,521.519c25.406,14.67,56.71,14.67,82.115,0l1003.6-592.084
			C4499.566,2683.871,4499.566,2604.855,4444.823,2573.249z"/>
		<path fill="#1977CC" d="M4453.002,2559.088l-1724.48-995.629c-14.95-8.63-31.974-13.192-49.234-13.192
			c-17.26,0-34.286,4.562-49.367,13.27l-1003.465,592.009c-30.829,17.798-49.234,49.677-49.234,85.275
			c0,35.6,18.405,67.479,49.234,85.276l1724.479,995.628c14.947,8.63,31.976,13.193,49.234,13.193s34.285-4.562,49.368-13.271
			l1003.467-592.009c30.828-17.797,49.233-49.677,49.233-85.275C4502.234,2608.765,4483.83,2576.885,4453.002,2559.088z
			 M4436.514,2701.39l-1003.468,592.007c-9.979,5.764-21.351,8.811-32.879,8.811c-11.526,0-22.896-3.047-32.879-8.811
			L1642.81,2297.768c-20.589-11.885-32.88-33.175-32.88-56.948c0-23.771,12.292-45.062,33.012-57.026l1003.466-592.006
			c9.981-5.764,21.354-8.811,32.88-8.811c11.528,0,22.896,3.047,32.879,8.811l1724.482,995.628
			c20.588,11.885,32.879,33.175,32.879,56.948C4469.525,2668.137,4457.234,2689.427,4436.514,2701.39z"/>
	</g>
	<g>
		<path fill="#E0F4FC" d="M3978.291,2810.123l-30.761-17.759c-6.874-3.972-15.351-3.972-22.229,0l-329.118,190.017
			c-14.818,8.555-14.818,29.944,0,38.501l30.761,17.759c6.877,3.972,15.35,3.972,22.227,0l329.12-190.017
			C3993.11,2840.066,3993.11,2818.677,3978.291,2810.123z"/>
		<path fill="#1977CC" d="M3986.468,2795.958l-30.759-17.757c-5.857-3.383-12.528-5.17-19.292-5.17s-13.435,1.788-19.293,5.17
			l-329.116,190.017c-12.08,6.975-19.292,19.466-19.292,33.413c0,13.949,7.211,26.44,19.292,33.414l30.758,17.76
			c5.857,3.382,12.527,5.17,19.293,5.17c6.763,0,13.435-1.789,19.293-5.17l329.116-190.018c12.08-6.975,19.292-19.465,19.292-33.414
			C4005.76,2815.426,3998.548,2802.936,3986.468,2795.958z M3970.113,2834.463l-329.118,190.015c-1.786,1.026-4.093,1.025-5.875,0
			l-30.757-17.758c-2.557-1.478-2.938-3.821-2.938-5.089c0-1.267,0.383-3.609,2.938-5.087l329.117-190.019
			c0.892-0.512,1.905-0.785,2.937-0.785c1.029,0,2.045,0.273,2.937,0.789l30.761,17.758c2.556,1.476,2.938,3.82,2.938,5.087
			C3973.051,2830.641,3972.669,2832.982,3970.113,2834.463z"/>
	</g>
	<g>
		<path fill="#E0F4FC" d="M2690.677,1693.894l-17.991-10.388c-4.023-2.324-8.981-2.324-13.004,0l-192.516,111.149
			c-8.667,5.004-8.667,17.517,0,22.521l17.992,10.388c4.022,2.322,8.979,2.322,13.002,0l192.516-111.148
			C2699.346,1711.41,2699.346,1698.898,2690.677,1693.894z"/>
		<path fill="#1977CC" d="M2698.855,1679.73l-17.994-10.389c-8.913-5.143-20.44-5.145-29.355,0.001l-192.515,111.149
			c-9.19,5.307-14.679,14.812-14.679,25.424c0,10.613,5.488,20.117,14.679,25.425l17.992,10.388
			c4.456,2.571,9.532,3.933,14.679,3.933c5.145,0,10.22-1.36,14.678-3.935l192.519-111.148c9.189-5.308,14.676-14.812,14.676-25.426
			C2713.533,1694.542,2708.047,1685.036,2698.855,1679.73z M2491.661,1812.433l-11.288-6.517l185.81-107.279l11.287,6.52
			L2491.661,1812.433z"/>
	</g>
	<g>
		<path fill="#FFFFFF" d="M4074.921,2487.543l-596.896-344.617l-656.582-379.079c-18.468-10.661-41.219-10.661-59.688,0
			l-240.381,138.784c-0.002,0.001-0.003,0.001-0.008,0.004l-567.053,327.389c-39.791,22.973-39.791,80.406,0,103.381
			l596.895,344.617l656.584,379.077c18.468,10.662,41.219,10.662,59.687,0l240.388-138.786l567.054-327.389
			C4114.714,2567.95,4114.714,2510.517,4074.921,2487.543z"/>
		<path fill="#1977CC" d="M4083.1,2473.38L2829.62,1749.682c-11.543-6.665-24.69-10.187-38.021-10.187s-26.477,3.521-38.02,10.188
			l-807.441,466.175c-23.807,13.746-38.021,38.363-38.021,65.854c0,27.49,14.214,52.108,38.021,65.853l1253.479,723.695
			c11.543,6.666,24.69,10.188,38.022,10.188c13.326,0,26.478-3.522,38.02-10.188l807.439-466.175
			c23.807-13.745,38.019-38.362,38.019-65.853C4121.118,2511.743,4106.906,2487.124,4083.1,2473.38z M4066.744,2576.762
			l-807.438,466.174c-6.577,3.798-14.071,5.807-21.665,5.807c-7.598,0-15.09-2.01-21.668-5.807L1962.497,2319.24
			c-13.567-7.832-21.667-21.858-21.667-37.525s8.1-29.691,21.667-37.527l807.437-466.175c6.58-3.798,14.072-5.805,21.668-5.805
			c7.595,0,15.086,2.006,21.664,5.803l1253.479,723.699c13.563,7.832,21.665,21.858,21.665,37.526
			C4088.409,2554.9,4080.309,2568.927,4066.744,2576.762z"/>
	</g>
	<g>
		<path fill="#E0F4FC" d="M1846.421,2146.589c-30.852,0-55.86,14.399-55.86,32.168c0,17.767,25.01,32.168,55.86,32.168
			s55.86-14.402,55.86-32.168C1902.282,2160.989,1877.271,2146.589,1846.421,2146.589z"/>
		<path fill="#1977CC" d="M1846.421,2130.232c-41.17,0-72.217,20.862-72.217,48.523c0,27.663,31.046,48.521,72.217,48.521
			c41.17,0,72.215-20.858,72.215-48.521C1918.636,2151.096,1887.591,2130.232,1846.421,2130.232z M1846.421,2194.568
			c-25.663,0-39.506-11.222-39.506-15.812c0-4.591,13.843-15.813,39.506-15.813c25.661,0,39.505,11.224,39.505,15.813
			C1885.926,2183.348,1872.083,2194.568,1846.421,2194.568z"/>
	</g>
	<path fill="#1977CC" d="M3395.938,3312.014c-9.031,0-16.354,7.322-16.354,16.355v167.82c0,9.032,7.322,16.354,16.354,16.354
		c9.031,0,16.354-7.321,16.354-16.354v-167.821C3412.292,3319.336,3404.969,3312.014,3395.938,3312.014z"/>
</g>
<path fill="#E0F4FC" d="M3169.686,2261.686c-44.646-25.711-103.656-39.868-166.161-39.868s-121.513,14.157-166.159,39.868
	c-47.487,27.346-73.638,64.69-73.638,105.158c0,40.469,26.153,77.814,73.638,105.16c44.646,25.712,103.656,39.871,166.159,39.871
	s121.515-14.159,166.161-39.871c47.485-27.345,73.638-64.691,73.638-105.16C3243.322,2326.376,3217.171,2289.03,3169.686,2261.686z
	 M3003.523,2479.164c-112.254,0-207.088-51.438-207.088-112.32c0-60.884,94.834-112.316,207.088-112.316
	c112.252,0,207.089,51.435,207.089,112.316S3115.775,2479.164,3003.523,2479.164z"/>
<g>
	<g>
		<polygon fill="#A2DFFF" points="2627.854,604.397 2627.854,1037.056 3002.547,1253.384 3377.24,1037.056 3377.24,604.397 
			3002.547,388.07 		"/>
		<path fill="#1977CC" d="M3384.281,592.199l-374.693-216.327c-4.358-2.514-9.726-2.514-14.083,0l-374.693,216.327
			c-4.356,2.518-7.042,7.166-7.042,12.198v432.66c0,5.033,2.686,9.68,7.042,12.196l374.693,216.33
			c2.177,1.258,4.61,1.889,7.042,1.889c2.433,0,4.862-0.629,7.042-1.889l374.693-216.33c4.358-2.514,7.042-7.163,7.042-12.196
			v-432.66C3391.322,599.364,3388.64,594.717,3384.281,592.199z M3363.155,1028.924l-360.608,208.198l-360.609-208.198V612.53
			l360.609-208.196l360.608,208.196V1028.924z"/>
	</g>
	<g>
		<polygon fill="#E0F4FC" points="2627.854,604.397 3002.547,820.727 3377.24,604.397 3002.547,388.07 		"/>
		<path fill="#1977CC" d="M3384.281,592.199l-374.693-216.324c-4.358-2.518-9.726-2.518-14.083,0l-374.693,216.324
			c-4.356,2.518-7.042,7.166-7.042,12.198c0,5.033,2.686,9.682,7.042,12.198l374.693,216.329c2.177,1.258,4.61,1.888,7.042,1.888
			c2.433,0,4.862-0.629,7.042-1.888l374.693-216.329c4.358-2.515,7.042-7.164,7.042-12.198
			C3391.322,599.364,3388.64,594.717,3384.281,592.199z M3002.547,804.463l-346.524-200.067l346.524-200.064l346.524,200.064
			L3002.547,804.463z"/>
	</g>
	<g>
		<polygon fill="#FFFFFF" points="3002.547,1253.384 3377.24,1037.056 3377.24,604.397 3002.547,820.727 		"/>
		<path fill="#1977CC" d="M3384.281,592.201c-4.358-2.517-9.728-2.517-14.085,0l-374.691,216.33
			c-4.357,2.515-7.043,7.163-7.043,12.196v432.658c0,5.033,2.686,9.681,7.043,12.198c2.177,1.259,4.61,1.889,7.042,1.889
			c2.433,0,4.862-0.63,7.042-1.889l374.693-216.33c4.358-2.515,7.042-7.164,7.042-12.196v-432.66
			C3391.322,599.364,3388.64,594.717,3384.281,592.201z M3363.155,1028.924l-346.525,200.065V828.857l346.525-200.066V1028.924
			L3363.155,1028.924z"/>
	</g>
</g>
<g>
	<g>
		<circle fill="#1977CC" cx="3002.547" cy="1492.45" r="61.598"/>
		<circle fill="#1977CC" cx="3002.547" cy="1733.71" r="61.599"/>
		<circle fill="#1977CC" cx="3002.547" cy="1974.973" r="61.599"/>
	</g>
	<g>
		<circle fill="#1977CC" cx="3002.547" cy="2216.235" r="61.599"/>
	</g>
</g>
<path fill="#E0F4FC" d="M3269.79,2198.331c-71.545-41.201-166.104-63.889-266.269-63.889c-100.16,0-194.717,22.688-266.262,63.889
	c-76.096,43.818-118.002,103.663-118.002,168.512c0,64.851,41.91,124.694,118.002,168.515
	c71.545,41.202,166.104,63.893,266.262,63.893c100.159,0,194.724-22.689,266.269-63.893
	c76.095-43.817,118.001-103.664,118.001-168.515C3387.791,2301.994,3345.885,2242.148,3269.79,2198.331z M3003.521,2546.831
	c-179.879,0-331.849-82.426-331.849-179.988c0-97.563,151.969-179.983,331.849-179.983c179.882,0,331.854,82.422,331.854,179.983
	S3183.402,2546.831,3003.521,2546.831z"/>
</svg>
