<?xml version="1.0" encoding="utf-8"?>
<!-- Generator: Adobe Illustrator 16.0.0, SVG Export Plug-In . SVG Version: 6.00 Build 0)  -->
<!DOCTYPE svg PUBLIC "-//W3C//DTD SVG 1.1//EN" "http://www.w3.org/Graphics/SVG/1.1/DTD/svg11.dtd">
<svg version="1.1" id="Layer_1" xmlns="http://www.w3.org/2000/svg" xmlns:xlink="http://www.w3.org/1999/xlink" x="0px" y="0px"
	 width="6000px" height="4500px" viewBox="0 0 6000 4500" enable-background="new 0 0 6000 4500" xml:space="preserve">
<g>
	<path fill="#A2DFFF" d="M4382.9,2093.216c-5.373,0.617-9.229,5.473-8.609,10.846c1.932,16.821,3.596,33.917,4.943,50.811
		c0.408,5.127,4.695,9.015,9.75,9.015c0.262,0,0.525-0.009,0.789-0.032c5.393-0.429,9.414-5.148,8.984-10.54
		c-1.365-17.122-3.049-34.445-5.01-51.491C4393.129,2096.453,4388.273,2092.591,4382.9,2093.216z"/>
	<path fill="#A2DFFF" d="M2187.75,3527.816c-14.612-8.621-29.27-17.623-43.564-26.749c-4.56-2.911-10.614-1.576-13.524,2.982
		c-2.911,4.559-1.576,10.614,2.984,13.524c14.487,9.25,29.341,18.37,44.15,27.109c1.562,0.923,3.275,1.361,4.967,1.361
		c3.351,0,6.616-1.723,8.443-4.817C2193.955,3536.57,2192.407,3530.565,2187.75,3527.816z"/>
	<path fill="#A2DFFF" d="M4336.82,1903.493c4.273,16.383,8.312,33.075,12.01,49.616c1.018,4.559,5.064,7.659,9.547,7.659
		c0.707,0,1.426-0.077,2.146-0.238c5.277-1.179,8.6-6.414,7.422-11.693c-3.746-16.765-7.842-33.684-12.174-50.289
		c-1.365-5.232-6.711-8.373-11.949-7.004C4338.59,1892.91,4335.455,1898.26,4336.82,1903.493z"/>
	<path fill="#A2DFFF" d="M1895.329,1243.737c11.959-11.996,24.294-23.947,36.664-35.519c3.949-3.696,4.156-9.893,0.461-13.841
		c-3.695-3.949-9.893-4.155-13.842-0.461c-12.534,11.728-25.036,23.838-37.154,35.995c-3.818,3.83-3.809,10.031,0.021,13.848
		c1.912,1.905,4.412,2.857,6.914,2.857C1890.905,1246.616,1893.416,1245.656,1895.329,1243.737z"/>
	<path fill="#A2DFFF" d="M4359.084,2003.117c3.111,16.653,5.969,33.59,8.488,50.338c0.73,4.854,4.908,8.336,9.672,8.336
		c0.486,0,0.975-0.036,1.471-0.11c5.348-0.805,9.031-5.794,8.225-11.142c-2.555-16.975-5.449-34.139-8.602-51.018
		c-0.994-5.317-6.109-8.818-11.424-7.829C4361.598,1992.686,4358.092,1997.801,4359.084,2003.117z"/>
	<path fill="#A2DFFF" d="M2090.248,1079.599c4.425-3.11,5.49-9.218,2.38-13.643c-3.111-4.424-9.219-5.491-13.643-2.38
		c-14.03,9.863-28.081,20.11-41.76,30.458c-4.313,3.263-5.165,9.403-1.902,13.717c1.926,2.546,4.854,3.886,7.817,3.886
		c2.057,0,4.132-0.646,5.899-1.983C2062.538,1099.444,2076.402,1089.332,2090.248,1079.599z"/>
	<path fill="#A2DFFF" d="M1904.943,3310.335c-3.854-3.795-10.054-3.747-13.849,0.108c-3.794,3.854-3.747,10.053,0.108,13.848
		c12.241,12.055,24.856,24.051,37.494,35.656c1.881,1.728,4.254,2.58,6.622,2.58c2.646,0,5.284-1.065,7.215-3.168
		c3.658-3.984,3.395-10.18-0.589-13.838C1929.473,3334.069,1917.024,3322.232,1904.943,3310.335z"/>
	<path fill="#A2DFFF" d="M2008.896,1141.136c4.196-3.411,4.834-9.579,1.423-13.776c-3.411-4.197-9.579-4.834-13.776-1.423
		c-13.315,10.822-26.624,22.03-39.554,33.308c-4.076,3.555-4.498,9.741-0.941,13.816c1.937,2.22,4.651,3.356,7.384,3.356
		c2.283,0,4.576-0.794,6.433-2.413C1982.624,1162.873,1995.755,1151.814,2008.896,1141.136z"/>
	<path fill="#A2DFFF" d="M2101.594,3472.814c-13.969-9.622-27.953-19.622-41.567-29.722c-4.343-3.224-10.477-2.313-13.699,2.03
		c-3.222,4.344-2.312,10.477,2.03,13.699c13.796,10.235,27.97,20.369,42.125,30.119c1.697,1.17,3.631,1.729,5.546,1.729
		c3.113,0,6.174-1.479,8.074-4.238C2107.171,3481.979,2106.047,3475.883,2101.594,3472.814z"/>
	<path fill="#A2DFFF" d="M4307.58,1805.686c5.42,16.035,10.627,32.401,15.486,48.646c1.27,4.247,5.162,6.989,9.377,6.989
		c0.932,0,1.875-0.133,2.811-0.413c5.182-1.549,8.125-7.005,6.576-12.188c-4.922-16.465-10.201-33.053-15.691-49.305
		c-1.732-5.125-7.293-7.874-12.414-6.144C4308.602,1795.004,4305.85,1800.562,4307.58,1805.686z"/>
	<path fill="#A2DFFF" d="M2019.531,3411.944c-13.247-10.562-26.496-21.51-39.376-32.537c-4.108-3.519-10.291-3.038-13.807,1.07
		c-3.518,4.107-3.039,10.29,1.07,13.808c13.055,11.175,26.479,22.269,39.903,32.972c1.803,1.438,3.958,2.136,6.098,2.136
		c2.878,0,5.729-1.263,7.662-3.688C2024.455,3421.478,2023.759,3415.315,2019.531,3411.944z"/>
	<path fill="#A2DFFF" d="M2175.651,1023.918c4.631-2.794,6.121-8.813,3.328-13.443c-2.793-4.63-8.812-6.121-13.444-3.328
		c-14.671,8.851-29.396,18.088-43.763,27.455c-4.531,2.954-5.808,9.021-2.854,13.551c1.877,2.88,5.013,4.445,8.211,4.445
		c1.834,0,3.69-0.515,5.339-1.591C2146.645,1041.765,2161.173,1032.651,2175.651,1023.918z"/>
	<path fill="#A2DFFF" d="M2466.624,3654.826c-16.127-5.368-32.373-11.099-48.288-17.029c-5.068-1.892-10.707,0.688-12.596,5.756
		c-1.889,5.068,0.688,10.707,5.755,12.597c16.129,6.013,32.595,11.817,48.941,17.26c1.027,0.343,2.069,0.503,3.094,0.503
		c4.102,0,7.923-2.597,9.291-6.702C2474.53,3662.079,2471.756,3656.534,2466.624,3654.826z"/>
	<path fill="#A2DFFF" d="M2458.123,882.176c-1.762-5.113-7.335-7.828-12.45-6.066c-16.235,5.597-32.591,11.56-48.612,17.725
		c-5.048,1.942-7.565,7.608-5.623,12.656c1.497,3.892,5.207,6.279,9.142,6.279c1.168,0,2.357-0.211,3.514-0.656
		c15.808-6.082,31.945-11.966,47.963-17.488C2457.169,892.864,2459.885,887.29,2458.123,882.176z"/>
	<path fill="#A2DFFF" d="M2370.697,3619.076c-15.69-6.49-31.48-13.35-46.934-20.389c-4.922-2.244-10.729-0.071-12.972,4.852
		c-2.242,4.922-0.07,10.728,4.852,12.971c15.662,7.135,31.667,14.088,47.568,20.664c1.225,0.507,2.493,0.746,3.739,0.746
		c3.845,0,7.493-2.278,9.053-6.053C2378.071,3626.869,2375.696,3621.143,2370.697,3619.076z"/>
	<path fill="#A2DFFF" d="M2556.612,852.794c-1.397-5.224-6.765-8.324-11.99-6.93c-16.585,4.436-33.32,9.23-49.741,14.248
		c-5.172,1.582-8.084,7.056-6.503,12.229c1.291,4.218,5.169,6.933,9.362,6.933c0.949,0,1.912-0.139,2.866-0.43
		c16.202-4.953,32.713-9.683,49.075-14.059C2554.907,863.388,2558.009,858.019,2556.612,852.794z"/>
	<path fill="#A2DFFF" d="M2564.563,3683.627c-16.418-4.203-32.979-8.758-49.223-13.536c-5.189-1.525-10.632,1.443-12.158,6.633
		c-1.525,5.188,1.444,10.632,6.632,12.157c16.464,4.843,33.25,9.458,49.891,13.719c0.815,0.209,1.632,0.309,2.435,0.309
		c4.367,0,8.348-2.941,9.48-7.365C2572.962,3690.304,2569.802,3684.969,2564.563,3683.627z"/>
	<path fill="#A2DFFF" d="M2264.69,974.374c4.815-2.463,6.723-8.362,4.26-13.177c-2.464-4.817-8.363-6.724-13.176-4.259
		c-15.252,7.798-30.579,15.978-45.553,24.31c-4.726,2.63-6.426,8.592-3.796,13.318c1.791,3.218,5.127,5.033,8.566,5.033
		c1.612,0,3.246-0.398,4.753-1.237C2234.519,990.14,2249.641,982.07,2264.69,974.374z"/>
	<path fill="#A2DFFF" d="M2356.922,931.223c4.977-2.119,7.293-7.871,5.175-12.847c-2.118-4.977-7.87-7.294-12.846-5.173
		c-15.755,6.706-31.605,13.786-47.116,21.042c-4.899,2.292-7.012,8.121-4.72,13.02c1.664,3.557,5.193,5.645,8.876,5.645
		c1.39,0,2.802-0.296,4.144-0.925C2325.739,944.825,2341.379,937.839,2356.922,931.223z"/>
	<path fill="#A2DFFF" d="M4290.389,1757.616c1.48,3.921,5.205,6.336,9.162,6.336c1.15,0,2.318-0.204,3.459-0.635
		c5.059-1.91,7.611-7.561,5.701-12.621c-6.045-16.001-12.461-32.127-19.07-47.925c-2.09-4.989-7.826-7.341-12.814-5.254
		c-4.99,2.088-7.342,7.824-5.254,12.813C4278.096,1725.918,4284.426,1741.828,4290.389,1757.616z"/>
	<path fill="#A2DFFF" d="M4251.1,1663.72c1.65,3.586,5.195,5.7,8.9,5.7c1.371,0,2.764-0.29,4.09-0.901
		c4.914-2.261,7.062-8.078,4.801-12.991c-7.166-15.56-14.705-31.205-22.406-46.498c-2.434-4.832-8.322-6.773-13.15-4.341
		c-4.83,2.432-6.773,8.321-4.342,13.151C4236.592,1632.93,4244.031,1648.366,4251.1,1663.72z"/>
	<path fill="#A2DFFF" d="M2277.591,3576.66c-15.179-7.572-30.439-15.524-45.356-23.634c-4.752-2.584-10.697-0.826-13.281,3.926
		c-2.584,4.751-0.826,10.696,3.926,13.28c15.119,8.219,30.584,16.278,45.968,23.953c1.403,0.7,2.895,1.033,4.364,1.033
		c3.596,0,7.057-1.988,8.77-5.424C2284.397,3584.955,2282.431,3579.074,2277.591,3576.66z"/>
	<path fill="#A2DFFF" d="M1769.914,3157.444c-3.289-4.293-9.436-5.106-13.729-1.818c-4.294,3.288-5.108,9.436-1.819,13.729
		c10.429,13.612,21.246,27.234,32.153,40.487c1.937,2.353,4.74,3.569,7.566,3.569c2.191,0,4.394-0.731,6.217-2.231
		c4.176-3.437,4.776-9.607,1.339-13.783C1790.879,3184.318,1780.203,3170.877,1769.914,3157.444z"/>
	<path fill="#A2DFFF" d="M1473.52,2469.167c5.364-0.685,9.16-5.588,8.477-10.952c-2.14-16.797-4.012-33.871-5.565-50.747
		c-0.496-5.386-5.258-9.359-10.648-8.854c-5.386,0.496-9.35,5.264-8.854,10.649c1.574,17.102,3.471,34.403,5.639,51.427
		c0.63,4.945,4.845,8.556,9.703,8.556C1472.683,2469.245,1473.101,2469.22,1473.52,2469.167z"/>
	<path fill="#A2DFFF" d="M1460.439,2264.142c0.04,0,0.079,0,0.119,0c5.354,0,9.725-4.309,9.79-9.676
		c0.203-16.959,0.704-34.129,1.49-51.032c0.251-5.402-3.924-9.986-9.327-10.236c-5.403-0.247-9.985,3.925-10.237,9.326
		c-0.797,17.128-1.304,34.525-1.511,51.709C1450.699,2259.64,1455.031,2264.076,1460.439,2264.142z"/>
	<path fill="#A2DFFF" d="M1463.419,2366.891c5.399-0.308,9.527-4.935,9.22-10.334c-0.965-16.9-1.646-34.067-2.026-51.021
		c-0.121-5.408-4.636-9.71-10.009-9.571c-5.406,0.12-9.691,4.604-9.571,10.01c0.385,17.181,1.076,34.573,2.052,51.699
		c0.298,5.21,4.615,9.234,9.769,9.234C1463.041,2366.907,1463.23,2366.902,1463.419,2366.891z"/>
	<path fill="#A2DFFF" d="M1498.443,2558.965c-3.312-16.601-6.377-33.501-9.108-50.23c-0.872-5.337-5.906-8.955-11.242-8.087
		c-5.338,0.871-8.959,5.905-8.087,11.242c2.769,16.955,5.874,34.084,9.231,50.908c0.929,4.657,5.019,7.878,9.593,7.878
		c0.634,0,1.28-0.062,1.926-0.191C1496.062,2569.426,1499.502,2564.269,1498.443,2558.965z"/>
	<path fill="#A2DFFF" d="M1521.94,2658.308c-4.479-16.339-8.727-32.981-12.625-49.465c-1.244-5.263-6.52-8.521-11.783-7.275
		c-5.263,1.243-8.521,6.52-7.276,11.782c3.951,16.707,8.256,33.575,12.795,50.135c1.192,4.351,5.136,7.207,9.438,7.207
		c0.856,0,1.729-0.114,2.594-0.352C1520.299,2668.91,1523.37,2663.522,1521.94,2658.308z"/>
	<path fill="#A2DFFF" d="M1519.564,1858.587c0.94,0.283,1.89,0.417,2.824,0.417c4.209,0,8.099-2.736,9.374-6.975
		c4.894-16.271,10.148-32.682,15.617-48.776c1.74-5.121-1.001-10.682-6.121-12.423c-5.123-1.742-10.683,1.001-12.424,6.122
		c-5.542,16.312-10.868,32.946-15.828,49.438C1511.449,1851.569,1514.385,1857.03,1519.564,1858.587z"/>
	<path fill="#A2DFFF" d="M1552.387,2755.746c-5.622-15.983-11.033-32.284-16.084-48.451c-1.613-5.161-7.104-8.04-12.268-6.427
		c-5.161,1.614-8.04,7.105-6.427,12.269c5.12,16.386,10.605,32.907,16.303,49.107c1.417,4.027,5.199,6.546,9.237,6.546
		c1.078,0,2.175-0.179,3.249-0.558C1551.5,2766.438,1554.182,2760.848,1552.387,2755.746z"/>
	<path fill="#A2DFFF" d="M1464.54,2161.45c0.27,0.022,0.538,0.034,0.805,0.034c5.048,0,9.333-3.879,9.75-8.999
		c1.375-16.893,3.066-33.986,5.027-50.803c0.626-5.373-3.22-10.234-8.593-10.861c-5.37-0.632-10.234,3.22-10.86,8.593
		c-1.987,17.042-3.701,34.364-5.094,51.483C1455.135,2156.286,1459.149,2161.012,1464.54,2161.45z"/>
	<path fill="#A2DFFF" d="M1494.125,1958.169c0.725,0.163,1.448,0.241,2.16,0.241c4.478,0,8.519-3.091,9.545-7.643
		c3.723-16.532,7.793-33.219,12.093-49.596c1.375-5.231-1.752-10.585-6.983-11.959c-5.232-1.373-10.585,1.752-11.959,6.983
		c-4.359,16.6-8.483,33.513-12.258,50.269C1485.536,1951.741,1488.849,1956.981,1494.125,1958.169z"/>
	<path fill="#A2DFFF" d="M1475.766,2059.292c0.5,0.077,0.996,0.113,1.486,0.113c4.757,0,8.931-3.472,9.669-8.319
		c2.553-16.763,5.437-33.694,8.572-50.326c1.001-5.315-2.494-10.435-7.81-11.438c-5.313-1.001-10.436,2.494-11.438,7.809
		c-3.178,16.855-6.1,34.017-8.688,51.005C1466.744,2053.484,1470.419,2058.479,1475.766,2059.292z"/>
	<path fill="#A2DFFF" d="M1657.565,2987.423c-2.658-4.71-8.632-6.372-13.341-3.713c-4.71,2.659-6.373,8.631-3.713,13.342
		c8.423,14.923,17.231,29.903,26.177,44.526c1.846,3.019,5.065,4.684,8.362,4.684c1.742,0,3.507-0.464,5.101-1.44
		c4.613-2.822,6.067-8.85,3.244-13.463C1674.568,3016.93,1665.878,3002.147,1657.565,2987.423z"/>
	<path fill="#A2DFFF" d="M1761.625,1397.996c10.181-13.55,20.744-27.109,31.396-40.301c3.398-4.208,2.741-10.373-1.467-13.771
		c-4.208-3.399-10.373-2.742-13.771,1.466c-10.796,13.368-21.5,27.109-31.817,40.841c-3.249,4.324-2.377,10.463,1.947,13.711
		c1.763,1.325,3.828,1.964,5.875,1.964C1756.763,1401.906,1759.701,1400.557,1761.625,1397.996z"/>
	<path fill="#A2DFFF" d="M1710.753,3074.375c-2.981-4.512-9.058-5.753-13.569-2.771c-4.513,2.981-5.754,9.058-2.772,13.568
		c9.446,14.297,19.283,28.634,29.239,42.612c1.911,2.684,4.925,4.113,7.985,4.113c1.966,0,3.95-0.591,5.673-1.818
		c4.404-3.138,5.432-9.251,2.295-13.656C1729.781,3102.628,1720.074,3088.482,1710.753,3074.375z"/>
	<path fill="#A2DFFF" d="M1825.799,1318.521c11.099-12.804,22.577-25.589,34.117-38.001c3.683-3.961,3.458-10.158-0.503-13.84
		c-3.962-3.682-10.158-3.457-13.84,0.504c-11.694,12.578-23.326,25.534-34.572,38.509c-3.542,4.086-3.102,10.271,0.986,13.814
		c1.853,1.606,4.136,2.392,6.41,2.392C1821.137,1321.898,1823.862,1320.754,1825.799,1318.521z"/>
	<path fill="#A2DFFF" d="M1552.078,1760.754c1.145,0.435,2.319,0.641,3.475,0.641c3.95,0,7.672-2.407,9.157-6.318
		c6.028-15.871,12.427-31.859,19.018-47.519c2.098-4.985-0.242-10.727-5.227-12.825c-4.986-2.098-10.728,0.242-12.825,5.228
		c-6.681,15.872-13.166,32.076-19.275,48.162C1544.48,1753.179,1547.021,1758.834,1552.078,1760.754z"/>
	<path fill="#A2DFFF" d="M1703.134,1481.792c9.213-14.236,18.807-28.507,28.515-42.414c3.095-4.435,2.01-10.54-2.425-13.635
		c-4.434-3.095-10.538-2.009-13.635,2.424c-9.838,14.094-19.561,28.555-28.898,42.983c-2.938,4.54-1.639,10.604,2.9,13.542
		c1.645,1.064,3.489,1.572,5.312,1.572C1698.114,1486.266,1701.259,1484.688,1703.134,1481.792z"/>
	<path fill="#A2DFFF" d="M1650.632,1569.515c8.195-14.852,16.77-29.766,25.484-44.327c2.776-4.641,1.267-10.655-3.373-13.431
		c-4.641-2.777-10.654-1.267-13.432,3.373c-8.832,14.757-17.521,29.873-25.826,44.924c-2.613,4.736-0.892,10.692,3.844,13.306
		c1.5,0.827,3.122,1.219,4.722,1.219C1645.502,1574.58,1648.848,1572.751,1650.632,1569.515z"/>
	<path fill="#A2DFFF" d="M1604.407,1660.755c7.131-15.399,14.638-30.886,22.312-46.033c2.444-4.824,0.515-10.716-4.31-13.161
		c-4.825-2.445-10.717-0.515-13.161,4.31c-7.778,15.35-15.386,31.047-22.613,46.654c-2.272,4.907-0.136,10.728,4.772,13
		c1.331,0.617,2.73,0.91,4.108,0.91C1599.21,1666.435,1602.75,1664.33,1604.407,1660.755z"/>
	<path fill="#A2DFFF" d="M1834.749,3236.228c-3.58-4.055-9.769-4.439-13.822-0.857c-4.053,3.579-4.438,9.769-0.857,13.821
		c11.36,12.864,23.105,25.704,34.908,38.167c1.926,2.032,4.516,3.059,7.111,3.059c2.417,0,4.84-0.89,6.732-2.684
		c3.928-3.72,4.096-9.917,0.375-13.843C1857.55,3261.592,1845.96,3248.921,1834.749,3236.228z"/>
	<path fill="#A2DFFF" d="M1610.625,2897.015c-2.321-4.883-8.165-6.96-13.049-4.639c-4.885,2.323-6.962,8.165-4.639,13.049
		c7.356,15.472,15.087,31.024,22.979,46.224c1.744,3.358,5.16,5.282,8.699,5.282c1.52,0,3.062-0.355,4.505-1.104
		c4.8-2.492,6.671-8.404,4.179-13.203C1625.512,2927.626,1617.883,2912.281,1610.625,2897.015z"/>
	<path fill="#A2DFFF" d="M1570.172,2803.6c-1.974-5.035-7.655-7.519-12.69-5.545c-5.036,1.975-7.518,7.655-5.544,12.691
		c6.244,15.934,12.86,31.979,19.664,47.689c1.6,3.696,5.205,5.904,8.992,5.904c1.298,0,2.62-0.26,3.886-0.809
		c4.963-2.149,7.244-7.916,5.095-12.878C1582.861,2835.153,1576.333,2819.321,1570.172,2803.6z"/>
	<path fill="#A2DFFF" d="M2758.561,815.183c-0.649-5.37-5.528-9.196-10.899-8.544c-17.053,2.065-34.293,4.461-51.243,7.121
		c-5.343,0.838-8.995,5.849-8.158,11.192c0.758,4.829,4.924,8.277,9.663,8.277c0.504,0,1.016-0.04,1.53-0.12
		c16.726-2.624,33.737-4.988,50.564-7.026C2755.387,825.43,2759.212,820.551,2758.561,815.183z"/>
	<path fill="#A2DFFF" d="M3736.579,3483.654c-14.065,9.419-28.483,18.712-42.852,27.621c-4.597,2.85-6.013,8.887-3.162,13.483
		c1.854,2.988,5.055,4.634,8.332,4.634c1.761,0,3.544-0.477,5.151-1.473c14.561-9.029,29.173-18.446,43.428-27.992
		c4.493-3.01,5.696-9.091,2.688-13.585C3747.157,3481.85,3741.075,3480.646,3736.579,3483.654z"/>
	<path fill="#A2DFFF" d="M4038.605,1325.211c2.262,0,4.537-0.781,6.387-2.374c4.098-3.53,4.557-9.714,1.027-13.811
		c-11.205-13.005-22.791-25.987-34.437-38.587c-3.672-3.973-9.867-4.216-13.838-0.545c-3.972,3.67-4.216,9.866-0.545,13.838
		c11.491,12.435,22.925,25.245,33.981,38.078C4033.117,1324.059,4035.854,1325.211,4038.605,1325.211z"/>
	<path fill="#A2DFFF" d="M4116.869,3130.021c-4.365-3.199-10.492-2.25-13.686,2.114c-10.016,13.675-20.414,27.364-30.904,40.686
		c-3.348,4.249-2.613,10.405,1.635,13.753c1.797,1.413,3.932,2.1,6.053,2.1c2.896,0,5.768-1.281,7.699-3.735
		c10.631-13.5,21.168-27.372,31.318-41.229C4122.18,3139.345,4121.232,3133.216,4116.869,3130.021z"/>
	<path fill="#A2DFFF" d="M3971.366,3288.027c-11.812,12.144-24.002,24.243-36.229,35.967c-3.904,3.742-4.035,9.942-0.291,13.847
		c1.922,2.005,4.493,3.015,7.068,3.015c2.438,0,4.879-0.904,6.777-2.724c12.393-11.88,24.743-24.143,36.715-36.448
		c3.771-3.876,3.687-10.076-0.191-13.848C3981.338,3284.066,3975.139,3284.153,3971.366,3288.027z"/>
	<path fill="#A2DFFF" d="M4102.896,1405.309c2.039,0,4.094-0.634,5.854-1.947c4.332-3.236,5.221-9.373,1.986-13.706
		c-10.266-13.744-20.916-27.496-31.652-40.874c-3.387-4.217-9.547-4.893-13.768-1.508c-4.217,3.386-4.893,9.55-1.508,13.767
		c10.598,13.201,21.105,26.772,31.234,40.333C4096.967,1403.951,4099.912,1405.309,4102.896,1405.309z"/>
	<path fill="#A2DFFF" d="M4161.42,1489.654c1.812,0,3.648-0.504,5.287-1.558c4.549-2.926,5.863-8.985,2.938-13.534
		c-9.273-14.416-18.932-28.87-28.709-42.962c-3.084-4.442-9.186-5.546-13.631-2.463c-4.441,3.083-5.545,9.185-2.463,13.628
		c9.648,13.906,19.18,28.168,28.332,42.393C4155.045,1488.066,4158.199,1489.654,4161.42,1489.654z"/>
	<path fill="#A2DFFF" d="M3814.395,1114.215c2.953,0,5.873-1.331,7.801-3.862c3.275-4.304,2.44-10.449-1.862-13.723
		c-13.677-10.407-27.722-20.713-41.749-30.633c-4.416-3.123-10.526-2.073-13.65,2.341c-3.121,4.416-2.073,10.527,2.342,13.651
		c13.841,9.787,27.701,19.958,41.195,30.228C3810.243,1113.563,3812.327,1114.215,3814.395,1114.215z"/>
	<path fill="#A2DFFF" d="M3961.906,1246.854c1.915,1.933,4.435,2.9,6.956,2.9c2.49,0,4.982-0.944,6.892-2.836
		c3.841-3.807,3.87-10.007,0.062-13.849c-12.089-12.2-24.556-24.35-37.052-36.111c-3.938-3.707-10.137-3.519-13.843,0.419
		c-3.706,3.939-3.519,10.136,0.42,13.843C3937.673,1222.824,3949.975,1234.813,3961.906,1246.854z"/>
	<path fill="#A2DFFF" d="M3819.293,3423.987c-13.374,10.376-27.115,20.658-40.842,30.561c-4.386,3.164-5.376,9.285-2.211,13.671
		c1.914,2.653,4.909,4.063,7.949,4.063c1.985,0,3.988-0.603,5.721-1.853c13.911-10.035,27.835-20.455,41.388-30.969
		c4.273-3.314,5.051-9.467,1.735-13.739C3829.719,3421.449,3823.566,3420.67,3819.293,3423.987z"/>
	<path fill="#A2DFFF" d="M3897.684,3358.671c-12.637,11.297-25.635,22.516-38.631,33.345c-4.156,3.461-4.718,9.636-1.256,13.79
		c1.937,2.325,4.723,3.525,7.528,3.525c2.21,0,4.434-0.745,6.264-2.27c13.171-10.974,26.343-22.343,39.148-33.789
		c4.031-3.605,4.378-9.796,0.774-13.828C3907.904,3355.413,3901.713,3355.067,3897.684,3358.671z"/>
	<path fill="#A2DFFF" d="M3894.006,1179.304c2.721,0,5.429-1.127,7.365-3.333c3.566-4.064,3.163-10.251-0.901-13.819
		c-12.91-11.329-26.198-22.586-39.493-33.457c-4.186-3.423-10.355-2.805-13.779,1.382c-3.425,4.187-2.806,10.356,1.383,13.78
		c13.119,10.727,26.23,21.834,38.971,33.015C3889.41,1178.503,3891.714,1179.304,3894.006,1179.304z"/>
	<path fill="#A2DFFF" d="M4053.783,3211.241c-4.129-3.489-10.307-2.976-13.801,1.153c-10.949,12.947-22.271,25.873-33.651,38.418
		c-3.634,4.006-3.333,10.198,0.674,13.832c1.875,1.702,4.229,2.54,6.575,2.54c2.668,0,5.324-1.082,7.258-3.213
		c11.533-12.713,23.006-25.812,34.102-38.931C4058.43,3220.912,4057.912,3214.733,4053.783,3211.241z"/>
	<path fill="#A2DFFF" d="M4380.84,2467.484c-5.352-0.753-10.305,2.984-11.055,8.342c-2.348,16.785-5.023,33.75-7.955,50.428
		c-0.936,5.327,2.623,10.404,7.951,11.34c0.572,0.101,1.143,0.15,1.707,0.15c4.664,0,8.797-3.347,9.631-8.1
		c2.973-16.901,5.684-34.096,8.062-51.105C4389.932,2473.184,4386.197,2468.233,4380.84,2467.484z"/>
	<path fill="#A2DFFF" d="M4363.721,2568.826c-5.289-1.126-10.49,2.254-11.613,7.544c-3.52,16.573-7.383,33.309-11.482,49.743
		c-1.311,5.248,1.883,10.562,7.129,11.872c0.797,0.199,1.592,0.294,2.379,0.294c4.389,0,8.383-2.975,9.494-7.424
		c4.154-16.657,8.07-33.619,11.639-50.416C4372.389,2575.148,4369.01,2569.949,4363.721,2568.826z"/>
	<path fill="#A2DFFF" d="M4390.822,2365.196c-5.379-0.371-10.072,3.697-10.445,9.095c-1.17,16.909-2.654,34.02-4.408,50.862
		c-0.561,5.38,3.346,10.194,8.723,10.756c0.346,0.036,0.689,0.053,1.027,0.053c4.951,0,9.203-3.744,9.729-8.778
		c1.779-17.066,3.283-34.407,4.469-51.541C4400.289,2370.247,4396.219,2365.57,4390.822,2365.196z"/>
	<path fill="#A2DFFF" d="M4339.51,2668.713c-5.199-1.494-10.625,1.51-12.117,6.707c-4.68,16.279-9.713,32.701-14.965,48.81
		c-1.676,5.142,1.131,10.67,6.273,12.347c1.008,0.328,2.031,0.484,3.037,0.484c4.125,0,7.963-2.626,9.311-6.759
		c5.322-16.327,10.426-32.972,15.166-49.472C4347.709,2675.632,4344.707,2670.206,4339.51,2668.713z"/>
	<path fill="#A2DFFF" d="M2656.926,830.434c-1.025-5.31-6.163-8.785-11.472-7.758c-16.863,3.257-33.895,6.859-50.62,10.705
		c-5.271,1.212-8.561,6.467-7.348,11.738c1.042,4.532,5.073,7.601,9.535,7.601c0.727,0,1.465-0.082,2.203-0.252
		c16.503-3.795,33.306-7.349,49.945-10.562C2654.479,840.879,2657.953,835.744,2656.926,830.434z"/>
	<path fill="#A2DFFF" d="M4399.646,2264.487c2.312-1.814,3.787-4.644,3.754-7.811c-0.178-17.189-0.658-34.591-1.428-51.724
		c-0.24-5.401-4.783-9.599-10.221-9.343c-5.404,0.242-9.586,4.818-9.344,10.222c0.758,16.908,1.232,34.083,1.408,51.048
		c0.033,3.129,1.531,5.9,3.832,7.669c-2.285,1.792-3.756,4.579-3.756,7.71c0,16.97-0.293,34.145-0.875,51.047
		c-0.188,5.406,4.045,9.938,9.449,10.125c0.115,0.004,0.229,0.005,0.344,0.005c5.254,0,9.598-4.164,9.781-9.455
		c0.588-17.127,0.887-34.528,0.887-51.722C4403.479,2269.093,4401.977,2266.277,4399.646,2264.487z"/>
	<path fill="#A2DFFF" d="M4225.324,2955.244c-4.771-2.554-10.703-0.761-13.258,4.007c-8.016,14.962-16.406,29.982-24.938,44.642
		c-2.721,4.676-1.135,10.669,3.539,13.39c1.549,0.901,3.244,1.33,4.916,1.33c3.371,0,6.654-1.743,8.473-4.868
		c8.646-14.857,17.15-30.08,25.273-45.244C4231.885,2963.732,4230.09,2957.797,4225.324,2955.244z"/>
	<path fill="#A2DFFF" d="M4213.877,1577.835c1.592,0,3.207-0.389,4.701-1.208c4.742-2.601,6.477-8.553,3.877-13.295
		c-8.24-15.023-16.861-30.11-25.625-44.841c-2.764-4.648-8.773-6.175-13.42-3.409c-4.648,2.765-6.176,8.774-3.412,13.422
		c8.648,14.535,17.156,29.422,25.283,44.245C4207.064,1575.998,4210.418,1577.835,4213.877,1577.835z"/>
	<path fill="#A2DFFF" d="M4308.256,2766.791c-5.076-1.858-10.703,0.754-12.561,5.833c-5.834,15.954-12.035,32.021-18.43,47.756
		c-2.037,5.01,0.375,10.723,5.385,12.759c1.209,0.492,2.457,0.724,3.686,0.724c3.865,0,7.529-2.305,9.074-6.108
		c6.482-15.948,12.768-32.233,18.68-48.402C4315.945,2774.271,4313.334,2768.647,4308.256,2766.791z"/>
	<path fill="#A2DFFF" d="M4270.107,2862.509c-4.934-2.214-10.729-0.004-12.939,4.931c-6.947,15.495-14.264,31.076-21.744,46.31
		c-2.385,4.854-0.383,10.723,4.471,13.108c1.389,0.682,2.861,1.005,4.311,1.005c3.617,0,7.094-2.013,8.795-5.478
		c7.586-15.439,14.998-31.231,22.037-46.935C4277.252,2870.515,4275.043,2864.721,4270.107,2862.509z"/>
	<path fill="#A2DFFF" d="M4174.152,3044.555c-4.576-2.883-10.623-1.51-13.504,3.066c-9.041,14.351-18.461,28.738-27.998,42.765
		c-3.041,4.473-1.881,10.563,2.592,13.604c1.686,1.146,3.602,1.696,5.498,1.696c3.133,0,6.211-1.502,8.107-4.288
		c9.664-14.213,19.209-28.794,28.371-43.338C4180.102,3053.483,4178.729,3047.437,4174.152,3044.555z"/>
	<path fill="#A2DFFF" d="M3172.289,3708.536c-16.702,2.831-33.684,5.403-50.474,7.645c-5.359,0.716-9.126,5.643-8.41,11.003
		c0.657,4.921,4.861,8.497,9.693,8.497c0.433,0,0.869-0.027,1.309-0.087c17.017-2.271,34.226-4.879,51.154-7.748
		c5.332-0.903,8.922-5.959,8.018-11.292C3182.678,3711.223,3177.618,3707.631,3172.289,3708.536z"/>
	<path fill="#A2DFFF" d="M2969.492,3728.483c-0.093,0-0.188,0.001-0.284,0.004c-13.969,0.396-28.147,0.598-42.141,0.598
		c-2.977,0-5.952-0.009-8.924-0.027c-0.021,0-0.041,0-0.062,0c-5.38,0-9.758,4.345-9.792,9.733
		c-0.033,5.407,4.325,9.818,9.733,9.852c3.012,0.019,6.027,0.027,9.044,0.027c14.177,0,28.543-0.204,42.697-0.605
		c5.406-0.154,9.665-4.66,9.511-10.066C2979.125,3732.686,2974.771,3728.483,2969.492,3728.483z"/>
	<path fill="#A2DFFF" d="M3158.655,833.614c4.732,0,8.895-3.438,9.66-8.26c0.847-5.341-2.796-10.358-8.138-11.206
		c-16.947-2.688-34.185-5.113-51.233-7.208c-5.373-0.659-10.254,3.157-10.913,8.525c-0.66,5.368,3.157,10.254,8.525,10.914
		c16.823,2.067,33.832,4.459,50.552,7.112C3157.629,833.574,3158.146,833.614,3158.655,833.614z"/>
	<path fill="#A2DFFF" d="M2927.068,815.432c8.892,0,17.899,0.082,26.768,0.241c0.06,0,0.119,0.001,0.18,0.001
		c5.325,0,9.691-4.269,9.787-9.617c0.098-5.407-4.207-9.87-9.615-9.967c-8.985-0.161-18.109-0.244-27.119-0.244
		c-0.025,0-0.049,0-0.073,0c-8.138,0-16.396,0.067-24.547,0.201c-5.408,0.088-9.719,4.544-9.632,9.951
		c0.089,5.408,4.525,9.73,9.952,9.632c8.046-0.132,16.195-0.199,24.227-0.199C2927.019,815.432,2927.044,815.432,2927.068,815.432z"
		/>
	<path fill="#A2DFFF" d="M3071.104,3722.055c-16.858,1.653-33.979,3.033-50.888,4.1c-5.396,0.341-9.497,4.992-9.156,10.39
		c0.327,5.188,4.636,9.176,9.764,9.176c0.207,0,0.417-0.007,0.627-0.019c17.135-1.082,34.484-2.479,51.565-4.155
		c5.384-0.527,9.317-5.32,8.79-10.702C3081.278,3725.462,3076.491,3721.521,3071.104,3722.055z"/>
	<path fill="#A2DFFF" d="M3056.651,821.077c5.021,0,9.298-3.842,9.743-8.939c0.471-5.387-3.515-10.138-8.902-10.609
		c-17.09-1.496-34.454-2.712-51.606-3.614c-5.427-0.289-10.011,3.864-10.294,9.264c-0.284,5.401,3.864,10.01,9.266,10.294
		c16.928,0.89,34.062,2.091,50.928,3.566C3056.076,821.065,3056.364,821.077,3056.651,821.077z"/>
	<path fill="#A2DFFF" d="M2867.102,3727.873c-16.93-0.686-34.078-1.678-50.968-2.947c-5.396-0.402-10.093,3.637-10.499,9.029
		c-0.405,5.394,3.637,10.095,9.029,10.5c17.115,1.288,34.491,2.293,51.646,2.987c0.135,0.006,0.269,0.009,0.403,0.009
		c5.225,0,9.564-4.129,9.776-9.396C2876.709,3732.65,2872.506,3728.093,2867.102,3727.873z"/>
	<path fill="#A2DFFF" d="M2765.302,3720.205c-16.845-1.859-33.881-4.044-50.638-6.491c-5.351-0.779-10.323,2.923-11.104,8.274
		s2.923,10.323,8.274,11.104c16.981,2.479,34.246,4.693,51.316,6.579c0.366,0.04,0.729,0.06,1.088,0.06
		c4.927,0,9.169-3.708,9.722-8.719C2774.553,3725.638,2770.677,3720.8,2765.302,3720.205z"/>
	<path fill="#A2DFFF" d="M2664.288,3705.448c-16.677-3.038-33.518-6.413-50.055-10.03c-5.287-1.157-10.503,2.19-11.66,7.473
		c-1.157,5.283,2.19,10.503,7.473,11.659c16.763,3.667,33.83,7.089,50.732,10.167c0.594,0.108,1.184,0.159,1.766,0.159
		c4.641,0,8.762-3.312,9.624-8.039C2673.137,3711.518,2669.608,3706.418,2664.288,3705.448z"/>
	<path fill="#A2DFFF" d="M2861.015,807.067c-0.276-5.401-4.879-9.557-10.279-9.282c-17.166,0.875-34.531,2.062-51.615,3.529
		c-5.389,0.463-9.382,5.205-8.918,10.593c0.438,5.104,4.716,8.956,9.745,8.956c0.282,0,0.564-0.013,0.85-0.036
		c16.857-1.447,33.994-2.619,50.935-3.483C2857.134,817.071,2861.29,812.47,2861.015,807.067z"/>
	<path fill="#A2DFFF" d="M3272.272,3687.945c-16.466,4.001-33.225,7.761-49.811,11.177c-5.297,1.09-8.707,6.27-7.616,11.565
		c0.954,4.631,5.031,7.819,9.581,7.819c0.654,0,1.319-0.065,1.986-0.203c16.81-3.461,33.794-7.272,50.483-11.327
		c5.256-1.276,8.481-6.572,7.204-11.827C3282.823,3689.894,3277.525,3686.671,3272.272,3687.945z"/>
	<path fill="#A2DFFF" d="M3259.527,853.276c4.454,0,8.483-3.06,9.532-7.583c1.221-5.27-2.061-10.53-7.33-11.751
		c-16.72-3.875-33.745-7.505-50.602-10.791c-5.313-1.035-10.451,2.431-11.485,7.738c-1.034,5.309,2.431,10.45,7.738,11.485
		c16.632,3.243,33.431,6.824,49.928,10.647C3258.052,853.193,3258.796,853.276,3259.527,853.276z"/>
	<path fill="#A2DFFF" d="M3559.824,3584.868c-15.22,7.352-30.775,14.529-46.232,21.337c-4.95,2.18-7.195,7.96-5.016,12.909
		c1.614,3.665,5.203,5.849,8.967,5.849c1.318,0,2.657-0.268,3.941-0.834c15.666-6.898,31.433-14.175,46.858-21.625
		c4.87-2.352,6.911-8.206,4.56-13.076C3570.55,3584.558,3564.694,3582.518,3559.824,3584.868z"/>
	<path fill="#A2DFFF" d="M3550.859,954.324c3.676,0,7.197-2.079,8.866-5.625c2.304-4.894,0.203-10.728-4.69-13.03
		c-15.581-7.333-31.496-14.483-47.304-21.251c-4.973-2.129-10.728,0.175-12.856,5.148c-2.128,4.972,0.176,10.728,5.148,12.857
		c15.596,6.678,31.298,13.732,46.673,20.966C3548.045,954.023,3549.463,954.324,3550.859,954.324z"/>
	<path fill="#A2DFFF" d="M3642.419,1001.425c3.43,0,6.759-1.805,8.553-5.01c2.643-4.721,0.958-10.688-3.761-13.329
		c-15.019-8.408-30.383-16.656-45.664-24.518c-4.809-2.475-10.715-0.581-13.188,4.228c-2.474,4.809-0.582,10.713,4.229,13.188
		c15.078,7.757,30.237,15.896,45.057,24.192C3639.157,1001.023,3640.799,1001.425,3642.419,1001.425z"/>
	<path fill="#A2DFFF" d="M3649.949,3537.373c-14.685,8.408-29.708,16.665-44.653,24.54c-4.785,2.522-6.619,8.445-4.098,13.229
		c1.753,3.329,5.153,5.229,8.672,5.229c1.539,0,3.101-0.362,4.557-1.131c15.146-7.982,30.373-16.351,45.255-24.872
		c4.693-2.688,6.319-8.672,3.633-13.364C3660.626,3536.312,3654.641,3534.687,3649.949,3537.373z"/>
	<path fill="#A2DFFF" d="M3466.652,3625.895c-15.727,6.274-31.791,12.358-47.744,18.079c-5.091,1.825-7.738,7.432-5.912,12.523
		c1.435,3.998,5.2,6.489,9.218,6.489c1.098,0,2.214-0.187,3.306-0.578c16.17-5.798,32.451-11.962,48.391-18.322
		c5.023-2.005,7.471-7.701,5.467-12.725C3477.373,3626.339,3471.678,3623.889,3466.652,3625.895z"/>
	<path fill="#A2DFFF" d="M3456.158,913.773c3.927,0,7.633-2.379,9.135-6.261c1.952-5.043-0.555-10.715-5.6-12.666
		c-16.065-6.217-32.455-12.228-48.716-17.867c-5.108-1.77-10.688,0.935-12.462,6.043c-1.771,5.11,0.935,10.688,6.044,12.461
		c16.044,5.563,32.216,11.494,48.065,17.628C3453.787,913.561,3454.983,913.773,3456.158,913.773z"/>
	<path fill="#A2DFFF" d="M3358.765,880c4.187,0,8.062-2.706,9.356-6.917c1.59-5.169-1.311-10.649-6.479-12.239
		c-16.404-5.045-33.132-9.868-49.72-14.334c-5.224-1.408-10.595,1.688-12.002,6.909c-1.406,5.222,1.688,10.596,6.91,12.002
		c16.365,4.407,32.87,9.165,49.054,14.143C3356.842,879.86,3357.811,880,3358.765,880z"/>
	<path fill="#A2DFFF" d="M3730.402,1054.818c3.188,0,6.317-1.556,8.197-4.423c2.966-4.522,1.704-10.592-2.818-13.559
		c-14.377-9.431-29.116-18.733-43.81-27.65c-4.624-2.805-10.646-1.331-13.451,3.292c-2.807,4.624-1.333,10.646,3.291,13.452
		c14.498,8.798,29.042,17.977,43.229,27.282C3726.696,1054.299,3728.559,1054.818,3730.402,1054.818z"/>
	<path fill="#A2DFFF" d="M3370.557,3660.354c-16.131,5.15-32.583,10.084-48.898,14.664c-5.208,1.463-8.244,6.868-6.783,12.075
		c1.214,4.322,5.146,7.148,9.425,7.148c0.875,0,1.767-0.118,2.65-0.366c16.539-4.643,33.213-9.643,49.562-14.862
		c5.151-1.646,7.995-7.155,6.351-12.308C3381.22,3661.552,3375.707,3658.708,3370.557,3660.354z"/>
</g>
<g>
	<g>
		<g>
			<path fill="#E0F4FC" d="M1239.692,961.125h-14.428c-2.444,0-4.426,6.32-4.426,14.116s1.981,14.116,4.426,14.116h14.428
				c2.444,0,4.426-6.32,4.426-14.116S1242.138,961.125,1239.692,961.125z"/>
			<path fill="#1977CC" d="M1239.692,953.876h-14.428c-2.674,0-7.533,1.196-10.048,9.216c-1.05,3.349-1.628,7.664-1.628,12.148
				c0,4.485,0.578,8.802,1.628,12.149c2.515,8.019,7.374,9.216,10.048,9.216h14.428c2.673,0,7.534-1.197,10.047-9.216
				c1.05-3.35,1.628-7.664,1.628-12.149c0-4.484-0.578-8.801-1.628-12.148C1247.227,955.073,1242.366,953.876,1239.692,953.876z
				 M1239.692,989.357h-14.428c-2.444,0-4.426-6.32-4.426-14.116s1.981-14.116,4.426-14.116h14.428c2.444,0,4.426,6.32,4.426,14.116
				S1242.138,989.357,1239.692,989.357z"/>
		</g>
		<g>
			<path fill="#E0F4FC" d="M1201.251,961.125h-46.019c-7.796,0-14.116,6.32-14.116,14.116s6.319,14.116,14.116,14.116h46.019
				c7.796,0,14.116-6.32,14.116-14.116S1209.048,961.125,1201.251,961.125z"/>
			<path fill="#1977CC" d="M1201.251,953.876h-46.019c-11.781,0-21.365,9.584-21.365,21.364c0,11.781,9.584,21.365,21.365,21.365
				h46.019c11.781,0,21.365-9.584,21.365-21.365C1222.616,963.46,1213.032,953.876,1201.251,953.876z M1201.251,989.357h-46.019
				c-7.796,0-14.116-6.32-14.116-14.116s6.319-14.116,14.116-14.116h46.019c7.796,0,14.116,6.32,14.116,14.116
				S1209.048,989.357,1201.251,989.357z"/>
		</g>
		<g>
			<path fill="#A2DFFF" d="M1428.093,965.121h-297.265c-21.694,0-39.343,17.648-39.343,39.345v638.834
				c0,21.694,17.648,39.344,39.343,39.344h297.265c21.695,0,39.345-17.648,39.345-39.344v-638.834
				C1467.438,982.77,1449.788,965.121,1428.093,965.121z"/>
			<path fill="#1977CC" d="M1428.093,961.497h-297.265c-23.693,0-42.968,19.275-42.968,42.969v638.834
				c0,23.692,19.274,42.969,42.968,42.969h297.265c23.692,0,42.969-19.275,42.969-42.969v-638.834
				C1471.062,980.773,1451.785,961.497,1428.093,961.497z M1463.812,1643.299c0,19.695-16.023,35.72-35.72,35.72h-297.265
				c-19.695,0-35.719-16.023-35.719-35.72v-638.834c0-19.695,16.022-35.72,35.719-35.72h297.265c19.696,0,35.72,16.023,35.72,35.72
				V1643.299z"/>
		</g>
		<g>
			<path fill="#E0F4FC" d="M1310.791,1622.468h-62.66c-6.036,0-10.929,4.892-10.929,10.929s4.893,10.929,10.929,10.929h62.66
				c6.035,0,10.928-4.892,10.928-10.929S1316.826,1622.468,1310.791,1622.468z"/>
			<path fill="#1977CC" d="M1310.791,1615.218h-62.66c-10.022,0-18.178,8.154-18.178,18.179c0,10.023,8.155,18.178,18.178,18.178
				h62.66c10.023,0,18.178-8.154,18.178-18.178C1328.969,1623.373,1320.814,1615.218,1310.791,1615.218z M1310.791,1644.325h-62.66
				c-6.036,0-10.929-4.892-10.929-10.929s4.893-10.929,10.929-10.929h62.66c6.035,0,10.928,4.892,10.928,10.929
				S1316.826,1644.325,1310.791,1644.325z"/>
		</g>
		<g>
			<path fill="#A2DFFF" d="M1310.791,1008.23h-62.66c-6.036,0-10.929,4.893-10.929,10.929c0,6.037,4.893,10.93,10.929,10.93h62.66
				c6.035,0,10.928-4.893,10.928-10.93S1316.826,1008.23,1310.791,1008.23z"/>
			<path fill="#1977CC" d="M1310.791,1000.981h-62.66c-10.022,0-18.178,8.154-18.178,18.178c0,10.024,8.155,18.18,18.178,18.18
				h62.66c10.023,0,18.178-8.155,18.178-18.18C1328.969,1009.135,1320.814,1000.981,1310.791,1000.981z M1310.791,1030.087h-62.66
				c-6.036,0-10.929-4.893-10.929-10.93c0-6.036,4.893-10.929,10.929-10.929h62.66c6.035,0,10.928,4.893,10.928,10.929
				C1321.719,1025.195,1316.826,1030.087,1310.791,1030.087z"/>
		</g>
		<g>
			<rect x="1118.806" y="1060.741" fill="#FFFFFF" width="321.304" height="530.407"/>
			<path fill="#1977CC" d="M1440.109,1053.492h-321.304c-4.004,0-7.25,3.244-7.25,7.249v530.407c0,4.004,3.246,7.25,7.25,7.25
				h321.304c4.004,0,7.25-3.246,7.25-7.25v-530.407C1447.358,1056.736,1444.113,1053.492,1440.109,1053.492z M1440.109,1591.148
				h-321.304v-530.407h321.304V1591.148z"/>
		</g>
	</g>
</g>
<g>
	<g>
		<g>
			<path fill="#E0F4FC" d="M4466.042,2802.569h-11.352c-1.923,0-3.48,4.973-3.48,11.104s1.559,11.104,3.48,11.104h11.352
				c1.924,0,3.48-4.973,3.48-11.104S4467.966,2802.569,4466.042,2802.569z"/>
			<path fill="#1977CC" d="M4466.042,2796.867h-11.352c-2.102,0-5.926,0.941-7.902,7.25c-0.826,2.634-1.28,6.028-1.28,9.558
				s0.454,6.924,1.28,9.559c1.978,6.309,5.801,7.25,7.902,7.25h11.352c2.104,0,5.926-0.941,7.903-7.25
				c0.824-2.635,1.278-6.029,1.278-9.559s-0.455-6.924-1.278-9.558C4471.969,2797.81,4468.146,2796.867,4466.042,2796.867z
				 M4466.042,2824.778h-11.352c-1.923,0-3.48-4.972-3.48-11.104s1.559-11.105,3.48-11.105h11.352c1.924,0,3.48,4.974,3.48,11.105
				S4467.966,2824.778,4466.042,2824.778z"/>
		</g>
		<g>
			<path fill="#E0F4FC" d="M4435.802,2802.569h-36.203c-6.133,0-11.104,4.973-11.104,11.104s4.971,11.104,11.104,11.104h36.203
				c6.133,0,11.104-4.973,11.104-11.104S4441.935,2802.569,4435.802,2802.569z"/>
			<path fill="#1977CC" d="M4435.802,2796.867h-36.203c-9.268,0-16.809,7.54-16.809,16.808c0,9.27,7.541,16.809,16.809,16.809
				h36.203c9.268,0,16.809-7.539,16.809-16.809C4452.61,2804.407,4445.069,2796.867,4435.802,2796.867z M4435.802,2824.778h-36.203
				c-6.133,0-11.104-4.972-11.104-11.104s4.971-11.105,11.104-11.105h36.203c6.133,0,11.104,4.974,11.104,11.105
				S4441.935,2824.778,4435.802,2824.778z"/>
		</g>
		<g>
			<path fill="#A2DFFF" d="M4614.254,2805.713h-233.854c-17.064,0-30.949,13.885-30.949,30.951v502.56
				c0,17.067,13.885,30.951,30.949,30.951h233.854c17.065,0,30.95-13.884,30.95-30.951v-502.56
				C4645.204,2819.598,4631.321,2805.713,4614.254,2805.713z"/>
			<path fill="#1977CC" d="M4614.254,2802.862h-233.854c-18.638,0-33.801,15.164-33.801,33.802v502.56
				c0,18.639,15.164,33.803,33.801,33.803h233.854c18.638,0,33.802-15.164,33.802-33.803v-502.56
				C4648.056,2818.026,4632.892,2802.862,4614.254,2802.862z M4642.354,3339.224c0,15.494-12.604,28.101-28.101,28.101h-233.854
				c-15.494,0-28.1-12.605-28.1-28.101v-502.56c0-15.493,12.604-28.1,28.1-28.1h233.854c15.494,0,28.101,12.605,28.101,28.1
				V3339.224z"/>
		</g>
		<g>
			<path fill="#E0F4FC" d="M4521.975,3322.837h-49.294c-4.748,0-8.598,3.848-8.598,8.597s3.85,8.599,8.598,8.599h49.294
				c4.747,0,8.597-3.85,8.597-8.599S4526.722,3322.837,4521.975,3322.837z"/>
			<path fill="#1977CC" d="M4521.975,3317.133h-49.294c-7.885,0-14.301,6.416-14.301,14.301c0,7.886,6.416,14.3,14.301,14.3h49.294
				c7.885,0,14.3-6.414,14.3-14.3C4536.274,3323.549,4529.86,3317.133,4521.975,3317.133z M4521.975,3340.03h-49.294
				c-4.748,0-8.598-3.849-8.598-8.598c0-4.748,3.85-8.597,8.598-8.597h49.294c4.747,0,8.597,3.848,8.597,8.597
				S4526.722,3340.03,4521.975,3340.03z"/>
		</g>
		<g>
			<path fill="#A2DFFF" d="M4521.975,2839.626h-49.294c-4.748,0-8.598,3.85-8.598,8.598c0,4.749,3.85,8.598,8.598,8.598h49.294
				c4.747,0,8.597-3.849,8.597-8.598C4530.571,2843.476,4526.722,2839.626,4521.975,2839.626z"/>
			<path fill="#1977CC" d="M4521.975,2833.924h-49.294c-7.885,0-14.301,6.415-14.301,14.3s6.416,14.301,14.301,14.301h49.294
				c7.885,0,14.3-6.416,14.3-14.301S4529.86,2833.924,4521.975,2833.924z M4521.975,2856.821h-49.294
				c-4.748,0-8.598-3.85-8.598-8.599c0-4.748,3.85-8.598,8.598-8.598h49.294c4.747,0,8.597,3.851,8.597,8.598
				C4530.571,2852.973,4526.722,2856.821,4521.975,2856.821z"/>
		</g>
		<g>
			<rect x="4370.942" y="2880.937" fill="#FFFFFF" width="252.765" height="417.262"/>
			<path fill="#1977CC" d="M4623.706,2875.233h-252.765c-3.147,0-5.703,2.554-5.703,5.703v417.262c0,3.149,2.556,5.703,5.703,5.703
				h252.765c3.149,0,5.703-2.554,5.703-5.703v-417.262C4629.409,2877.786,4626.856,2875.233,4623.706,2875.233z M4623.706,3298.196
				h-252.765v-417.261h252.765V3298.196z"/>
		</g>
	</g>
</g>
<g>
	<g>
		<path fill="#E0F4FC" d="M4942.882,1692.913H4350.73c-12.024,0-21.771,9.746-21.771,21.771v43.542v285.995v77.071h635.693v-77.071
			v-285.996v-43.541C4964.652,1702.659,4954.904,1692.913,4942.882,1692.913z"/>
		<path fill="#1977CC" d="M4942.882,1688.507H4350.73c-14.434,0-26.176,11.741-26.176,26.175v43.542v285.995v77.071
			c0,2.434,1.972,4.405,4.403,4.405h635.694c2.434,0,4.404-1.973,4.404-4.405v-77.071v-285.995v-43.541
			C4969.059,1700.25,4957.314,1688.507,4942.882,1688.507z M4964.652,1758.224v285.995v77.071h-635.694v-77.071v-285.995v-43.541
			c0-12.024,9.747-21.771,21.771-21.771h592.152c12.023,0,21.771,9.746,21.771,21.771V1758.224z"/>
	</g>
	<g>
		<path fill="#A2DFFF" d="M4940.66,1702.501h-587.71c-7.442,0-13.476,6.034-13.476,13.477v49.674v275.335v85.991h614.662v-85.991
			v-275.335v-49.674C4954.137,1708.536,4948.104,1702.501,4940.66,1702.501z"/>
		<path fill="#1977CC" d="M4940.66,1698.096h-587.71c-9.858,0-17.882,8.021-17.882,17.881v49.674v275.335v85.991
			c0,2.433,1.973,4.404,4.406,4.404h614.662c2.434,0,4.405-1.972,4.405-4.404v-85.991v-275.334v-49.674
			C4958.543,1706.118,4950.521,1698.096,4940.66,1698.096z M4954.137,1765.652v275.335v85.991h-614.662v-85.991v-275.335v-49.674
			c0-7.442,6.035-13.477,13.477-13.477h587.71c7.442,0,13.478,6.034,13.478,13.477v49.674H4954.137z"/>
	</g>
	<g>
		<path fill="#A2DFFF" d="M4263.288,2128.331c0,14.392,20.133,26.057,44.978,26.057h677.08c24.845,0,44.979-11.665,44.979-26.057
			v-7.04h-767.035L4263.288,2128.331L4263.288,2128.331z"/>
		<path fill="#1977CC" d="M5030.323,2116.885h-767.035c-2.435,0-4.405,1.972-4.405,4.405v7.04c0,8.599,5.457,16.495,15.369,22.237
			c9.154,5.303,21.234,8.224,34.014,8.224h677.081c12.778,0,24.856-2.921,34.015-8.224c9.912-5.742,15.369-13.639,15.369-22.237
			v-7.04C5034.729,2118.857,5032.756,2116.885,5030.323,2116.885z M5030.323,2128.331c0,14.392-20.134,26.057-44.978,26.057
			h-677.082c-24.844,0-44.977-11.665-44.977-26.057v-7.04h767.035L5030.323,2128.331L5030.323,2128.331z"/>
	</g>
	<g>
		<g>
			<rect x="4376.521" y="1735.701" fill="#E0F4FC" width="540.566" height="351.75"/>
			<path fill="#1977CC" d="M4917.089,1731.295h-540.565c-2.434,0-4.405,1.973-4.405,4.404v351.75c0,2.434,1.974,4.405,4.405,4.405
				h540.565c2.435,0,4.405-1.972,4.405-4.405V1735.7C4921.495,1733.268,4919.521,1731.295,4917.089,1731.295z M4917.089,2087.451
				h-540.565v-351.75h540.565V2087.451z"/>
		</g>
	</g>
	<g>
		<path fill="#6EBDFF" d="M4263.288,2128.331c0,4.031,1.58,7.848,4.399,11.253h758.235c2.819-3.405,4.399-7.223,4.399-11.253v-7.04
			h-767.035L4263.288,2128.331L4263.288,2128.331z"/>
		<path fill="#1977CC" d="M5030.323,2116.885h-767.035c-2.435,0-4.405,1.972-4.405,4.405v7.04c0,4.923,1.871,9.786,5.412,14.063
			c0.836,1.011,2.082,1.596,3.394,1.596h758.235c1.312,0,2.558-0.585,3.395-1.596c3.54-4.277,5.412-9.141,5.412-14.063v-7.04
			C5034.729,2118.857,5032.756,2116.885,5030.323,2116.885z M5030.323,2128.331c0,4.031-1.58,7.849-4.399,11.253h-758.235
			c-2.819-3.405-4.399-7.223-4.399-11.253v-7.04h767.035L5030.323,2128.331L5030.323,2128.331z"/>
	</g>
	<g>
		<rect x="4560.502" y="2121.291" fill="#A2DFFF" width="172.607" height="8.1"/>
		<path fill="#1977CC" d="M4733.109,2116.885h-172.607c-2.434,0-4.406,1.972-4.406,4.405v8.1c0,2.434,1.974,4.405,4.406,4.405
			h172.607c2.434,0,4.405-1.972,4.405-4.405v-8.1C4737.516,2118.857,4735.543,2116.885,4733.109,2116.885z M4733.109,2129.39
			h-172.607v-8.1h172.607V2129.39z"/>
	</g>
</g>
<g>
	<g>
		<circle fill="#A2DFFF" cx="2927.121" cy="2248.587" r="525.021"/>
		<path fill="#1977CC" d="M3302.976,2624.441c48.812-48.813,87.14-105.659,113.912-168.953
			c27.719-65.537,41.772-135.149,41.772-206.903c0-71.755-14.054-141.367-41.772-206.902
			c-26.772-63.296-65.1-120.14-113.912-168.956c-48.812-48.812-105.659-87.137-168.955-113.909
			c-65.535-27.719-135.146-41.775-206.9-41.775c-71.753,0-141.367,14.056-206.9,41.775
			c-63.296,26.772-120.143,65.097-168.956,113.909c-48.813,48.816-87.139,105.659-113.91,168.956
			c-27.717,65.535-41.774,135.148-41.774,206.902c0,71.752,14.058,141.366,41.774,206.903
			c26.771,63.294,65.097,120.14,113.91,168.953c48.814,48.815,105.659,87.139,168.957,113.912
			c65.533,27.719,135.146,41.774,206.899,41.774c71.754,0,141.365-14.056,206.9-41.774
			C3197.316,2711.58,3254.163,2673.257,3302.976,2624.441z M2725.297,2726.344c-61.742-26.113-117.192-63.501-164.813-111.122
			c-47.619-47.617-85.007-103.071-111.123-164.813c-27.034-63.921-40.743-131.823-40.743-201.823
			c0-70.001,13.709-137.904,40.743-201.822c26.115-61.742,63.504-117.193,111.123-164.813
			c47.621-47.622,103.071-85.008,164.813-111.123c63.92-27.037,131.822-40.746,201.823-40.746c70,0,137.902,13.709,201.821,40.746
			c61.743,26.115,117.193,63.501,164.814,111.123c47.62,47.619,85.009,103.071,111.122,164.813
			c27.035,63.918,40.744,131.821,40.744,201.822c0,70-13.709,137.902-40.744,201.823c-26.113,61.742-63.502,117.194-111.122,164.813
			c-47.62,47.621-103.071,85.009-164.814,111.122c-63.918,27.037-131.821,40.746-201.821,40.746
			C2857.119,2767.09,2789.217,2753.381,2725.297,2726.344z"/>
	</g>
	<g>
		<path fill="#FFFFFF" d="M3119.428,1810.11c1.404-3.313-0.147-7.142-3.466-8.544c-59.814-25.297-123.35-38.127-188.842-38.127
			c-3.601,0-6.521,2.917-6.521,6.518c0,3.603,2.919,6.521,6.521,6.521c63.737,0,125.563,12.481,183.765,37.1
			C3114.2,1814.978,3118.023,1813.426,3119.428,1810.11z"/>
		<path fill="#FFFFFF" d="M2682.655,2660.211c1.886-3.067,0.921-7.087-2.145-8.97c-67.591-41.485-124.124-99.782-163.481-168.586
			c-40.57-70.931-62.017-151.866-62.017-234.073c0-75.989,18.48-151.506,53.439-218.388
			c33.842-64.745,83.099-121.635,142.45-164.523c2.92-2.11,3.574-6.186,1.465-9.103c-2.108-2.917-6.183-3.575-9.102-1.466
			c-60.981,44.071-111.595,102.524-146.367,169.051c-35.931,68.739-54.924,146.345-54.924,224.432
			c0,84.471,22.04,167.649,63.736,240.544c40.44,70.697,98.527,130.6,167.979,173.226
			C2676.756,2664.239,2680.771,2663.278,2682.655,2660.211z"/>
		<path fill="#FFFFFF" d="M3412.267,2248.585c0-65.491-12.828-129.029-38.127-188.843c-24.437-57.771-59.416-109.654-103.97-154.208
			c-2.546-2.547-6.674-2.547-9.22,0c-1.272,1.274-1.909,2.942-1.909,4.611s0.637,3.338,1.909,4.61
			c89.17,89.169,138.277,207.726,138.277,333.83c0,3.601,2.918,6.521,6.519,6.521S3412.267,2252.186,3412.267,2248.585z"/>
	</g>
	<g>
		<circle fill="#FFFFFF" cx="2927.12" cy="2248.587" r="421.441"/>
		<path fill="#1977CC" d="M3355.08,2248.585c0-114.312-44.517-221.782-125.347-302.613
			c-80.832-80.83-188.303-125.347-302.613-125.347c-114.312,0-221.783,44.515-302.612,125.347
			c-80.832,80.832-125.347,188.303-125.347,302.613c0,114.313,44.515,221.783,125.347,302.615
			c80.829,80.831,188.3,125.347,302.612,125.347s221.782-44.515,302.611-125.347
			C3310.562,2470.365,3355.08,2362.898,3355.08,2248.585z M2633.728,2541.98c-78.368-78.371-121.528-182.566-121.528-293.396
			c0-110.831,43.161-215.026,121.528-293.394c78.368-78.368,182.564-121.528,293.393-121.528
			c110.829,0,215.024,43.16,293.395,121.528c78.368,78.368,121.525,182.564,121.525,293.394s-43.157,215.024-121.525,293.396
			c-78.37,78.367-182.565,121.528-293.395,121.528C2816.292,2663.509,2712.096,2620.348,2633.728,2541.98z"/>
	</g>
	<g>
		<circle fill="#A2DFFF" cx="2927.12" cy="2248.587" r="311.777"/>
		<path fill="#1977CC" d="M3245.417,2248.585c0-85.021-33.109-164.951-93.227-225.068c-60.119-60.118-140.05-93.227-225.07-93.227
			s-164.95,33.109-225.07,93.227c-60.118,60.117-93.227,140.048-93.227,225.068c0,85.021,33.109,164.953,93.227,225.07
			c60.121,60.118,140.051,93.228,225.07,93.228c85.019,0,164.951-33.109,225.07-93.228
			C3212.308,2413.538,3245.417,2333.605,3245.417,2248.585z M2711.27,2464.436c-57.654-57.656-89.406-134.312-89.406-215.851
			c0-81.537,31.752-158.194,89.406-215.85c57.657-57.654,134.313-89.407,215.851-89.407c81.538,0,158.193,31.753,215.851,89.407
			c57.654,57.656,89.406,134.314,89.406,215.85c0,81.538-31.752,158.194-89.406,215.851
			c-57.657,57.654-134.314,89.409-215.851,89.409C2845.581,2553.845,2768.926,2522.09,2711.27,2464.436z"/>
	</g>
	<g>
		<circle fill="#FFFFFF" cx="2927.121" cy="2248.587" r="201.304"/>
		<path fill="#1977CC" d="M3134.945,2248.585c0-114.593-93.231-207.823-207.825-207.823c-114.595,0-207.824,93.229-207.824,207.823
			c0,114.596,93.229,207.825,207.824,207.825C3041.714,2456.41,3134.945,2363.181,3134.945,2248.585z M2732.335,2248.585
			c0-107.406,87.379-194.785,194.783-194.785c107.403,0,194.784,87.38,194.784,194.785c0,107.407-87.381,194.788-194.784,194.788
			C2819.715,2443.373,2732.335,2355.992,2732.335,2248.585z"/>
	</g>
	<g>
		<path fill="#A2DFFF" d="M3005.399,2248.587c0-43.235-35.046-78.282-78.281-78.282c-43.233,0-78.28,35.046-78.28,78.282
			c0,43.23,35.047,78.28,78.28,78.28C2970.353,2326.867,3005.399,2291.817,3005.399,2248.587z"/>
		<path fill="#1977CC" d="M3011.92,2248.585c0-46.759-38.042-84.798-84.801-84.798c-46.759,0-84.8,38.04-84.8,84.798
			s38.042,84.8,84.8,84.8C2973.878,2333.385,3011.92,2295.344,3011.92,2248.585z M2855.36,2248.585
			c0-39.567,32.191-71.76,71.76-71.76c39.57,0,71.761,32.19,71.761,71.76c0,39.569-32.192,71.762-71.761,71.762
			C2887.551,2320.347,2855.36,2288.154,2855.36,2248.585z"/>
	</g>
	<g>
		<line fill="none" x1="2927.12" y1="2247.753" x2="2927.12" y2="2919.748"/>
		<path fill="#1977CC" d="M2933.64,2919.748v-671.992c0-3.601-2.919-6.521-6.52-6.521c-3.601,0-6.521,2.919-6.521,6.521v671.992
			c0,3.602,2.919,6.521,6.521,6.521C2930.721,2926.269,2933.64,2923.35,2933.64,2919.748z"/>
	</g>
	<g>
		<g>
			<g>
				<polygon fill="#6EBDFF" points="2927.12,2720.137 2927.12,3101.286 3079.578,3226.594 3079.578,2845.445 				"/>
				<path fill="#1977CC" d="M3086.099,3226.594v-381.148c0-1.951-0.873-3.797-2.381-5.036l-152.458-125.309
					c-1.948-1.604-4.645-1.938-6.925-0.859c-2.279,1.079-3.735,3.373-3.735,5.896v381.149c0,1.947,0.875,3.797,2.381,5.035
					l152.458,125.309c1.948,1.604,4.645,1.938,6.927,0.859C3084.643,3231.412,3086.099,3229.117,3086.099,3226.594z
					 M2933.64,3098.205v-364.271l139.42,114.59v364.273L2933.64,3098.205z"/>
			</g>
			<g>
				<line fill="none" x1="3023.135" y1="2934.245" x2="2927.12" y2="2855.33"/>
				<path fill="#1977CC" d="M3027.273,2929.209l-96.014-78.915c-2.782-2.287-6.891-1.883-9.176,0.896
					c-0.998,1.213-1.484,2.68-1.484,4.138c0,1.883,0.813,3.751,2.381,5.038l96.016,78.914c2.781,2.289,6.889,1.887,9.175-0.896
					S3030.055,2931.494,3027.273,2929.209z"/>
			</g>
			<g>
				<line fill="none" x1="3023.135" y1="3051.719" x2="2927.12" y2="2972.805"/>
				<path fill="#1977CC" d="M3027.273,3046.683l-96.014-78.914c-2.782-2.289-6.891-1.886-9.176,0.896
					c-0.998,1.212-1.484,2.679-1.484,4.134c0,1.884,0.813,3.752,2.381,5.042l96.016,78.914c2.781,2.287,6.889,1.886,9.175-0.896
					S3030.055,3048.971,3027.273,3046.683z"/>
			</g>
		</g>
		<g>
			<g>
				<polygon fill="#6EBDFF" points="2927.12,2720.137 2774.662,2845.445 2774.662,3226.594 2927.12,3101.286 				"/>
				<path fill="#1977CC" d="M2931.26,3106.321c1.506-1.238,2.38-3.088,2.38-5.035v-381.149c0-2.522-1.456-4.818-3.735-5.896
					c-2.278-1.076-4.977-0.744-6.924,0.859l-152.458,125.309c-1.508,1.239-2.381,3.085-2.381,5.036v381.148
					c0,2.523,1.458,4.818,3.736,5.896c2.278,1.078,4.976,0.744,6.924-0.859L2931.26,3106.321z M2781.179,2848.525l139.422-114.592
					v364.273l-139.422,114.59V2848.525z"/>
			</g>
			<g>
				<line fill="none" x1="2831.105" y1="2934.245" x2="2927.12" y2="2855.33"/>
				<path fill="#1977CC" d="M2931.26,2860.366c2.782-2.285,3.184-6.39,0.896-9.176c-2.285-2.779-6.393-3.183-9.175-0.896
					l-96.015,78.915c-1.567,1.29-2.378,3.157-2.378,5.041c0,1.457,0.484,2.922,1.481,4.135c2.288,2.782,6.395,3.184,9.176,0.896
					L2931.26,2860.366z"/>
			</g>
			<g>
				<line fill="none" x1="2831.105" y1="3051.719" x2="2927.12" y2="2972.805"/>
				<path fill="#1977CC" d="M2931.26,2977.841c2.782-2.288,3.181-6.396,0.896-9.176c-2.285-2.782-6.393-3.184-9.175-0.896
					l-96.015,78.914c-1.567,1.29-2.378,3.158-2.378,5.042c0,1.455,0.484,2.922,1.481,4.134c2.288,2.782,6.395,3.183,9.176,0.896
					L2931.26,2977.841z"/>
			</g>
		</g>
	</g>
</g>
<g>
	<g>
		<path fill="#E0F4FC" d="M1533.277,2875.998H941.125c-12.024,0-21.771,9.746-21.771,21.771v43.542v285.994v77.071h635.694v-77.071
			v-285.994v-43.543C1555.048,2885.744,1545.301,2875.998,1533.277,2875.998z"/>
		<path fill="#1977CC" d="M1533.277,2871.594H941.125c-14.434,0-26.176,11.741-26.176,26.175v43.542v285.994v77.071
			c0,2.434,1.972,4.405,4.403,4.405h635.694c2.434,0,4.405-1.973,4.405-4.405v-77.071v-285.994v-43.543
			C1559.453,2883.335,1547.71,2871.594,1533.277,2871.594z M1555.048,2941.309v285.996v77.07H919.354v-77.07v-285.996v-43.541
			c0-12.023,9.747-21.771,21.771-21.771h592.151c12.023,0,21.771,9.746,21.771,21.771V2941.309L1555.048,2941.309z"/>
	</g>
	<g>
		<path fill="#A2DFFF" d="M1531.056,2885.587h-587.71c-7.442,0-13.476,6.034-13.476,13.477v49.675v275.335v85.99h614.661v-85.99
			v-275.335v-49.675C1544.531,2891.621,1538.499,2885.587,1531.056,2885.587z"/>
		<path fill="#1977CC" d="M1531.056,2881.182h-587.71c-9.859,0-17.882,8.021-17.882,17.881v49.675v275.335v85.99
			c0,2.434,1.973,4.406,4.406,4.406h614.661c2.435,0,4.406-1.974,4.406-4.406v-85.99v-275.335v-49.675
			C1548.938,2889.203,1540.916,2881.182,1531.056,2881.182z M1544.531,2948.737v275.335v85.99H929.87v-85.99v-275.335v-49.675
			c0-7.441,6.034-13.477,13.476-13.477h587.71c7.443,0,13.478,6.034,13.478,13.477v49.675H1544.531z"/>
	</g>
	<g>
		<path fill="#A2DFFF" d="M853.684,3311.416c0,14.392,20.133,26.057,44.978,26.057h677.081c24.844,0,44.978-11.666,44.978-26.057
			v-7.04H853.684V3311.416z"/>
		<path fill="#1977CC" d="M1620.719,3299.971H853.684c-2.434,0-4.406,1.973-4.406,4.405v7.04c0,8.598,5.458,16.495,15.37,22.236
			c9.154,5.304,21.234,8.225,34.013,8.225h677.081c12.777,0,24.856-2.92,34.014-8.225c9.912-5.741,15.37-13.639,15.37-22.236v-7.04
			C1625.125,3301.942,1623.152,3299.971,1620.719,3299.971z M1620.719,3311.416c0,14.392-20.134,26.057-44.979,26.057H898.66
			c-24.845,0-44.978-11.666-44.978-26.057v-7.04h767.035L1620.719,3311.416L1620.719,3311.416z"/>
	</g>
	<g>
		<g>
			<rect x="966.918" y="2918.786" fill="#E0F4FC" width="540.565" height="351.75"/>
			<path fill="#1977CC" d="M1507.484,2914.381H966.918c-2.434,0-4.405,1.973-4.405,4.405v351.75c0,2.433,1.973,4.405,4.405,4.405
				h540.565c2.435,0,4.406-1.973,4.406-4.405v-351.75C1511.891,2916.354,1509.918,2914.381,1507.484,2914.381z M1507.484,3270.536
				H966.918v-351.75h540.565L1507.484,3270.536L1507.484,3270.536z"/>
		</g>
	</g>
	<g>
		<path fill="#6EBDFF" d="M853.684,3311.416c0,4.031,1.58,7.848,4.399,11.254h758.235c2.819-3.406,4.399-7.223,4.399-11.254v-7.04
			H853.684V3311.416z"/>
		<path fill="#1977CC" d="M1620.719,3299.971H853.684c-2.434,0-4.406,1.973-4.406,4.405v7.04c0,4.924,1.872,9.786,5.412,14.063
			c0.836,1.011,2.082,1.596,3.394,1.596h758.236c1.312,0,2.557-0.585,3.394-1.596c3.54-4.277,5.412-9.14,5.412-14.063v-7.04
			C1625.125,3301.942,1623.152,3299.971,1620.719,3299.971z M1620.719,3311.416c0,4.031-1.58,7.848-4.399,11.254H858.083
			c-2.819-3.406-4.399-7.223-4.399-11.254v-7.04h767.035V3311.416z"/>
	</g>
	<g>
		<rect x="1150.897" y="3304.376" fill="#A2DFFF" width="172.607" height="8.1"/>
		<path fill="#1977CC" d="M1323.505,3299.971h-172.607c-2.434,0-4.405,1.973-4.405,4.405v8.1c0,2.434,1.973,4.405,4.405,4.405
			h172.607c2.434,0,4.406-1.973,4.406-4.405v-8.1C1327.911,3301.942,1325.938,3299.971,1323.505,3299.971z M1323.505,3312.475
			h-172.607v-8.1h172.607V3312.475z"/>
	</g>
</g>
<g>
	<g>
		<circle fill="#FFFFFF" cx="4171.203" cy="1606.594" r="275.936"/>
		<path fill="#1977CC" d="M4373.805,1403.993c-26.31-26.311-56.951-46.969-91.071-61.4c-35.331-14.943-72.854-22.521-111.53-22.521
			c-38.677,0-76.2,7.577-111.531,22.521c-34.12,14.431-64.76,35.089-91.071,61.4c-26.311,26.31-46.969,56.951-61.399,91.071
			c-14.943,35.331-22.521,72.855-22.521,111.53c0,38.676,7.576,76.199,22.521,111.531c14.432,34.121,35.089,64.761,61.399,91.072
			c26.311,26.311,56.951,46.968,91.071,61.398c35.331,14.944,72.854,22.521,111.531,22.521c38.676,0,76.199-7.578,111.53-22.521
			c34.12-14.432,64.761-35.089,91.071-61.398c26.311-26.31,46.968-56.951,61.398-91.072c14.944-35.331,22.522-72.855,22.522-111.531
			s-7.577-76.2-22.522-111.53C4420.772,1460.943,4400.114,1430.303,4373.805,1403.993z M4171.203,1882.529
			c-152.396,0-275.936-123.541-275.936-275.935c0-152.395,123.54-275.935,275.936-275.935c152.395,0,275.936,123.54,275.936,275.935
			S4323.598,1882.529,4171.203,1882.529z"/>
	</g>
	<g>
		<g>
			<path fill="#A2DFFF" d="M4283.879,1765.241h-225.352c-43.743,0-68.532,13.429-85.153,33.713
				c50.134,51.551,120.241,83.575,197.829,83.575c77.587,0,147.694-32.025,197.828-83.575
				C4352.411,1778.67,4327.621,1765.241,4283.879,1765.241z"/>
			<path fill="#1977CC" d="M4340.799,1764.762c-15.861-6.8-34.479-10.107-56.92-10.107h-225.352
				c-22.439,0-41.059,3.306-56.92,10.107c-14.422,6.184-26.337,15.173-36.423,27.483c-3.414,4.166-3.154,10.23,0.599,14.091
				c26.417,27.162,57.376,48.512,92.017,63.458c35.868,15.476,74.023,23.323,113.403,23.323s77.534-7.847,113.403-23.323
				c34.641-14.946,65.599-36.296,92.015-63.458c3.755-3.861,4.014-9.925,0.6-14.091
				C4367.135,1779.935,4355.221,1770.946,4340.799,1764.762z M4171.203,1882.529c-77.588,0-147.695-32.025-197.829-83.575
				c16.621-20.284,41.411-33.713,85.153-33.713h225.352c43.743,0,68.533,13.429,85.154,33.713
				C4318.897,1850.505,4248.792,1882.529,4171.203,1882.529z"/>
		</g>
		<g>
			<path fill="#FFFFFF" d="M4102.217,1808.039c0,8.684,30.889,15.727,68.986,15.727c38.099,0,68.986-7.042,68.986-15.727v-109.68
				h-137.973V1808.039z"/>
			<path fill="#1977CC" d="M4240.189,1687.772h-137.973c-5.848,0-10.589,4.74-10.589,10.586v109.679
				c0,4.342,1.906,10.547,10.987,15.44c4.314,2.326,10.188,4.345,17.455,6.001c13.78,3.142,31.939,4.873,51.133,4.873
				s37.353-1.73,51.132-4.873c7.267-1.656,13.14-3.675,17.456-6.001c9.079-4.893,10.985-11.098,10.985-15.44v-109.679
				C4250.776,1692.513,4246.037,1687.772,4240.189,1687.772z M4240.189,1808.039c0,8.684-30.889,15.727-68.986,15.727
				c-38.097,0-68.986-7.042-68.986-15.727v-109.68h137.973V1808.039z"/>
		</g>
		<path fill="#C5EDF9" d="M4102.217,1764.144c18.877,11.178,41.381,17.669,65.545,17.669c27.175,0,52.252-8.211,72.428-22.067
			v-61.388h-137.973V1764.144z"/>
		<g>
			<path fill="#A2DFFF" d="M4268.646,1630.603l-3.946-0.673C4265.959,1630.327,4267.267,1630.603,4268.646,1630.603z"/>
			<path fill="#1977CC" d="M4270.428,1620.167l-3.946-0.672c-0.601-0.103-1.199-0.153-1.791-0.153c-4.805,0-9.113,3.282-10.28,8.099
				c-1.309,5.409,1.795,10.91,7.104,12.585c2.482,0.783,4.815,1.165,7.133,1.165c5.5,0,10.084-4.212,10.549-9.692
				C4279.66,1626.016,4275.851,1621.093,4270.428,1620.167z M4264.7,1629.93l3.946,0.673
				C4267.267,1630.603,4265.959,1630.327,4264.7,1629.93z"/>
		</g>
		<g>
			<path fill="#A2DFFF" d="M4256.662,1622.943c-11.372,0.95-24.415,0.761-28.37,0.761l36.408,6.226
				C4261.176,1628.811,4258.285,1626.277,4256.662,1622.943z"/>
			<path fill="#1977CC" d="M4267.902,1619.839c-0.744-0.236-1.356-0.779-1.721-1.529c-1.783-3.663-5.493-5.953-9.517-5.953
				c-0.293,0-0.588,0.012-0.884,0.037c-5.959,0.498-13.207,0.739-22.156,0.739c-1.369,0-2.57-0.005-3.553-0.009
				c-0.708-0.003-1.308-0.006-1.78-0.006c-5.498,0-10.082,4.212-10.549,9.692c-0.465,5.479,3.344,10.404,8.765,11.33l36.409,6.225
				c0.602,0.103,1.201,0.153,1.793,0.153c4.801,0,9.108-3.277,10.278-8.088C4276.3,1627.021,4273.205,1621.521,4267.902,1619.839z
				 M4228.292,1623.704c1.125,0,2.985,0.016,5.333,0.016c5.905,0,14.899-0.097,23.036-0.777c1.624,3.334,4.514,5.868,8.039,6.986
				L4228.292,1623.704z"/>
		</g>
		<g>
			<path fill="#A2DFFF" d="M4174.477,1389.149c-35.975,0-68.42,15.307-91.648,39.843c-28.989,11.453-49.599,40.22-49.599,73.986
				v65.537v34.958v13.333c0,7.62,6.023,13.797,13.454,13.797h20.177c7.431,0,13.455-6.177,13.455-13.797v-13.333h107.616v-0.464
				h67.263v13.797c0,2.216,0.552,4.278,1.468,6.137c10.004-0.842,18.715-2.566,18.715-6.137l26.901-13.797v-34.495v-48.29
				C4302.277,1447.842,4245.062,1389.149,4174.477,1389.149z"/>
			<path fill="#1977CC" d="M4272.427,1420.153c-12.703-13.028-27.503-23.261-43.989-30.414
				c-17.094-7.417-35.249-11.177-53.961-11.177c-19.062,0-37.535,3.914-54.904,11.633c-16.022,7.121-30.42,17.159-42.829,29.852
				c-15.468,6.599-28.683,17.483-38.327,31.598c-10.319,15.103-15.772,32.854-15.772,51.333v65.537v34.959v13.332
				c0,13.445,10.785,24.383,24.04,24.383h20.178c13.256,0,24.042-10.938,24.042-24.383v-2.746h97.028
				c1.084,0,2.129-0.163,3.113-0.465h53.562v3.211c0,3.734,0.862,7.375,2.561,10.82c1.793,3.636,5.489,5.904,9.492,5.904
				c0.295,0,0.594-0.012,0.891-0.037c6.386-0.537,11.338-1.329,15.139-2.418c5.435-1.558,8.693-3.944,10.622-6.44l23.8-12.206
				c3.532-1.813,5.755-5.45,5.755-9.42v-34.494v-48.291c0-19.084-3.648-37.607-10.843-55.052
				C4295.068,1448.309,4285.111,1433.163,4272.427,1420.153z M4302.277,1568.514v34.495l-26.9,13.797
				c0,3.571-8.712,5.295-18.716,6.137c-0.916-1.859-1.468-3.921-1.468-6.137v-13.797h-67.263v0.464h-107.616v13.333
				c0,7.62-6.024,13.797-13.455,13.797h-20.176c-7.431,0-13.454-6.177-13.454-13.797v-13.333v-34.958v-65.537
				c0-33.765,20.608-62.532,49.598-73.986c23.229-24.536,55.674-39.843,91.648-39.843c70.585,0,127.802,58.693,127.802,131.075
				V1568.514L4302.277,1568.514z"/>
		</g>
		<g>
			<path fill="#FFFFFF" d="M4150.507,1575.413h-110.379c-7.619,0-13.797,6.179-13.797,13.798l6.898,55.189
				c0,7.62,6.179,13.798,13.797,13.798h103.48c7.62,0,13.798-6.178,13.798-13.798v-55.189
				C4164.305,1581.592,4158.127,1575.413,4150.507,1575.413z"/>
			<path fill="#1977CC" d="M4150.506,1564.827h-110.378c-13.446,0-24.384,10.938-24.384,24.384c0,0.439,0.026,0.877,0.082,1.313
				l6.828,54.626c0.397,13.1,11.179,23.634,24.372,23.634h103.479c13.446,0,24.386-10.938,24.386-24.385v-55.189
				C4174.892,1575.766,4163.952,1564.827,4150.506,1564.827z M4164.305,1644.399c0,7.62-6.178,13.798-13.799,13.798h-103.479
				c-7.619,0-13.797-6.178-13.797-13.798l-6.899-55.189c0-7.62,6.178-13.798,13.797-13.798h110.378
				c7.621,0,13.799,6.178,13.799,13.798V1644.399z"/>
		</g>
		<g>
			<path fill="#FFFFFF" d="M4295.379,1575.413h-110.378c-7.619,0-13.798,6.179-13.798,13.798v55.189
				c0,7.62,6.179,13.798,13.798,13.798h103.479c7.62,0,13.797-6.178,13.797-13.798l6.899-55.189
				C4309.177,1581.592,4302.999,1575.413,4295.379,1575.413z"/>
			<path fill="#1977CC" d="M4295.379,1564.827h-110.378c-13.447,0-24.386,10.938-24.386,24.384v55.189
				c0,13.446,10.938,24.384,24.386,24.384h103.479c13.195,0,23.975-10.535,24.373-23.634l6.828-54.625
				c0.055-0.436,0.082-0.874,0.082-1.313C4319.764,1575.766,4308.824,1564.827,4295.379,1564.827z M4302.277,1644.399
				c0,7.62-6.177,13.798-13.797,13.798H4185c-7.619,0-13.797-6.178-13.797-13.798v-55.189c0-7.62,6.178-13.798,13.797-13.798
				h110.379c7.619,0,13.797,6.178,13.797,13.798L4302.277,1644.399z"/>
		</g>
		<g>
			<path fill="#FFFFFF" d="M4047.027,1546.272v98.127c0,60.957,54.057,110.379,120.734,110.379
				c66.676,0,120.719-49.422,120.719-110.379v-105.224l-188.556-42.584L4047.027,1546.272z"/>
			<path fill="#1977CC" d="M4290.813,1528.85l-188.556-42.585c-0.773-0.175-1.556-0.26-2.331-0.26c-2.666,0-5.265,1.006-7.249,2.87
				l-52.898,49.682c-2.13,2.001-3.339,4.794-3.339,7.717v98.127c0,16.447,3.522,32.396,10.467,47.409
				c6.674,14.425,16.209,27.363,28.34,38.453c24.761,22.637,57.617,35.104,92.515,35.104s67.75-12.467,92.507-35.104
				c12.128-11.09,21.662-24.027,28.335-38.454c6.944-15.011,10.465-30.96,10.465-47.408v-105.225
				C4299.067,1534.228,4295.641,1529.939,4290.813,1528.85z M4288.48,1644.399c0,60.957-54.044,110.379-120.72,110.379
				c-66.677,0-120.734-49.422-120.734-110.379v-98.127l52.898-49.681l188.556,42.584V1644.399z"/>
		</g>
		<path fill="#C5EDF9" d="M4047.027,1492.63v78.102c26.779-1.368,48.782-20.737,54.011-46.25
			c29.683,31.152,106.282,58.167,187.1,52.778l0.343-1.948v-59.797l-7.633-22.886L4047.027,1492.63L4047.027,1492.63z"/>
		<path fill="#A2DFFF" d="M4266.206,1465.16l-32.444-10.138l-63.876-10.14l-108.489,18.25l-21.291,33.459l0.022,51.194
			c1.287,0.081,2.574,0.194,3.882,0.194c28.138,0,51.608-19.91,57.028-46.379c29.684,31.147,114.775,58.171,195.585,52.784
			l-7.096-58.807L4266.206,1465.16z"/>
		<path fill="#1977CC" d="M4296.272,1549.103c-37.191,2.478-78.094-1.959-115.166-12.5c-34.347-9.766-62.134-23.854-76.237-38.653
			c-1.359-1.427-3.397-1.981-5.293-1.435c-1.894,0.544-3.329,2.095-3.724,4.026c-5,24.423-26.804,42.148-51.843,42.148
			c-0.827,0-1.707-0.061-2.639-0.124l-0.91-0.062c-2.951-0.175-5.433,2.036-5.614,4.953c-0.183,2.918,2.035,5.432,4.952,5.614
			l0.85,0.057c1.067,0.073,2.172,0.149,3.361,0.149c26.98,0,50.831-17.162,59.764-41.897c16.453,13.79,42.94,26.452,74.438,35.408
			c31.286,8.896,65.229,13.574,97.568,13.574c7.159,0,14.242-0.229,21.199-0.693c2.917-0.194,5.124-2.717,4.931-5.634
			C4301.714,1551.115,4299.187,1548.913,4296.272,1549.103z"/>
	</g>
</g>
<g>
	<g>
		<g>
			<circle fill="#FFFFFF" cx="1862.537" cy="1371.828" r="472.863"/>
			<path fill="#1977CC" d="M2205.729,1028.637c-44.569-44.569-96.473-79.563-154.269-104.009
				c-59.844-25.312-123.407-38.146-188.923-38.146c-65.517,0-129.079,12.834-188.923,38.146
				c-57.795,24.446-109.699,59.439-154.269,104.009c-44.568,44.569-79.563,96.473-104.008,154.269
				c-25.312,59.844-38.146,123.407-38.146,188.923s12.834,129.078,38.146,188.923c24.445,57.795,59.439,109.7,104.008,154.269
				c44.57,44.569,96.474,79.563,154.269,104.008c59.844,25.312,123.408,38.147,188.923,38.147s129.078-12.835,188.923-38.147
				c57.796-24.445,109.7-59.439,154.269-104.008c44.569-44.569,79.563-96.473,104.009-154.269
				c25.312-59.845,38.146-123.407,38.146-188.923s-12.834-129.079-38.146-188.923
				C2285.291,1125.109,2250.298,1073.206,2205.729,1028.637z M1862.537,1844.691c-261.155,0-472.862-211.708-472.862-472.862
				c0-261.155,211.707-472.863,472.862-472.863c261.154,0,472.862,211.708,472.862,472.863
				C2335.399,1632.984,2123.691,1844.691,1862.537,1844.691z"/>
		</g>
		<g>
			<path fill="#A2DFFF" d="M2099.623,1228.865l-146.122-114.241l-284.273,10.626l-63.763,321.468l-47.34,172.433
				c0,0,148.216,25.095,306.449,25.095c138.158,0,323.204-25.095,323.204-25.095l-61.587-103.356L2099.623,1228.865z"/>
			<path fill="#1977CC" d="M2132.275,1513.813l-26.437-285.524c-0.159-1.713-1.017-3.283-2.372-4.343l-146.122-114.24
				c-1.16-0.907-2.603-1.372-4.078-1.32l-284.273,10.627c-2.89,0.107-5.328,2.187-5.89,5.023l-63.718,321.248l-47.28,172.215
				c-0.467,1.701-0.193,3.521,0.755,5.008c0.948,1.488,2.482,2.505,4.222,2.8c1.487,0.252,150.549,25.182,307.49,25.182
				c136.996,0,322.188-24.901,324.043-25.152c2.078-0.282,3.874-1.586,4.784-3.475c0.91-1.887,0.813-4.106-0.26-5.906
				L2132.275,1513.813z M1605.475,1446.719h-0.01H1605.475z M1864.574,1638.004c-136.86,0-267.719-19.09-298.586-23.913
				l45.497-165.719c0.04-0.145,0.075-0.29,0.104-0.438l62.802-316.629l277.064-10.357l142.201,111.175l26.319,284.248
				c0.085,0.925,0.377,1.82,0.853,2.62l56.726,95.199C2138.19,1619.216,1983.117,1638.004,1864.574,1638.004z"/>
		</g>
		<g>
			<g>
				<path fill="#6EBDFF" d="M1669.449,1683.551c-59.116,0-98.022,14.317-125.803,37.417
					c84.082,76.842,196.008,123.723,318.891,123.723c122.882,0,234.807-46.881,318.89-123.723
					c-27.78-23.099-66.686-37.417-125.803-37.417H1669.449z"/>
				<path fill="#1977CC" d="M2189.408,1711.368c-32.616-27.12-76.377-40.302-133.784-40.302h-386.175
					c-57.408,0-101.169,13.183-133.785,40.302c-2.773,2.307-4.414,5.7-4.499,9.307s1.396,7.074,4.059,9.507
					c89.61,81.893,205.851,126.993,327.312,126.993c121.46,0,237.701-45.1,327.312-126.993c2.663-2.433,4.144-5.9,4.059-9.506
					C2193.823,1717.068,2192.183,1713.675,2189.408,1711.368z M1862.537,1844.69c-122.883,0-234.808-46.881-318.891-123.723
					c27.78-23.098,66.686-37.417,125.803-37.417h386.175c59.116,0,98.022,14.318,125.803,37.417
					C2097.344,1797.809,1985.419,1844.69,1862.537,1844.69z"/>
			</g>
			<g>
				<path fill="#FFFFFF" d="M1744.315,1717.039c0,14.881,52.934,26.95,118.222,26.95c65.288,0,118.22-12.069,118.22-26.95v-187.954
					h-236.441V1717.039z"/>
				<path fill="#1977CC" d="M1980.757,1516.601h-236.441c-6.895,0-12.483,5.589-12.483,12.484v187.953
					c0,10.692,8.62,17.583,15.853,21.479c6.945,3.743,16.529,7.023,28.484,9.75c23.214,5.292,53.887,8.207,86.368,8.207
					s63.154-2.915,86.368-8.207c11.954-2.726,21.538-6.006,28.484-9.75c7.231-3.897,15.853-10.787,15.853-21.479v-187.953
					C1993.242,1522.19,1987.652,1516.601,1980.757,1516.601z M1980.757,1717.039c0,14.881-52.932,26.95-118.22,26.95
					c-65.288,0-118.222-12.069-118.222-26.95v-187.954h236.441V1717.039L1980.757,1717.039z"/>
			</g>
			<path fill="#C5EDF9" d="M1744.315,1641.816c32.349,19.156,70.914,30.281,112.322,30.281c46.571,0,89.546-14.072,124.119-37.815
				v-105.198h-236.441V1641.816z"/>
		</g>
		<g>
			<g>
				<path fill="#FFFFFF" d="M1649.427,1493.38c0,45.536,124.474,113.214,215.147,113.214c98.735,0,204.546-67.679,204.546-113.214
					v-397.656h-419.693V1493.38z"/>
				<path fill="#1977CC" d="M2069.12,1083.24h-419.693c-6.895,0-12.484,5.589-12.484,12.484v397.656
					c0,37.899,56.077,71.86,80.186,84.702c48.197,25.671,103.316,40.996,147.445,40.996c47.567,0,100.631-15.027,145.585-41.228
					c20.485-11.94,37.833-25.503,50.167-39.222c14.119-15.702,21.276-30.926,21.276-45.248v-397.656
					C2081.604,1088.829,2076.014,1083.24,2069.12,1083.24z M2069.12,1493.38c0,45.536-105.811,113.214-204.546,113.214
					c-90.673,0-215.146-67.679-215.146-113.214v-397.656h419.692V1493.38L2069.12,1493.38z"/>
			</g>
		</g>
		<path fill="#C5EDF9" d="M1650.437,1132.614l51.621-21.118c0,0-43.409,69.22,62.182,107.937
			c105.59,38.717,147.826,12.905,147.826,12.905l-16.425-23.464c0,0,38.718,36.37,109.111,43.409
			c29.04,2.904,49.888-4.178,64.368-13.499v-143.061H1694.5L1650.437,1132.614z"/>
		<g>
			<path fill="#E0F4FC" d="M2093.221,1067.955c-4.059-6.503-8.866-13.284-14.556-20.345c-42.19-52.347-218.22-80.952-292.133-55.141
				c-45.854,16.013-67.765,35.63-77.802,48.222c-14.071,3.407-26.715,7.706-33.656,11.294
				c-66.874,34.563-109.113,151.359-113.031,295.629c-3.918,144.269-3.918,267.998-3.918,267.998
				c0,14.602,129.522,30.965,127.323,12.366c-21.935-185.537,10.118-393.895,30.831-472.39
				c10.788,9.695,26.206,18.967,47.961,26.943c105.59,38.716,147.826,12.905,147.826,12.905l-16.425-23.464
				c0,0,38.718,36.37,109.111,43.409c14.644,1.464,27.176,0.367,37.889-2.253c8.297,44.442,12.883,87.777,17.529,129.192
				c6.521,58.114,13.997,227.949,0.285,285.656c-4.32,18.184,127.323,2.236,127.323-12.365c0,0,0-123.728-3.918-267.998
				C2180.629,1228.613,2140.08,1112.431,2093.221,1067.955z"/>
			<path fill="#1977CC" d="M2160.827,1177.874c-16.812-50.728-39.07-91.128-62.731-113.894c-4.23-6.713-9.13-13.534-14.57-20.285
				c-20.305-25.194-71.869-47.291-137.932-59.109c-63.394-11.34-125.131-10.578-161.12,1.99
				c-44.662,15.597-67.659,34.704-79.258,48.552c-13.553,3.393-25.78,7.577-33.007,11.311
				c-67.71,34.996-112.313,150.333-116.405,301.004c-3.875,142.704-3.92,266.929-3.92,268.168c0,6.332,6.451,9.725,8.57,10.841
				c13.4,7.05,43.303,12.141,64.84,14.358c8.32,0.856,19.545,1.744,30.34,1.744c12.892,0,25.167-1.267,31.129-5.363
				c3.563-2.448,5.344-6.074,4.887-9.947c-12.048-101.906-6.956-205.811-0.562-275.028c7.403-80.145,19.329-146.537,28.844-185.618
				c11.267,8.339,25.4,15.648,42.16,21.794c45.915,16.835,80.263,21.723,104.685,21.722c32.593-0.002,47.5-8.711,48.545-9.35
				c1.47-0.899,2.504-2.366,2.855-4.051c0.104-0.499,0.146-1.003,0.129-1.503c19.052,10.649,47.935,22.595,85.825,26.385
				c11.763,1.174,23.008,0.825,33.523-1.04c6.969,38.843,11.207,76.785,15.314,113.538l0.999,8.926
				c6.642,59.187,13.684,227.675,0.416,283.517c-0.904,3.802,0.422,7.471,3.638,10.068c9.161,7.395,37.782,6.367,60.179,4.205
				c21.478-2.075,51.662-6.938,66.044-13.812c2.419-1.157,9.778-4.673,9.778-11.384c0-1.239-0.045-125.465-3.921-268.168
				C2188.55,1290.379,2178.154,1230.158,2160.827,1177.874z M2124.52,1627.577c-32.263,3.754-52.068,2.336-57.556-0.052
				c7.355-33.207,7.976-95.483,7.178-142.331c-1.027-60.222-4.746-116.637-7.768-143.57l-0.999-8.921
				c-4.352-38.955-8.853-79.235-16.598-120.721c-0.314-1.687-1.31-3.168-2.751-4.098c-1.441-0.933-3.201-1.228-4.868-0.82
				c-10.946,2.678-22.985,3.387-35.786,2.105c-67.234-6.722-105.09-41.404-105.458-41.746c-2.332-2.192-5.942-2.264-8.361-0.169
				c-2.418,2.093-2.862,5.677-1.027,8.297l12.006,17.15c-5.299,1.773-14.021,3.921-26.52,4.656
				c-37.903,2.229-80.535-10.021-109.625-20.687c-19.402-7.114-34.857-15.77-45.937-25.726c-1.618-1.453-3.875-1.96-5.959-1.337
				c-2.084,0.623-3.694,2.285-4.249,4.388c-9.955,37.726-23.481,109.31-31.588,197.072c-6.419,69.492-11.533,173.683,0.425,276.208
				c-2.981,1.478-13.596,3.831-38.791,2.26c-37.321-2.329-70.14-10.477-75.922-15.232c0.015-13.674,0.257-131.857,3.914-266.52
				c1.925-70.913,13.167-135.55,32.509-186.925c19.403-51.541,46.082-87.271,77.147-103.328c6.651-3.438,19.013-7.566,32.258-10.771
				c1.348-0.327,2.548-1.092,3.413-2.176c10.096-12.667,31.299-30.967,74.979-46.219c34.081-11.901,93.4-12.472,154.805-1.488
				c62.244,11.135,112.214,32.076,130.41,54.653c5.309,6.587,10.061,13.227,14.121,19.733c0.281,0.448,0.615,0.859,1,1.222
				c22.412,21.271,43.738,60.095,60.053,109.318c16.953,51.157,27.126,110.104,28.644,165.981
				c3.654,134.515,3.899,252.586,3.915,266.476C2177.277,1617.601,2157.407,1623.751,2124.52,1627.577z"/>
		</g>
	</g>
	<path fill="#1977CC" d="M1933.098,1502.037c-18.134,18.873-42.469,29.267-68.523,29.267c-26.056,0-50.39-10.394-68.524-29.267
		c-2.388-2.486-6.339-2.564-8.825-0.176c-2.485,2.388-2.566,6.34-0.176,8.826c20.509,21.345,48.041,33.1,77.525,33.1
		c29.484,0,57.016-11.755,77.525-33.1c2.388-2.486,2.31-6.438-0.177-8.826C1939.437,1499.472,1935.486,1499.551,1933.098,1502.037z"
		/>
</g>
<g>
	<g>
		<circle fill="#FFFFFF" cx="4074.224" cy="3084.947" r="325.96"/>
		<path fill="#1977CC" d="M4312.199,2846.973c-30.904-30.904-66.896-55.168-106.973-72.12
			c-41.498-17.552-85.573-26.452-131.003-26.452c-45.429,0-89.503,8.9-131.001,26.452c-40.077,16.951-76.067,41.217-106.972,72.12
			c-30.905,30.905-55.169,66.896-72.121,106.973c-17.552,41.498-26.451,85.573-26.451,131.002s8.899,89.505,26.451,131.003
			c16.951,40.076,41.216,76.066,72.121,106.972c30.904,30.904,66.895,55.169,106.972,72.12
			c41.498,17.553,85.572,26.451,131.001,26.451c45.43,0,89.505-8.898,131.003-26.451c40.077-16.95,76.068-41.216,106.973-72.12
			c30.904-30.905,55.169-66.896,72.119-106.972c17.554-41.499,26.453-85.574,26.453-131.003s-8.899-89.505-26.453-131.002
			C4367.368,2913.868,4343.104,2877.878,4312.199,2846.973z M4074.224,3410.906c-180.021,0-325.959-145.937-325.959-325.96
			c0-180.022,145.938-325.961,325.959-325.961c180.023,0,325.96,145.938,325.96,325.961
			C4400.184,3264.97,4254.247,3410.906,4074.224,3410.906z"/>
	</g>
	<g>
		<path fill="#E0F4FC" d="M4207.325,3272.356h-266.203c-51.673,0-80.957,15.862-100.592,39.824
			c59.222,60.896,142.04,98.727,233.692,98.727c91.654,0,174.473-37.831,233.694-98.727
			C4288.284,3288.219,4259,3272.356,4207.325,3272.356z"/>
		<path fill="#1977CC" d="M4207.325,3261.769h-266.203c-49.784,0-84.351,13.888-108.779,43.702
			c-3.415,4.166-3.156,10.229,0.599,14.092c31.028,31.905,67.391,56.983,108.08,74.538c42.129,18.177,86.945,27.394,133.201,27.394
			c46.258,0,91.074-9.217,133.205-27.394c40.686-17.555,77.05-42.632,108.078-74.538c3.756-3.86,4.014-9.925,0.599-14.092
			C4291.678,3275.656,4257.111,3261.769,4207.325,3261.769z M4074.224,3410.906c-91.653,0-174.471-37.83-233.692-98.726
			c19.634-23.962,48.918-39.824,100.591-39.824h266.205c51.673,0,80.957,15.862,100.592,39.824
			C4248.695,3373.076,4165.879,3410.906,4074.224,3410.906z"/>
	</g>
	<g>
		<path fill="#FFFFFF" d="M3992.731,3322.912c0,10.259,36.489,18.578,81.492,18.578c45.006,0,81.494-8.319,81.494-18.578v-129.563
			H3992.73L3992.731,3322.912L3992.731,3322.912z"/>
		<path fill="#1977CC" d="M4155.718,3182.763h-162.986c-5.849,0-10.589,4.74-10.589,10.587v129.563
			c0,4.607,2.077,11.219,11.97,16.55c4.944,2.665,11.719,4.989,20.136,6.908c16.141,3.68,37.441,5.706,59.975,5.706
			c22.535,0,43.835-2.026,59.979-5.706c8.415-1.919,15.189-4.243,20.134-6.908c9.893-5.331,11.968-11.943,11.968-16.55V3193.35
			C4166.305,3187.503,4161.565,3182.763,4155.718,3182.763z M4155.718,3322.912c0,10.259-36.488,18.578-81.494,18.578
			c-45.003,0-81.491-8.319-81.491-18.578v-129.563h162.986L4155.718,3322.912L4155.718,3322.912z"/>
	</g>
	<path fill="#C5EDF9" d="M3992.731,3271.06c22.3,13.204,48.884,20.873,77.427,20.873c32.104,0,61.729-9.7,85.561-26.066v-72.517
		h-162.987V3271.06z"/>
	<g>
		<g>
			<g>
				<path fill="#FFFFFF" d="M3938.398,3019.518c-11.711,0-30.166,10.271-28.235,32.873l7.036,51.479
					c0,11.704,9.488,21.193,21.199,21.193c11.701,0,36.885-15.092,36.885-26.798l-0.119-49.33
					C3975.165,3037.221,3950.1,3019.518,3938.398,3019.518z"/>
				<path fill="#1977CC" d="M3967.588,3021.413c-3.843-2.928-17.304-12.483-29.189-12.483c-10.305,0-21.304,5.008-28.706,13.067
					c-5.321,5.795-11.39,15.93-10.079,31.294c0.018,0.178,0.035,0.356,0.061,0.533l6.949,50.836
					c0.421,17.16,14.514,30.989,31.775,30.989c9.379,0,21.002-5.589,28.753-10.82c15.47-10.442,18.718-20.209,18.718-26.564
					l-0.119-49.355C3985.752,3037.033,3974.371,3026.583,3967.588,3021.413z M3938.398,3125.062
					c-11.711,0-21.199-9.489-21.199-21.193l-7.036-51.479c-1.931-22.602,16.524-32.873,28.235-32.873
					c11.701,0,36.767,17.703,36.767,29.417l0.12,49.33C3975.285,3109.971,3950.1,3125.062,3938.398,3125.062z"/>
			</g>
		</g>
		<g>
			<g>
				<path fill="#FFFFFF" d="M4210.049,3019.518c-11.7,0-36.766,17.703-36.766,29.417l-0.119,49.33
					c0,11.706,25.184,26.798,36.884,26.798c11.712,0,21.2-9.489,21.2-21.193l7.036-51.479
					C4240.215,3029.789,4221.76,3019.518,4210.049,3019.518z"/>
				<path fill="#1977CC" d="M4210.049,3008.93c-11.885,0-25.346,9.556-29.188,12.483c-6.784,5.171-18.165,15.62-18.165,27.521
					l-0.118,49.304c0,6.382,3.247,16.148,18.718,26.591c7.751,5.231,19.374,10.82,28.752,10.82
					c17.263,0,31.355-13.829,31.776-30.989l6.949-50.836c0.024-0.177,0.044-0.355,0.06-0.533c1.31-15.365-4.758-25.499-10.08-31.294
					C4231.354,3013.938,4220.355,3008.93,4210.049,3008.93z M4238.285,3052.391l-7.036,51.479c0,11.704-9.489,21.193-21.2,21.193
					c-11.7,0-36.885-15.092-36.885-26.798l0.119-49.33c0-11.714,25.065-29.417,36.766-29.417
					C4221.76,3019.518,4240.215,3029.789,4238.285,3052.391z"/>
			</g>
		</g>
	</g>
	<g>
		<path fill="#FFFFFF" d="M3944.519,3181.883c0,31.136,70.573,77.415,132.575,77.415c67.514,0,122.531-46.279,122.531-77.415
			l18.088-271.911h-286.979L3944.519,3181.883z"/>
		<path fill="#1977CC" d="M4217.719,2899.385h-0.005h-286.979c-2.9,0-5.674,1.19-7.672,3.293c-1.998,2.102-3.047,4.933-2.901,7.83
			l13.772,271.671c0.094,10.136,5.003,20.86,14.595,31.885c8.274,9.508,19.866,18.929,33.522,27.245
			c29.826,18.16,64.467,28.575,95.043,28.575c32.958,0,65.855-10.274,92.637-28.931c25.182-17.544,40.282-39.453,40.481-58.689
			l18.05-271.353c0.027-0.31,0.042-0.624,0.042-0.939C4228.303,2904.125,4223.565,2899.385,4217.719,2899.385z M4217.714,2920.559
			h0.004H4217.714z M4217.714,2909.972l-18.089,271.911c0,31.136-55.017,77.415-122.531,77.415
			c-62.001,0-132.574-46.279-132.574-77.415l-13.785-271.911H4217.714h0.004H4217.714z"/>
	</g>
	<g>
		<path fill="#A2DFFF" d="M4202.918,2853.198c-39.412-15.616-109.39-16.535-122.258-32.149c-3.496-4.239-5.445-7.259-6.437-9.41
			c-0.989,2.151-2.94,5.171-6.434,9.41c-12.87,15.615-82.847,16.534-122.26,32.149s-28.955,51.438-28.955,55.112
			c0,3.675,15.283,112.065,15.283,112.065s-1.608-69.812,35.39-87.265c32.992-15.562,94.119-4.832,106.977-2.325
			c12.858-2.507,73.987-13.237,106.979,2.325c36.999,17.453,35.391,87.265,35.391,87.265s15.281-108.391,15.281-112.065
			C4231.874,2904.638,4242.331,2868.813,4202.918,2853.198z"/>
		<path fill="#1977CC" d="M4204.869,2848.276c-18.22-7.218-41.861-11.229-64.725-15.107c-23.234-3.94-49.564-8.408-55.4-15.487
			c-3.576-4.34-5.08-6.886-5.712-8.258c-0.864-1.877-2.74-3.078-4.809-3.078c-2.065,0-3.943,1.202-4.808,3.078
			c-0.631,1.373-2.135,3.919-5.712,8.258c-5.833,7.079-32.166,11.545-55.399,15.487c-22.863,3.879-46.506,7.89-64.725,15.107
			c-16.598,6.576-27.191,17.291-31.488,31.849c-3.403,11.532-1.734,22.266-1.022,26.85c0.088,0.572,0.199,1.283,0.216,1.498
			c-0.004-0.062-0.004-0.116-0.004-0.161c0,3.754,11.736,87.291,15.334,112.803c0.392,2.776,2.892,4.765,5.673,4.537
			c2.794-0.229,4.926-2.596,4.86-5.397c-0.016-0.663-1.141-66.553,32.357-82.354c31.606-14.908,91.933-4.212,103.705-1.917
			c0.669,0.131,1.357,0.131,2.025,0c11.772-2.295,72.101-12.992,103.705,1.917c33.441,15.774,32.373,81.692,32.357,82.354
			c-0.065,2.803,2.067,5.169,4.861,5.397c0.146,0.013,0.29,0.019,0.436,0.019c2.611,0,4.865-1.925,5.237-4.556
			c3.597-25.513,15.334-109.05,15.334-112.803c0,0.046,0,0.1-0.005,0.161c0.018-0.215,0.127-0.926,0.217-1.498
			c0.712-4.583,2.381-15.317-1.023-26.85C4232.061,2865.568,4221.466,2854.853,4204.869,2848.276z M4226.919,2905.35
			c-0.202,1.296-0.327,2.1-0.337,2.862c-0.188,3.084-4.708,36.112-9.457,70.215c-4.814-19.81-14.447-41.035-33.665-50.102
			c-14.145-6.672-32.758-8.822-50.894-8.822c-24.302,0-47.735,3.864-58.343,5.894c-7.65-1.459-25.467-4.499-45.672-5.509
			c-27.405-1.369-48.788,1.469-63.562,8.438c-19.218,9.064-28.852,30.291-33.665,50.102c-4.75-34.103-9.27-67.131-9.458-70.215
			c-0.009-0.763-0.134-1.566-0.336-2.862c-1.339-8.608-5.409-34.805,25.95-47.23c17.186-6.81,40.271-10.726,62.596-14.513
			c29.865-5.065,53.455-9.066,61.8-19.191c0.851-1.033,1.634-2.018,2.348-2.96c0.718,0.942,1.498,1.927,2.351,2.96
			c8.344,10.124,31.934,14.126,61.799,19.191c22.325,3.788,45.411,7.703,62.596,14.513
			C4232.328,2870.544,4228.256,2896.741,4226.919,2905.35z"/>
	</g>
	<path fill="#C5EDF9" d="M3935.927,3012.392c4.317-19.337,13.174-40.491,31.32-49.052c32.993-15.561,94.12-4.832,106.977-2.324
		c12.858-2.508,73.987-13.237,106.978,2.324c16.521,7.794,25.342,26.027,30.047,43.823l6.466-97.191h-286.979L3935.927,3012.392z"/>
	<g>
		<path fill="#A2DFFF" d="M4202.918,2853.198c-39.412-15.616-109.39-16.535-122.258-32.149c-3.496-4.239-5.445-7.259-6.437-9.41
			c-0.989,2.151-2.94,5.171-6.434,9.41c-12.87,15.615-82.847,16.534-122.26,32.149s-28.955,51.438-28.955,55.112
			c0,3.675,15.283,112.065,15.283,112.065s-1.608-69.812,35.39-87.265c32.992-15.562,94.119-4.832,106.977-2.325
			c12.858-2.507,73.987-13.237,106.979,2.325c36.999,17.453,35.391,87.265,35.391,87.265s15.281-108.391,15.281-112.065
			C4231.874,2904.638,4242.331,2868.813,4202.918,2853.198z"/>
		<path fill="#1977CC" d="M4204.869,2848.276c-18.22-7.218-41.861-11.229-64.725-15.107c-23.234-3.94-49.564-8.408-55.4-15.487
			c-3.576-4.34-5.08-6.886-5.712-8.258c-0.864-1.877-2.74-3.078-4.809-3.078c-2.065,0-3.943,1.202-4.808,3.078
			c-0.631,1.373-2.135,3.919-5.712,8.258c-5.833,7.079-32.166,11.545-55.399,15.487c-22.863,3.879-46.506,7.89-64.725,15.107
			c-16.598,6.576-27.191,17.291-31.488,31.849c-3.403,11.532-1.734,22.266-1.022,26.85c0.088,0.572,0.199,1.283,0.216,1.498
			c-0.004-0.062-0.004-0.116-0.004-0.161c0,3.754,11.736,87.291,15.334,112.803c0.392,2.776,2.892,4.765,5.673,4.537
			c2.794-0.229,4.926-2.596,4.86-5.397c-0.016-0.663-1.141-66.553,32.357-82.354c31.606-14.908,91.933-4.212,103.705-1.917
			c0.669,0.131,1.357,0.131,2.025,0c11.772-2.295,72.101-12.992,103.705,1.917c33.441,15.774,32.373,81.692,32.357,82.354
			c-0.065,2.803,2.067,5.169,4.861,5.397c0.146,0.013,0.29,0.019,0.436,0.019c2.611,0,4.865-1.925,5.237-4.556
			c3.597-25.513,15.334-109.05,15.334-112.803c0,0.046,0,0.1-0.005,0.161c0.018-0.215,0.127-0.926,0.217-1.498
			c0.712-4.583,2.381-15.317-1.023-26.85C4232.061,2865.568,4221.466,2854.853,4204.869,2848.276z M4226.919,2905.35
			c-0.202,1.296-0.327,2.1-0.337,2.862c-0.188,3.084-4.708,36.112-9.457,70.215c-4.814-19.81-14.447-41.035-33.665-50.102
			c-14.145-6.672-32.758-8.822-50.894-8.822c-24.302,0-47.735,3.864-58.343,5.894c-7.65-1.459-25.467-4.499-45.672-5.509
			c-27.405-1.369-48.788,1.469-63.562,8.438c-19.218,9.064-28.852,30.291-33.665,50.102c-4.75-34.103-9.27-67.131-9.458-70.215
			c-0.009-0.763-0.134-1.566-0.336-2.862c-1.339-8.608-5.409-34.805,25.95-47.23c17.186-6.81,40.271-10.726,62.596-14.513
			c29.865-5.065,53.455-9.066,61.8-19.191c0.851-1.033,1.634-2.018,2.348-2.96c0.718,0.942,1.498,1.927,2.351,2.96
			c8.344,10.124,31.934,14.126,61.799,19.191c22.325,3.788,45.411,7.703,62.596,14.513
			C4232.328,2870.544,4228.256,2896.741,4226.919,2905.35z"/>
	</g>
</g>
<g>
	<g>
		<g>
			<circle fill="#FFFFFF" cx="1817.616" cy="3231.199" r="331.928"/>
			<path fill="#1977CC" d="M2059.811,2989.004c-31.452-31.452-68.082-56.147-108.869-73.399
				c-42.233-17.864-87.09-26.92-133.325-26.92c-46.234,0-91.091,9.057-133.324,26.92c-40.788,17.252-77.417,41.947-108.87,73.399
				c-31.453,31.453-56.147,68.082-73.399,108.867c-17.864,42.234-26.921,87.093-26.921,133.327s9.057,91.091,26.921,133.324
				c17.252,40.787,41.946,77.417,73.399,108.869c31.453,31.453,68.081,56.148,108.87,73.398
				c42.233,17.864,87.091,26.922,133.324,26.922c46.235,0,91.093-9.059,133.325-26.922c40.788-17.251,77.417-41.945,108.869-73.398
				c31.453-31.452,56.148-68.082,73.399-108.869c17.864-42.233,26.921-87.09,26.921-133.324s-9.057-91.093-26.921-133.327
				C2115.958,3057.086,2091.263,3020.457,2059.811,2989.004z M1817.616,3563.127c-183.318,0-331.928-148.609-331.928-331.928
				c0-183.32,148.609-331.929,331.928-331.929c183.319,0,331.928,148.608,331.928,331.929
				C2149.544,3414.517,2000.935,3563.127,1817.616,3563.127z"/>
		</g>
		<g>
			<path fill="#A2DFFF" d="M1953.155,3422.038h-271.077c-52.62,0-82.44,16.153-102.434,40.555
				c60.307,62.011,144.64,100.534,237.972,100.534c93.333,0,177.666-38.523,237.973-100.534
				C2035.595,3438.191,2005.775,3422.038,1953.155,3422.038z"/>
			<path fill="#1977CC" d="M1953.155,3411.452h-271.077c-50.634,0-85.785,14.118-110.623,44.43
				c-3.413,4.166-3.155,10.231,0.6,14.092c31.579,32.472,68.587,57.994,109.997,75.859c42.877,18.5,88.487,27.88,135.564,27.88
				c47.076,0,92.688-9.38,135.565-27.88c41.409-17.865,78.418-43.388,109.997-75.859c3.754-3.86,4.013-9.925,0.599-14.092
				C2038.94,3425.57,2003.789,3411.452,1953.155,3411.452z M1817.616,3563.127c-93.332,0-177.664-38.523-237.972-100.534
				c19.993-24.4,49.813-40.554,102.434-40.554h271.077c52.619,0,82.44,16.153,102.434,40.554
				C1995.282,3524.604,1910.949,3563.127,1817.616,3563.127z"/>
		</g>
		<g>
			<path fill="#FFFFFF" d="M1734.631,3473.52c0,10.446,37.157,18.92,82.985,18.92c45.829,0,82.985-8.474,82.985-18.92v-131.935
				H1734.63L1734.631,3473.52L1734.631,3473.52z"/>
			<path fill="#1977CC" d="M1900.602,3330.998h-165.971c-5.848,0-10.587,4.74-10.587,10.587v131.935
				c0,4.64,2.098,11.299,12.087,16.684c5.021,2.703,11.901,5.064,20.454,7.016c16.424,3.744,38.1,5.807,61.032,5.807
				s44.607-2.062,61.032-5.807c8.553-1.951,15.434-4.312,20.454-7.016c9.989-5.385,12.086-12.044,12.086-16.684v-131.935
				C1911.189,3335.738,1906.449,3330.998,1900.602,3330.998z M1900.602,3473.52c0,10.446-37.155,18.92-82.984,18.92
				s-82.986-8.474-82.986-18.92v-131.935h165.972v131.935H1900.602z"/>
		</g>
		<path fill="#C5EDF9" d="M1734.631,3420.717c22.707,13.448,49.778,21.258,78.845,21.258c32.691,0,62.857-9.879,87.126-26.545
			v-73.844h-165.971V3420.717z"/>
		<g>
			<path fill="#A2DFFF" d="M1934.833,3260.08l-4.747-0.812C1931.601,3259.746,1933.173,3260.08,1934.833,3260.08z"/>
			<path fill="#1977CC" d="M1936.614,3249.643l-4.747-0.81c-0.602-0.102-1.2-0.152-1.792-0.152c-4.804,0-9.113,3.28-10.279,8.098
				c-1.31,5.411,1.795,10.91,7.104,12.587c2.774,0.875,5.37,1.301,7.934,1.301c5.5,0,10.085-4.213,10.55-9.692
				C1945.847,3255.492,1942.036,3250.569,1936.614,3249.643z M1930.086,3259.269l4.746,0.812
				C1933.173,3260.08,1931.601,3259.746,1930.086,3259.269z"/>
		</g>
		<g>
			<path fill="#A2DFFF" d="M1920.417,3250.865c-13.68,1.143-29.37,0.915-34.126,0.915l43.796,7.488
				C1925.847,3257.923,1922.37,3254.876,1920.417,3250.865z"/>
			<path fill="#1977CC" d="M1933.289,3249.178c-1.442-0.458-2.664-1.53-3.353-2.945c-1.782-3.662-5.492-5.955-9.515-5.955
				c-0.293,0-0.588,0.014-0.885,0.039c-7.229,0.602-16.007,0.897-26.835,0.897c-1.65,0-3.098-0.007-4.282-0.013
				c-0.847-0.003-1.564-0.007-2.129-0.007c-5.5,0-10.084,4.211-10.549,9.691c-0.464,5.481,3.344,10.403,8.765,11.332l43.795,7.488
				c0.603,0.102,1.202,0.153,1.794,0.153c4.801,0,9.109-3.277,10.277-8.089C1941.687,3256.361,1938.591,3250.86,1933.289,3249.178z
				 M1886.29,3251.78c1.352,0,3.588,0.019,6.411,0.019c7.105,0,17.925-0.116,27.715-0.935c1.954,4.012,5.429,7.058,9.669,8.403
				L1886.29,3251.78z"/>
		</g>
		<g>
			<path fill="#FFFFFF" d="M1792.721,3193.69h-132.777c-9.166,0-16.597,7.433-16.597,16.597l8.299,66.391
				c0,9.165,7.432,16.597,16.597,16.597h124.479c9.166,0,16.598-7.431,16.598-16.597v-66.391
				C1809.318,3201.123,1801.887,3193.69,1792.721,3193.69z"/>
			<path fill="#1977CC" d="M1792.721,3183.104h-132.777c-14.99,0-27.184,12.194-27.184,27.183c0,0.44,0.027,0.879,0.082,1.313
				l8.227,65.813c0.393,14.648,12.432,26.445,27.174,26.445h124.479c14.989,0,27.184-12.194,27.184-27.184v-66.39
				C1819.904,3195.299,1807.71,3183.104,1792.721,3183.104z M1809.318,3276.677c0,9.166-7.432,16.597-16.598,16.597h-124.479
				c-9.165,0-16.597-7.431-16.597-16.597l-8.299-66.39c0-9.164,7.431-16.597,16.597-16.597h132.777
				c9.166,0,16.598,7.432,16.598,16.597V3276.677z"/>
		</g>
		<g>
			<path fill="#6EBDFF" d="M1991.586,3050.869c-21.137-29.84-55.041-23.002-73.357-23.002c-18.329,0-37.646-2.579-37.646,15.738
				c0,0,27.345,17.923,42.438,66.954c15.081,49.032,15.081,134.842,15.081,134.842c0,7.981,9.106,27.033,18.861,30.174
				c12.643,4.063,12.126,0.097,12.126-10.249C1969.091,3265.326,2012.723,3080.71,1991.586,3050.869z"/>
			<path fill="#1977CC" d="M1926.802,3022.283c-3.114,0.151-6.055,0.292-8.574,0.292c-2.002,0-4.016-0.032-6.015-0.063
				c-12.568-0.197-24.439-0.378-31.552,6.625c-3.565,3.51-5.372,8.378-5.372,14.469c0,1.773,0.901,3.437,2.376,4.418
				c0.258,0.172,26.028,17.744,40.296,64.093c6.045,19.65,10.53,48.884,12.969,84.539c1.855,27.097,1.878,48.533,1.879,48.746
				c0,9.323,9.741,31.095,22.534,35.212c3.414,1.098,6.433,1.83,9.079,1.83c2.22,0,4.178-0.517,5.885-1.763
				c4.098-2.994,4.088-8.185,4.076-14.193l-0.001-0.555c1.316-5.641,11.412-49.37,19.103-95.78
				c11.363-68.58,12.155-108.6,2.418-122.345C1976.145,3019.912,1946.451,3021.338,1926.802,3022.283z M1983.051,3168.372
				c-8.14,49.142-19.003,95.276-19.111,95.736c-0.095,0.398-0.142,0.808-0.142,1.218l0.001,1.183
				c0.003,1.82,0.008,3.977-0.131,5.294c-0.879-0.107-2.44-0.418-5.081-1.268c-6.835-2.201-15.189-18.444-15.189-25.135
				c0-3.537-0.174-87.172-15.316-136.399c-12.935-42.016-34.572-62.031-42.021-67.924c0.448-2.841,1.594-3.969,2.03-4.397
				c3.954-3.895,14.125-3.738,23.96-3.584c2.054,0.031,4.122,0.063,6.179,0.063c2.772,0,5.836-0.148,9.082-0.304
				c18.377-0.882,43.549-2.091,59.956,21.072C1991.729,3060.229,1997.115,3083.474,1983.051,3168.372z"/>
		</g>
		<g>
			<path fill="#FFFFFF" d="M1966.991,3193.69h-132.777c-9.164,0-16.597,7.433-16.597,16.597v66.391
				c0,9.165,7.432,16.597,16.597,16.597h124.478c9.167,0,16.597-7.431,16.597-16.597l8.299-66.391
				C1983.588,3201.123,1976.155,3193.69,1966.991,3193.69z"/>
			<path fill="#1977CC" d="M1966.991,3183.104h-132.777c-14.99,0-27.184,12.194-27.184,27.183v66.391
				c0,14.988,12.194,27.184,27.184,27.184h124.478c14.742,0,26.782-11.796,27.174-26.445l8.227-65.813
				c0.055-0.436,0.082-0.874,0.082-1.312C1994.174,3195.299,1981.979,3183.104,1966.991,3183.104z M1975.288,3276.677
				c0,9.166-7.43,16.597-16.597,16.597h-124.478c-9.164,0-16.597-7.431-16.597-16.597v-66.39c0-9.164,7.432-16.597,16.597-16.597
				h132.777c9.167,0,16.597,7.432,16.597,16.597L1975.288,3276.677z"/>
		</g>
		<g>
			<path fill="#FFFFFF" d="M1668.243,3158.637v118.04c0,73.325,65.026,132.776,145.232,132.776s145.216-59.451,145.216-132.776
				v-218.969l-226.816,3.73L1668.243,3158.637z"/>
			<path fill="#1977CC" d="M1958.692,3047.121c-0.059,0-0.116,0-0.174,0.001l-226.816,3.729c-3.509,0.059-6.762,1.851-8.684,4.787
				l-63.633,97.199c-1.128,1.724-1.729,3.738-1.729,5.797v118.04c0,19.468,4.169,38.354,12.393,56.126
				c7.908,17.092,19.21,32.425,33.591,45.573c29.389,26.868,68.395,41.664,109.837,41.664c41.441,0,80.446-14.796,109.829-41.665
				c14.378-13.146,25.677-28.479,33.584-45.573c8.221-17.771,12.389-36.656,12.389-56.125v-218.969c0-2.838-1.139-5.557-3.163-7.548
				C1964.135,3048.211,1961.466,3047.121,1958.692,3047.121z M1958.691,3276.677c0,73.325-65.01,132.776-145.216,132.776
				s-145.232-59.451-145.232-132.776v-118.04l63.632-97.197l226.817-3.73L1958.691,3276.677L1958.691,3276.677z"/>
		</g>
		<path fill="#C5EDF9" d="M1701.897,3107.229c23.364,0.259,51.021-11.324,101.838,2.474c47.221,12.82,92.067,24.021,131.742,18.749
			c8.8-1.171,16.486-3.941,23.214-7.888v-62.856l-226.816,3.73L1701.897,3107.229z"/>
		<g>
			<path fill="#6EBDFF" d="M1755.644,3034.903c0-18.317-51.574,1.524-69.902,1.524c-18.324,0-33.173,14.855-33.173,33.179
				l11.396,171.495c0,10.344,34.192-156.041,71.493-169.718C1783.62,3053.725,1755.644,3034.903,1755.644,3034.903z"/>
			<path fill="#1977CC" d="M1760.66,3032.126c-0.553-2.655-1.927-4.913-4.051-6.624c-7.916-6.373-23.786-3.509-47.093,1.587
				c-9.517,2.08-18.505,4.045-23.773,4.045c-21.211,0-38.468,17.258-38.468,38.473c0,0.117,0.003,0.234,0.012,0.351l11.388,171.371
				c0.104,3.362,2.483,5.199,4.699,5.486c0.226,0.028,0.478,0.048,0.749,0.048c1.703,0,4.126-0.769,5.453-4.676
				c0.269-0.788,0.597-1.882,1.035-3.44c0.788-2.805,1.834-6.783,3.159-11.818c5.13-19.5,14.677-55.794,26.339-87.744
				c18.038-49.421,31.032-60.575,37.171-62.827c20.027-7.343,30.369-15.933,31.618-26.264
				C1769.941,3041.464,1763.963,3034.991,1760.66,3032.126z M1669.258,3241.102c0-0.002,0-0.003,0-0.007
				C1669.258,3241.099,1669.258,3241.1,1669.258,3241.102z M1758.387,3048.821c-0.685,5.664-9.707,12.077-24.752,17.594
				c-26.103,9.571-48.102,76.159-66.408,143.944l-9.365-140.922c0.09-15.298,12.562-27.717,27.879-27.717
				c6.412,0,15.944-2.083,26.035-4.289c12.579-2.751,33.634-7.353,38.192-3.685c0.17,0.138,0.381,0.307,0.381,1.156
				c0,1.761,0.875,3.408,2.338,4.392C1752.752,3039.338,1758.997,3043.783,1758.387,3048.821z"/>
		</g>
		<g>
			<path fill="#6EBDFF" d="M1933.77,3008.596c-22.578-3.652-61.065-39.338-96.981-49.112
				c-119.971-32.657-164.121,30.462-170.338,77.709c-1.451,11.024,4.761,41.538,31.796,57.029
				c28.238,16.172,49.099-15.433,116.67-3.555c48.192,8.477,93.868,15.549,132.899,6.685c70.502-16.008,34.445-113,34.445-113
				S1976.044,3015.435,1933.77,3008.596z"/>
			<path fill="#1977CC" d="M1981.874,2979.089c-2.347,0.17-4.303,1.888-4.797,4.188c-0.228,1.064-5.999,25.992-42.461,20.094
				c-9.686-1.567-23.964-10.517-39.082-19.992c-17.705-11.097-37.773-23.674-57.354-29.003c-29.025-7.899-55.487-10.728-78.657-8.4
				c-20.675,2.077-38.836,8.239-53.979,18.313c-34.461,22.93-42.489,58.14-44.34,72.213c-1.632,12.407,4.766,45.323,34.413,62.312
				c15.202,8.706,28.877,5.179,44.713,1.092c17.436-4.499,39.134-10.098,73.67-4.027c33.704,5.929,64.958,10.856,93.673,10.856
				c14.415-0.001,28.192-1.243,41.315-4.224c18.153-4.122,31.371-13.634,39.29-28.272c19.364-35.8-0.212-89.467-1.054-91.735
				C1986.402,2980.3,1984.227,2978.918,1981.874,2979.089z M1978.965,3069.204c-6.402,11.836-17.276,19.569-32.322,22.984
				c-37.343,8.483-81.335,1.967-130.811-6.735c-11.424-2.009-21.604-2.798-30.735-2.798c-20.278,0-35.379,3.896-47.412,7.001
				c-15.262,3.937-25.343,6.538-36.807-0.027c-25.533-14.632-30.324-43.05-29.18-51.745c1.663-12.64,8.861-44.256,39.708-64.78
				c13.69-9.109,30.234-14.692,49.174-16.594c21.874-2.198,47.046,0.523,74.818,8.082c18.068,4.916,37.43,17.052,54.512,27.759
				c16.749,10.496,31.212,19.562,43.013,21.472c27.181,4.397,41.163-5.801,48.118-15.184
				C1985.481,3015.82,1990.876,3047.183,1978.965,3069.204z"/>
		</g>
	</g>
	<g>
		<g>
			<path fill="#FFFFFF" d="M1767.564,3318.785c10.017,14.644,26.829,24.271,45.911,24.271c19.08,0,35.896-9.627,45.912-24.271
				h-50.42H1767.564z"/>
			<path fill="#1977CC" d="M1859.388,3313.491h-91.823c-1.964,0-3.766,1.087-4.682,2.824c-0.917,1.736-0.796,3.837,0.312,5.458
				c11.383,16.642,30.18,26.577,50.28,26.577c20.101,0,38.898-9.936,50.281-26.577c1.109-1.621,1.229-3.722,0.312-5.458
				C1863.153,3314.578,1861.352,3313.491,1859.388,3313.491z M1813.476,3337.765c-12.933,0-25.213-4.982-34.458-13.687h68.918
				C1838.689,3332.782,1826.409,3337.765,1813.476,3337.765z"/>
		</g>
	</g>
</g>
</svg>
