<?xml version="1.0" encoding="utf-8"?>
<!-- Generator: Adobe Illustrator 16.0.0, SVG Export Plug-In . SVG Version: 6.00 Build 0)  -->
<!DOCTYPE svg PUBLIC "-//W3C//DTD SVG 1.1//EN" "http://www.w3.org/Graphics/SVG/1.1/DTD/svg11.dtd">
<svg version="1.1" id="Layer_1" xmlns="http://www.w3.org/2000/svg" xmlns:xlink="http://www.w3.org/1999/xlink" x="0px" y="0px"
	 width="100px" height="100px" viewBox="0 0 100 100" enable-background="new 0 0 100 100" xml:space="preserve">
<g id="Server__x26__Cloud">
	<g id="Cloud_9_">
		<path fill="#1B2837" d="M60.162,46.69c-2.775,0-6.518-0.068-8.568-0.393c-2.385-0.518-5.434-2.484-6.25-4.608
			c-1.434-3.742-1.148-7.638,0.766-10.42c1.088-1.581,2.598-2.587,4.121-2.771c-0.521-1.765-0.256-3.658,0.789-5.466
			c1.855-3.211,5.732-5.452,9.429-5.452c2.663,0,4.938,1.167,6.512,3.313c1.438-1.44,3.312-2.247,5.283-2.247
			c2.004,0,3.897,0.83,5.069,2.221c0.625,0.74,1.013,1.605,1.142,2.523c3.478-1.402,6.59-0.832,8.735,1.556
			c2.356,2.619,3.438,7.254,2.891,12.398c-1.518,6.36-5.421,7.829-7.616,8.147C77.848,46.166,68.053,46.69,60.162,46.69z
			 M50.732,30.271c-1.096,0-2.271,0.754-3.14,2.02c-1.578,2.293-1.791,5.565-0.568,8.754c0.521,1.359,2.902,3.052,4.9,3.485
			c1.462,0.229,4.402,0.362,8.236,0.362c7.817,0,17.5-0.521,22.041-1.181c3.053-0.443,5.165-2.751,6.106-6.671
			c0.465-4.461-0.47-8.677-2.459-10.889c-1.887-2.098-4.615-2.273-7.893-0.544c-0.305,0.158-0.672,0.134-0.951-0.067
			c-0.275-0.201-0.416-0.543-0.357-0.882c0.209-1.224-0.272-2.105-0.713-2.63c-0.836-0.99-2.217-1.58-3.694-1.58
			c-1.828,0-3.484,0.882-4.664,2.484c-0.183,0.246-0.47,0.39-0.783,0.364c-0.31-0.021-0.582-0.194-0.729-0.464
			c-1.574-2.853-3.924-3.451-5.617-3.451c-3.035,0-6.344,1.915-7.871,4.553c-0.709,1.227-1.312,3.111-0.158,5.117
			c0.184,0.318,0.152,0.719-0.074,1.007c-0.229,0.288-0.609,0.411-0.963,0.305C51.172,30.301,50.955,30.271,50.732,30.271z"/>
	</g>
	<path fill="#1B2837" d="M59.197,61.593H26.415c-1.516,0-2.747,1.231-2.747,2.751v5.498c0,1.52,1.231,2.751,2.747,2.751h32.783
		c1.518,0,2.747-1.231,2.747-2.751v-5.498C61.945,62.824,60.715,61.593,59.197,61.593z M56.592,68.618
		c-0.844,0-1.527-0.681-1.527-1.522c0-0.846,0.685-1.531,1.527-1.531c0.842,0,1.527,0.687,1.527,1.531
		C58.119,67.938,57.434,68.618,56.592,68.618z"/>
	<path fill="#1B2837" d="M60.426,48.689c-0.086,0-0.176,0-0.264,0c-2.5,0-5.773-0.056-8.012-0.304H26.415
		c-1.516,0-2.747,1.231-2.747,2.751v5.498c0,1.517,1.231,2.748,2.747,2.748h32.783c1.518,0,2.747-1.231,2.747-2.748v-5.498
		C61.945,50.063,61.324,49.144,60.426,48.689z M56.592,55.411c-0.844,0-1.527-0.683-1.527-1.526c0-0.843,0.685-1.529,1.527-1.529
		c0.842,0,1.527,0.687,1.527,1.529C58.119,54.729,57.434,55.411,56.592,55.411z"/>
	<g>
		<path fill="#1B2837" d="M43.517,42.435c-0.934-2.438-1.206-4.941-0.882-7.258h-16.22c-1.516,0-2.747,1.23-2.747,2.75v5.498
			c0,1.518,1.231,2.748,2.747,2.748H46.68C45.252,45.151,44.062,43.854,43.517,42.435z"/>
	</g>
	<g>
		<path fill="#1B2837" d="M63.369,48.664v22.119c0,1.876-1.523,3.4-3.4,3.4H25.642c-1.875,0-3.399-1.524-3.399-3.4V36.986
			c0-1.876,1.524-3.401,3.399-3.401h17.319c0.132-0.482,0.295-0.952,0.486-1.408H25.642c-2.652,0-4.808,2.156-4.808,4.81v33.797
			c0,2.649,2.155,4.81,4.808,4.81h16.46v3.148c-0.847,0.242-1.504,0.898-1.747,1.746h-4.957v1.41h4.958
			c0.306,1.066,1.281,1.857,2.451,1.857c1.168,0,2.144-0.791,2.451-1.857h4.955v-1.41H45.26c-0.244-0.848-0.902-1.504-1.748-1.746
			v-3.148h16.457c2.654,0,4.811-2.158,4.811-4.81V48.636C64.307,48.646,63.838,48.656,63.369,48.664z"/>
	</g>
</g>
</svg>
