<?xml version="1.0" encoding="utf-8"?>
<!-- Generator: Adobe Illustrator 16.0.0, SVG Export Plug-In . SVG Version: 6.00 Build 0)  -->
<!DOCTYPE svg PUBLIC "-//W3C//DTD SVG 1.1//EN" "http://www.w3.org/Graphics/SVG/1.1/DTD/svg11.dtd">
<svg version="1.1" id="Layer_1" xmlns="http://www.w3.org/2000/svg" xmlns:xlink="http://www.w3.org/1999/xlink" x="0px" y="0px"
	 width="100px" height="100px" viewBox="0 0 100 100" enable-background="new 0 0 100 100" xml:space="preserve">
<g id="Tablet_with_Bubble_Chart_1_">
	<g>
		<path fill="#1B2837" d="M83.688,78.02c2.689,0,4.867-2.178,4.867-4.867V32.211c0-2.687-2.178-4.866-4.867-4.866H17.012
			c-2.689,0-4.868,2.18-4.868,4.866v40.941c0,2.688,2.179,4.867,4.868,4.867H83.688L83.688,78.02z M83.572,30.149v45.067H17.091
			V30.149H83.572L83.572,30.149z"/>
		<g>
			<path fill="#1B2837" d="M20.223,35.328v36.538h18.599V35.328H20.223z M36.266,69.131H22.779v-3.156h13.487V69.131z
				 M36.266,62.152H22.779v-3.154h13.487V62.152z M36.266,55.176H22.779V52.02h13.487V55.176z M36.266,48.199H22.779v-3.156h13.487
				V48.199z M36.266,41.223H22.779v-3.157h13.487V41.223z"/>
			<g>
				<circle fill="#1B2837" cx="72.201" cy="41.367" r="4.823"/>
				<path fill="#1B2837" d="M53.393,61.65c0,2.145,1.738,3.883,3.881,3.883c2.146,0,3.884-1.738,3.884-3.883
					c0-2.142-1.738-3.879-3.884-3.879C55.131,57.771,53.393,59.51,53.393,61.65z"/>
				<circle fill="#1B2837" cx="55.184" cy="45.719" r="2.09"/>
				<circle fill="#1B2837" cx="72.2" cy="53.48" r="1.688"/>
				<circle fill="#1B2837" cx="74.9" cy="64.352" r="2.701"/>
				<circle fill="#1B2837" cx="63.854" cy="52.294" r="2.323"/>
			</g>
		</g>
	</g>
</g>
<path fill="none" stroke="#1B2837" stroke-miterlimit="10" d="M63.047,84.5H37.652v-1.471c0-1.48,1.205-2.686,2.686-2.686h20.023
	c1.479,0,2.686,1.204,2.686,2.686V84.5z M38.652,83.5h23.395v-0.471c0-0.93-0.756-1.686-1.686-1.686H40.338
	c-0.93,0-1.686,0.756-1.686,1.686V83.5z"/>
<path fill="none" stroke="#1B2837" stroke-miterlimit="10" d="M55.145,81.346h-9.588v-4.367h9.588V81.346z M46.556,80.346h7.588
	v-2.367h-7.588V80.346z"/>
<g>
	<polygon fill="#FFFFFF" points="40.454,19.7 40.454,33.618 45.72,40.935 50.349,44.115 55.064,40.935 59.132,35.898 60.021,31.006 
		60.279,19.7 54.574,19.109 50.366,14.171 45.791,18.887 	"/>
	<g>
		<path fill="#FFFFFF" d="M50.366,47.809l-0.709-0.538C39.463,39.522,38.786,36.162,38.29,33.709l-0.08-0.392
			c-0.817-3.783-0.057-14.847-0.025-15.318l0.078-1.102h6.323l5.81-6.285l5.517,6.287h6.582l0.065,1.113
			c0.029,0.467,0.686,11.488-0.018,15.271c-0.594,3.205-1.97,6.928-11.463,13.993L50.366,47.809z M40.479,19.267
			c-0.173,2.907-0.561,10.743,0.045,13.551l0.087,0.421c0.41,2.032,0.968,4.795,9.767,11.603c8.858-6.731,9.445-9.884,9.836-11.988
			c0.526-2.841,0.19-10.667,0.043-13.586h-5.419l-4.489-5.115l-4.727,5.115L40.479,19.267L40.479,19.267z"/>
	</g>
	<g>
		<path fill="#1B2837" d="M50.364,45.808l-0.633-0.48c-9.097-6.915-9.702-9.913-10.144-12.104l-0.071-0.348
			c-0.729-3.377-0.051-13.25-0.022-13.671l0.069-0.982h5.643l5.184-5.609l4.922,5.611h5.875l0.06,0.992
			c0.024,0.417,0.61,10.253-0.017,13.628c-0.529,2.861-1.758,6.183-10.229,12.488L50.364,45.808z M41.542,20.337
			c-0.155,2.594-0.501,9.587,0.04,12.092l0.078,0.376c0.366,1.813,0.864,4.278,8.716,10.354c7.906-6.007,8.429-8.821,8.776-10.699
			c0.471-2.534,0.171-9.519,0.039-12.123h-4.836l-4.006-4.565l-4.218,4.565H41.542z"/>
	</g>
	<g>
		<g>
			<path fill="#1B2837" d="M49.265,34.967l-5.611-5.268c-0.585-0.551-0.615-1.472-0.065-2.06c0.55-0.585,1.473-0.615,2.06-0.064
				l3.469,3.257l5.858-6.333c0.547-0.59,1.469-0.628,2.059-0.08c0.592,0.546,0.628,1.467,0.08,2.059L49.265,34.967z"/>
		</g>
	</g>
</g>
</svg>
