<?xml version="1.0" encoding="utf-8"?>
<!-- Generator: Adobe Illustrator 16.0.0, SVG Export Plug-In . SVG Version: 6.00 Build 0)  -->
<!DOCTYPE svg PUBLIC "-//W3C//DTD SVG 1.1//EN" "http://www.w3.org/Graphics/SVG/1.1/DTD/svg11.dtd">
<svg version="1.1" id="Layer_1" xmlns="http://www.w3.org/2000/svg" xmlns:xlink="http://www.w3.org/1999/xlink" x="0px" y="0px"
	 width="60px" height="60px" viewBox="0 0 60 60" enable-background="new 0 0 60 60" xml:space="preserve">
<g>
	<path fill="#1B2837" d="M45.154,43.637v-5.496c0-0.201-0.153-0.363-0.355-0.363c-1.041,0-1.893-0.756-1.893-1.691
		s0.852-1.701,1.893-1.701c0.202,0,0.355-0.162,0.355-0.363v-2.639c0-0.191-0.135-0.346-0.316-0.363l-11.604-1.176l-11.54,1.176
		c-0.183,0.019-0.315,0.172-0.315,0.363v2.639c0,0.201,0.162,0.363,0.354,0.363c1.043,0,1.893,0.766,1.893,1.701
		s-0.85,1.691-1.893,1.691c-0.191,0-0.354,0.162-0.354,0.363v5.479c-0.02,0.295-0.268,7.38,11.69,15.314
		C33.137,58.979,33.203,59,33.271,59c0.065,0,0.144-0.021,0.199-0.066C45.423,50.998,45.172,43.913,45.154,43.637z M33.271,58.206
		c-11.377-7.638-11.187-14.483-11.176-14.569v-5.162c1.262-0.162,2.247-1.176,2.247-2.39c0-1.224-0.985-2.237-2.247-2.399v-1.988
		l11.137-1.137l11.203,1.137v1.988c-1.262,0.162-2.248,1.176-2.248,2.399c0,1.214,0.986,2.228,2.248,2.39v5.182
		C44.445,43.723,44.637,50.568,33.271,58.206z"/>
	<path fill="#1B2837" d="M24.861,1.192H6.144C3.313,1.192,1,3.496,1,6.325V50.71c0,2.83,2.313,5.136,5.144,5.136h18.718
		c0.641,0,1.263-0.115,1.826-0.346l-0.604-0.555c-0.391,0.125-0.803,0.184-1.223,0.184H6.144c-2.438,0-4.426-1.979-4.426-4.419
		V6.325c0-2.438,1.988-4.417,4.426-4.417h18.718c2.438,0,4.416,1.979,4.416,4.417v22.762h0.717V6.325
		C29.994,3.496,27.69,1.192,24.861,1.192z"/>
	<path fill="#1B2837" d="M23.756,14.056H7.264c-0.955,0-1.732-0.777-1.732-1.732c0-0.955,0.778-1.732,1.732-1.732h16.492
		c0.953,0,1.731,0.777,1.731,1.732C25.487,13.279,24.709,14.056,23.756,14.056z M7.264,11.309c-0.56,0-1.015,0.455-1.015,1.015
		c0,0.56,0.456,1.016,1.015,1.016h16.492c0.559,0,1.015-0.455,1.015-1.016c0-0.561-0.456-1.015-1.015-1.015H7.264z"/>
	<path fill="#1B2837" d="M23.756,19.015H7.264c-0.955,0-1.732-0.777-1.732-1.732c0-0.957,0.778-1.733,1.732-1.733h16.492
		c0.953,0,1.731,0.777,1.731,1.733C25.487,18.238,24.709,19.015,23.756,19.015z M7.264,16.268c-0.56,0-1.015,0.455-1.015,1.016
		c0,0.56,0.456,1.015,1.015,1.015h16.492c0.559,0,1.015-0.455,1.015-1.015c0-0.561-0.456-1.016-1.015-1.016H7.264z"/>
	<path fill="#1B2837" d="M23.756,23.975H7.264c-0.955,0-1.732-0.777-1.732-1.732c0-0.957,0.778-1.733,1.732-1.733h16.492
		c0.953,0,1.731,0.777,1.731,1.733C25.487,23.197,24.709,23.975,23.756,23.975z M7.264,21.227c-0.56,0-1.015,0.455-1.015,1.015
		c0,0.56,0.456,1.015,1.015,1.015h16.492c0.559,0,1.015-0.455,1.015-1.015c0-0.56-0.456-1.015-1.015-1.015H7.264z"/>
	<path fill="#1B2837" d="M15.502,44.514c-1.757,0-3.186-1.429-3.186-3.186c0-1.758,1.429-3.188,3.186-3.188s3.188,1.43,3.188,3.188
		C18.689,43.085,17.259,44.514,15.502,44.514z M15.502,38.857c-1.361,0-2.469,1.107-2.469,2.471c0,1.361,1.108,2.468,2.469,2.468
		c1.362,0,2.471-1.106,2.471-2.468C17.973,39.966,16.864,38.857,15.502,38.857z"/>
	<path fill="#1B2837" d="M15.503,50.697c-1.367,0-2.479-1.113-2.479-2.479s1.112-2.479,2.479-2.479c1.366,0,2.478,1.112,2.478,2.479
		C17.98,49.584,16.869,50.697,15.503,50.697z M15.503,46.457c-0.971,0-1.762,0.791-1.762,1.762s0.791,1.762,1.762,1.762
		c0.971,0,1.761-0.791,1.761-1.762S16.474,46.457,15.503,46.457z"/>
</g>
</svg>
