<?xml version="1.0" encoding="utf-8"?>
<!-- Generator: Adobe Illustrator 16.0.0, SVG Export Plug-In . SVG Version: 6.00 Build 0)  -->
<!DOCTYPE svg PUBLIC "-//W3C//DTD SVG 1.1//EN" "http://www.w3.org/Graphics/SVG/1.1/DTD/svg11.dtd">
<svg version="1.1" id="Layer_1" xmlns="http://www.w3.org/2000/svg" xmlns:xlink="http://www.w3.org/1999/xlink" x="0px" y="0px"
	 width="30px" height="30px" viewBox="0 0 30 30" enable-background="new 0 0 30 30" xml:space="preserve">
<path fill="#FFFFFF" d="M26.891,18.057c0,0.91-0.74,1.65-1.652,1.65l0,0c-0.91,0-1.649-0.74-1.649-1.65v-7.418
	c0-0.911,0.739-1.65,1.649-1.65l0,0c0.912,0,1.652,0.739,1.652,1.65V18.057z"/>
<path fill="#FFFFFF" d="M6.411,18.057c0,0.91-0.739,1.65-1.65,1.65l0,0c-0.912,0-1.651-0.74-1.651-1.65v-7.418
	c0-0.911,0.739-1.65,1.651-1.65l0,0c0.912,0,1.65,0.739,1.65,1.65V18.057z"/>
<path fill="#FFFFFF" d="M18.736,2.793l1.332-1.883c0.029-0.039-0.012-0.113-0.088-0.168c-0.076-0.053-0.16-0.066-0.188-0.027
	L18.421,2.65C17.495,2.287,16.371,2.06,15,2.056c-1.379-0.005-2.507,0.216-3.437,0.574l-1.358-1.915
	c-0.027-0.039-0.112-0.026-0.188,0.027C9.941,0.796,9.901,0.871,9.929,0.91l1.318,1.86C7.425,4.461,7.303,8.602,7.303,8.602h15.392
	C22.695,8.602,22.529,4.5,18.736,2.793z M11.622,6.175c-0.512,0-0.927-0.415-0.927-0.927c0-0.511,0.415-0.926,0.927-0.926
	c0.512,0,0.927,0.416,0.927,0.926C12.548,5.76,12.133,6.175,11.622,6.175z M18.378,6.175c-0.512,0-0.927-0.415-0.927-0.927
	c0-0.511,0.415-0.926,0.927-0.926c0.513,0,0.927,0.416,0.927,0.926C19.305,5.76,18.891,6.175,18.378,6.175z"/>
<path fill="#FFFFFF" d="M22.762,9.516h-0.943H8.181H7.239v6.388h0.015v6.701c0,0.513,0.416,0.928,0.928,0.928h1.982v4.124
	c0,0.911,0.74,1.651,1.651,1.651s1.65-0.74,1.65-1.651v-4.124h3.071v4.124c0,0.911,0.737,1.651,1.649,1.651s1.65-0.74,1.65-1.651
	v-4.124h1.982c0.513,0,0.928-0.415,0.928-0.928v-6.701h0.016V9.516z"/>
</svg>
