<?xml version="1.0" encoding="utf-8"?>
<!-- Generator: Adobe Illustrator 16.0.0, SVG Export Plug-In . SVG Version: 6.00 Build 0)  -->
<!DOCTYPE svg PUBLIC "-//W3C//DTD SVG 1.1//EN" "http://www.w3.org/Graphics/SVG/1.1/DTD/svg11.dtd">
<svg version="1.1" id="Layer_1" xmlns="http://www.w3.org/2000/svg" xmlns:xlink="http://www.w3.org/1999/xlink" x="0px" y="0px"
	 width="30px" height="30px" viewBox="0 0 30 30" enable-background="new 0 0 30 30" xml:space="preserve">
<g>
	<path fill-rule="evenodd" clip-rule="evenodd" fill="#333333" d="M3.062,11.863c1.589,0,2.884,1.295,2.884,2.885
		c0,1.589-1.295,2.886-2.884,2.886c-1.589,0-2.886-1.297-2.886-2.886C0.176,13.158,1.473,11.863,3.062,11.863L3.062,11.863z
		 M15.919,3.316c0.71,0,1.408,0.068,2.083,0.196c-0.011,0.123-0.019,0.247-0.019,0.373c0,2.215,1.808,4.023,4.021,4.023
		c0.87,0,1.677-0.279,2.337-0.751c1.532,1.754,2.525,3.986,2.723,6.438l-4.554,0.141c-0.382-3.297-3.195-5.873-6.592-5.873
		c-0.96,0-1.874,0.206-2.699,0.576l-2.279-3.949C12.441,3.74,14.132,3.316,15.919,3.316L15.919,3.316z"/>
	<path fill-rule="evenodd" clip-rule="evenodd" fill="#333333" d="M22.161,22.881c1.589,0,2.886,1.296,2.886,2.886
		c0,1.589-1.297,2.886-2.886,2.886c-1.59,0-2.887-1.297-2.887-2.886C19.274,24.177,20.571,22.881,22.161,22.881L22.161,22.881z
		 M9.537,23.676c-1.944-1.357-3.441-3.316-4.216-5.603c1.064-0.726,1.763-1.946,1.763-3.325c0-1.434-0.757-2.696-1.893-3.409
		c0.716-2.42,2.233-4.503,4.24-5.939l2.401,3.877c-1.552,1.216-2.551,3.107-2.551,5.223c0,2.098,0.982,3.974,2.51,5.191
		L9.537,23.676L9.537,23.676z"/>
	<path fill-rule="evenodd" clip-rule="evenodd" fill="#333333" d="M27.074,15.289c-0.187,2.668-1.315,5.082-3.057,6.909
		c-0.557-0.29-1.188-0.455-1.856-0.455c-2.113,0-3.854,1.644-4.011,3.716c-0.722,0.147-1.47,0.225-2.231,0.225
		c-1.752,0-3.411-0.405-4.89-1.129l2.27-3.959c0.803,0.348,1.689,0.542,2.62,0.542c3.413,0,6.238-2.601,6.597-5.921L27.074,15.289
		L27.074,15.289z M22.005,1c1.592,0,2.887,1.296,2.887,2.885c0,1.59-1.295,2.886-2.887,2.886c-1.589,0-2.886-1.296-2.886-2.886
		C19.119,2.296,20.416,1,22.005,1L22.005,1z"/>
</g>
</svg>
