<?xml version="1.0" encoding="utf-8"?>
<!-- Generator: Adobe Illustrator 16.0.0, SVG Export Plug-In . SVG Version: 6.00 Build 0)  -->
<!DOCTYPE svg PUBLIC "-//W3C//DTD SVG 1.1//EN" "http://www.w3.org/Graphics/SVG/1.1/DTD/svg11.dtd">
<svg version="1.1" id="Layer_1" xmlns="http://www.w3.org/2000/svg" xmlns:xlink="http://www.w3.org/1999/xlink" x="0px" y="0px"
	 width="60px" height="60px" viewBox="0 0 60 60" enable-background="new 0 0 60 60" xml:space="preserve">
<path fill="none" stroke="#FFFFFF" stroke-width="0.7072" stroke-miterlimit="10" d="M35.605,39.82
	c3.944,2.44,6.426,5.982,6.426,9.922c0,1.781-0.504,3.475-1.42,5.025c-5.235-0.912-11.379-1.438-17.945-1.438
	c-6.569,0-12.71,0.526-17.947,1.438c-0.917-1.552-1.422-3.244-1.422-5.025c0-3.938,2.482-7.48,6.426-9.922
	c3.5,2.94,8.014,4.716,12.943,4.716S32.109,42.762,35.605,39.82z"/>
<path fill="none" stroke="#FFFFFF" stroke-width="0.7072" stroke-miterlimit="10" d="M41.698,56.033
	c-0.241,0.883-0.606,1.734-1.087,2.549c-5.235-0.916-11.379-1.439-17.945-1.439c-6.569,0-12.71,0.523-17.947,1.439
	c-0.479-0.814-0.848-1.666-1.086-2.549c5.464-1.034,12.003-1.637,19.033-1.637C29.694,54.396,36.232,54.999,41.698,56.033z"/>
<path fill="#FFFFFF" d="M26.02,9.274c-7.622,0-13.801,6.179-13.801,13.801s6.179,13.801,13.801,13.801
	c7.623,0,13.8-6.179,13.8-13.801S33.643,9.274,26.02,9.274z M26.02,34.288c-6.193,0-11.214-5.021-11.214-11.214
	S19.827,11.86,26.02,11.86c6.193,0,11.214,5.021,11.214,11.214S32.213,34.288,26.02,34.288z"/>
<circle fill="#FFFFFF" cx="27.698" cy="23.838" r="6.558"/>
<path fill="none" stroke="#FFFFFF" stroke-width="0.7072" stroke-miterlimit="10" d="M22.666,2.254
	c-1.023,0-2.021,0.101-3.004,0.249c-0.26-1.039-1.183-1.816-2.301-1.816c-1.319,0-2.39,1.071-2.39,2.39
	c0,0.232,0.045,0.455,0.107,0.668C7.729,6.742,2.544,13.949,2.544,22.374c0,11.112,9.01,20.118,20.122,20.118
	c11.109,0,20.121-9.006,20.121-20.118C42.787,11.263,33.775,2.254,22.666,2.254z"/>
</svg>
