<?xml version="1.0" encoding="utf-8"?>
<!-- Generator: Adobe Illustrator 16.0.0, SVG Export Plug-In . SVG Version: 6.00 Build 0)  -->
<!DOCTYPE svg PUBLIC "-//W3C//DTD SVG 1.1//EN" "http://www.w3.org/Graphics/SVG/1.1/DTD/svg11.dtd">
<svg version="1.1" id="Layer_1" xmlns="http://www.w3.org/2000/svg" xmlns:xlink="http://www.w3.org/1999/xlink" x="0px" y="0px"
	 width="25px" height="25px" viewBox="0 0 25 25" enable-background="new 0 0 25 25" xml:space="preserve">
<g>
	<rect x="3.934" y="9.57" fill="#FFFFFF" width="3.768" height="11.633"/>
	<path fill="#FFFFFF" d="M6.064,3.876c-1.289,0-2.131,0.868-2.131,2.009c0,1.117,0.818,2.012,2.082,2.012h0.025
		c1.312,0,2.131-0.895,2.131-2.012C8.147,4.744,7.354,3.876,6.064,3.876z"/>
	<path fill="#FFFFFF" d="M17.195,9.57c-2.001,0-2.896,1.129-3.396,1.922V9.844H10.03c0.05,1.092,0,11.633,0,11.633h3.769v-6.498
		c0-0.346,0.023-0.693,0.123-0.942c0.273-0.694,0.893-1.413,1.934-1.413c1.365,0,1.91,1.066,1.91,2.629v6.225h3.768v-6.671
		C21.533,11.234,19.674,9.57,17.195,9.57z"/>
</g>
</svg>
