<?xml version="1.0" encoding="utf-8"?>
<!-- Generator: Adobe Illustrator 16.0.0, SVG Export Plug-In . SVG Version: 6.00 Build 0)  -->
<!DOCTYPE svg PUBLIC "-//W3C//DTD SVG 1.1//EN" "http://www.w3.org/Graphics/SVG/1.1/DTD/svg11.dtd">
<svg version="1.1" id="Layer_1" xmlns="http://www.w3.org/2000/svg" xmlns:xlink="http://www.w3.org/1999/xlink" x="0px" y="0px"
	 width="25px" height="25px" viewBox="0 0 25 25" enable-background="new 0 0 25 25" xml:space="preserve">
<g>
	<path fill="#FFFFFF" d="M14.72,11.258c-0.216,0-0.462,0.114-0.682,0.329l-0.001,4.384c0.219,0.219,0.467,0.329,0.683,0.329
		c0.378,0,0.547-0.277,0.547-1v-3.107C15.267,11.47,15.098,11.258,14.72,11.258z"/>
	<g>
		<path fill="#FFFFFF" d="M20.109,12.126c0-0.668-0.173-0.869-0.606-0.869c-0.437,0-0.622,0.184-0.622,0.859v0.8l1.229-0.001V12.126
			z"/>
		<path fill="#FFFFFF" d="M23.075,8.428c0,0-0.211-1.481-0.857-2.133c-0.821-0.856-1.741-0.859-2.162-0.91
			c-3.021-0.217-7.551-0.217-7.551-0.217h-0.009c0,0-4.53,0-7.55,0.217c-0.422,0.05-1.341,0.054-2.162,0.91
			C2.137,6.947,1.926,8.428,1.926,8.428S1.71,10.166,1.71,11.905v1.63c0,1.738,0.216,3.478,0.216,3.478s0.211,1.479,0.858,2.132
			C3.604,20,4.683,19.974,5.163,20.062c1.727,0.166,7.338,0.216,7.338,0.216s4.534-0.007,7.555-0.224
			c0.421-0.05,1.341-0.055,2.162-0.91c0.646-0.652,0.857-2.132,0.857-2.132s0.216-1.739,0.216-3.478v-1.63
			C23.291,10.166,23.075,8.428,23.075,8.428z M6.45,17.396H5.005v-8.31H3.486V7.714L8.04,7.712v1.373H6.45V17.396z M11.653,17.396
			H10.28v-0.795c-0.521,0.598-0.961,0.898-1.442,0.898c-0.422,0-0.715-0.199-0.862-0.559c-0.089-0.219-0.152-0.561-0.152-1.062
			v-5.708h1.373v5.347c0,0.307,0,0.434,0,0.506C9.229,16.226,9.314,16.3,9.49,16.3c0.263,0,0.5-0.229,0.791-0.639v-5.492h1.373
			V17.396z M16.641,15.228c0,0.668-0.058,1.14-0.145,1.445c-0.175,0.537-0.556,0.816-1.077,0.816c-0.465,0-0.941-0.279-1.378-0.821
			l-0.003,0.728h-1.301V7.712h1.301l-0.001,3.156c0.423-0.52,0.901-0.815,1.382-0.815c0.521,0,0.872,0.301,1.046,0.841
			c0.088,0.291,0.176,0.758,0.176,1.443V15.228z M19.515,16.3c0.322,0,0.511-0.176,0.585-0.524c0.013-0.071,0.01-0.384,0.01-0.909
			h1.373v0.205c0,0.422-0.034,0.721-0.046,0.851c-0.045,0.29-0.147,0.554-0.307,0.784c-0.362,0.524-0.899,0.783-1.582,0.783
			c-0.685,0-1.205-0.246-1.584-0.739c-0.277-0.362-0.456-0.899-0.456-1.667v-2.529c0-0.772,0.162-1.369,0.439-1.734
			c0.379-0.494,0.9-0.755,1.567-0.755c0.657,0,1.178,0.261,1.545,0.755c0.273,0.366,0.425,0.931,0.425,1.702l0.001,1.478h-2.604
			v1.298C18.876,15.965,19.066,16.3,19.515,16.3z"/>
	</g>
</g>
</svg>
