<?xml version="1.0" encoding="utf-8"?>
<!-- Generator: Adobe Illustrator 16.0.0, SVG Export Plug-In . SVG Version: 6.00 Build 0)  -->
<!DOCTYPE svg PUBLIC "-//W3C//DTD SVG 1.1//EN" "http://www.w3.org/Graphics/SVG/1.1/DTD/svg11.dtd">
<svg version="1.1" id="Layer_1" xmlns="http://www.w3.org/2000/svg" xmlns:xlink="http://www.w3.org/1999/xlink" x="0px" y="0px"
	 width="25px" height="25px" viewBox="0 0 25 25" enable-background="new 0 0 25 25" xml:space="preserve">
<g>
	<path fill="#FFFFFF" d="M12.727,8.72l0.039,0.657l-0.637-0.08C9.814,8.988,7.793,7.941,6.076,6.184l-0.84-0.871L5.021,5.955
		C4.562,7.392,4.855,8.907,5.809,9.927c0.508,0.563,0.395,0.645-0.482,0.309c-0.306-0.106-0.572-0.188-0.598-0.147
		c-0.09,0.094,0.215,1.314,0.457,1.797c0.33,0.672,1.005,1.33,1.742,1.719l0.623,0.309l-0.736,0.014
		c-0.713,0-0.738,0.013-0.662,0.295c0.254,0.871,1.258,1.797,2.378,2.201l0.788,0.281l-0.687,0.43
		c-1.017,0.617-2.212,0.965-3.407,0.992c-0.572,0.014-1.043,0.066-1.043,0.107c0,0.135,1.551,0.886,2.454,1.182
		c2.708,0.871,5.926,0.496,8.343-0.994c1.717-1.06,3.434-3.166,4.234-5.205c0.432-1.088,0.864-3.073,0.864-4.026
		c0-0.617,0.038-0.696,0.751-1.435c0.418-0.43,0.814-0.9,0.89-1.034c0.128-0.255,0.114-0.255-0.534-0.026
		c-1.08,0.402-1.234,0.35-0.699-0.255c0.394-0.43,0.865-1.208,0.865-1.437c0-0.039-0.191,0.027-0.408,0.148
		c-0.229,0.135-0.736,0.335-1.118,0.456l-0.688,0.228l-0.622-0.442c-0.344-0.241-0.827-0.509-1.081-0.59
		c-0.649-0.188-1.641-0.161-2.226,0.054C13.617,5.459,12.612,7.016,12.727,8.72C12.727,8.72,12.612,7.016,12.727,8.72z"/>
</g>
</svg>
